<svg xmlns="http://www.w3.org/2000/svg" xmlns:xlink="http://www.w3.org/1999/xlink" width="24" height="24" viewBox="0 0 24 24">
  <defs>
    <clipPath id="clip-path">
      <rect id="사각형_31776" data-name="사각형 31776" width="24" height="24" transform="translate(3872 961)" fill="#fff" stroke="#707070" stroke-width="1"/>
    </clipPath>
  </defs>
  <g id="마스크_그룹_46553" data-name="마스크 그룹 46553" transform="translate(-3872 -961)" clip-path="url(#clip-path)">
    <g id="one_by_one" transform="translate(3873.284 962.284)">
      <path id="패스_53107" data-name="패스 53107" d="M3,8.744V3.257A.227.227,0,0,1,3.257,3H8.744A.227.227,0,0,1,9,3.257V8.744A.227.227,0,0,1,8.744,9H3.257A.227.227,0,0,1,3,8.744Z" fill="#fff" stroke="#fff" stroke-width="1.4"/>
      <path id="패스_53108" data-name="패스 53108" d="M14,8.744V3.257A.227.227,0,0,1,14.257,3h5.487A.227.227,0,0,1,20,3.257V8.744A.227.227,0,0,1,19.744,9H14.257A.227.227,0,0,1,14,8.744Z" transform="translate(-1.569)" fill="#fff" stroke="#fff" stroke-width="1.4"/>
      <path id="패스_53109" data-name="패스 53109" d="M3,19.744V14.257A.227.227,0,0,1,3.257,14H8.744A.227.227,0,0,1,9,14.257v5.487A.227.227,0,0,1,8.744,20H3.257A.227.227,0,0,1,3,19.744Z" transform="translate(0 -1.569)" fill="#fff" stroke="#fff" stroke-width="1.4"/>
      <path id="패스_53110" data-name="패스 53110" d="M3,19.744V14.257A.227.227,0,0,1,3.257,14H8.744A.227.227,0,0,1,9,14.257v5.487A.227.227,0,0,1,8.744,20H3.257A.227.227,0,0,1,3,19.744Z" transform="translate(9.431 -1.569)" fill="#fff" stroke="#fff" stroke-width="1.4"/>
    </g>
  </g>
</svg>
