<svg xmlns="http://www.w3.org/2000/svg" width="16.832" height="16.832" viewBox="0 0 16.832 16.832">
  <g id="one_by_one" transform="translate(-2.3 -2.3)">
    <path id="패스_53107" data-name="패스 53107" d="M3,8.744V3.257A.227.227,0,0,1,3.257,3H8.744A.227.227,0,0,1,9,3.257V8.744A.227.227,0,0,1,8.744,9H3.257A.227.227,0,0,1,3,8.744Z" transform="translate(0 0)" fill="#fff" stroke="#fff" stroke-width="1.4"/>
    <path id="패스_53108" data-name="패스 53108" d="M14,8.744V3.257A.227.227,0,0,1,14.257,3h5.487A.227.227,0,0,1,20,3.257V8.744A.227.227,0,0,1,19.744,9H14.257A.227.227,0,0,1,14,8.744Z" transform="translate(-1.569 0)" fill="#fff" stroke="#fff" stroke-width="1.4"/>
    <path id="패스_53109" data-name="패스 53109" d="M3,19.744V14.257A.227.227,0,0,1,3.257,14H8.744A.227.227,0,0,1,9,14.257v5.487A.227.227,0,0,1,8.744,20H3.257A.227.227,0,0,1,3,19.744Z" transform="translate(0 -1.569)" fill="#fff" stroke="#fff" stroke-width="1.4"/>
    <path id="패스_53110" data-name="패스 53110" d="M3,19.744V14.257A.227.227,0,0,1,3.257,14H8.744A.227.227,0,0,1,9,14.257v5.487A.227.227,0,0,1,8.744,20H3.257A.227.227,0,0,1,3,19.744Z" transform="translate(9.431 -1.569)" fill="#fff" stroke="#fff" stroke-width="1.4"/>
  </g>
</svg>
