<svg width="24" height="24" viewBox="0 0 24 24" fill="none" xmlns="http://www.w3.org/2000/svg">
<path d="M3 9.7V3.3C3 3.13431 3.13431 3 3.3 3H9.7C9.86569 3 10 3.13431 10 3.3V9.7C10 9.86569 9.86569 10 9.7 10H3.3C3.13431 10 3 9.86569 3 9.7Z" stroke="black" stroke-width="2"/>
<path d="M14 9.7V3.3C14 3.13431 14.1343 3 14.3 3H20.7C20.8657 3 21 3.13431 21 3.3V9.7C21 9.86569 20.8657 10 20.7 10H14.3C14.1343 10 14 9.86569 14 9.7Z" fill="black" stroke="black" stroke-width="2"/>
<path d="M3 20.7V14.3C3 14.1343 3.13431 14 3.3 14H9.7C9.86569 14 10 14.1343 10 14.3V20.7C10 20.8657 9.86569 21 9.7 21H3.3C3.13431 21 3 20.8657 3 20.7Z" stroke="black" stroke-width="2"/>
<path d="M14 20.7V14.3C14 14.1343 14.1343 14 14.3 14H20.7C20.8657 14 21 14.1343 21 14.3V20.7C21 20.8657 20.8657 21 20.7 21H14.3C14.1343 21 14 20.8657 14 20.7Z" fill="black" stroke="black" stroke-width="2"/>
</svg>
