<svg xmlns="http://www.w3.org/2000/svg" width="20.69" height="20.063" viewBox="0 0 20.69 20.063">
  <path id="_7787587_refresh_reload_sync_arrow_down_icon" data-name="7787587_refresh_reload_sync_arrow_down_icon" d="M17.5,22.508a1.254,1.254,0,0,1,1.254-1.254h3.762a2.515,2.515,0,0,1,2.508,2.508v3.762a1.254,1.254,0,0,1-2.508,0V25.078a7.366,7.366,0,0,0-1.881,4.953,7.524,7.524,0,1,0,7.524-7.524,1.254,1.254,0,0,1,0-2.508A10.031,10.031,0,1,1,18.127,30.031a9.9,9.9,0,0,1,2.194-6.27H18.754A1.254,1.254,0,0,1,17.5,22.508Z" transform="translate(-17.5 -20)" fill="#3b3b3b"/>
</svg>
