<svg xmlns="http://www.w3.org/2000/svg" width="16" height="16" viewBox="0 0 16 16">
  <g id="그룹_7633" data-name="그룹 7633" transform="translate(-197 -51)">
    <rect id="사각형_29616" data-name="사각형 29616" width="16" height="16" transform="translate(197 51)" fill="none"/>
    <g id="users" transform="translate(181.525 -1.485)">
      <path id="패스_9895" data-name="패스 9895" d="M20.485,60.485a2.242,2.242,0,1,1,2.242-2.242A2.242,2.242,0,0,1,20.485,60.485Zm5.98,0a2.242,2.242,0,1,1,2.242-2.242A2.242,2.242,0,0,1,26.465,60.485Zm-5.98,1.495A5.965,5.965,0,0,1,24.97,64v.966H16V64a5.965,5.965,0,0,1,4.485-2.024Zm5.98,2.99V63.439l-.374-.424a7.517,7.517,0,0,0-.934-.892A5.991,5.991,0,0,1,30.95,64v.966Z" fill="#2b2a30" fill-rule="evenodd"/>
    </g>
  </g>
</svg>
