<svg xmlns="http://www.w3.org/2000/svg" width="16" height="16" viewBox="0 0 16 16">
  <g id="그룹_7634" data-name="그룹 7634" transform="translate(-200 -26)">
    <g id="database_solid" transform="translate(190.359 20.837)">
      <path id="패스_9893" data-name="패스 9893" d="M13.8,7.9a9.862,9.862,0,0,1,3.84-.7,9.862,9.862,0,0,1,3.841.7,3.947,3.947,0,0,1,1.259.824,1.81,1.81,0,0,1,.532,1.044,2.512,2.512,0,0,1-1.526,1.7,9.035,9.035,0,0,1-4.105.888,9.035,9.035,0,0,1-4.105-.888,2.513,2.513,0,0,1-1.526-1.7,1.81,1.81,0,0,1,.532-1.044A3.947,3.947,0,0,1,13.8,7.9Zm8.4,4.423a5.18,5.18,0,0,0,1.085-.748v1.264c0,.621-.487,1.3-1.535,1.851a9.034,9.034,0,0,1-4.105.888,9.035,9.035,0,0,1-4.105-.888C12.487,14.14,12,13.462,12,12.841V11.576a5.18,5.18,0,0,0,1.085.748,9.99,9.99,0,0,0,4.556,1A9.99,9.99,0,0,0,22.2,12.324ZM12,14.8v1.587a1.75,1.75,0,0,0,.541,1.214,3.948,3.948,0,0,0,1.259.824,9.862,9.862,0,0,0,3.84.7,9.862,9.862,0,0,0,3.841-.7A3.947,3.947,0,0,0,22.74,17.6a1.75,1.75,0,0,0,.541-1.214V14.8a5.178,5.178,0,0,1-1.085.748,9.99,9.99,0,0,1-4.556,1,9.99,9.99,0,0,1-4.556-1A5.178,5.178,0,0,1,12,14.8Z" transform="translate(0 0)" fill="#2b2a30" fill-rule="evenodd"/>
    </g>
    <rect id="사각형_29617" data-name="사각형 29617" width="16" height="16" transform="translate(200 26)" fill="none"/>
  </g>
</svg>
