<svg xmlns="http://www.w3.org/2000/svg" width="16" height="16" viewBox="0 0 16 16">
  <g id="그룹_7635" data-name="그룹 7635" transform="translate(-200 -51)">
    <g id="data-cluster-solid" transform="translate(190.622 31.451)">
      <path id="패스_9890" data-name="패스 9890" d="M104.424,21.746c-1.569,0-3.154.555-3.154,1.611v.66c2.229.109,3.785,1.093,3.785,2.422v2.818l.021.025c1.316-.135,2.481-.673,2.481-1.577V23.357C107.578,22.3,105.993,21.746,104.424,21.746Z" transform="translate(-83.461 -0.049)" fill="#2b2a30"/>
      <path id="패스_9891" data-name="패스 9891" d="M16.968,23.968v-.66c0-1.06-1.585-1.615-3.154-1.615s-3.154.559-3.154,1.615v4.344c0,.908,1.165,1.442,2.481,1.581l.042-.029V26.386C13.183,25.062,14.739,24.078,16.968,23.968Z" fill="#2b2a30"/>
      <path id="패스_9892" data-name="패스 9892" d="M53.473,57.83c-2.073,0-3.638.791-3.638,1.842v5.177c0,1.051,1.564,1.842,3.638,1.842s3.638-.791,3.638-1.842v-.908a5.711,5.711,0,0,1-3.638,1.1,7.053,7.053,0,0,1-2.523-.421v-.728a6.1,6.1,0,0,0,2.523.492c1.771,0,3.217-.517,3.629-1.358V61.876a5.756,5.756,0,0,1-3.629,1.064,7.052,7.052,0,0,1-2.523-.421v-.744a6.1,6.1,0,0,0,2.523.492c1.771,0,3.217-.467,3.629-1.308V59.672C57.111,58.621,55.547,57.83,53.473,57.83Z" transform="translate(-36.084 -33.286)" fill="#2b2a30"/>
    </g>
    <rect id="사각형_29618" data-name="사각형 29618" width="16" height="16" transform="translate(200 51)" fill="none"/>
  </g>
</svg>
