<svg xmlns="http://www.w3.org/2000/svg" width="26" height="26" viewBox="0 0 26 26">
  <g id="icon_profile" transform="translate(0 -10)">
    <g id="패스_482" data-name="패스 482" transform="translate(0 10)" fill="#e7e8ea">
      <path d="M13,0A13,13,0,1,1,0,13,13,13,0,0,1,13,0Z" stroke="none"/>
      <path d="M 13 1 C 9.794679641723633 1 6.781219482421875 2.248220443725586 4.514720916748047 4.514720916748047 C 2.248220443725586 6.781219482421875 1 9.794679641723633 1 13 C 1 16.20532035827637 2.248220443725586 19.21878051757812 4.514720916748047 21.48527908325195 C 6.781219482421875 23.75177955627441 9.794679641723633 25 13 25 C 16.20532035827637 25 19.21879005432129 23.75177955627441 21.48527908325195 21.48527908325195 C 23.75177955627441 19.21879005432129 25 16.20532035827637 25 13 C 25 9.794679641723633 23.75177955627441 6.781219482421875 21.48527908325195 4.514720916748047 C 19.21878051757812 2.248220443725586 16.20532035827637 1 13 1 M 13 0 C 20.17971038818359 0 26 5.82029914855957 26 13 C 26 20.17971038818359 20.17971038818359 26 13 26 C 5.82029914855957 26 0 20.17971038818359 0 13 C 0 5.82029914855957 5.82029914855957 0 13 0 Z" stroke="none" fill="rgba(0,0,0,0.05)"/>
    </g>
    <path id="합치기_3" data-name="합치기 3" d="M0,10.11V8.095a3.051,3.051,0,0,1,3.046-3.05H4.754A3.051,3.051,0,0,1,7.8,8.095V10.11ZM1.545,2.358A2.355,2.355,0,1,1,3.9,4.716,2.359,2.359,0,0,1,1.545,2.358Z" transform="translate(9.1 18.06)" fill="#fff"/>
  </g>
</svg>
