<svg id="그룹_7070" data-name="그룹 7070" xmlns="http://www.w3.org/2000/svg" xmlns:xlink="http://www.w3.org/1999/xlink" width="16" height="16" viewBox="0 0 16 16">
  <defs>
    <clipPath id="clip-path">
      <rect id="사각형_29762" data-name="사각형 29762" width="16" height="16" fill="none"/>
    </clipPath>
  </defs>
  <g id="그룹_7069" data-name="그룹 7069" transform="translate(0 0)" clip-path="url(#clip-path)">
    <path id="패스_907" data-name="패스 907" d="M11.771,16a1.752,1.752,0,0,1-1.24-.515L8.112,13.067a.621.621,0,0,0-.5-.181l-3.639.351a1.106,1.106,0,0,1-1.207-1.207l.351-3.639a.624.624,0,0,0-.18-.5L.514,5.47a1.755,1.755,0,0,1,.9-2.963L13.9.034A1.755,1.755,0,0,1,15.966,2.1l-2.472,12.49A1.757,1.757,0,0,1,11.771,16m-4.1-4.142a1.644,1.644,0,0,1,1.166.484l2.419,2.419a.73.73,0,0,0,1.232-.374L14.961,1.9A.73.73,0,0,0,14.1,1.04L1.614,3.512a.73.73,0,0,0-.375,1.233L3.658,7.164A1.645,1.645,0,0,1,4.134,8.49l-.351,3.639a.078.078,0,0,0,.023.065.084.084,0,0,0,.065.023l3.639-.351c.054-.005.107-.008.16-.008" transform="translate(0 0)"/>
  </g>
</svg>
