<svg width="16" height="16" viewBox="0 0 16 16" fill="none" xmlns="http://www.w3.org/2000/svg">
<path d="M14.1322 10.1338C14.4267 10.1338 14.6664 10.3725 14.6664 10.667V12.8008C14.6662 13.0951 14.4266 13.334 14.1322 13.334H1.86658C1.72526 13.334 1.58962 13.2776 1.48962 13.1777C1.3896 13.0777 1.33334 12.9413 1.33337 12.7998V10.667C1.33345 10.3724 1.573 10.1337 1.86755 10.1338C2.16183 10.1341 2.40074 10.3727 2.40076 10.667L2.39978 12.2666H13.599V10.667C13.599 10.3726 13.8378 10.134 14.1322 10.1338ZM7.99939 2C8.29379 2.00008 8.53247 2.23881 8.53259 2.5332V9.00977L10.9486 6.49707C11.1528 6.285 11.4903 6.27835 11.7025 6.48242C11.9146 6.68656 11.9211 7.02406 11.7172 7.23633L8.38416 10.7031C8.28364 10.8077 8.14441 10.8671 7.99939 10.8672C7.85431 10.8672 7.71518 10.8077 7.61462 10.7031L4.28162 7.23633C4.07747 7.02402 4.08398 6.68658 4.29626 6.48242C4.50855 6.2783 4.846 6.28486 5.05017 6.49707L7.46619 9.00977V2.5332C7.46631 2.23876 7.70492 2 7.99939 2Z" fill="#33363D"/>
</svg>
