<svg xmlns="http://www.w3.org/2000/svg" xmlns:xlink="http://www.w3.org/1999/xlink" width="400" height="400" viewBox="0 0 400 400">
  <defs>
    <clipPath id="clip-commu_fileIcon_001">
      <rect width="400" height="400"/>
    </clipPath>
  </defs>
  <g id="commu_fileIcon_001" clip-path="url(#clip-commu_fileIcon_001)">
    <g id="그룹_2416" data-name="그룹 2416">
      <g id="그룹_2414" data-name="그룹 2414">
        <g id="그룹_2413" data-name="그룹 2413" transform="translate(-63 -238.051)">
          <g id="그룹_676" data-name="그룹 676" transform="translate(-605 443)">
            <g id="icon_pdf" transform="translate(-26 -750.016)">
              <path id="패스_553" data-name="패스 553" d="M2.075.016H13c5,5,8.984,9.2,8.984,9.2L22,26.4a2.2,2.2,0,0,1-2.2,2.2H2.2A2.2,2.2,0,0,1,0,26.4V2.2A2.082,2.082,0,0,1,2.075.016Z" transform="translate(832 662)" fill="#289bf1"/>
              <path id="패스_554" data-name="패스 554" d="M9,11.224H3.3A3.3,3.3,0,0,1,0,7.929v-5.9Z" transform="translate(845 660)" opacity="0.1"/>
              <text id="EML" transform="translate(843 681.484)" fill="#fff" font-size="8" font-family="NotoSansCJKkr-Medium, Noto Sans CJK KR" font-weight="500" letter-spacing="-0.04em"><tspan x="-7.632" y="0">EML</tspan></text>
            </g>
            <g id="icon_ZIP" transform="translate(-95 -750.016)">
              <path id="패스_553-2" data-name="패스 553" d="M2.075.016H13c5,5,8.984,9.2,8.984,9.2L22,26.4a2.2,2.2,0,0,1-2.2,2.2H2.2A2.2,2.2,0,0,1,0,26.4V2.2A2.082,2.082,0,0,1,2.075.016Z" transform="translate(832 662)" fill="#ebbd27"/>
              <path id="패스_554-2" data-name="패스 554" d="M9,11.224H3.3A3.3,3.3,0,0,1,0,7.929v-5.9Z" transform="translate(845 660)" opacity="0.1"/>
              <text id="MHT" transform="translate(843 681.484)" fill="#fff" font-size="8" font-family="NotoSansCJKkr-Medium, Noto Sans CJK KR" font-weight="500" letter-spacing="-0.04em"><tspan x="-8.4" y="0">MHT</tspan></text>
            </g>
            <g id="icon_ZIP-2" data-name="icon_ZIP" transform="translate(-95 -816.016)">
              <path id="패스_553-3" data-name="패스 553" d="M2.075.016H13c5,5,8.984,9.2,8.984,9.2L22,26.4a2.2,2.2,0,0,1-2.2,2.2H2.2A2.2,2.2,0,0,1,0,26.4V2.2A2.082,2.082,0,0,1,2.075.016Z" transform="translate(832 662)" fill="#fba036"/>
              <path id="패스_554-3" data-name="패스 554" d="M9,11.224H3.3A3.3,3.3,0,0,1,0,7.929v-5.9Z" transform="translate(845 660)" opacity="0.1"/>
              <text id="IMG" transform="translate(843 681.484)" fill="#fff" font-size="8" font-family="NotoSansCJKkr-Medium, Noto Sans CJK KR" font-weight="500" letter-spacing="-0.04em"><tspan x="-7.04" y="0">IMG</tspan></text>
            </g>
            <g id="icon_pdf-2" data-name="icon_pdf" transform="translate(-164 -750.016)">
              <path id="패스_553-4" data-name="패스 553" d="M2.075.016H13c5,5,8.984,9.2,8.984,9.2L22,26.4a2.2,2.2,0,0,1-2.2,2.2H2.2A2.2,2.2,0,0,1,0,26.4V2.2A2.082,2.082,0,0,1,2.075.016Z" transform="translate(832 662)" fill="#20a5d8"/>
              <path id="패스_554-4" data-name="패스 554" d="M9,11.224H3.3A3.3,3.3,0,0,1,0,7.929v-5.9Z" transform="translate(845 660)" opacity="0.1"/>
              <text id="HWP" transform="translate(843 681.484)" fill="#fff" font-size="8" font-family="NotoSansCJKkr-Medium, Noto Sans CJK KR" font-weight="500" letter-spacing="-0.04em"><tspan x="-8.804" y="0">HWP</tspan></text>
            </g>
          </g>
          <g id="그룹_677" data-name="그룹 677" transform="translate(-605 534.759)">
            <g id="icon_pdf-3" data-name="icon_pdf" transform="translate(-26 -773.016)">
              <path id="패스_553-5" data-name="패스 553" d="M2.075.016H13c5,5,8.984,9.2,8.984,9.2L22,26.4a2.2,2.2,0,0,1-2.2,2.2H2.2A2.2,2.2,0,0,1,0,26.4V2.2A2.082,2.082,0,0,1,2.075.016Z" transform="translate(832 662)" fill="#2f78e3"/>
              <path id="패스_554-5" data-name="패스 554" d="M9,11.224H3.3A3.3,3.3,0,0,1,0,7.929v-5.9Z" transform="translate(845 660)" opacity="0.1"/>
              <text id="DOC" transform="translate(843 681.484)" fill="#fff" font-size="8" font-family="NotoSansCJKkr-Medium, Noto Sans CJK KR" font-weight="500" letter-spacing="-0.04em"><tspan x="-8.076" y="0">DOC</tspan></text>
            </g>
            <g id="icon_ZIP-3" data-name="icon_ZIP" transform="translate(-95 -773.016)">
              <path id="패스_553-6" data-name="패스 553" d="M2.075.016H13c5,5,8.984,9.2,8.984,9.2L22,26.4a2.2,2.2,0,0,1-2.2,2.2H2.2A2.2,2.2,0,0,1,0,26.4V2.2A2.082,2.082,0,0,1,2.075.016Z" transform="translate(832 662)" fill="#26b96b"/>
              <path id="패스_554-6" data-name="패스 554" d="M9,11.224H3.3A3.3,3.3,0,0,1,0,7.929v-5.9Z" transform="translate(845 660)" opacity="0.1"/>
              <text id="XLS" transform="translate(843 681.484)" fill="#fff" font-size="8" font-family="NotoSansCJKkr-Medium, Noto Sans CJK KR" font-weight="500" letter-spacing="-0.04em"><tspan x="-6.62" y="0">XLS</tspan></text>
            </g>
            <g id="icon_pdf-4" data-name="icon_pdf" transform="translate(-164 -773.016)">
              <path id="패스_553-7" data-name="패스 553" d="M2.075.016H13c5,5,8.984,9.2,8.984,9.2L22,26.4a2.2,2.2,0,0,1-2.2,2.2H2.2A2.2,2.2,0,0,1,0,26.4V2.2A2.082,2.082,0,0,1,2.075.016Z" transform="translate(832 662)" fill="#ee512d"/>
              <path id="패스_554-7" data-name="패스 554" d="M9,11.224H3.3A3.3,3.3,0,0,1,0,7.929v-5.9Z" transform="translate(845 660)" opacity="0.1"/>
              <text id="PPT" transform="translate(843 681.484)" fill="#fff" font-size="8" font-family="NotoSansCJKkr-Medium, Noto Sans CJK KR" font-weight="500" letter-spacing="-0.04em"><tspan x="-7.2" y="0">PPT</tspan></text>
            </g>
          </g>
          <g id="그룹_678" data-name="그룹 678" transform="translate(-605 603.519)">
            <g id="icon_pdf-5" data-name="icon_pdf" transform="translate(-26 -773.016)">
              <path id="패스_553-8" data-name="패스 553" d="M2.075.016H13c5,5,8.984,9.2,8.984,9.2L22,26.4a2.2,2.2,0,0,1-2.2,2.2H2.2A2.2,2.2,0,0,1,0,26.4V2.2A2.082,2.082,0,0,1,2.075.016Z" transform="translate(832 662)" fill="#c8d6e0"/>
              <path id="패스_554-8" data-name="패스 554" d="M9,11.224H3.3A3.3,3.3,0,0,1,0,7.929v-5.9Z" transform="translate(845 660)" opacity="0.1"/>
              <text id="TXT" transform="translate(843 681.484)" fill="#fff" font-size="8" font-family="NotoSansCJKkr-Medium, Noto Sans CJK KR" font-weight="500" letter-spacing="-0.04em"><tspan x="-6.768" y="0">TXT</tspan></text>
            </g>
            <g id="icon_ZIP-4" data-name="icon_ZIP" transform="translate(-95 -773.016)">
              <path id="패스_553-9" data-name="패스 553" d="M2.075.016H13c5,5,8.984,9.2,8.984,9.2L22,26.4a2.2,2.2,0,0,1-2.2,2.2H2.2A2.2,2.2,0,0,1,0,26.4V2.2A2.082,2.082,0,0,1,2.075.016Z" transform="translate(832 662)" fill="#eea023"/>
              <path id="패스_554-9" data-name="패스 554" d="M9,11.224H3.3A3.3,3.3,0,0,1,0,7.929v-5.9Z" transform="translate(845 660)" opacity="0.1"/>
              <text id="ZIP" transform="translate(843 681.484)" fill="#fff" font-size="8" font-family="NotoSansCJKkr-Medium, Noto Sans CJK KR" font-weight="500" letter-spacing="-0.04em"><tspan x="-5.932" y="0">ZIP</tspan></text>
            </g>
            <g id="icon_pdf-6" data-name="icon_pdf" transform="translate(-164 -773.016)">
              <path id="패스_553-10" data-name="패스 553" d="M2.075.016H13c5,5,8.984,9.2,8.984,9.2L22,26.4a2.2,2.2,0,0,1-2.2,2.2H2.2A2.2,2.2,0,0,1,0,26.4V2.2A2.082,2.082,0,0,1,2.075.016Z" transform="translate(832 662)" fill="#eb1c24"/>
              <path id="패스_554-10" data-name="패스 554" d="M9,11.224H3.3A3.3,3.3,0,0,1,0,7.929v-5.9Z" transform="translate(845 660)" opacity="0.1"/>
              <text id="PDF" transform="translate(843 681.484)" fill="#fff" font-size="8" font-family="NotoSansCJKkr-Medium, Noto Sans CJK KR" font-weight="500" letter-spacing="-0.04em"><tspan x="-7.328" y="0">PDF</tspan></text>
            </g>
          </g>
          <g id="그룹_679" data-name="그룹 679" transform="translate(-605 399)">
            <g id="icon_pdf-7" data-name="icon_pdf" transform="translate(-164 -773.016)">
              <path id="패스_553-11" data-name="패스 553" d="M2.075.016H13c5,5,8.984,9.2,8.984,9.2L22,26.4a2.2,2.2,0,0,1-2.2,2.2H2.2A2.2,2.2,0,0,1,0,26.4V2.2A2.082,2.082,0,0,1,2.075.016Z" transform="translate(832 662)" fill="#d1d2d4"/>
              <path id="패스_554-11" data-name="패스 554" d="M9,11.224H3.3A3.3,3.3,0,0,1,0,7.929v-5.9Z" transform="translate(845 660)" opacity="0.1"/>
              <text id="_..." data-name="..." transform="translate(843 679.484)" fill="#fff" font-size="20" font-family="NotoSansCJKkr-Medium, Noto Sans CJK KR" font-weight="500"><tspan x="-8.94" y="0">...</tspan></text>
            </g>
          </g>
          <g id="icon_pdf-8" data-name="icon_pdf" transform="translate(63 238.051)">
            <path id="패스_553-12" data-name="패스 553" d="M1.162.016H7.277c2.8,2.8,5.029,5.152,5.029,5.152l.009,9.617a1.232,1.232,0,0,1-1.232,1.232H1.232A1.232,1.232,0,0,1,0,14.784V1.238A1.166,1.166,0,0,1,1.162.016Z" transform="translate(0 -0.016)" fill="#eb1c24"/>
            <path id="패스_554-12" data-name="패스 554" d="M5.04,7.176H1.845A1.845,1.845,0,0,1,0,5.33V2.024Z" transform="translate(7.275 -2.019)" fill="#fff" opacity="0.5"/>
            <text id="P" transform="translate(6.158 11.156)" fill="#fff" font-size="7" font-family="NotoSansCJKkr-Medium, Noto Sans CJK KR" font-weight="500" letter-spacing="-0.04em"><tspan x="-2.265" y="0">P</tspan></text>
          </g>
          <g id="icon_pdf-9" data-name="icon_pdf" transform="translate(107.315 238.051)">
            <path id="패스_553-13" data-name="패스 553" d="M1.162.016H7.277c2.8,2.8,5.029,5.152,5.029,5.152l.009,9.617a1.232,1.232,0,0,1-1.232,1.232H1.232A1.232,1.232,0,0,1,0,14.784V1.238A1.166,1.166,0,0,1,1.162.016Z" transform="translate(0 -0.016)" fill="#ee512d"/>
            <path id="패스_554-13" data-name="패스 554" d="M5.04,7.176H1.845A1.845,1.845,0,0,1,0,5.33V2.024Z" transform="translate(7.275 -2.019)" opacity="0.1"/>
            <text id="P-2" data-name="P" transform="translate(6.158 11.156)" fill="#fff" font-size="7" font-family="NotoSansCJKkr-Medium, Noto Sans CJK KR" font-weight="500" letter-spacing="-0.04em"><tspan x="-2.265" y="0">P</tspan></text>
          </g>
          <g id="icon_ZIP-5" data-name="icon_ZIP" transform="translate(-680.37 -423.965)">
            <path id="패스_553-14" data-name="패스 553" d="M1.162.016H7.277c2.8,2.8,5.029,5.152,5.029,5.152l.009,9.617a1.232,1.232,0,0,1-1.232,1.232H1.232A1.232,1.232,0,0,1,0,14.784V1.238A1.166,1.166,0,0,1,1.162.016Z" transform="translate(832 662)" fill="#eea023"/>
            <path id="패스_554-14" data-name="패스 554" d="M5.036,7.172H1.844A1.844,1.844,0,0,1,0,5.328v-3.3Z" transform="translate(839.279 659.996)" opacity="0.1"/>
            <text id="Z" transform="translate(837.8 673.877)" fill="#fff" font-size="7" font-family="NotoSansCJKkr-Medium, Noto Sans CJK KR" font-weight="500" letter-spacing="-0.04em"><tspan x="-2.125" y="0">Z</tspan></text>
          </g>
          <g id="icon_ZIP-6" data-name="icon_ZIP" transform="translate(-636.055 -423.965)">
            <path id="패스_553-15" data-name="패스 553" d="M1.162.016H7.277c2.8,2.8,5.029,5.152,5.029,5.152l.009,9.617a1.232,1.232,0,0,1-1.232,1.232H1.232A1.232,1.232,0,0,1,0,14.784V1.238A1.166,1.166,0,0,1,1.162.016Z" transform="translate(832 662)" fill="#fba036"/>
            <path id="패스_554-15" data-name="패스 554" d="M5.036,7.172H1.844A1.844,1.844,0,0,1,0,5.328v-3.3Z" transform="translate(839.279 659.996)" opacity="0.1"/>
            <text id="J" transform="translate(837.8 673.877)" fill="#fff" font-size="7" font-family="NotoSansCJKkr-Medium, Noto Sans CJK KR" font-weight="500" letter-spacing="-0.04em"><tspan x="-1.925" y="0">J</tspan></text>
          </g>
          <g id="icon_pdf-10" data-name="icon_pdf" transform="translate(-591.74 -423.965)">
            <path id="패스_553-16" data-name="패스 553" d="M1.162.016H7.277c2.8,2.8,5.029,5.152,5.029,5.152l.009,9.617a1.232,1.232,0,0,1-1.232,1.232H1.232A1.232,1.232,0,0,1,0,14.784V1.238A1.166,1.166,0,0,1,1.162.016Z" transform="translate(832 662)" fill="#26b96b"/>
            <path id="패스_554-16" data-name="패스 554" d="M4.906,7.039H1.8A1.8,1.8,0,0,1,0,5.242V2.024Z" transform="translate(839.409 659.996)" opacity="0.1"/>
            <text id="X" transform="translate(837.862 673.929)" fill="#fff" font-size="7" font-family="NotoSansCJKkr-Medium, Noto Sans CJK KR" font-weight="500" letter-spacing="-0.04em"><tspan x="-2.086" y="0">X</tspan></text>
          </g>
          <g id="icon_pdf-11" data-name="icon_pdf" transform="translate(-547.425 -423.965)">
            <path id="패스_553-17" data-name="패스 553" d="M1.162.016H7.277c2.8,2.8,5.029,5.152,5.029,5.152l.009,9.617a1.232,1.232,0,0,1-1.232,1.232H1.232A1.232,1.232,0,0,1,0,14.784V1.238A1.166,1.166,0,0,1,1.162.016Z" transform="translate(832 662)" fill="#2f78e3"/>
            <path id="패스_554-17" data-name="패스 554" d="M4.906,7.039H1.8A1.8,1.8,0,0,1,0,5.242V2.024Z" transform="translate(839.409 659.996)" opacity="0.1"/>
            <text id="D" transform="translate(837.862 673.929)" fill="#fff" font-size="7" font-family="NotoSansCJKkr-Medium, Noto Sans CJK KR" font-weight="500" letter-spacing="-0.04em"><tspan x="-2.447" y="0">D</tspan></text>
          </g>
          <g id="icon_pdf-12" data-name="icon_pdf" transform="translate(-503.11 -423.965)">
            <path id="패스_553-18" data-name="패스 553" d="M1.162.016H7.277c2.8,2.8,5.029,5.152,5.029,5.152l.009,9.617a1.232,1.232,0,0,1-1.232,1.232H1.232A1.232,1.232,0,0,1,0,14.784V1.238A1.166,1.166,0,0,1,1.162.016Z" transform="translate(832 662)" fill="#289bf1"/>
            <path id="패스_554-18" data-name="패스 554" d="M4.906,7.039H1.8A1.8,1.8,0,0,1,0,5.242V2.024Z" transform="translate(839.409 659.996)" opacity="0.1"/>
            <text id="E" transform="translate(837.862 673.929)" fill="#fff" font-size="7" font-family="NotoSansCJKkr-Medium, Noto Sans CJK KR" font-weight="500" letter-spacing="-0.04em"><tspan x="-2.1" y="0">E</tspan></text>
          </g>
          <g id="icon_pdf-13" data-name="icon_pdf" transform="translate(-458.795 -423.965)">
            <path id="패스_553-19" data-name="패스 553" d="M1.162.016H7.277c2.8,2.8,5.029,5.152,5.029,5.152l.009,9.617a1.232,1.232,0,0,1-1.232,1.232H1.232A1.232,1.232,0,0,1,0,14.784V1.238A1.166,1.166,0,0,1,1.162.016Z" transform="translate(832 662)" fill="#c8d6e0"/>
            <path id="패스_554-19" data-name="패스 554" d="M4.906,7.039H1.8A1.8,1.8,0,0,1,0,5.242V2.024Z" transform="translate(839.409 659.996)" opacity="0.1"/>
            <text id="T" transform="translate(837.862 673.929)" fill="#fff" font-size="7" font-family="NotoSansCJKkr-Medium, Noto Sans CJK KR" font-weight="500" letter-spacing="-0.04em"><tspan x="-2.135" y="0">T</tspan></text>
          </g>
          <g id="icon_pdf-14" data-name="icon_pdf" transform="translate(-382.166 -423.965)">
            <path id="패스_553-20" data-name="패스 553" d="M1.162.016H7.277c2.8,2.8,5.029,5.152,5.029,5.152l.009,9.617a1.232,1.232,0,0,1-1.232,1.232H1.232A1.232,1.232,0,0,1,0,14.784V1.238A1.166,1.166,0,0,1,1.162.016Z" transform="translate(832 662)" fill="#d1d2d4"/>
            <path id="패스_554-20" data-name="패스 554" d="M4.906,7.039H1.8A1.8,1.8,0,0,1,0,5.242V2.024Z" transform="translate(839.409 659.996)" opacity="0.1"/>
            <text id="_._._." data-name=". . ." transform="translate(837.862 671.929)" fill="#fff" font-size="7" font-family="NotoSansCJKkr-Medium, Noto Sans CJK KR" font-weight="500" letter-spacing="-0.04em"><tspan x="-4.144" y="0">. . .</tspan></text>
          </g>
          <g id="icon_pdf-15" data-name="icon_pdf" transform="translate(-419.48 -423.965)">
            <path id="패스_553-21" data-name="패스 553" d="M1.162.016H7.277c2.8,2.8,5.029,5.152,5.029,5.152l.009,9.617a1.232,1.232,0,0,1-1.232,1.232H1.232A1.232,1.232,0,0,1,0,14.784V1.238A1.166,1.166,0,0,1,1.162.016Z" transform="translate(832 662)" fill="#20a5d8"/>
            <path id="패스_554-21" data-name="패스 554" d="M4.906,7.039H1.8A1.8,1.8,0,0,1,0,5.242V2.024Z" transform="translate(839.409 659.996)" opacity="0.1"/>
            <text id="H" transform="translate(837.862 673.929)" fill="#fff" font-size="7" font-family="NotoSansCJKkr-Medium, Noto Sans CJK KR" font-weight="500" letter-spacing="-0.04em"><tspan x="-2.59" y="0">H</tspan></text>
          </g>
        </g>
        <path id="패스_8843" data-name="패스 8843" d="M26.683,5.587H11.876v-2.6A1.734,1.734,0,0,0,10.141,1.25H2.985A1.735,1.735,0,0,0,1.25,2.985V22.068A1.736,1.736,0,0,0,2.985,23.8h23.7a1.736,1.736,0,0,0,1.735-1.735V7.322a1.735,1.735,0,0,0-1.735-1.735" transform="translate(132.166 52.473)" fill="#baccfe"/>
      </g>
    </g>
  </g>
</svg>
