<svg xmlns="http://www.w3.org/2000/svg" width="12.571" height="16" viewBox="0 0 12.571 16">
  <g id="그룹_8119" data-name="그룹 8119" transform="translate(-382.707 -289.5)">
    <g id="__TEMP__SVG__" transform="translate(379.417 287.9)">
      <g id="그룹_8121" data-name="그룹 8121">
        <g id="__TEMP__SVG__2" data-name="__TEMP__SVG__" transform="translate(0.433 0.457)">
          <path id="패스_9897" data-name="패스 9897" d="M15.286,8h-5A1.714,1.714,0,0,1,8.571,6.286v-5a.143.143,0,0,0-.143-.143H5.143A2.286,2.286,0,0,0,2.857,3.429V14.857a2.286,2.286,0,0,0,2.286,2.286h8a2.286,2.286,0,0,0,2.286-2.286V8.143A.143.143,0,0,0,15.286,8ZM12,13.714H6.286a.571.571,0,0,1,0-1.143H12a.571.571,0,0,1,0,1.143Zm0-2.857H6.286a.571.571,0,1,1,0-1.143H12a.571.571,0,0,1,0,1.143Z" fill="#8f8e93"/>
          <path id="패스_9898" data-name="패스 9898" d="M14.972,6.735,9.836,1.6a.071.071,0,0,0-.122.05V6.286a.571.571,0,0,0,.571.571h4.636a.071.071,0,0,0,.05-.122Z" fill="#8f8e93"/>
        </g>
      </g>
    </g>
  </g>
</svg>
