<svg xmlns="http://www.w3.org/2000/svg" width="15.984" height="16" viewBox="0 0 15.984 16">
  <g id="그룹_8119" data-name="그룹 8119" transform="translate(-381 -289.5)">
    <g id="__TEMP__SVG__" transform="translate(379.417 287.9)">
      <path id="패스_9896" data-name="패스 9896" d="M17.371,8.384l-1.787-.533a6.213,6.213,0,0,0-.507-1.243l.875-1.637a.325.325,0,0,0-.059-.384l-1.275-1.28a.325.325,0,0,0-.384-.059l-1.627.869a6.2,6.2,0,0,0-1.259-.533l-.533-1.765A.325.325,0,0,0,10.5,1.6H8.7a.325.325,0,0,0-.309.229l-.533,1.76a6.2,6.2,0,0,0-1.269.533l-1.6-.864a.325.325,0,0,0-.384.059l-1.3,1.264a.325.325,0,0,0-.059.384l.864,1.6a6.2,6.2,0,0,0-.533,1.264l-1.765.533a.325.325,0,0,0-.229.309v1.8a.325.325,0,0,0,.229.309l1.776.533a6.2,6.2,0,0,0,.533,1.243l-.875,1.675a.325.325,0,0,0,.059.384l1.275,1.275a.325.325,0,0,0,.384.059l1.648-.88a6.213,6.213,0,0,0,1.227.5l.533,1.8a.325.325,0,0,0,.309.229h1.8a.325.325,0,0,0,.309-.229l.533-1.8a6.2,6.2,0,0,0,1.216-.5l1.659.885a.325.325,0,0,0,.384-.059l1.275-1.275a.325.325,0,0,0,.059-.384l-.885-1.653a6.2,6.2,0,0,0,.507-1.221l1.8-.533a.325.325,0,0,0,.229-.309V8.7a.325.325,0,0,0-.2-.315ZM9.6,12.533A2.933,2.933,0,1,1,12.533,9.6,2.933,2.933,0,0,1,9.6,12.533Z" fill="#8f8e93"/>
    </g>
  </g>
</svg>
