<svg xmlns="http://www.w3.org/2000/svg" xmlns:xlink="http://www.w3.org/1999/xlink" width="400" height="400" viewBox="0 0 400 400">
  <defs>
    <clipPath id="clip-fileIcon_001">
      <rect width="400" height="400"/>
    </clipPath>
  </defs>
  <g id="fileIcon_001" clip-path="url(#clip-fileIcon_001)">
    <g id="icon-1" transform="translate(-44.455 -50.018)">
      <rect id="사각형_37" data-name="사각형 37" width="13" height="16" transform="translate(44.455 50.018)" fill="none"/>
      <g id="icon_" transform="translate(-787.545 -611.997)">
        <path id="패스_553" data-name="패스 553" d="M1.226.016h6.8c2.9,2.911,4.973,5,4.973,5v9.764a1.267,1.267,0,0,1-1.3,1.232H1.3A1.267,1.267,0,0,1,0,14.784V1.238A1.2,1.2,0,0,1,1.226.016Z" transform="translate(832 662)" fill="#d1d2d4"/>
        <path id="패스_554" data-name="패스 554" d="M5,7.024H1.831A1.811,1.811,0,0,1,0,5.233V2.024Z" transform="translate(840 659.996)" opacity="0.1"/>
        <text id="_._._." data-name=". . ." transform="translate(838.5 671.929)" fill="#fff" font-size="8" font-family="NotoSansCJKkr-Medium, Noto Sans CJK KR" font-weight="500" letter-spacing="-0.05em"><tspan x="-4.576" y="0">. . .</tspan></text>
      </g>
    </g>
    <g id="icon-2" transform="translate(-44.455 -10.018)">
      <rect id="사각형_37-2" data-name="사각형 37" width="13" height="16" transform="translate(44.455 50.018)" fill="none"/>
      <g id="icon_2" data-name="icon_" transform="translate(-787.545 -611.997)">
        <path id="패스_553-2" data-name="패스 553" d="M1.226.016h6.8c2.9,2.911,4.973,5,4.973,5v9.764a1.267,1.267,0,0,1-1.3,1.232H1.3A1.267,1.267,0,0,1,0,14.784V1.238A1.2,1.2,0,0,1,1.226.016Z" transform="translate(832 662)" fill="#eea023"/>
        <path id="패스_554-2" data-name="패스 554" d="M5,7.024H1.831A1.811,1.811,0,0,1,0,5.233V2.024Z" transform="translate(840 659.996)" opacity="0.1"/>
        <text id="Z" transform="translate(838.5 674.02)" fill="#fff" font-size="7" font-family="NotoSansCJKkr-Medium, Noto Sans CJK KR" font-weight="500" letter-spacing="-0.04em"><tspan x="-2.125" y="0">Z</tspan></text>
      </g>
    </g>
    <g id="icon-3" transform="translate(-44.455 29.982)">
      <rect id="사각형_37-3" data-name="사각형 37" width="13" height="16" transform="translate(44.455 50.018)" fill="none"/>
      <g id="icon_3" data-name="icon_" transform="translate(-787.545 -611.997)">
        <path id="패스_553-3" data-name="패스 553" d="M1.226.016h6.8c2.9,2.911,4.973,5,4.973,5v9.764a1.267,1.267,0,0,1-1.3,1.232H1.3A1.267,1.267,0,0,1,0,14.784V1.238A1.2,1.2,0,0,1,1.226.016Z" transform="translate(832 662)" fill="#eb1c24"/>
        <path id="패스_554-3" data-name="패스 554" d="M5,7.024H1.831A1.811,1.811,0,0,1,0,5.233V2.024Z" transform="translate(840 659.996)" fill="#fff" opacity="0.5"/>
        <text id="P" transform="translate(838.5 674.02)" fill="#fff" font-size="7" font-family="NotoSansCJKkr-Medium, Noto Sans CJK KR" font-weight="500" letter-spacing="-0.04em"><tspan x="-2.265" y="0">P</tspan></text>
      </g>
    </g>
    <g id="icon-4" transform="translate(-44.455 69.982)">
      <rect id="사각형_37-4" data-name="사각형 37" width="13" height="16" transform="translate(44.455 50.018)" fill="none"/>
      <g id="icon_4" data-name="icon_" transform="translate(-787.545 -611.997)">
        <path id="패스_553-4" data-name="패스 553" d="M1.226.016h6.8c2.9,2.911,4.973,5,4.973,5v9.764a1.267,1.267,0,0,1-1.3,1.232H1.3A1.267,1.267,0,0,1,0,14.784V1.238A1.2,1.2,0,0,1,1.226.016Z" transform="translate(832 662)" fill="#fba036"/>
        <path id="패스_554-4" data-name="패스 554" d="M5,7.024H1.831A1.811,1.811,0,0,1,0,5.233V2.024Z" transform="translate(840 659.996)" opacity="0.1"/>
        <text id="J" transform="translate(838.5 674.02)" fill="#fff" font-size="7" font-family="NotoSansCJKkr-Medium, Noto Sans CJK KR" font-weight="500" letter-spacing="-0.04em"><tspan x="-1.925" y="0">J</tspan></text>
      </g>
    </g>
    <g id="icon-5" transform="translate(-44.455 109.982)">
      <rect id="사각형_37-5" data-name="사각형 37" width="13" height="16" transform="translate(44.455 50.018)" fill="none"/>
      <g id="icon_5" data-name="icon_" transform="translate(-787.545 -611.997)">
        <path id="패스_553-5" data-name="패스 553" d="M1.226.016h6.8c2.9,2.911,4.973,5,4.973,5v9.764a1.267,1.267,0,0,1-1.3,1.232H1.3A1.267,1.267,0,0,1,0,14.784V1.238A1.2,1.2,0,0,1,1.226.016Z" transform="translate(832 662)" fill="#c8d6e0"/>
        <path id="패스_554-5" data-name="패스 554" d="M5,7.024H1.831A1.811,1.811,0,0,1,0,5.233V2.024Z" transform="translate(840 659.996)" opacity="0.1"/>
        <text id="T" transform="translate(838.5 674.02)" fill="#fff" font-size="7" font-family="NotoSansCJKkr-Medium, Noto Sans CJK KR" font-weight="500" letter-spacing="-0.04em"><tspan x="-2.135" y="0">T</tspan></text>
      </g>
    </g>
    <g id="icon-6" transform="translate(-44.455 149.982)">
      <rect id="사각형_37-6" data-name="사각형 37" width="13" height="16" transform="translate(44.455 50.018)" fill="none"/>
      <g id="icon_6" data-name="icon_" transform="translate(-787.545 -611.997)">
        <path id="패스_553-6" data-name="패스 553" d="M1.226.016h6.8c2.9,2.911,4.973,5,4.973,5v9.764a1.267,1.267,0,0,1-1.3,1.232H1.3A1.267,1.267,0,0,1,0,14.784V1.238A1.2,1.2,0,0,1,1.226.016Z" transform="translate(832 662)" fill="#ebbd27"/>
        <path id="패스_554-6" data-name="패스 554" d="M5,7.024H1.831A1.811,1.811,0,0,1,0,5.233V2.024Z" transform="translate(840 659.996)" opacity="0.1"/>
        <text id="M" transform="translate(838.5 674.02)" fill="#fff" font-size="7" font-family="NotoSansCJKkr-Medium, Noto Sans CJK KR" font-weight="500" letter-spacing="-0.04em"><tspan x="-2.905" y="0">M</tspan></text>
      </g>
    </g>
    <g id="icon-7">
      <rect id="사각형_38" data-name="사각형 38" width="13" height="16" transform="translate(0 240)" fill="none"/>
      <g id="icon_7" data-name="icon_" transform="translate(-832 -422.016)">
        <path id="패스_553-7" data-name="패스 553" d="M1.226.016h6.8c2.9,2.911,4.973,5,4.973,5v9.764a1.267,1.267,0,0,1-1.3,1.232H1.3A1.267,1.267,0,0,1,0,14.784V1.238A1.2,1.2,0,0,1,1.226.016Z" transform="translate(832 662)" fill="#2f78e3"/>
        <path id="패스_554-7" data-name="패스 554" d="M5,7.024H1.831A1.811,1.811,0,0,1,0,5.233V2.024Z" transform="translate(840 659.996)" opacity="0.1"/>
        <text id="D" transform="translate(838.5 674.02)" fill="#fff" font-size="7" font-family="NotoSansCJKkr-Medium, Noto Sans CJK KR" font-weight="500" letter-spacing="-0.04em"><tspan x="-2.447" y="0">D</tspan></text>
      </g>
    </g>
    <g id="icon-8" transform="translate(0 40)">
      <rect id="사각형_38-2" data-name="사각형 38" width="13" height="16" transform="translate(0 240)" fill="none"/>
      <g id="icon_8" data-name="icon_" transform="translate(-832 -422.016)">
        <path id="패스_553-8" data-name="패스 553" d="M1.226.016h6.8c2.9,2.911,4.973,5,4.973,5v9.764a1.267,1.267,0,0,1-1.3,1.232H1.3A1.267,1.267,0,0,1,0,14.784V1.238A1.2,1.2,0,0,1,1.226.016Z" transform="translate(832 662)" fill="#26b96b"/>
        <path id="패스_554-8" data-name="패스 554" d="M5,7.024H1.831A1.811,1.811,0,0,1,0,5.233V2.024Z" transform="translate(840 659.996)" opacity="0.1"/>
        <text id="X" transform="translate(838.5 674.02)" fill="#fff" font-size="7" font-family="NotoSansCJKkr-Medium, Noto Sans CJK KR" font-weight="500" letter-spacing="-0.04em"><tspan x="-2.086" y="0">X</tspan></text>
      </g>
    </g>
    <g id="icon-9" transform="translate(0 80)">
      <rect id="사각형_38-3" data-name="사각형 38" width="13" height="16" transform="translate(0 240)" fill="none"/>
      <g id="icon_9" data-name="icon_" transform="translate(-832 -422.016)">
        <path id="패스_553-9" data-name="패스 553" d="M1.226.016h6.8c2.9,2.911,4.973,5,4.973,5v9.764a1.267,1.267,0,0,1-1.3,1.232H1.3A1.267,1.267,0,0,1,0,14.784V1.238A1.2,1.2,0,0,1,1.226.016Z" transform="translate(832 662)" fill="#289bf1"/>
        <path id="패스_554-9" data-name="패스 554" d="M5,7.024H1.831A1.811,1.811,0,0,1,0,5.233V2.024Z" transform="translate(840 659.996)" opacity="0.1"/>
        <text id="E" transform="translate(838.5 674.02)" fill="#fff" font-size="7" font-family="NotoSansCJKkr-Medium, Noto Sans CJK KR" font-weight="500" letter-spacing="-0.04em"><tspan x="-2.1" y="0">E</tspan></text>
      </g>
    </g>
    <g id="icon-10" transform="translate(0 80)">
      <rect id="사각형_38-4" data-name="사각형 38" width="13" height="16" transform="translate(0 240)" fill="none"/>
      <g id="icon_10" data-name="icon_" transform="translate(-832 -422.016)">
        <path id="패스_553-10" data-name="패스 553" d="M1.226.016h6.8c2.9,2.911,4.973,5,4.973,5v9.764a1.267,1.267,0,0,1-1.3,1.232H1.3A1.267,1.267,0,0,1,0,14.784V1.238A1.2,1.2,0,0,1,1.226.016Z" transform="translate(832 662)" fill="#289bf1"/>
        <path id="패스_554-10" data-name="패스 554" d="M5,7.024H1.831A1.811,1.811,0,0,1,0,5.233V2.024Z" transform="translate(840 659.996)" opacity="0.1"/>
        <text id="E-2" data-name="E" transform="translate(838.5 674.02)" fill="#fff" font-size="7" font-family="NotoSansCJKkr-Medium, Noto Sans CJK KR" font-weight="500" letter-spacing="-0.04em"><tspan x="-2.1" y="0">E</tspan></text>
      </g>
    </g>
    <g id="icon-10-2" data-name="icon-10" transform="translate(0 120)">
      <rect id="사각형_38-5" data-name="사각형 38" width="13" height="16" transform="translate(0 240)" fill="none"/>
      <g id="icon_11" data-name="icon_" transform="translate(-832 -422.016)">
        <path id="패스_553-11" data-name="패스 553" d="M1.226.016h6.8c2.9,2.911,4.973,5,4.973,5v9.764a1.267,1.267,0,0,1-1.3,1.232H1.3A1.267,1.267,0,0,1,0,14.784V1.238A1.2,1.2,0,0,1,1.226.016Z" transform="translate(832 662)" fill="#20a5d8"/>
        <path id="패스_554-11" data-name="패스 554" d="M5,7.024H1.831A1.811,1.811,0,0,1,0,5.233V2.024Z" transform="translate(840 659.996)" opacity="0.1"/>
        <text id="H" transform="translate(838.5 674.02)" fill="#fff" font-size="7" font-family="NotoSansCJKkr-Medium, Noto Sans CJK KR" font-weight="500" letter-spacing="-0.04em"><tspan x="-2.59" y="0">H</tspan></text>
      </g>
    </g>
    <g id="icon-11" transform="translate(30 -240)">
      <rect id="사각형_38-6" data-name="사각형 38" width="13" height="16" transform="translate(0 240)" fill="none"/>
      <g id="icon_12" data-name="icon_" transform="translate(-832 -422.016)">
        <path id="패스_553-12" data-name="패스 553" d="M1.226.016h6.8c2.9,2.911,4.973,5,4.973,5v9.764a1.267,1.267,0,0,1-1.3,1.232H1.3A1.267,1.267,0,0,1,0,14.784V1.238A1.2,1.2,0,0,1,1.226.016Z" transform="translate(832 662)" fill="#ee512d"/>
        <path id="패스_554-12" data-name="패스 554" d="M5,7.024H1.831A1.811,1.811,0,0,1,0,5.233V2.024Z" transform="translate(840 659.996)" opacity="0.1"/>
        <text id="P-2" data-name="P" transform="translate(838.5 674.02)" fill="#fff" font-size="7" font-family="NotoSansCJKkr-Medium, Noto Sans CJK KR" font-weight="500" letter-spacing="-0.04em"><tspan x="-2.265" y="0">P</tspan></text>
      </g>
    </g>
  </g>
</svg>
