<svg width="32" height="32" viewBox="0 0 32 32" fill="none" xmlns="http://www.w3.org/2000/svg">
<path d="M23.332 17.2002C23.4671 17.2002 23.6144 17.2247 23.7334 17.2705L22.3438 19.333H6.40039C6.2532 19.333 6.13393 19.4525 6.13379 19.5996V25.5996C6.13379 25.7469 6.25311 25.8662 6.40039 25.8662H15.8662L18 28H6.40039C5.07491 28 4 26.9251 4 25.5996V19.5996C4.00014 18.2742 5.07499 17.2002 6.40039 17.2002H23.332ZM22.2402 6.13379H6.40039C6.25311 6.13379 6.13379 6.25311 6.13379 6.40039V12.4004C6.134 12.5475 6.25324 12.667 6.40039 12.667H16L18.1738 14.7998H6.40039C5.07504 14.7998 4.00021 13.7257 4 12.4004V6.40039C4 5.07491 5.07491 4 6.40039 4H23.6934L22.2402 6.13379Z" fill="#33363D"/>
<path fill-rule="evenodd" clip-rule="evenodd" d="M27.2639 4.45122C27.751 4.78267 27.8771 5.44616 27.5456 5.93318L22.1012 13.9332C21.9224 14.1959 21.6359 14.3652 21.3195 14.395C21.0032 14.4248 20.69 14.3121 20.4653 14.0875L17.1302 10.7542C16.7136 10.3377 16.7134 9.66234 17.1298 9.24567C17.5463 8.829 18.2217 8.82882 18.6383 9.24528L21.0623 11.668L25.782 4.73292C26.1134 4.2459 26.7769 4.11978 27.2639 4.45122Z" fill="#256EF4"/>
<path fill-rule="evenodd" clip-rule="evenodd" d="M27.2639 17.7846C27.751 18.116 27.8771 18.7795 27.5456 19.2665L22.1012 27.2665C21.9224 27.5292 21.6359 27.6985 21.3195 27.7283C21.0032 27.7582 20.69 27.6454 20.4653 27.4208L17.1302 24.0875C16.7136 23.671 16.7134 22.9957 17.1298 22.579C17.5463 22.1623 18.2217 22.1622 18.6383 22.5786L21.0623 25.0013L25.782 18.0662C26.1134 17.5792 26.7769 17.4531 27.2639 17.7846Z" fill="#256EF4"/>
</svg>
