<svg xmlns="http://www.w3.org/2000/svg" xmlns:xlink="http://www.w3.org/1999/xlink" width="16" height="16" viewBox="0 0 16 16">
  <defs>
    <clipPath id="clip-path">
      <rect id="사각형_29906" data-name="사각형 29906" width="14.002" height="14" fill="#fff"/>
    </clipPath>
  </defs>
  <g id="icon_ai_menu06o" transform="translate(49 -1547)">
    <g id="그룹_7409" data-name="그룹 7409" transform="translate(-48 1548)">
      <g id="그룹_7408" data-name="그룹 7408" transform="translate(0 0)" clip-path="url(#clip-path)">
        <path id="패스_9159" data-name="패스 9159" d="M24.2,2.33a2.3,2.3,0,0,1-.685,1.65l-.988.988a.467.467,0,0,1-.657,0L19.228,2.33a.464.464,0,0,1,0-.657l.988-.988A2.333,2.333,0,0,1,24.2,2.33" transform="translate(-10.194 0)" fill="#fff"/>
        <path id="패스_9160" data-name="패스 9160" d="M11.01,8.9a.47.47,0,0,1,0,.662L4.77,15.8a2.345,2.345,0,0,1-1.035.6l-3.146.858a.569.569,0,0,1-.121.014.465.465,0,0,1-.452-.587l.858-3.146a2.345,2.345,0,0,1,.6-1.035l6.24-6.24a.47.47,0,0,1,.662,0Z" transform="translate(0 -3.272)" fill="#fff"/>
      </g>
    </g>
    <rect id="사각형_30002" data-name="사각형 30002" width="16" height="16" transform="translate(-49 1547)" fill="none"/>
  </g>
</svg>
