<svg xmlns="http://www.w3.org/2000/svg" xmlns:xlink="http://www.w3.org/1999/xlink" width="16" height="16" viewBox="0 0 16 16">
  <defs>
    <clipPath id="clip-path">
      <path id="패스_9109" data-name="패스 9109" d="M8.181.012A2.886,2.886,0,0,0,5.61,2.923v.7A2.886,2.886,0,0,0,8.181,6.538c.082.008.164.012.242.012A2.846,2.846,0,0,0,10.347,5.8a2.788,2.788,0,0,0,.9-2.051V2.8a2.788,2.788,0,0,0-.9-2.051A2.828,2.828,0,0,0,8.43,0c-.083,0-.166,0-.249.011" transform="translate(-5.61 -0.001)" fill="none"/>
    </clipPath>
    <linearGradient id="linear-gradient" x1="0.458" x2="0.452" y2="1.071" gradientUnits="objectBoundingBox">
      <stop offset="0" stop-color="#00b4ff"/>
      <stop offset="1" stop-color="#1367ce"/>
    </linearGradient>
    <clipPath id="clip-path-2">
      <path id="패스_9110" data-name="패스 9110" d="M3.685,18.007A3.69,3.69,0,0,0,0,21.692V22.1a1.232,1.232,0,0,0,1.228,1.228H9.007A1.232,1.232,0,0,0,10.235,22.1v-.409a3.69,3.69,0,0,0-3.685-3.685Z" transform="translate(0 -18.007)" fill="none"/>
    </clipPath>
    <linearGradient id="linear-gradient-2" x1="0.483" x2="0.483" y2="1.043" gradientUnits="objectBoundingBox">
      <stop offset="0" stop-color="#0195fb"/>
      <stop offset="1" stop-color="#00efac"/>
    </linearGradient>
  </defs>
  <g id="icon_ai_menu03" transform="translate(118 -1507)">
    <rect id="사각형_29985" data-name="사각형 29985" width="16" height="16" transform="translate(-118 1507)" fill="none"/>
    <g id="그룹_7301" data-name="그룹 7301" transform="translate(-116.949 1508.313)">
      <g id="그룹_7296" data-name="그룹 7296" transform="translate(2.21 0)">
        <g id="그룹_7295" data-name="그룹 7295" clip-path="url(#clip-path)">
          <rect id="사각형_29864" data-name="사각형 29864" width="5.642" height="6.549" transform="translate(0 0)" fill="url(#linear-gradient)"/>
        </g>
      </g>
      <g id="그룹_7298" data-name="그룹 7298" transform="translate(0 7.678)">
        <g id="그룹_7297" data-name="그룹 7297" clip-path="url(#clip-path-2)">
          <rect id="사각형_29865" data-name="사각형 29865" width="13" height="6" transform="translate(-1 -0.339)" fill="url(#linear-gradient-2)"/>
        </g>
      </g>
      <g id="그룹_7300" data-name="그룹 7300" transform="translate(8.677 4.658)">
        <g id="그룹_7302" data-name="그룹 7302">
          <path id="패스_9111" data-name="패스 9111" d="M24.047,14.685a.408.408,0,0,1-.289-.12L22.12,12.929a.409.409,0,0,1,.579-.579L24.047,13.7l2.576-2.575a.409.409,0,0,1,.579.579l-2.866,2.864a.408.408,0,0,1-.289.12" transform="translate(-22 -11.003)" fill="#56606a"/>
        </g>
      </g>
    </g>
  </g>
</svg>
