<svg width="16" height="16" viewBox="0 0 16 16" fill="none" xmlns="http://www.w3.org/2000/svg">
<path d="M14.6663 7.99985C14.6663 11.6817 11.6815 14.6665 7.99966 14.6665C4.31777 14.6665 1.33301 11.6817 1.33301 7.99985C1.33301 4.31796 4.31777 1.3332 7.99966 1.3332C11.6815 1.3332 14.6663 4.31796 14.6663 7.99985Z" fill="#052B57"/>
<path d="M7.93312 6.29385C8.37495 6.29385 8.73312 5.93568 8.73312 5.49385C8.73312 5.05202 8.37495 4.69385 7.93312 4.69385C7.49129 4.69385 7.13312 5.05202 7.13312 5.49385C7.13312 5.93568 7.49129 6.29385 7.93312 6.29385Z" fill="white"/>
<path d="M6.9998 6.9541C6.88935 6.9541 6.7998 7.04364 6.7998 7.1541V7.5541C6.7998 7.66456 6.88935 7.7541 6.9998 7.7541H7.33418C7.44464 7.7541 7.53418 7.84364 7.53418 7.9541V10.3958H6.86699C6.75654 10.3958 6.66699 10.4853 6.66699 10.5958V10.9958C6.66699 11.1062 6.75654 11.1958 6.86699 11.1958H9.13366C9.24412 11.1958 9.33366 11.1062 9.33366 10.9958V10.5958C9.33366 10.4853 9.24412 10.3958 9.13366 10.3958H8.73418V7.1541C8.73418 7.04364 8.64464 6.9541 8.53418 6.9541H6.9998Z" fill="white"/>
</svg>
