<svg xmlns="http://www.w3.org/2000/svg" width="16" height="16" viewBox="0 0 16 16">
  <g id="icon_appr_file" transform="translate(-40 -200)">
    <g id="icon-1" transform="translate(-3.455 150.982)">
      <rect id="사각형_37" data-name="사각형 37" width="16" height="16" transform="translate(43.455 49.018)" fill="none"/>
      <path id="box" d="M52.654,62.093l4.911-4.97a3.079,3.079,0,0,0,.014-4.3,2.962,2.962,0,0,0-4.221,0l-6.338,6.413a2.033,2.033,0,0,0,0,2.851,1.975,1.975,0,0,0,2.817,0l6.338-6.415a1.016,1.016,0,0,0,0-1.425.987.987,0,0,0-1.408,0l-4.93,4.989a.493.493,0,0,1-.7,0h0a.508.508,0,0,1,0-.713l4.914-4.973a1.989,1.989,0,0,1,2.827-.021,2.034,2.034,0,0,1,.005,2.856l-6.337,6.413a2.962,2.962,0,0,1-4.221,0,3.079,3.079,0,0,1,.014-4.3l6.3-6.373a3.984,3.984,0,0,1,5.666-.012,4.066,4.066,0,0,1-.01,5.691l-4.929,4.989a.5.5,0,0,1-.7,0h0A.508.508,0,0,1,52.654,62.093Z" transform="translate(-1 -0.931)" fill="#8f8e93"/>
    </g>
  </g>
</svg>
