<svg xmlns="http://www.w3.org/2000/svg" xmlns:xlink="http://www.w3.org/1999/xlink" width="98.747" height="92.445" viewBox="0 0 98.747 92.445">
  <defs>
    <linearGradient id="linear-gradient" x1="0.5" x2="0.5" y2="1" gradientUnits="objectBoundingBox">
      <stop offset="0" stop-color="#0195fb"/>
      <stop offset="0.506" stop-color="#00c1f3"/>
      <stop offset="1" stop-color="#00efac"/>
    </linearGradient>
    <clipPath id="clip-path">
      <rect id="사각형_29976" data-name="사각형 29976" width="13.056" height="13.022" fill="url(#linear-gradient)"/>
    </clipPath>
  </defs>
  <g id="icon_ai_registration" transform="translate(-912 -240)">
    <g id="그룹_7582" data-name="그룹 7582" transform="translate(997.691 240)">
      <g id="그룹_7581" data-name="그룹 7581" transform="translate(0 0)" clip-path="url(#clip-path)">
        <path id="패스_9220" data-name="패스 9220" d="M6.528,13.022h0a.841.841,0,0,1-.739-.438L3.9,9.125.438,7.234a.843.843,0,0,1,0-1.479L3.9,3.864,5.789.405a.876.876,0,0,1,1.478,0L9.159,3.864l3.459,1.891a.843.843,0,0,1,0,1.479L9.159,9.125,7.267,12.584a.841.841,0,0,1-.739.438M2.6,6.495,4.922,7.765a.843.843,0,0,1,.335.335l1.271,2.324L7.8,8.1a.845.845,0,0,1,.335-.335l2.324-1.271L8.134,5.224A.848.848,0,0,1,7.8,4.89L6.528,2.566,5.257,4.89a.846.846,0,0,1-.335.335Z" transform="translate(0 0)" fill="url(#linear-gradient)"/>
      </g>
    </g>
    <g id="그룹_7585" data-name="그룹 7585" transform="translate(4912 2317)">
      <g id="그룹_7277" data-name="그룹 7277" transform="translate(-4000 -2077)">
        <path id="패스_9224" data-name="패스 9224" d="M26,97.625a60.746,60.746,0,0,1-14.757,5.1,1.642,1.642,0,0,1-1.715-2.547A52.287,52.287,0,0,0,15.6,89.424,44.436,44.436,0,0,1,5.871,73.2q-.265.027-.538.027A5.332,5.332,0,0,1,0,67.889V50.112a5.334,5.334,0,0,1,5.333-5.334q.272,0,.538.027A44.553,44.553,0,0,1,33.8,16.872q-.027-.265-.027-.537A5.334,5.334,0,0,1,39.11,11H56.89a5.334,5.334,0,0,1,5.333,5.334q0,.272-.027.538A44.552,44.552,0,0,1,90.128,44.8a5.39,5.39,0,0,1,.539-.027A5.334,5.334,0,0,1,96,50.112V67.889a5.332,5.332,0,0,1-5.333,5.333,5.4,5.4,0,0,1-.539-.027A44.472,44.472,0,0,1,26,97.625Z" transform="translate(0 -11)" fill="url(#linear-gradient)"/>
        <path id="패스_9223" data-name="패스 9223" d="M15.111,0H38.222a15.111,15.111,0,0,1,0,30.222H15.111A15.111,15.111,0,0,1,15.111,0Z" transform="translate(30.222 30.223)" fill="#fff"/>
        <path id="패스_9221" data-name="패스 9221" d="M5.333,0A5.333,5.333,0,1,1,0,5.333,5.333,5.333,0,0,1,5.333,0Z" transform="translate(39.111 40.889)" fill="#23505d"/>
        <path id="패스_9222" data-name="패스 9222" d="M5.333,0A5.333,5.333,0,1,1,0,5.333,5.333,5.333,0,0,1,5.333,0Z" transform="translate(67.556 40.889)" fill="#23505d"/>
      </g>
    </g>
  </g>
</svg>
