<svg xmlns="http://www.w3.org/2000/svg" xmlns:xlink="http://www.w3.org/1999/xlink" width="24" height="24" viewBox="0 0 24 24">
  <defs>
    <linearGradient id="linear-gradient" x1="0.176" y1="0.878" x2="0.661" y2="0.163" gradientUnits="objectBoundingBox">
      <stop offset="0" stop-color="#0195fb"/>
      <stop offset="0.506" stop-color="#00c1f3"/>
      <stop offset="1" stop-color="#00efac"/>
    </linearGradient>
    <clipPath id="clip-path">
      <rect id="사각형_30511" data-name="사각형 30511" width="20.69" height="16" fill="url(#linear-gradient)"/>
    </clipPath>
  </defs>
  <g id="그룹_9234" data-name="그룹 9234" transform="translate(-714 -1507.764)">
    <rect id="사각형_29994" data-name="사각형 29994" width="24" height="24" transform="translate(714 1507.764)" fill="none"/>
    <g id="그룹_9184" data-name="그룹 9184" transform="translate(715.478 1511.941)">
      <g id="그룹_9148" data-name="그룹 9148" transform="translate(0 0)" clip-path="url(#clip-path)">
        <path id="패스_9984" data-name="패스 9984" d="M2.069,0A2.093,2.093,0,0,0,0,1.8L10.345,8,20.69,1.8A2.093,2.093,0,0,0,18.621,0ZM0,3.8V14a2.042,2.042,0,0,0,2.069,2H18.621a2.042,2.042,0,0,0,2.069-2V3.8L10.345,10Z" transform="translate(0 0)" fill="url(#linear-gradient)"/>
      </g>
    </g>
  </g>
</svg>
