<svg xmlns="http://www.w3.org/2000/svg" width="25.001" height="30" viewBox="0 0 25.001 30">
  <g id="icon_appr_04" transform="translate(0 -300)">
    <g id="icon" transform="translate(-1243.999 13)">
      <path id="Shape_3" data-name="Shape 3" d="M464.837,414H464a5.206,5.206,0,0,1,.4-1.981h5.228a1.389,1.389,0,0,0,1.388-1.39v-1.311a5.034,5.034,0,0,1,1.958,1.587,3.362,3.362,0,0,1-3.344,3.1Zm-12.471,0A3.374,3.374,0,0,1,449,410.63V389.372A3.373,3.373,0,0,1,452.366,386h1.677a2.346,2.346,0,0,1,2.313-2h9.292a2.347,2.347,0,0,1,2.315,2h1.67A3.373,3.373,0,0,1,473,389.372v14.863a4.807,4.807,0,0,0-1.984-1.759l0-13.1a1.391,1.391,0,0,0-1.388-1.39h-1.668A2.348,2.348,0,0,1,465.645,390h-9.292a2.345,2.345,0,0,1-2.316-2.021h-1.675a1.391,1.391,0,0,0-1.388,1.39V410.63a1.391,1.391,0,0,0,1.388,1.39h9.924A7.215,7.215,0,0,0,462,414ZM456,386.354v1.3a.352.352,0,0,0,.351.352h9.292a.352.352,0,0,0,.352-.352v-1.3a.352.352,0,0,0-.352-.351h-9.292A.352.352,0,0,0,456,386.354Zm15.022,18.556a2.875,2.875,0,0,1,0,3.885Zm-11.13-1.544-4.3-4.1,1.366-1.461,3.615,3.454,4.472-4.254,1.366,1.462-5.155,4.9a1,1,0,0,1-1.366,0Z" transform="translate(795 -97)"/>
      <path id="Op_component_5" data-name="Op component 5" d="M464.837,414H474a5.132,5.132,0,0,0-3.347-4.849,2.878,2.878,0,0,0,1.126-2.293,2.778,2.778,0,1,0-5.553,0,2.878,2.878,0,0,0,1.125,2.293A5.131,5.131,0,0,0,464,414Z" transform="translate(795 -97)" fill="#297cd3"/>
    </g>
  </g>
</svg>
