<svg xmlns="http://www.w3.org/2000/svg" width="16" height="16" viewBox="0 0 16 16">
  <g id="icon_ai_menu12o" transform="translate(-399 -1527)">
    <g id="그룹_7641" data-name="그룹 7641" transform="translate(-207.949 -25)">
      <g id="그룹_7429" data-name="그룹 7429" transform="translate(607.949 1558.897)">
        <g id="그룹_7430" data-name="그룹 7430">
          <path id="패스_9176" data-name="패스 9176" d="M17,1.5A1.5,1.5,0,1,1,15.5,0,1.5,1.5,0,0,1,17,1.5" transform="translate(-8 0.103)" fill="#fff"/>
          <path id="패스_9177" data-name="패스 9177" d="M31,1.5A1.5,1.5,0,1,1,29.5,0,1.5,1.5,0,0,1,31,1.5" transform="translate(-17 0.103)" fill="#fff"/>
          <path id="패스_9178" data-name="패스 9178" d="M3,1.5A1.5,1.5,0,1,1,1.5,0,1.5,1.5,0,0,1,3,1.5" transform="translate(1 0.103)" fill="#fff"/>
        </g>
      </g>
    </g>
    <rect id="사각형_30008" data-name="사각형 30008" width="16" height="16" transform="translate(399 1527)" fill="none"/>
  </g>
</svg>
