<svg xmlns="http://www.w3.org/2000/svg" xmlns:xlink="http://www.w3.org/1999/xlink" width="16" height="16" viewBox="0 0 16 16">
  <defs>
    <clipPath id="clip-path">
      <rect id="사각형_29902" data-name="사각형 29902" width="14" height="14" fill="#fff"/>
    </clipPath>
  </defs>
  <g id="icon_ai_menu02o" transform="translate(186 -1518)">
    <g id="그룹_7397" data-name="그룹 7397" transform="translate(-185 1519)">
      <g id="그룹_7396" data-name="그룹 7396" transform="translate(0 0)" clip-path="url(#clip-path)">
        <path id="패스_9146" data-name="패스 9146" d="M12.952,7.171v7.045a2.015,2.015,0,0,1-2.013,2.013H2.013A2.015,2.015,0,0,1,0,14.216V5.683A2.015,2.015,0,0,1,2.013,3.67H8.666l-.785.785-2.83,2.83a2.729,2.729,0,0,0-.7,1.213L3.8,10.511a1.576,1.576,0,0,0,1.876,1.927l.027,0,2.025-.553a2.775,2.775,0,0,0,1.225-.71Z" transform="translate(0 -2.23)" fill="#fff"/>
        <path id="패스_9147" data-name="패스 9147" d="M21.629,1.574a1.581,1.581,0,0,1-.459,1.115l-.628.624-4.792,4.8a1.591,1.591,0,0,1-.7.4l-2,.546a.453.453,0,0,1-.1.012.392.392,0,0,1-.381-.495l.546-2a1.591,1.591,0,0,1,.4-.7L18.94.459a1.574,1.574,0,0,1,2.689,1.115" transform="translate(-7.629 0)" fill="#fff"/>
      </g>
    </g>
    <rect id="사각형_29997" data-name="사각형 29997" width="16" height="16" transform="translate(-186 1518)" fill="none"/>
  </g>
</svg>
