<svg xmlns="http://www.w3.org/2000/svg" width="24.001" height="30" viewBox="0 0 24.001 30">
  <g id="icon_appr_03" transform="translate(-120 -300)">
    <g id="icon" transform="translate(-1045.999 9)">
      <path id="Shape_1" data-name="Shape 1" d="M391.366,415a3.373,3.373,0,0,1-3.367-3.37V390.371A3.373,3.373,0,0,1,391.366,387h1.677a2.347,2.347,0,0,1,2.313-2h9.292a2.347,2.347,0,0,1,2.315,2h1.67A3.373,3.373,0,0,1,412,390.371v18.693l-1.985-1.391,0-17.3a1.391,1.391,0,0,0-1.388-1.39h-1.668A2.347,2.347,0,0,1,404.645,391h-9.293a2.345,2.345,0,0,1-2.316-2.021h-1.675a1.389,1.389,0,0,0-1.388,1.39v21.258a1.389,1.389,0,0,0,1.388,1.39H400V415ZM395,387.354v1.3a.352.352,0,0,0,.351.352h9.293a.352.352,0,0,0,.352-.352v-1.3a.352.352,0,0,0-.352-.351h-9.293A.353.353,0,0,0,395,387.354Zm3.887,17.013-4.3-4.1,1.366-1.462,3.614,3.454,4.47-4.253,1.365,1.461-5.153,4.9a1,1,0,0,1-1.366,0Z" transform="translate(778 -94)"/>
      <path id="Op_component_3" data-name="Op component 3" d="M407,410h-5v3h5v2l5-3.5-5-3.5Z" transform="translate(778 -94)" fill="#297cd3"/>
    </g>
  </g>
</svg>
