<svg xmlns="http://www.w3.org/2000/svg" xmlns:xlink="http://www.w3.org/1999/xlink" width="16" height="16" viewBox="0 0 16 16">
  <defs>
    <clipPath id="clip-path">
      <path id="패스_9125" data-name="패스 9125" d="M0,12v3.554a1.96,1.96,0,0,0,1.944,1.974H12.056A1.96,1.96,0,0,0,14,15.554V12.012C13.876,12,13.747,12,13.611,12Z" transform="translate(0 -12)" fill="none"/>
    </clipPath>
    <linearGradient id="linear-gradient" x1="0.123" y1="0.792" x2="0.927" y2="0.779" gradientUnits="objectBoundingBox">
      <stop offset="0" stop-color="#0195fb"/>
      <stop offset="1" stop-color="#00efac"/>
    </linearGradient>
    <clipPath id="clip-path-2">
      <path id="패스_9129" data-name="패스 9129" d="M4,3.58A1.58,1.58,0,1,0,5.58,2,1.58,1.58,0,0,0,4,3.58" transform="translate(-4 -2)" fill="none"/>
    </clipPath>
    <linearGradient id="linear-gradient-2" x1="0.091" y1="0.934" x2="0.949" y2="1" gradientUnits="objectBoundingBox">
      <stop offset="0" stop-color="#1f7cf9"/>
      <stop offset="0.994" stop-color="#00b4ff"/>
      <stop offset="1" stop-color="#00b4ff"/>
    </linearGradient>
    <clipPath id="clip-path-3">
      <rect id="사각형_29886" data-name="사각형 29886" width="13.784" height="14" fill="none"/>
    </clipPath>
  </defs>
  <g id="icon_ai_menu04" transform="translate(32 -1507)">
    <rect id="사각형_29986" data-name="사각형 29986" width="16" height="16" transform="translate(-32 1507)" fill="none"/>
    <g id="그룹_7353" data-name="그룹 7353" transform="translate(-30.949 1507.872)">
      <g id="그룹_7344" data-name="그룹 7344" transform="translate(0 0.045)">
        <g id="그룹_7355" data-name="그룹 7355">
          <path id="패스_9124" data-name="패스 9124" d="M14,1.974V8.292a1.96,1.96,0,0,1-1.944,1.974H1.944A1.96,1.96,0,0,1,0,8.292V1.974A1.96,1.96,0,0,1,1.944,0H12.053A1.96,1.96,0,0,1,14,1.974" transform="translate(0 -0.025)" fill="#f2f4f8"/>
        </g>
      </g>
      <g id="그룹_7346" data-name="그룹 7346" transform="translate(0 4.759)">
        <g id="그룹_7345" data-name="그룹 7345" clip-path="url(#clip-path)">
          <rect id="사각형_29883" data-name="사각형 29883" width="15.788" height="6" transform="translate(-1 0)" fill="url(#linear-gradient)"/>
        </g>
      </g>
      <g id="그룹_7348" data-name="그룹 7348" transform="translate(0 0.045)">
        <g id="그룹_7354" data-name="그룹 7354">
          <path id="패스_9126" data-name="패스 9126" d="M11.888,23.9a3.949,3.949,0,1,1,3.888-3.949A3.923,3.923,0,0,1,11.888,23.9" transform="translate(-4.89 -9.706)" fill="#1367ce"/>
          <path id="패스_9127" data-name="패스 9127" d="M13.11,18a3.159,3.159,0,1,0,3.11,3.159A3.139,3.139,0,0,0,13.11,18" transform="translate(-6.112 -10.917)" fill="#f2f4f8"/>
          <path id="패스_9128" data-name="패스 9128" d="M18.75,23.541a.385.385,0,0,1-.275-.116l-1.361-1.382A.4.4,0,0,1,17,21.764V19.395a.389.389,0,1,1,.778,0V21.6l1.247,1.266a.4.4,0,0,1,0,.558.385.385,0,0,1-.275.116" transform="translate(-10.39 -11.522)" fill="#65676b"/>
        </g>
      </g>
      <g id="그룹_7350" data-name="그룹 7350" transform="translate(1.58 0.81)">
        <g id="그룹_7349" data-name="그룹 7349" clip-path="url(#clip-path-2)">
          <rect id="사각형_29885" data-name="사각형 29885" width="4" height="4" transform="translate(-0.58 -0.765)" fill="url(#linear-gradient-2)"/>
        </g>
      </g>
      <g id="그룹_7352" data-name="그룹 7352" transform="translate(0 0.045)">
        <g id="그룹_7351" data-name="그룹 7351" clip-path="url(#clip-path-3)">
          <path id="패스_9130" data-name="패스 9130" d="M21.61,5.79H15.389a.395.395,0,0,1,0-.79H21.61a.395.395,0,0,1,0,.79" transform="translate(-9.168 -3.05)" fill="#65676b"/>
        </g>
      </g>
    </g>
  </g>
</svg>
