<svg width="16" height="16" viewBox="0 0 16 16" fill="none" xmlns="http://www.w3.org/2000/svg">
<path d="M10.6667 3.9999L5.05733 9.7239C4.80723 9.974 4.66673 10.3132 4.66673 10.6669C4.66673 11.0206 4.80723 11.3598 5.05733 11.6099C5.30743 11.86 5.64664 12.0005 6.00033 12.0005C6.35403 12.0005 6.69323 11.86 6.94333 11.6099L12.5527 5.8859C13.0528 5.38579 13.3337 4.70749 13.3337 4.00023C13.3337 3.29297 13.0528 2.61467 12.5527 2.11456C12.0526 1.61445 11.3743 1.3335 10.667 1.3335C9.95974 1.3335 9.28144 1.61445 8.78133 2.11456L3.19533 7.81523C2.81893 8.18555 2.51958 8.62673 2.31453 9.11332C2.10949 9.59991 2.00282 10.1223 2.00067 10.6503C1.99852 11.1783 2.10093 11.7016 2.30201 12.1898C2.50308 12.6781 2.79883 13.1217 3.17221 13.495C3.54558 13.8684 3.98918 14.1642 4.47743 14.3652C4.96567 14.5663 5.4889 14.6687 6.01692 14.6666C6.54494 14.6644 7.06732 14.5577 7.55391 14.3527C8.0405 14.1477 8.48168 13.8483 8.852 13.4719L14.438 7.77123" stroke="#464C53" stroke-linecap="round" stroke-linejoin="round"/>
</svg>
