<svg xmlns="http://www.w3.org/2000/svg" xmlns:xlink="http://www.w3.org/1999/xlink" width="16" height="16" viewBox="0 0 16 16">
  <defs>
    <clipPath id="clip-path">
      <rect id="사각형_29905" data-name="사각형 29905" width="13.997" height="14" fill="#fff"/>
    </clipPath>
  </defs>
  <g id="icon_ai_menu05o" transform="translate(147 -1552)">
    <g id="그룹_7406" data-name="그룹 7406" transform="translate(-146 1553)">
      <g id="그룹_7405" data-name="그룹 7405" transform="translate(0 0)" clip-path="url(#clip-path)">
        <path id="패스_9157" data-name="패스 9157" d="M19.469,12.744v-3a.735.735,0,1,0-1.469,0v3.305a.735.735,0,0,0,.215.519l2.755,2.755a.734.734,0,1,0,1.039-1.039Z" transform="translate(-11.389 -5.7)" fill="#fff"/>
        <path id="패스_9158" data-name="패스 9158" d="M7.346.7A6.591,6.591,0,0,0,3.494,1.936L1.873.315A1.09,1.09,0,0,0,.692.083,1.091,1.091,0,0,0,0,1.1v4.04A1.1,1.1,0,0,0,.8,6.2,6.649,6.649,0,1,0,7.346.7m0,11.834A5.188,5.188,0,0,1,2.163,7.348a5.124,5.124,0,0,1,.122-1.1H5.142a1.091,1.091,0,0,0,1.017-.682,1.1,1.1,0,0,0-.237-1.2L4.547,2.989a5.181,5.181,0,1,1,2.8,9.541" transform="translate(0 0)" fill="#fff"/>
      </g>
    </g>
    <rect id="사각형_30000" data-name="사각형 30000" width="16" height="16" transform="translate(-147 1552)" fill="none"/>
  </g>
</svg>
