<svg xmlns="http://www.w3.org/2000/svg" width="16" height="16" viewBox="0 0 16 16">
  <g id="icon_ai_menu11o" transform="translate(-343 -1529)">
    <g id="그룹_7425" data-name="그룹 7425" transform="translate(343 1530)">
      <g id="그룹_7426" data-name="그룹 7426" transform="translate(0 0)">
        <path id="패스_9172" data-name="패스 9172" d="M11.357,19.093V20a1.367,1.367,0,0,1-1.363,1.363H1.363A1.367,1.367,0,0,1,0,20v-.909A4.1,4.1,0,0,1,4.089,15h3.18a4.1,4.1,0,0,1,4.089,4.089" transform="translate(0 -8.188)" fill="#fff"/>
        <path id="패스_9173" data-name="패스 9173" d="M12.452,2.727v.909a2.738,2.738,0,0,1-.886,2.013,2.7,2.7,0,0,1-1.835.713c-.082,0-.164,0-.25-.009A2.81,2.81,0,0,1,7,3.518V2.846A2.81,2.81,0,0,1,9.48.011a2.7,2.7,0,0,1,2.085.7,2.738,2.738,0,0,1,.886,2.013" transform="translate(-3.923 0)" fill="#fff"/>
        <path id="패스_9174" data-name="패스 9174" d="M22,5.757V5.248a2.182,2.182,0,0,1,1.858-2.235,1.968,1.968,0,0,1,1.522.513,2.222,2.222,0,0,1,.709,1.635v.681a2.222,2.222,0,0,1-.709,1.635A1.962,1.962,0,0,1,24.044,8c-.059,0-.123,0-.186-.009A2.182,2.182,0,0,1,22,5.757" transform="translate(-12.36 -1.639)" fill="#fff"/>
        <path id="패스_9175" data-name="패스 9175" d="M29.277,19.184v.454A1.367,1.367,0,0,1,27.914,21H25.143a2.141,2.141,0,0,0,.045-.454v-.909a4.973,4.973,0,0,0-1.508-3.575,2.918,2.918,0,0,1,.6-.059H26.1a3.184,3.184,0,0,1,3.18,3.18" transform="translate(-13.277 -8.733)" fill="#fff"/>
      </g>
    </g>
    <rect id="사각형_30007" data-name="사각형 30007" width="16" height="16" transform="translate(343 1529)" fill="none"/>
  </g>
</svg>
