<svg id="icon_ai_history" xmlns="http://www.w3.org/2000/svg" xmlns:xlink="http://www.w3.org/1999/xlink" width="16" height="16" viewBox="0 0 16 16">
  <defs>
    <clipPath id="clip-path">
      <rect id="사각형_29930" data-name="사각형 29930" width="16" height="16" fill="none" stroke="#4d5a64" stroke-width="1.2"/>
    </clipPath>
  </defs>
  <g id="그룹_7471" data-name="그룹 7471" clip-path="url(#clip-path)">
    <g id="그룹_7473" data-name="그룹 7473" transform="translate(1.211 1.506)">
      <line id="선_553" data-name="선 553" y2="3.2" transform="translate(12.133 0.133)" fill="none" stroke="#4d5a64" stroke-linecap="round" stroke-linejoin="round" stroke-width="1.2"/>
      <line id="선_554" data-name="선 554" x2="3.2" transform="translate(8.933 3.333)" fill="none" stroke="#4d5a64" stroke-linecap="round" stroke-linejoin="round" stroke-width="1.2"/>
      <path id="패스_9182" data-name="패스 9182" d="M7.494,13.987A6.494,6.494,0,1,1,7.494,1a6.441,6.441,0,0,1,5.313,2.952" transform="translate(-1 -1)" fill="none" stroke="#4d5a64" stroke-linecap="round" stroke-linejoin="round" stroke-width="1.2"/>
      <path id="패스_9183" data-name="패스 9183" d="M22.59,12.186a.588.588,0,0,1-.224-.047.682.682,0,0,1-.195-.124.584.584,0,0,1-.124-.643.682.682,0,0,1,.124-.195.59.59,0,0,1,1.009.419.584.584,0,0,1-.171.419.682.682,0,0,1-.195.124.588.588,0,0,1-.224.047" transform="translate(-9.603 -5.102)" fill="#2a2a2a"/>
      <path id="패스_9184" data-name="패스 9184" d="M16.576,19.765a.592.592,0,1,1,1.027-.59.59.59,0,0,1-.218.8.547.547,0,0,1-.3.083.6.6,0,0,1-.514-.3M19.168,17.6a.6.6,0,0,1-.213-.809.59.59,0,0,1,1.021.59v.006a.582.582,0,0,1-.514.289.6.6,0,0,1-.3-.077" transform="translate(-7.35 -7.351)" fill="#2a2a2a"/>
      <line id="선_555" data-name="선 555" y2="4" transform="translate(6.533 3.333)" fill="none" stroke="#4d5a64" stroke-linecap="round" stroke-linejoin="round" stroke-width="1.2"/>
      <line id="선_556" data-name="선 556" x2="2.4" y2="1.6" transform="translate(6.533 7.333)" fill="none" stroke="#4d5a64" stroke-linecap="round" stroke-linejoin="round" stroke-width="1.2"/>
    </g>
  </g>
</svg>
