<svg xmlns="http://www.w3.org/2000/svg" xmlns:xlink="http://www.w3.org/1999/xlink" width="24" height="24" viewBox="0 0 24 24">
  <defs>
    <linearGradient id="linear-gradient" x1="0.002" y1="0.998" x2="0.906" y2="0.929" gradientUnits="objectBoundingBox">
      <stop offset="0" stop-color="#0195fb"/>
      <stop offset="0.506" stop-color="#00c1f3"/>
      <stop offset="1" stop-color="#00efac"/>
    </linearGradient>
    <clipPath id="clip-path">
      <path id="패스_9966" data-name="패스 9966" d="M12.566.148,10.5,1.3,8.434.148A1.172,1.172,0,0,0,6.841.6L5.8,2.476H3.644A1.171,1.171,0,0,0,2.476,3.644V5.791L.6,6.841a1.172,1.172,0,0,0-.6,1v.04a1.163,1.163,0,0,0,.148.55L1.3,10.5.148,12.566A1.173,1.173,0,0,0,.6,14.159l1.879,1.05v2.147a1.17,1.17,0,0,0,1.167,1.167H5.8L6.841,20.4a1.177,1.177,0,0,0,.706.554A1.146,1.146,0,0,0,7.862,21a1.175,1.175,0,0,0,.572-.146L10.5,19.7l2.065,1.155a1.173,1.173,0,0,0,1.593-.449L15.2,18.523h2.153a1.17,1.17,0,0,0,1.167-1.167V15.209l1.879-1.05a1.172,1.172,0,0,0,.449-1.593L19.7,10.5l1.155-2.065A1.163,1.163,0,0,0,21,7.885v-.04a1.173,1.173,0,0,0-.6-1l-1.879-1.05V3.644a1.171,1.171,0,0,0-1.167-1.168H15.2L14.159.6a1.177,1.177,0,0,0-.706-.555A1.218,1.218,0,0,0,13.136,0a1.177,1.177,0,0,0-.571.148" transform="translate(0 0)" fill="url(#linear-gradient)"/>
    </clipPath>
    <clipPath id="clip-path-2">
      <rect id="사각형_30499" data-name="사각형 30499" width="20" height="20" transform="translate(0.5 0.5)" fill="url(#linear-gradient)"/>
    </clipPath>
  </defs>
  <g id="그룹_9231" data-name="그룹 9231" transform="translate(-714 -1508)">
    <rect id="사각형_29994" data-name="사각형 29994" width="24" height="24" transform="translate(714 1508)" fill="none"/>
    <g id="그룹_9167" data-name="그룹 9167" transform="translate(715.5 1509.5)">
      <g id="그룹_9118" data-name="그룹 9118" transform="translate(0 0)">
        <g id="그룹_9117" data-name="그룹 9117" clip-path="url(#clip-path)">
          <rect id="사각형_30498" data-name="사각형 30498" width="21.077" height="21.077" transform="translate(-0.039 -0.038)" fill="url(#linear-gradient)"/>
        </g>
      </g>
      <g id="그룹_9120" data-name="그룹 9120" transform="translate(0 0)">
        <g id="그룹_9119" data-name="그룹 9119" clip-path="url(#clip-path-2)">
          <path id="패스_10008" data-name="패스 10008" d="M13.107,24.13a1.793,1.793,0,0,1-1.276-.528L9.676,21.446a.6.6,0,0,1,.85-.85l2.156,2.156a.614.614,0,0,0,.849,0l5.162-5.162a.6.6,0,0,1,.85.85L14.382,23.6a1.79,1.79,0,0,1-1.275.528" transform="translate(-3.712 -9.945)" fill="#fff"/>
        </g>
      </g>
    </g>
  </g>
</svg>
