<svg xmlns="http://www.w3.org/2000/svg" xmlns:xlink="http://www.w3.org/1999/xlink" width="16" height="16" viewBox="0 0 16 16">
  <defs>
    <clipPath id="clip-path">
      <rect id="사각형_29903" data-name="사각형 29903" width="14" height="13" fill="#fff"/>
    </clipPath>
  </defs>
  <g id="icon_ai_menu03o" transform="translate(169 -1518)">
    <g id="그룹_7400" data-name="그룹 7400" transform="translate(-168 1520)">
      <g id="그룹_7399" data-name="그룹 7399" transform="translate(0 0)" clip-path="url(#clip-path)">
        <path id="패스_9148" data-name="패스 9148" d="M10,21.78V22.2a1.233,1.233,0,0,1-1.2,1.258H1.2A1.233,1.233,0,0,1,0,22.2V21.78a3.7,3.7,0,0,1,3.6-3.773H6.4A3.7,3.7,0,0,1,10,21.78" transform="translate(0 -10.457)" fill="#fff"/>
        <path id="패스_9149" data-name="패스 9149" d="M5.61,3.714V2.992A2.91,2.91,0,0,1,8.122.012a2.69,2.69,0,0,1,2.116.75,2.92,2.92,0,0,1,.884,2.1v.981a2.92,2.92,0,0,1-.884,2.1,2.711,2.711,0,0,1-1.88.763,2.282,2.282,0,0,1-.236-.013A2.91,2.91,0,0,1,5.61,3.714" transform="translate(-3.366 0)" fill="#fff"/>
        <path id="패스_9150" data-name="패스 9150" d="M27.082,5.722l-2.8,2.935a.392.392,0,0,1-.568,0l-1.6-1.677a.437.437,0,0,1,0-.6.39.39,0,0,1,.568,0L24,7.768l2.516-2.641a.39.39,0,0,1,.568,0,.437.437,0,0,1,0,.6" transform="translate(-13.199 -0.12)" fill="#fff"/>
      </g>
    </g>
    <rect id="사각형_29998" data-name="사각형 29998" width="16" height="16" transform="translate(-169 1518)" fill="none"/>
  </g>
</svg>
