<svg xmlns="http://www.w3.org/2000/svg" xmlns:xlink="http://www.w3.org/1999/xlink" width="16" height="16" viewBox="0 0 16 16">
  <defs>
    <clipPath id="clip-path">
      <rect id="사각형_29860" data-name="사각형 29860" width="14" height="14" fill="#fff"/>
    </clipPath>
  </defs>
  <g id="icon_ai_menu01o" transform="translate(196 -1518)">
    <g id="그룹_7289" data-name="그룹 7289" transform="translate(-195 1519)">
      <g id="그룹_7288" data-name="그룹 7288" clip-path="url(#clip-path)">
        <path id="패스_9104" data-name="패스 9104" d="M26.222,23.111A3.111,3.111,0,1,1,23.111,20a3.115,3.115,0,0,1,3.111,3.111" transform="translate(-12.222 -12.222)" fill="#fff"/>
        <path id="패스_9105" data-name="패스 9105" d="M6.222,23.111A3.111,3.111,0,1,1,3.111,20a3.115,3.115,0,0,1,3.111,3.111" transform="translate(0 -12.222)" fill="#fff"/>
        <path id="패스_9106" data-name="패스 9106" d="M6.222,3.111A3.111,3.111,0,1,1,3.111,0,3.115,3.115,0,0,1,6.222,3.111" fill="#fff"/>
        <path id="패스_9107" data-name="패스 9107" d="M20,3.111a3.111,3.111,0,1,1,3.111,3.111A3.115,3.115,0,0,1,20,3.111" transform="translate(-12.222)" fill="#fff"/>
      </g>
    </g>
    <rect id="사각형_29996" data-name="사각형 29996" width="16" height="16" transform="translate(-196 1518)" fill="none"/>
  </g>
</svg>
