<svg width="21" height="20" viewBox="0 0 21 20" fill="none" xmlns="http://www.w3.org/2000/svg">
<path d="M0.5 10C0.5 4.47715 4.97715 0 10.5 0C16.0228 0 20.5 4.47715 20.5 10C20.5 15.5228 16.0228 20 10.5 20C4.97715 20 0.5 15.5228 0.5 10Z" fill="#256EF4"/>
<path d="M10.5 3.7998C13.9242 3.7998 16.7002 6.57583 16.7002 10C16.7002 13.4242 13.9242 16.2002 10.5 16.2002C7.07583 16.2002 4.2998 13.4242 4.2998 10C4.2998 6.57583 7.07583 3.7998 10.5 3.7998Z" fill="#256EF4"/>
<path d="M10.5 3.7998C13.9242 3.7998 16.7002 6.57583 16.7002 10C16.7002 13.4242 13.9242 16.2002 10.5 16.2002C7.07583 16.2002 4.2998 13.4242 4.2998 10C4.2998 6.57583 7.07583 3.7998 10.5 3.7998Z" stroke="white" stroke-width="1.6"/>
</svg>
