<svg xmlns="http://www.w3.org/2000/svg" width="25" height="30" viewBox="0 0 25 30">
  <g id="icon_appr_02" transform="translate(-80 -300)">
    <g id="icon" transform="translate(-1163 -8)">
      <path id="Shape_2" data-name="Shape 2" d="M422.367,415a3.373,3.373,0,0,1-3.367-3.37V390.371A3.373,3.373,0,0,1,422.367,387h1.676a2.347,2.347,0,0,1,2.313-2h9.292a2.346,2.346,0,0,1,2.314,2h1.671A3.373,3.373,0,0,1,443,390.371v18.68a3.508,3.508,0,0,0-.508-.051,3.459,3.459,0,0,0-1.477.339l0-18.968a1.39,1.39,0,0,0-1.388-1.39h-1.668A2.345,2.345,0,0,1,435.645,391h-9.292a2.344,2.344,0,0,1-2.316-2.021h-1.675a1.389,1.389,0,0,0-1.387,1.39v21.258a1.389,1.389,0,0,0,1.387,1.39h6.693a3.484,3.484,0,0,0,1,1.981ZM426,387.354v1.3a.352.352,0,0,0,.351.352h9.292a.352.352,0,0,0,.352-.352v-1.3a.352.352,0,0,0-.352-.351h-9.292A.353.353,0,0,0,426,387.354Zm3.887,17.013-4.3-4.1,1.366-1.462,3.614,3.454,4.47-4.253,1.366,1.461-5.153,4.9a1,1,0,0,1-1.366,0Z" transform="translate(824 -77)"/>
      <g id="그룹_719" data-name="그룹 719">
        <circle id="Op_component_2" data-name="Op component 2" cx="1.5" cy="1.5" r="1.5" transform="translate(1255 334)" fill="#297cd3"/>
        <circle id="Op_component_3" data-name="Op component 3" cx="1.5" cy="1.5" r="1.5" transform="translate(1260 334)" fill="#297cd3"/>
        <circle id="Op_component_4" data-name="Op component 4" cx="1.5" cy="1.5" r="1.5" transform="translate(1265 334)" fill="#297cd3"/>
      </g>
    </g>
  </g>
</svg>
