<svg xmlns="http://www.w3.org/2000/svg" xmlns:xlink="http://www.w3.org/1999/xlink" width="16" height="16" viewBox="0 0 16 16">
  <defs>
    <clipPath id="clip-path">
      <rect id="사각형_29866" data-name="사각형 29866" width="14" height="14" transform="translate(0 0)" fill="none"/>
    </clipPath>
    <clipPath id="clip-path-2">
      <path id="패스_9114" data-name="패스 9114" d="M6.882,0A6.832,6.832,0,0,0,2.067,1.97.76.76,0,1,0,3.132,3.054,5.36,5.36,0,1,1,1.52,6.882a5.216,5.216,0,0,1,.387-1.991A.76.76,0,0,0,.5,4.313,6.735,6.735,0,0,0,0,6.882,6.882,6.882,0,1,0,6.882,0Z" fill="none"/>
    </clipPath>
    <linearGradient id="linear-gradient" y1="1" x2="1" y2="1" gradientUnits="objectBoundingBox">
      <stop offset="0" stop-color="#00b4ff"/>
      <stop offset="0.006" stop-color="#0196fb"/>
      <stop offset="1" stop-color="#00e8b8"/>
    </linearGradient>
  </defs>
  <g id="icon_ai_menu05" transform="translate(-80 -1507)">
    <rect id="사각형_29987" data-name="사각형 29987" width="16" height="16" transform="translate(80 1507)" fill="none"/>
    <g id="그룹_7451" data-name="그룹 7451" transform="translate(81.051 1508.402)">
      <g id="그룹_7304" data-name="그룹 7304" transform="translate(0 -0.402)">
        <g id="그룹_7303" data-name="그룹 7303" transform="translate(0 0)" clip-path="url(#clip-path)">
          <path id="패스_9112" data-name="패스 9112" d="M14.347,8.386a5.96,5.96,0,1,1-5.96-5.96,5.96,5.96,0,0,1,5.96,5.96" transform="translate(-1.504 -1.269)" fill="#f2f4f8"/>
          <path id="패스_9113" data-name="패스 9113" d="M19.72,14.9a.757.757,0,0,1-.537-.223l-2.85-2.85a.76.76,0,0,1-.223-.537V7.871a.76.76,0,0,1,1.52,0v3.105L20.258,13.6a.76.76,0,0,1-.537,1.3" transform="translate(-9.988 -4.174)" fill="#65676b"/>
        </g>
      </g>
      <g id="그룹_7306" data-name="그룹 7306" transform="translate(0 -0.168)">
        <g id="그룹_7305" data-name="그룹 7305" clip-path="url(#clip-path-2)">
          <rect id="사각형_29867" data-name="사각형 29867" width="16" height="16" transform="translate(-1 -1.235)" fill="url(#linear-gradient)"/>
        </g>
      </g>
      <g id="그룹_7308" data-name="그룹 7308" transform="translate(0 -0.402)">
        <g id="그룹_7307" data-name="그룹 7307" transform="translate(0 0)" clip-path="url(#clip-path)">
          <path id="패스_9115" data-name="패스 9115" d="M5.02,4.816a.375.375,0,0,1-.35.236H.49a.381.381,0,0,1-.38-.38V.491A.375.375,0,0,1,.346.141.381.381,0,0,1,.76.221L4.94,4.4a.381.381,0,0,1,.08.414" transform="translate(-0.068 0.166)" fill="#059df0"/>
        </g>
      </g>
    </g>
  </g>
</svg>
