<svg xmlns="http://www.w3.org/2000/svg" width="16" height="16" viewBox="0 0 16 16">
  <g id="icon_결재선" transform="translate(-282 -131)">
    <rect id="사각형_17581" data-name="사각형 17581" width="16" height="16" transform="translate(282 131)" fill="none"/>
    <g id="타원_48" data-name="타원 48" transform="translate(283 133)" fill="#fffbf3" stroke="#ffb219" stroke-width="1">
      <circle cx="7" cy="7" r="7" stroke="none"/>
      <circle cx="7" cy="7" r="6.5" fill="none"/>
    </g>
    <path id="합치기_50" data-name="합치기 50" d="M1533-45a1,1,0,0,1,1-1,1,1,0,0,1,1,1,1,1,0,0,1-1,1A1,1,0,0,1,1533-45Zm-3,0a1,1,0,0,1,1-1,1,1,0,0,1,1,1,1,1,0,0,1-1,1A1,1,0,0,1,1530-45Zm-3,0a1,1,0,0,1,1-1,1,1,0,0,1,1,1,1,1,0,0,1-1,1A1,1,0,0,1,1527-45Z" transform="translate(-1241 185)" fill="#ffb219"/>
    <g id="패스_8859" data-name="패스 8859" transform="translate(291 131)" fill="#ffb219">
      <path d="M 3.5 6.5 C 1.845790028572083 6.5 0.5 5.154210090637207 0.5 3.5 C 0.5 1.845790028572083 1.845790028572083 0.5 3.5 0.5 C 5.154210090637207 0.5 6.5 1.845790028572083 6.5 3.5 C 6.5 5.154210090637207 5.154210090637207 6.5 3.5 6.5 Z" stroke="none"/>
      <path d="M 3.5 1 C 2.121500015258789 1 1 2.121500015258789 1 3.5 C 1 4.878499984741211 2.121500015258789 6 3.5 6 C 4.878499984741211 6 6 4.878499984741211 6 3.5 C 6 2.121500015258789 4.878499984741211 1 3.5 1 M 3.5 0 C 5.433000087738037 0 7 1.566999912261963 7 3.5 C 7 5.433000087738037 5.433000087738037 7 3.5 7 C 1.566999912261963 7 0 5.433000087738037 0 3.5 C 0 1.566999912261963 1.566999912261963 0 3.5 0 Z" stroke="none" fill="#fff"/>
    </g>
  </g>
</svg>
