<svg xmlns="http://www.w3.org/2000/svg" xmlns:xlink="http://www.w3.org/1999/xlink" width="24" height="24" viewBox="0 0 24 24">
  <defs>
    <linearGradient id="linear-gradient" x1="0.184" y1="0.887" x2="0.848" y2="0.351" gradientUnits="objectBoundingBox">
      <stop offset="0" stop-color="#0195fb"/>
      <stop offset="0.506" stop-color="#00c1f3"/>
      <stop offset="1" stop-color="#00efac"/>
    </linearGradient>
    <clipPath id="clip-path">
      <path id="패스_9989" data-name="패스 9989" d="M7.292,10.5A3.208,3.208,0,1,1,10.5,13.708,3.214,3.214,0,0,1,7.292,10.5M9.917,0a1.755,1.755,0,0,0-1.75,1.75v.928a8.55,8.55,0,0,0-1.546.642l-.659-.653a1.783,1.783,0,0,0-2.473,0l-.828.822a1.76,1.76,0,0,0,0,2.473l.659.659a8.727,8.727,0,0,0-.642,1.546H1.75A1.755,1.755,0,0,0,0,9.917v1.167a1.755,1.755,0,0,0,1.75,1.75h.928a8.727,8.727,0,0,0,.642,1.546l-.659.659a1.76,1.76,0,0,0,0,2.473l.828.823a1.783,1.783,0,0,0,2.473,0l.659-.653a8.55,8.55,0,0,0,1.546.642v.927A1.755,1.755,0,0,0,9.917,21h1.167a1.755,1.755,0,0,0,1.75-1.75v-.927a8.55,8.55,0,0,0,1.546-.642l.659.653a1.783,1.783,0,0,0,2.473,0l.828-.823a1.76,1.76,0,0,0,0-2.473l-.659-.659a8.727,8.727,0,0,0,.642-1.546h.927A1.755,1.755,0,0,0,21,11.083V9.917a1.755,1.755,0,0,0-1.75-1.75h-.927a8.727,8.727,0,0,0-.642-1.546l.659-.659a1.76,1.76,0,0,0,0-2.473l-.828-.822a1.783,1.783,0,0,0-2.473,0l-.659.653a8.55,8.55,0,0,0-1.546-.642V1.75A1.755,1.755,0,0,0,11.083,0Z" fill="url(#linear-gradient)"/>
    </clipPath>
  </defs>
  <g id="그룹_9298" data-name="그룹 9298" transform="translate(-714 -1508)">
    <rect id="사각형_29994" data-name="사각형 29994" width="24" height="24" transform="translate(714 1508)" fill="none"/>
    <g id="그룹_9165" data-name="그룹 9165" transform="translate(715.5 1509.5)" clip-path="url(#clip-path)">
      <rect id="사각형_30515" data-name="사각형 30515" width="21.09" height="21.09" transform="translate(0 -0.09)" fill="url(#linear-gradient)"/>
    </g>
  </g>
</svg>
