<svg width="16" height="16" viewBox="0 0 16 16" fill="none" xmlns="http://www.w3.org/2000/svg">
<rect width="13.3333" height="13.3333" rx="6.66667" transform="matrix(1 0 0 -1 1.33301 14.6666)" fill="#0B78CB"/>
<path d="M7.93314 6.29397C8.37497 6.29397 8.73314 5.9358 8.73314 5.49397C8.73314 5.05214 8.37497 4.69397 7.93314 4.69397C7.49131 4.69397 7.13314 5.05214 7.13314 5.49397C7.13314 5.9358 7.49131 6.29397 7.93314 6.29397Z" fill="white"/>
<path d="M6.9998 6.95406C6.88935 6.95406 6.7998 7.0436 6.7998 7.15406V7.55406C6.7998 7.66452 6.88935 7.75406 6.9998 7.75406H7.33418C7.44464 7.75406 7.53418 7.8436 7.53418 7.95406V10.3958H6.86699C6.75654 10.3958 6.66699 10.4853 6.66699 10.5958V10.9958C6.66699 11.1062 6.75654 11.1958 6.86699 11.1958H9.13366C9.24412 11.1958 9.33366 11.1062 9.33366 10.9958V10.5958C9.33366 10.4853 9.24412 10.3958 9.13366 10.3958H8.73418V7.15406C8.73418 7.0436 8.64464 6.95406 8.53418 6.95406H6.9998Z" fill="white"/>
</svg>
