<svg xmlns="http://www.w3.org/2000/svg" width="32" height="32" viewBox="0 0 32 32">
  <g id="AdobeStock_570326179" transform="translate(-238.562 -396.335)">
    <rect id="사각형_30479" data-name="사각형 30479" width="32" height="32" transform="translate(238.562 396.335)" fill="none"/>
    <g id="그룹_9072" data-name="그룹 9072" transform="translate(0.001 0.012)">
      <path id="패스_9949" data-name="패스 9949" d="M264.694,406.217v12.9l-5.556,5.523H240v-22.4a2.243,2.243,0,0,1,2.245-2.24h4.961a2.248,2.248,0,0,1,1.347.448l4.108,3.081a2.248,2.248,0,0,0,1.347.448h8.441a2.243,2.243,0,0,1,2.245,2.24Z" fill="#c2c2c2"/>
      <path id="패스_9950" data-name="패스 9950" d="M263.681,1055.509a2.257,2.257,0,0,0,1.347-.448,2.215,2.215,0,0,0,.8-1.159l3.2-11.078a2.2,2.2,0,0,0-.364-1.942,2.236,2.236,0,0,0-.788-.649,2.264,2.264,0,0,0-1-.234H246.172a2.255,2.255,0,0,0-1.347.448,2.216,2.216,0,0,0-.8,1.159l-4.022,13.9Z" transform="translate(0 -630.865)" fill="#e5e5e5"/>
      <path id="패스_9951" data-name="패스 9951" d="M1346.37,1781.662h-5.539a.831.831,0,0,1,0-1.662h5.539a.831.831,0,1,1,0,1.662Z" transform="translate(-1084.54 -1360.617)" fill="#c2c2c2"/>
    </g>
  </g>
</svg>
