<svg id="그룹_9071" data-name="그룹 9071" xmlns="http://www.w3.org/2000/svg" xmlns:xlink="http://www.w3.org/1999/xlink" width="123" height="81" viewBox="0 0 123 81">
  <defs>
    <clipPath id="clip-path">
      <rect id="사각형_30478" data-name="사각형 30478" width="123" height="81" fill="none"/>
    </clipPath>
  </defs>
  <g id="그룹_9070" data-name="그룹 9070" clip-path="url(#clip-path)">
    <path id="패스_9907" data-name="패스 9907" d="M62.659,45.761c-1.673-4.207-7.613-5.791-13.267-3.537s-8.881,7.492-7.208,11.7c1.4,3.521,5.788,5.2,10.5,4.338l3.153,2.578.07-3.568c5.372-2.347,8.385-7.415,6.756-11.509" transform="translate(-24.92 -24.575)" fill="#d8edff"/>
    <path id="패스_9908" data-name="패스 9908" d="M194.588,17.309A17.288,17.288,0,1,1,177.3,0a17.3,17.3,0,0,1,17.288,17.309" transform="translate(-95.525)" fill="#080717"/>
    <path id="패스_9909" data-name="패스 9909" d="M186.607,81.157a17.288,17.288,0,1,1-17.288-17.309,17.3,17.3,0,0,1,17.288,17.309" transform="translate(-90.76 -38.086)" fill="#080717"/>
    <path id="패스_9910" data-name="패스 9910" d="M246.582,62.4a10.514,10.514,0,1,1-10.514-10.526A10.52,10.52,0,0,1,246.582,62.4" transform="translate(-134.653 -30.945)" fill="#080717"/>
    <path id="패스_9911" data-name="패스 9911" d="M133.395,72.7c-8.28-18.179-17.878-38.975-17.878-38.975q-.675.03-1.349.1a24.219,24.219,0,0,0-11.1,4l-1.98-8.047a2.979,2.979,0,0,0,1.375.161c2.192-.277,3.644-2.989,3.177-6-.432-2.784-2.445-4.845-4.49-4.6a3.923,3.923,0,0,0-3.073,3.2c-.447-5.406-3.831-9.7-8.244-10.027-5.034-.372-9.5,4.563-9.977,11.022s3.219,12,8.253,12.368a7.236,7.236,0,0,0,1.555-.056l1.979,8.038-4.968,2.4L84.493,47.5c-.408.227-.8.472-1.186.733.086.113-8.2,20.943-8.2,20.943L50.085,70.34,37.914,62.367a4.756,4.756,0,0,0-4.508-.381L22.244,66.855l-2.4,8.594a1.186,1.186,0,0,0,1.1,1.505l.173.006a5.144,5.144,0,0,0,4.073-1.8l2.873,5.86a1.564,1.564,0,0,0,2.194.663l.154-.09a1.485,1.485,0,0,0,2.168.5l.509-.364.375.021a3.377,3.377,0,0,0,1.167-.121,1.394,1.394,0,0,0,.573-2.273l-.731-.8.58-.313L40.831,81.2q.211.16.429.309a8.738,8.738,0,0,0,11.576-1.819l.554-.67,27.875,2.589L92.4,64.938l3.47,11.669,23.013,10.581A10.937,10.937,0,0,0,133.395,72.7" transform="translate(-11.818 -7.449)" fill="#fff"/>
    <path id="패스_9912" data-name="패스 9912" d="M194.591,21.239c-.085.037-.168.076-.255.11-4.817,1.9-10.694-1.541-13.126-7.678-.027-.069-.052-.139-.078-.209a7.949,7.949,0,0,1,5.125-1.478c4.26.309,7.579,4.2,8.334,9.254" transform="translate(-108.134 -7.138)" fill="#080717"/>
    <path id="패스_9913" data-name="패스 9913" d="M193.2,61.378a.4.4,0,0,1-.1-.794,9.688,9.688,0,0,0,6.1-5.623.4.4,0,1,1,.733.337,10.481,10.481,0,0,1-6.63,6.067.392.392,0,0,1-.1.013" transform="translate(-115.098 -32.644)" fill="#080717"/>
    <path id="패스_9914" data-name="패스 9914" d="M170.24,34.605c.2.26-.227.914-.945,1.46s-1.463.778-1.66.518.226-.914.946-1.46,1.462-.779,1.659-.518" transform="translate(-100.047 -20.579)" fill="#080717"/>
    <path id="패스_9915" data-name="패스 9915" d="M188.225,34.121c-.034.4-.967.653-2.083.558s-1.992-.5-1.958-.9.967-.653,2.083-.558,1.992.5,1.958.9" transform="translate(-109.955 -19.803)" fill="#080717"/>
    <path id="패스_9916" data-name="패스 9916" d="M178.319,41.757a.4.4,0,0,1-.231-.073,1.735,1.735,0,0,1-.732-1.55l.207-2.643a.4.4,0,1,1,.8.063L178.16,40.2a.913.913,0,0,0,.39.826.4.4,0,0,1-.231.734" transform="translate(-105.877 -22.141)" fill="#080717"/>
    <path id="패스_9917" data-name="패스 9917" d="M181.181,51.2a2.54,2.54,0,0,1-1-.226.4.4,0,0,1,.316-.742c1.022.437,1.316-.142,1.328-.167a.4.4,0,1,1,.725.351,1.5,1.5,0,0,1-1.373.784" transform="translate(-107.422 -29.725)" fill="#080717"/>
    <path id="패스_9918" data-name="패스 9918" d="M218.356,36.815a.4.4,0,0,1-.393-.317,3.641,3.641,0,0,1,.387-2.888,3.365,3.365,0,0,1,2.037-1.347.4.4,0,0,1,.144.794,2.577,2.577,0,0,0-1.515,1.008,2.88,2.88,0,0,0-.265,2.26.4.4,0,0,1-.307.481.4.4,0,0,1-.087.009" transform="translate(-130.046 -19.241)" fill="#080717"/>
    <path id="패스_9919" data-name="패스 9919" d="M171.667,42.571c0,.476-.25.862-.558.862s-.558-.386-.558-.862.25-.862.558-.862.558.386.558.862" transform="translate(-101.817 -24.88)" fill="#080717"/>
    <path id="패스_9920" data-name="패스 9920" d="M187.712,40.326c0,.476-.25.862-.558.862s-.558-.386-.558-.862.25-.862.558-.862.558.386.558.862" transform="translate(-111.396 -23.541)" fill="#080717"/>
    <path id="패스_9921" data-name="패스 9921" d="M18.159,161.357l7.192-7.282,3.576-1.913-1.871,3.6-7.192,7.282-3.576,1.913Z" transform="translate(-9.724 -90.766)" fill="#fff"/>
    <path id="패스_9922" data-name="패스 9922" d="M26.549,151.7l-1.242,2.39L18.2,161.284l-2.374,1.27,1.242-2.39,7.106-7.2Zm1.917-1.941h0Zm0,0-4.778,2.557-7.278,7.369-2.5,4.812,4.778-2.557,7.278-7.369Z" transform="translate(-8.304 -89.332)" fill="#080717"/>
    <path id="패스_9948" data-name="패스 9948" d="M0,.022,37.641,0l0,3.223L0,3.246Z" transform="matrix(0.703, -0.711, 0.711, 0.703, 8.131, 70.295)" fill="#080717"/>
    <path id="패스_9923" data-name="패스 9923" d="M46.275,152.1H34.923a2.9,2.9,0,0,0-2.305,4.665l.2.269a2.9,2.9,0,0,0,2.305,1.142h6.041a9.494,9.494,0,0,1,7.043,3.127,7.631,7.631,0,0,0,5.733,2.513l1.21-.012Z" transform="translate(-19.117 -90.73)" fill="#fff"/>
    <path id="패스_9924" data-name="패스 9924" d="M53.265,163.625a8.039,8.039,0,0,1-5.959-2.646,9.109,9.109,0,0,0-6.744-2.994H34.521a3.32,3.32,0,0,1-2.626-1.3l-.2-.268a3.307,3.307,0,0,1,2.626-5.313H45.668a.4.4,0,0,1,0,.807H34.316a2.5,2.5,0,0,0-1.985,4.017l.2.268a2.51,2.51,0,0,0,1.985.984h6.041a9.916,9.916,0,0,1,7.341,3.26,7.271,7.271,0,0,0,5.43,2.38l1.21-.012h0a.4.4,0,0,1,0,.807l-1.21.012h-.077" transform="translate(-18.511 -90.133)" fill="#080717"/>
    <path id="패스_9925" data-name="패스 9925" d="M45.958,173.775l-.715-.372a6.613,6.613,0,0,0,.56-4.588l-.46-1.922.783-.188.46,1.922a7.422,7.422,0,0,1-.628,5.148" transform="translate(-27.01 -99.441)" fill="#080717"/>
    <path id="패스_9926" data-name="패스 9926" d="M49.221,177.544c-.144-1.7-.352-2.974-1.724-3.8l.415-.692c1.694,1.018,1.959,2.6,2.113,4.422Z" transform="translate(-28.355 -103.228)" fill="#080717"/>
    <path id="패스_9927" data-name="패스 9927" d="M52.7,175.571a2.873,2.873,0,0,0-1.8-.1l-.183-.786a3.57,3.57,0,0,1,2.439.224Z" transform="translate(-30.278 -104.128)" fill="#080717"/>
    <path id="패스_9928" data-name="패스 9928" d="M211.548,104.106c-8.28-18.179-17.878-38.975-17.878-38.975q-.675.03-1.349.1a24.271,24.271,0,0,0-5.794,1.316C185.2,76.952,180.214,84.69,174.263,84.69c-3.551,0-6.757-2.758-9.049-7.191l-.385.187L162.645,78.9c-.408.227-.8.472-1.186.733.086.113-8.2,20.943-8.2,20.943l-2.556.119V112.2l8.711.809,11.138-16.673,3.47,11.669,23.013,10.581a10.937,10.937,0,0,0,14.509-14.484" transform="translate(-89.97 -38.851)" fill="#d8edff"/>
    <path id="패스_9929" data-name="패스 9929" d="M122.942,88.038a11.519,11.519,0,0,1-4.822-1.08L95.108,76.377a.4.4,0,0,1-.218-.251L91.664,65.28,81,81.239a.4.4,0,0,1-.372.177L52.967,78.847l-.418.506a9.184,9.184,0,0,1-12.112,1.9c-.141-.1-.281-.2-.418-.3l-4.9-2.5a2.206,2.206,0,0,1,.178,1.67,1.8,1.8,0,0,1-1.152,1.3,3.783,3.783,0,0,1-1.307.138l-.233-.012-.395.282a1.887,1.887,0,0,1-2.524-.3,1.967,1.967,0,0,1-2.587-.922l-2.619-5.341a5.508,5.508,0,0,1-3.979,1.5l-.173-.005a1.589,1.589,0,0,1-1.477-2.017l2.4-8.595a.4.4,0,0,1,.227-.261L32.648,61.02a5.144,5.144,0,0,1,4.889.414l12.063,7.9,24.635-1.15c3.175-7.986,7.846-19.815,8.075-20.6l0-.011a.4.4,0,0,1,.171-.27c.4-.274.812-.527,1.217-.752l2.184-1.212,4.693-2.273-1.815-7.375a7.416,7.416,0,0,1-1.279.016,8.6,8.6,0,0,1-6.5-4.079A13.906,13.906,0,0,1,78.858,22.9a13.9,13.9,0,0,1,3.382-8.314,8.6,8.6,0,0,1,7.026-3.081c4.107.3,7.474,3.941,8.409,8.87a3.834,3.834,0,0,1,2.831-2.039c2.26-.264,4.472,1.949,4.936,4.942a6.675,6.675,0,0,1-1.059,4.951,3.649,3.649,0,0,1-2.466,1.515,3.229,3.229,0,0,1-.875-.01l1.685,6.846a24.747,24.747,0,0,1,10.8-3.755,2.285,2.285,0,0,1,2.3,1.325c2.271,4.927,10.235,22.212,17.329,37.786a11.4,11.4,0,0,1-10.222,16.1M95.61,75.72l22.847,10.5a10.534,10.534,0,0,0,13.974-13.95C125.338,56.7,117.375,39.419,115.1,34.492a1.473,1.473,0,0,0-1.479-.862A23.945,23.945,0,0,0,102.7,37.567a.4.4,0,0,1-.616-.238l-1.98-8.047a.4.4,0,0,1,.526-.477,2.587,2.587,0,0,0,1.19.141,2.861,2.861,0,0,0,1.923-1.2,5.853,5.853,0,0,0,.906-4.342c-.4-2.568-2.214-4.48-4.045-4.264a3.529,3.529,0,0,0-2.73,2.9.4.4,0,0,1-.425.3.4.4,0,0,1-.367-.368c-.438-5.292-3.749-9.353-7.872-9.658a7.813,7.813,0,0,0-6.369,2.818,13.094,13.094,0,0,0-3.176,7.831,13.1,13.1,0,0,0,1.994,8.213A7.818,7.818,0,0,0,87.542,34.9a6.851,6.851,0,0,0,1.469-.053.4.4,0,0,1,.448.3l1.978,8.038a.4.4,0,0,1-.216.46L86.254,46.05l-2.163,1.2c-.355.2-.713.417-1.067.654-.231.819-1.145,3.135-4.006,10.388-2.06,5.222-4.131,10.43-4.131,10.43a.4.4,0,0,1-.356.254L49.506,70.146a.418.418,0,0,1-.239-.066L37.1,62.109a4.339,4.339,0,0,0-4.126-.349L21.983,66.552l-2.352,8.41a.782.782,0,0,0,.727.993l.173.005a4.72,4.72,0,0,0,3.754-1.656.4.4,0,0,1,.667.085l2.873,5.86a1.162,1.162,0,0,0,1.629.492l.154-.09a.4.4,0,0,1,.557.155,1.082,1.082,0,0,0,1.58.363l.509-.364a.4.4,0,0,1,.256-.074l.374.02a3,3,0,0,0,1.028-.1,1.009,1.009,0,0,0,.609-.743,1.358,1.358,0,0,0-.176-1.169l-.688-.431a.4.4,0,0,1,.023-.7l.58-.313a.4.4,0,0,1,.374,0l5.782,2.956a.413.413,0,0,1,.061.038q.2.154.412.3a8.372,8.372,0,0,0,11.038-1.741l.554-.671a.4.4,0,0,1,.348-.144l27.637,2.567,11-16.473a.4.4,0,0,1,.721.109Z" transform="translate(-11.22 -6.852)" fill="#080717"/>
    <path id="패스_9930" data-name="패스 9930" d="M168.368,168.224a9.689,9.689,0,0,1-11.889,3.356l-5.358-2.308-1.92,3.811a2.75,2.75,0,0,1-3.6,1.333,1.206,1.206,0,0,1-.607-1.605l2.3-4.646-.039-.011-3.294,5.287a2.75,2.75,0,0,1-3.7,1,1.207,1.207,0,0,1-.46-1.654l.885-1.444-.643.671a2.748,2.748,0,0,1-3.833.135c-.466-.458-.667-.827-.531-1.222l8.1-8.718h15.241l4.13-.122H192.5l1.119,2.064a7.454,7.454,0,0,1-9.322,10.479Z" transform="translate(-80.973 -96.687)" fill="#fff"/>
    <path id="패스_9931" data-name="패스 9931" d="M186.516,174.988a7.93,7.93,0,0,1-2.963-.58l-15.634-6.287a10.076,10.076,0,0,1-12.2,3.232l-5.009-2.158-1.75,3.472a3.134,3.134,0,0,1-4.119,1.52,1.6,1.6,0,0,1-.852-.9,1.622,1.622,0,0,1-.1-.521l-.181.291a3.134,3.134,0,0,1-4.24,1.141,1.614,1.614,0,0,1-.786-1.77,3.133,3.133,0,0,1-3.339-.576,1.612,1.612,0,0,1-.642-1.652.4.4,0,0,1,.086-.144l8.1-8.718a.4.4,0,0,1,.3-.129h15.241l4.118-.122h29.362a.4.4,0,0,1,.354.211l1.119,2.064a7.876,7.876,0,0,1-6.863,11.625m-18.744-7.765a.4.4,0,0,1,.15.029l15.932,6.407a7.05,7.05,0,0,0,8.817-9.912l-1-1.853h-29.11l-4.118.122H143.36l-7.917,8.517c-.015.113.029.318.451.732a2.33,2.33,0,0,0,3.259-.126l.643-.671a.4.4,0,0,1,.634.491l-.885,1.444a.8.8,0,0,0,.312,1.09,2.334,2.334,0,0,0,3.16-.855l3.3-5.294a.4.4,0,0,1,.453-.174.445.445,0,0,1,.277.23.419.419,0,0,1,.012.348l-2.3,4.647a.8.8,0,0,0,.409,1.057,2.335,2.335,0,0,0,3.069-1.138l1.924-3.819a.4.4,0,0,1,.519-.189l5.358,2.308a9.259,9.259,0,0,0,11.395-3.21.4.4,0,0,1,.335-.179" transform="translate(-80.376 -96.09)" fill="#080717"/>
    <path id="패스_9932" data-name="패스 9932" d="M147.5,171.478a.4.4,0,0,1-.351-.6l5.051-9.029a.4.4,0,1,1,.7.394l-5.051,9.029a.4.4,0,0,1-.352.206" transform="translate(-87.817 -96.42)" fill="#080717"/>
    <path id="패스_9933" data-name="패스 9933" d="M163.234,168.748a.4.4,0,0,1-.361-.581l3.162-6.467a.4.4,0,1,1,.724.355l-3.162,6.467a.4.4,0,0,1-.362.226" transform="translate(-97.209 -96.32)" fill="#080717"/>
    <path id="패스_9934" data-name="패스 9934" d="M173.788,171.768l-2.9,5.558a1.911,1.911,0,1,0,3.388,1.769l2.774-3.864,2.234.626Z" transform="translate(-101.892 -102.461)" fill="#fff"/>
    <path id="패스_9935" data-name="패스 9935" d="M171.985,179.93a2.317,2.317,0,0,1-2.048-3.387l2.9-5.558a.4.4,0,1,1,.715.373l-2.895,5.558a1.508,1.508,0,1,0,2.674,1.4.378.378,0,0,1,.03-.049l2.774-3.865a.405.405,0,0,1,.436-.153l2.234.626a.4.4,0,0,1-.217.777l-1.962-.55-2.593,3.613a2.316,2.316,0,0,1-2.041,1.219" transform="translate(-101.293 -101.864)" fill="#080717"/>
    <path id="패스_9936" data-name="패스 9936" d="M279.5,162.088h0Z" transform="translate(-163.821 -96.687)" fill="#fff"/>
    <path id="패스_9937" data-name="패스 9937" d="M278.908,161.895h-5.093a.4.4,0,0,1,0-.807h5.093a.4.4,0,0,1,0,.807" transform="translate(-163.224 -96.09)" fill="#080717"/>
    <path id="패스_9938" data-name="패스 9938" d="M188.746,113.537l-2.948,10.2s-1.608,6.709,7.639,6.843Z" transform="translate(-110.855 -67.726)" fill="#d8edff"/>
    <path id="패스_9939" data-name="패스 9939" d="M192.837,130.385h-.006c-3.33-.048-5.688-.936-7.008-2.638a5.953,5.953,0,0,1-1.017-4.7l2.953-10.215a.4.4,0,1,1,.774.224l-2.948,10.2a5.223,5.223,0,0,0,.88,4.009c1.164,1.494,3.31,2.274,6.378,2.319a.4.4,0,0,1-.006.807" transform="translate(-110.256 -67.13)" fill="#080717"/>
    <path id="패스_9940" data-name="패스 9940" d="M251.8,144.8l4.155,6.843Z" transform="translate(-150.321 -86.372)" fill="#6cf"/>
    <path id="패스_9941" data-name="패스 9941" d="M255.357,151.447a.4.4,0,0,1-.345-.194l-4.155-6.843a.4.4,0,1,1,.689-.419l4.155,6.843a.4.4,0,0,1-.344.613" transform="translate(-149.724 -85.776)" fill="#080717"/>
    <path id="패스_9943" data-name="패스 9943" d="M93.418,44.594a.4.4,0,0,1-.352-.207l-2.283-4.113c-5.85-1.238-9.919-5.271-9.919-9.859,0-5.648,6.113-10.243,13.626-10.243s13.626,4.595,13.626,10.243c0,5.435-5.587,9.888-12.767,10.222l-1.56,3.711a.4.4,0,0,1-.35.247h-.022M94.49,20.979c-7.069,0-12.82,4.233-12.82,9.436,0,4.246,3.888,7.99,9.455,9.1a.4.4,0,0,1,.273.2l1.97,3.55,1.338-3.183a.4.4,0,0,1,.358-.247c6.867-.224,12.245-4.364,12.245-9.426,0-5.2-5.751-9.436-12.82-9.436" transform="translate(-48.275 -12.033)" fill="#080717"/>
    <path id="패스_9944" data-name="패스 9944" d="M60.978,62.121A.4.4,0,0,1,60.693,62L58.37,59.677a.4.4,0,1,1,.57-.571l2.038,2.04,4.272-4.277a.4.4,0,1,1,.57.571L61.263,62a.4.4,0,0,1-.285.118" transform="translate(-34.776 -33.853)" fill="#080717"/>
    <path id="패스_9945" data-name="패스 9945" d="M51.062,187.858H.4a.4.4,0,0,1,0-.807H51.062a.4.4,0,0,1,0,.807" transform="translate(0 -111.577)" fill="#080717"/>
    <path id="패스_9946" data-name="패스 9946" d="M72.874,25.121a1.068,1.068,0,1,0,1.068-1.069,1.068,1.068,0,0,0-1.068,1.069" transform="translate(-27.972 -2.801)" fill="#080717"/>
    <path id="패스_9947" data-name="패스 9947" d="M70.535,6.466H68.7V4.939l.183-.244a12.509,12.509,0,0,1,.954-1.117,2.888,2.888,0,0,0,.388-.46V2.19a.306.306,0,0,0-.305-.305H69.01a.306.306,0,0,0-.305.305v.916h-1.83V2.19A2.139,2.139,0,0,1,69.01.052h.915A2.139,2.139,0,0,1,72.06,2.19v.916a2.417,2.417,0,0,1-.885,1.726c-.191.2-.4.429-.64.725Z" transform="translate(-23.803 13.868)" fill="#080717"/>
  </g>
</svg>
