<svg xmlns="http://www.w3.org/2000/svg" width="16" height="16" viewBox="0 0 16 16">
  <g id="그룹_7057" data-name="그룹 7057" transform="translate(-352 -464)">
    <path id="튜토리얼" d="M311,606a8,8,0,1,1,5.657-2.343A8,8,0,0,1,311,606Z" transform="translate(49 -126)" fill="#8f8e93"/>
    <path id="튜토리얼-2" data-name="튜토리얼" d="M318.006,606.856v1.334h1.333v-1.334Zm.663-5.526A1.334,1.334,0,0,1,320,602.664c0,.591-.38.883-.821,1.223A2.389,2.389,0,0,0,318.009,606h1.333a2.066,2.066,0,0,1,.96-1.572,2.283,2.283,0,0,0,1.037-1.767,2.667,2.667,0,1,0-5.333,0h1.333A1.334,1.334,0,0,1,318.669,601.33Z" transform="translate(41.33 -132.215)" fill="#fff"/>
  </g>
</svg>
