<svg xmlns="http://www.w3.org/2000/svg" width="12.002" height="12.999" viewBox="0 0 12.002 12.999">
  <g id="그룹_7270" data-name="그룹 7270" transform="translate(-418 -209.501)">
    <g id="그룹_7089" data-name="그룹 7089">
      <path id="합치기_53" data-name="합치기 53" d="M12606-2587a2.487,2.487,0,0,1,.035-.421l-3.086-1.543a2.49,2.49,0,0,1-1.45.463,2.5,2.5,0,0,1-2.5-2.5,2.5,2.5,0,0,1,2.5-2.5,2.487,2.487,0,0,1,1.452.466l3.084-1.542a2.524,2.524,0,0,1-.035-.424,2.5,2.5,0,0,1,2.5-2.5,2.5,2.5,0,0,1,2.5,2.5,2.5,2.5,0,0,1-2.5,2.5,2.5,2.5,0,0,1-2.1-1.14l-2.746,1.374A2.479,2.479,0,0,1,12604-2591a2.5,2.5,0,0,1-.345,1.269l2.745,1.374a2.5,2.5,0,0,1,2.1-1.143,2.5,2.5,0,0,1,2.5,2.5,2.5,2.5,0,0,1-2.5,2.5A2.5,2.5,0,0,1,12606-2587Z" transform="translate(-12181 2807)" fill="#babec7"/>
      <g id="타원_59" data-name="타원 59" transform="translate(418 213.5)" fill="#fff" stroke="#babec7" stroke-width="1">
        <circle cx="2.5" cy="2.5" r="2.5" stroke="none"/>
        <circle cx="2.5" cy="2.5" r="2" fill="none"/>
      </g>
      <g id="타원_60" data-name="타원 60" transform="translate(425.002 209.501)" fill="#fff" stroke="#babec7" stroke-width="1">
        <circle cx="2.5" cy="2.5" r="2.5" stroke="none"/>
        <circle cx="2.5" cy="2.5" r="2" fill="none"/>
      </g>
      <g id="타원_61" data-name="타원 61" transform="translate(425 217.5)" fill="#fff" stroke="#babec7" stroke-width="1">
        <circle cx="2.5" cy="2.5" r="2.5" stroke="none"/>
        <circle cx="2.5" cy="2.5" r="2" fill="none"/>
      </g>
    </g>
  </g>
</svg>
