<svg id="그룹_9243" data-name="그룹 9243" xmlns="http://www.w3.org/2000/svg" xmlns:xlink="http://www.w3.org/1999/xlink" width="65.188" height="13.748" viewBox="0 0 65.188 13.748">
  <defs>
    <clipPath id="clip-path">
      <rect id="사각형_30091" data-name="사각형 30091" width="65.188" height="13.748" transform="translate(0 0)" fill="#0195fb"/>
    </clipPath>
  </defs>
  <path id="패스_9241" data-name="패스 9241" d="M16.906,1.063H13.89L9.969,12.375H12.5l.859-2.609h4.094l.844,2.609h2.516ZM13.953,7.938,15.359,3.61h.078l1.422,4.328Z" fill="#0195fb"/>
  <g id="그룹_9051" data-name="그룹 9051">
    <g id="그룹_9050" data-name="그룹 9050" clip-path="url(#clip-path)">
      <rect id="사각형_30090" data-name="사각형 30090" width="2.313" height="8.484" transform="translate(44.906 3.891)" fill="#0195fb"/>
      <path id="패스_9244" data-name="패스 9244" d="M46.062,2.781a1.22,1.22,0,0,0,1.25-1.172,1.26,1.26,0,0,0-2.516,0v0a1.223,1.223,0,0,0,1.267,1.171Z" fill="#0195fb"/>
      <path id="패스_9245" data-name="패스 9245" d="M59.688,6.516V5.359h3.848V0H61.547V1.234h-5.7l0-1.234H53.875V5.359h3.844V6.515h-5.5V8.093H65.188V6.516Zm-3.845-3.8h5.7V3.813h-5.7Z" fill="#0195fb"/>
      <path id="패스_9246" data-name="패스 9246" d="M59.7,9.075V8.809H57.688v.266c-.016,1.406-1.5,2.813-4.594,3.141l.7,1.531a6.853,6.853,0,0,0,4.891-2.437c.883,1.25,2.57,2.133,4.938,2.438l.688-1.531c-3.123-.326-4.608-1.733-4.608-3.142" fill="#0195fb"/>
    </g>
  </g>
</svg>
