<svg id="그룹_9242" data-name="그룹 9242" xmlns="http://www.w3.org/2000/svg" xmlns:xlink="http://www.w3.org/1999/xlink" width="65.188" height="13.748" viewBox="0 0 65.188 13.748">
  <defs>
    <clipPath id="clip-path">
      <rect id="사각형_30091" data-name="사각형 30091" width="65.188" height="13.748" transform="translate(0 0)" fill="#c9c9c9"/>
    </clipPath>
  </defs>
  <path id="패스_9240" data-name="패스 9240" d="M0,1.059V12.375H2.344V9.141L3.536,7.7l3.136,4.672H9.485L5.219,6.125,9.438,1.064H6.61L2.5,6.075H2.344V1.059Z" fill="#c9c9c9"/>
  <path id="패스_9241" data-name="패스 9241" d="M16.906,1.063H13.89L9.969,12.375H12.5l.859-2.609h4.094l.844,2.609h2.516ZM13.953,7.938,15.359,3.61h.078l1.422,4.328Z" fill="#c9c9c9"/>
  <g id="그룹_9051" data-name="그룹 9051">
    <g id="그룹_9050" data-name="그룹 9050" clip-path="url(#clip-path)">
      <path id="패스_9242" data-name="패스 9242" d="M26.641.907c-3.016,0-5.3,2.125-5.3,5.813,0,3.672,2.281,5.813,5.3,5.813,2.984,0,5.281-2.127,5.281-5.814S29.622.907,26.641.907m2.89,5.812c0,2.422-1.141,3.734-2.891,3.734s-2.9-1.312-2.9-3.734,1.155-3.735,2.9-3.735,2.9,1.313,2.9,3.735Z" fill="#c9c9c9"/>
      <path id="패스_9243" data-name="패스 9243" d="M43.047,1.063H40.719V8.251h-.11L35.672,1.063H33.609V12.375h2.344V5.188h.094l4.969,7.187h2.031Z" fill="#c9c9c9"/>
      <rect id="사각형_30090" data-name="사각형 30090" width="2.313" height="8.484" transform="translate(44.906 3.891)" fill="#c9c9c9"/>
      <path id="패스_9244" data-name="패스 9244" d="M46.062,2.781a1.22,1.22,0,0,0,1.25-1.172,1.26,1.26,0,0,0-2.516,0v0a1.223,1.223,0,0,0,1.267,1.171Z" fill="#c9c9c9"/>
      <path id="패스_9245" data-name="패스 9245" d="M59.688,6.516V5.359h3.848V0H61.547V1.234h-5.7l0-1.234H53.875V5.359h3.844V6.515h-5.5V8.093H65.188V6.516Zm-3.845-3.8h5.7V3.813h-5.7Z" fill="#c9c9c9"/>
      <path id="패스_9246" data-name="패스 9246" d="M59.7,9.075V8.809H57.688v.266c-.016,1.406-1.5,2.813-4.594,3.141l.7,1.531a6.853,6.853,0,0,0,4.891-2.437c.883,1.25,2.57,2.133,4.938,2.438l.688-1.531c-3.123-.326-4.608-1.733-4.608-3.142" fill="#c9c9c9"/>
    </g>
  </g>
</svg>
