<svg xmlns="http://www.w3.org/2000/svg" width="9.939" height="14.294" viewBox="0 0 9.939 14.294">
  <g id="lock-line" transform="translate(-37.31 -12.579)">
    <path id="패스_8973" data-name="패스 8973" d="M84.751,109.745a1.089,1.089,0,0,0-.492,2.056v1.292h.9v-1.251a1.089,1.089,0,0,0-.411-2.1Z" transform="translate(-42.431 -88.93)" fill="#8f8e93"/>
    <path id="패스_8974" data-name="패스 8974" d="M45.894,18.289V16.356a3.618,3.618,0,1,0-7.228,0v1.934H37.31v7.68a.9.9,0,0,0,.9.9h8.132a.9.9,0,0,0,.9-.9v-7.68Zm-6.325-1.934a2.715,2.715,0,1,1,5.421,0v1.934H39.569ZM38.214,25.97V19.193h8.132V25.97Z" fill="#8f8e93"/>
  </g>
</svg>
