<svg xmlns="http://www.w3.org/2000/svg" xmlns:xlink="http://www.w3.org/1999/xlink" width="219.958" height="159.995" viewBox="0 0 219.958 159.995">
  <defs>
    <clipPath id="clip-path">
      <rect id="사각형_29753" data-name="사각형 29753" width="17.288" height="14.175" fill="none"/>
    </clipPath>
    <clipPath id="clip-path-2">
      <path id="패스_8999" data-name="패스 8999" d="M377.582,200.378c-4.157,5.5-.743,12.023-.743,12.023s7.082,2.016,11.621-3.172,7.76-20.647,7.76-20.647-14.481,6.3-18.638,11.8" transform="translate(-375.52 -188.582)" fill="none"/>
    </clipPath>
    <clipPath id="clip-path-3">
      <path id="패스_9003" data-name="패스 9003" d="M394.464,232.548a11.805,11.805,0,0,0-7.113,8.576,11.806,11.806,0,0,0,11.068,1.282c6.463-2.392,17.431-12.716,17.431-12.716s-15.063.12-21.387,2.859" transform="translate(-387.351 -229.689)" fill="none"/>
    </clipPath>
    <clipPath id="clip-path-4">
      <rect id="사각형_29755" data-name="사각형 29755" width="20.894" height="7.016" fill="none"/>
    </clipPath>
    <clipPath id="clip-path-5">
      <path id="패스_9007" data-name="패스 9007" d="M16.016,17.106c6.565,3.245,12.695-1.615,12.695-1.615s.7-7.792-5.62-11.5S0,0,0,0,9.451,13.861,16.016,17.106" fill="none"/>
    </clipPath>
    <clipPath id="clip-path-6">
      <rect id="사각형_29757" data-name="사각형 29757" width="17.729" height="15.598" fill="none"/>
    </clipPath>
    <clipPath id="clip-path-7">
      <path id="패스_9011" data-name="패스 9011" d="M7.235,21.751A12.542,12.542,0,0,0,17.6,27.469a12.541,12.541,0,0,0-.863-11.8C12.955,9.395,0,0,0,0S3.12,15.7,7.235,21.751" fill="none"/>
    </clipPath>
    <clipPath id="clip-path-8">
      <rect id="사각형_29759" data-name="사각형 29759" width="10.368" height="20.829" fill="none"/>
    </clipPath>
    <clipPath id="clip-path-9">
      <rect id="사각형_29764" data-name="사각형 29764" width="219.958" height="120.559" fill="none"/>
    </clipPath>
  </defs>
  <g id="그룹_7401" data-name="그룹 7401" transform="translate(-5.01 23.567)">
    <g id="그룹_7390" data-name="그룹 7390" transform="translate(5.01 -23.567)">
      <path id="패스_8996" data-name="패스 8996" d="M228.085,262.911c0,7.874-47.888,14.257-106.961,14.257S14.163,270.784,14.163,262.911s47.888-14.257,106.961-14.257,106.961,6.383,106.961,14.257" transform="translate(-11.145 -117.172)" fill="#dfedff"/>
      <g id="그룹_7397" data-name="그룹 7397" transform="translate(169.989 106.6)">
        <g id="그룹_7357" data-name="그룹 7357" transform="translate(0 0)">
          <g id="그룹_7394" data-name="그룹 7394">
            <path id="패스_8997" data-name="패스 8997" d="M396.22,188.582s-14.481,6.3-18.638,11.8-.742,12.023-.742,12.023,7.082,2.017,11.621-3.172,7.76-20.647,7.76-20.647" transform="translate(-375.52 -188.582)" fill="#fbe0ab"/>
          </g>
        </g>
        <g id="그룹_7395" data-name="그룹 7395" transform="translate(0.715 10.03)">
          <g id="그룹_7362" data-name="그룹 7362" opacity="0.1">
            <g id="그룹_7361" data-name="그룹 7361">
              <g id="그룹_7360" data-name="그룹 7360" clip-path="url(#clip-path)">
                <path id="패스_9000" data-name="패스 9000" d="M394.911,218.119c-.487.693-1,1.38-1.554,2.057-4.795,5.893-10.775,9.59-15.734,10.233a11.261,11.261,0,0,0,.6,1.5s7.082,2.017,11.621-3.171c2-2.282,3.737-6.551,5.062-10.617" transform="translate(-377.624 -218.119)" fill="#0046a0"/>
              </g>
            </g>
          </g>
        </g>
        <g id="그룹_7359" data-name="그룹 7359" transform="translate(0 0)">
          <g id="그룹_7358" data-name="그룹 7358" clip-path="url(#clip-path-2)">
            <path id="패스_8998" data-name="패스 8998" d="M397.262,178.013l1.791-.276c.307-.048.259-.528-.05-.481L386.375,179.2l-1.182.183.983-1.209,3.442-4.231,12.524-1.932,1.791-.276c.307-.047.259-.528-.05-.481l-12.628,1.948-1.182.182,1.905-2.342,1.921-2.361a12.049,12.049,0,0,0,.906-1.113.53.53,0,0,1,.041-.051.242.242,0,0,0-.375-.3l-2.307,2.835-2.466,3.031q-.314-6.073-.628-12.146l-.094-1.809c-.016-.311-.5-.26-.481.05q.33,6.38.66,12.76.044.852.088,1.7l-2.622,3.222-1.8,2.217q-.314-6.073-.628-12.146l-.094-1.809c-.016-.311-.5-.26-.481.05l.66,12.761q.044.852.088,1.7l-4.426,5.439q-.314-6.073-.628-12.146-.046-.9-.093-1.809c-.016-.311-.5-.261-.481.049l.66,12.761q.044.852.088,1.7l-4.426,5.439q-.314-6.073-.628-12.146-.047-.9-.093-1.809c-.016-.311-.5-.261-.481.049q.33,6.38.66,12.761.044.852.088,1.7l-.523.643-1.921,2.361a12.114,12.114,0,0,0-.906,1.113.523.523,0,0,1-.041.051.242.242,0,0,0,.375.3l2.307-2.835,1.084-1.332,12.524-1.932,1.79-.276c.307-.047.259-.528-.049-.481L376.614,191.2l-1.182.182,4-4.921.422-.519,12.524-1.932,1.79-.276c.307-.047.259-.528-.049-.481L381.494,185.2l-1.182.182,4.426-5.439,12.524-1.932" transform="translate(-372.638 -168.992)" fill="#ffc24b"/>
          </g>
        </g>
      </g>
      <g id="그룹_7396" data-name="그룹 7396" transform="translate(174.006 120.559)">
        <path id="패스_9001" data-name="패스 9001" d="M415.85,229.688s-15.063.121-21.387,2.859a11.806,11.806,0,0,0-7.112,8.576,11.806,11.806,0,0,0,11.068,1.282c6.463-2.393,17.432-12.717,17.432-12.717" transform="translate(-387.351 -229.688)" fill="#f67e70"/>
        <g id="그룹_7366" data-name="그룹 7366" transform="translate(0 0)">
          <g id="그룹_7365" data-name="그룹 7365" clip-path="url(#clip-path-3)">
            <path id="패스_9002" data-name="패스 9002" d="M406.358,220.362l1.59.353c.272.06.494-.307.221-.367l-11.215-2.491-1.05-.233,1.446-.58,5.062-2.031,11.123,2.47,1.59.353c.272.06.494-.307.221-.368l-11.215-2.49-1.05-.233,2.8-1.124,2.825-1.134c.432-.173.918-.322,1.332-.534.019-.01.041-.016.06-.024.289-.116.153-.455-.136-.34l-3.392,1.361-3.627,1.455,6.076-9.092.905-1.354c.156-.233-.258-.345-.414-.113l-6.384,9.551-.852,1.275-3.855,1.547-2.653,1.064,6.076-9.091.9-1.354c.156-.233-.258-.345-.414-.113l-6.383,9.551-.852,1.275-6.508,2.611,6.076-9.092.9-1.354c.156-.233-.258-.345-.414-.113l-6.383,9.552-.852,1.275-6.508,2.611,6.076-9.092.905-1.354c.156-.233-.258-.345-.414-.113l-6.384,9.551-.852,1.275-.769.309-2.825,1.133c-.432.174-.918.322-1.332.535-.019.01-.041.016-.06.024-.289.116-.153.456.136.34l3.392-1.361,1.594-.64,11.123,2.47,1.59.353c.272.06.494-.307.221-.367l-11.215-2.49-1.05-.233,5.887-2.362.621-.249,11.122,2.469,1.59.353c.272.06.494-.307.221-.367l-11.215-2.49-1.05-.233,6.508-2.611,11.123,2.47" transform="translate(-379.591 -212.538)" fill="rgba(251,224,171,0.4)"/>
          </g>
        </g>
        <g id="그룹_7392" data-name="그룹 7392" transform="translate(0 6.51)">
          <g id="그룹_7369" data-name="그룹 7369" opacity="0.1">
            <g id="그룹_7368" data-name="그룹 7368">
              <g id="그룹_7367" data-name="그룹 7367" clip-path="url(#clip-path-4)">
                <path id="패스_9004" data-name="패스 9004" d="M408.245,248.859c-.767.356-1.555.7-2.365,1.025-7.051,2.829-13.866,3.682-18.2,2.615a8.164,8.164,0,0,0-.325,1.285,11.805,11.805,0,0,0,11.068,1.282c2.843-1.052,6.557-3.639,9.826-6.207" transform="translate(-387.351 -248.859)" fill="#0046a0"/>
              </g>
            </g>
          </g>
        </g>
      </g>
      <g id="그룹_7373" data-name="그룹 7373" transform="matrix(0.995, -0.105, 0.105, 0.995, 17.374, 90.923)">
        <path id="패스_9005" data-name="패스 9005" d="M0,0S9.45,13.861,16.015,17.106,28.71,15.491,28.71,15.491s.7-7.791-5.62-11.5S0,0,0,0" transform="translate(0)" fill="#fbe0ab"/>
        <g id="그룹_7372" data-name="그룹 7372" transform="translate(0 0.001)" clip-path="url(#clip-path-5)">
          <path id="패스_9006" data-name="패스 9006" d="M18.24,5.887,17.6,4.074c-.11-.311-.6-.165-.492.147l4.543,12.791.425,1.2-1.456-.786-5.1-2.752L11.011,1.986q-.323-.906-.644-1.814c-.11-.31-.6-.165-.492.148l4.543,12.792.425,1.2-2.823-1.523L9.175,11.25a12.793,12.793,0,0,0-1.342-.724.469.469,0,0,1-.061-.032.257.257,0,0,0-.244.452l3.417,1.844L14.6,14.76,2.049,17.83.18,18.288c-.322.079-.174.57.147.491l13.186-3.225,1.761-.431,3.884,2.1,2.673,1.442L9.279,21.731l-1.869.458c-.322.078-.174.57.147.491l13.186-3.225,1.761-.431,6.557,3.538-12.551,3.07-1.869.457c-.321.079-.173.57.147.492l13.186-3.226,1.761-.431,6.556,3.538-12.551,3.07-1.87.457c-.321.079-.173.57.147.492L35.2,27.257l1.761-.43.775.418,2.846,1.535a12.8,12.8,0,0,0,1.342.724.522.522,0,0,1,.061.033.257.257,0,0,0,.244-.452l-3.417-1.843-1.606-.867Q34.952,20.032,32.7,13.688q-.323-.906-.644-1.813c-.11-.311-.6-.165-.492.147l4.544,12.792.425,1.2-5.931-3.2-.625-.337L25.47,9.788l-.644-1.813c-.11-.311-.6-.166-.492.147l4.543,12.792.425,1.2-6.556-3.538L18.24,5.887" transform="translate(-9.606 -11.775)" fill="rgba(227,185,101,0.48)"/>
        </g>
        <g id="그룹_7378" data-name="그룹 7378" transform="translate(11.004 0.822)">
          <g id="그룹_7393" data-name="그룹 7393" transform="translate(0 0)">
            <g id="그룹_7376" data-name="그룹 7376" opacity="0.1">
              <g id="그룹_7375" data-name="그룹 7375">
                <g id="그룹_7374" data-name="그룹 7374" clip-path="url(#clip-path-6)">
                  <path id="패스_9008" data-name="패스 9008" d="M0,0C.82.371,1.64.772,2.456,1.213c7.1,3.832,12.15,9.339,13.807,14.385a11.98,11.98,0,0,0,1.443-.929s.7-7.792-5.62-11.5C9.308,1.542,4.507.574,0,0" transform="translate(0)" fill="#0046a0"/>
                </g>
              </g>
            </g>
          </g>
        </g>
      </g>
      <g id="그룹_7380" data-name="그룹 7380" transform="matrix(0.995, -0.105, 0.105, 0.995, 27.947, 74.622)">
        <path id="패스_9009" data-name="패스 9009" d="M0,0S3.12,15.7,7.235,21.751A12.541,12.541,0,0,0,17.6,27.469a12.541,12.541,0,0,0-.863-11.8C12.955,9.395,0,0,0,0" transform="translate(0 0.001)" fill="#f67e70"/>
        <g id="그룹_7379" data-name="그룹 7379" transform="translate(0 0)" clip-path="url(#clip-path-7)">
          <path id="패스_9010" data-name="패스 9010" d="M18.051,8.963q.026-.865.052-1.73c.009-.3-.418-.455-.427-.158q-.185,6.1-.37,12.2-.017.571-.034,1.142l-.893-1.394-3.126-4.879q.183-6.049.366-12.1.027-.865.053-1.729c.009-.3-.418-.455-.428-.158q-.185,6.1-.369,12.2L12.841,13.5l-1.73-2.7L9.366,8.077c-.267-.416-.518-.894-.822-1.283-.014-.018-.025-.039-.038-.058-.178-.278-.506-.069-.328.21l2.095,3.27,2.239,3.5L1.817,9.177.224,8.5c-.274-.116-.309.338-.036.454l11.237,4.764,1.5.636,2.381,3.715,1.638,2.557-10.7-4.534-1.593-.675c-.274-.116-.309.338-.036.454l11.237,4.764,1.5.636,4.019,6.273-10.7-4.534-1.593-.676c-.274-.116-.308.338-.036.454l11.237,4.764,1.5.636,4.019,6.273-10.7-4.534-1.593-.675c-.274-.116-.309.338-.036.454L24.72,34.469l1.5.636.475.742L28.44,38.57c.267.416.518.894.823,1.284.014.018.025.039.037.058.178.278.506.069.328-.21l-2.095-3.27L26.547,34.9q.183-6.049.367-12.1.027-.865.052-1.73c.009-.3-.418-.455-.427-.157q-.185,6.1-.369,12.2l-.035,1.142L22.5,28.577l-.383-.6q.183-6.049.367-12.1.026-.865.052-1.729c.009-.3-.418-.455-.428-.158q-.185,6.1-.369,12.2L21.7,27.335l-4.019-6.273q.183-6.049.367-12.1" transform="translate(-9.541 -8.711)" fill="rgba(251,224,171,0.41)"/>
        </g>
        <g id="그룹_7383" data-name="그룹 7383" transform="translate(8.306 6.643)" opacity="0.1">
          <g id="그룹_7382" data-name="그룹 7382">
            <g id="그룹_7381" data-name="그룹 7381" clip-path="url(#clip-path-8)">
              <path id="패스_9012" data-name="패스 9012" d="M0,0Q.786,1.1,1.54,2.265C5.893,9.06,8.138,16,7.887,20.741a8.613,8.613,0,0,0,1.406.084,12.54,12.54,0,0,0-.862-11.8C6.767,6.263,3.329,2.9,0,0" transform="translate(0 0)" fill="#0046a0"/>
            </g>
          </g>
        </g>
      </g>
      <g id="그룹_7385" data-name="그룹 7385" transform="translate(31.708 16.587)">
        <g id="그룹_7391" data-name="그룹 7391">
          <rect id="사각형_29760" data-name="사각형 29760" width="138.541" height="91.406" rx="5.51" transform="translate(9.001 37.34)" fill="#7ba6de"/>
          <rect id="사각형_29761" data-name="사각형 29761" width="125.245" height="79.607" transform="translate(15.649 44.466)" fill="#ececec"/>
          <path id="패스_9013" data-name="패스 9013" d="M76.253,260.517v7.354a2.886,2.886,0,0,0,2.877,2.877H229.919a2.886,2.886,0,0,0,2.877-2.877v-7.354Z" transform="translate(-76.253 -140.141)" fill="#7ba6de"/>
          <path id="패스_9014" data-name="패스 9014" d="M208.762,259.812v3.335c0,.3.384.542.852.542H242c.469,0,.852-.244.852-.542v-3.335Z" transform="translate(-147.534 -137.541)" fill="#9cbfec"/>
          <g id="그룹_7388" data-name="그룹 7388" transform="translate(28.53 52.645)">
            <rect id="사각형_29762" data-name="사각형 29762" width="100.276" height="57.976" fill="#fff"/>
            <rect id="사각형_29763" data-name="사각형 29763" width="100.276" height="5.587" fill="#bdcee5"/>
            <path id="패스_9015" data-name="패스 9015" d="M133.139,115.819a1.056,1.056,0,1,1-1.056-1.056,1.056,1.056,0,0,1,1.056,1.056" transform="translate(-128.71 -113.119)" fill="#f67e70"/>
            <path id="패스_9016" data-name="패스 9016" d="M143.235,115.819a1.056,1.056,0,1,1-1.056-1.056,1.056,1.056,0,0,1,1.056,1.056" transform="translate(-135.25 -113.119)" fill="#ffb219"/>
            <path id="패스_9017" data-name="패스 9017" d="M153.329,115.819a1.056,1.056,0,1,1-1.056-1.056,1.056,1.056,0,0,1,1.056,1.056" transform="translate(-141.789 -113.119)" fill="#1f71db"/>
            <path id="패스_9018" data-name="패스 9018" d="M236.128,178.1a4.335,4.335,0,0,1,1.913-3.756l.614-.425a6.921,6.921,0,0,0,1.217-.933,1.281,1.281,0,0,0,.343-.91q0-1.369-2.292-1.37a9.051,9.051,0,0,0-2.2.284,10.1,10.1,0,0,0-2.15.8V168.15a11.579,11.579,0,0,1,4.866-.992,7.775,7.775,0,0,1,4.606,1.217,3.911,3.911,0,0,1,1.7,3.366,3.229,3.229,0,0,1-.543,1.949,8.127,8.127,0,0,1-1.843,1.665q-.874.638-1.276.981a2.292,2.292,0,0,0-.6.768,2.416,2.416,0,0,0-.2,1.039v.449h-4.158Zm.484,5.657a2.239,2.239,0,0,1,0-3.107,2.151,2.151,0,0,1,1.571-.614,2.182,2.182,0,0,1,1.571.626,2.168,2.168,0,0,1,0,3.095,2.184,2.184,0,0,1-1.571.626,2.131,2.131,0,0,1-1.571-.626" transform="translate(-187.53 -143.172)" fill="#d0dbf7"/>
            <path id="패스_9019" data-name="패스 9019" d="M215.337,172.491a16.886,16.886,0,1,1,16.885-16.886,16.9,16.9,0,0,1-16.885,16.886m0-32.733a15.847,15.847,0,1,0,15.847,15.847,15.865,15.865,0,0,0-15.847-15.847" transform="translate(-163.776 -123.009)" fill="#d0dbf7"/>
          </g>
          <path id="패스_9020" data-name="패스 9020" d="M370.146,3.97a14.107,14.107,0,0,0-23.908,10.655,14.22,14.22,0,0,0,2.138,6.947l-1.423,5.544a1.2,1.2,0,0,0,1.465,1.465L354.633,27a14.086,14.086,0,0,0,17.613-5.33,14.238,14.238,0,0,0-2.1-17.7m1.572,12.973a11.89,11.89,0,0,1-6.525,7.849,11.812,11.812,0,0,1-8.743.387c-.737-.254-1.4-.721-2.2-.538-1.506.347-3,.741-4.5,1.133l.489-1.906c.171-.667.357-1.333.514-2a1.466,1.466,0,0,0-.076-1.091c-.362-.688-.817-1.306-1.129-2.027a11.863,11.863,0,0,1,3.407-13.765,11.73,11.73,0,0,1,18.758,11.961" transform="translate(-221.481)" fill="#bdcee5"/>
          <path id="패스_9021" data-name="패스 9021" d="M367.538,13.452a7.893,7.893,0,1,0,7.893,7.893,7.9,7.9,0,0,0-7.893-7.893m-5.567,7.893a5.574,5.574,0,0,1,5.567-5.567,5.491,5.491,0,0,1,3.026.9l-7.7,7.7a5.492,5.492,0,0,1-.9-3.026m5.567,5.567a5.492,5.492,0,0,1-3.026-.9l7.7-7.7a5.493,5.493,0,0,1,.9,3.026,5.574,5.574,0,0,1-5.567,5.567" transform="translate(-228.699 -7.236)" fill="#7ba6de"/>
        </g>
      </g>
      <g id="그룹_7400" data-name="그룹 7400" opacity="0.64">
        <path id="패스_9022" data-name="패스 9022" d="M121.021,90.29H117.91V87.179H115.7V90.29h-3.11V92.5h3.11v3.111h2.207V92.5h3.111Z" transform="translate(-30.523 -55.246)" fill="#e2e6ff"/>
        <path id="패스_9023" data-name="패스 9023" d="M28.779,37.3H26.523V35.04h-1.6V37.3H22.667v1.6h2.256v2.256h1.6V38.9h2.256Z" transform="translate(-11.388 -17.604)" fill="#e2e6ff"/>
        <path id="패스_9024" data-name="패스 9024" d="M112.563,11.53h-2.256V9.274h-1.6V11.53H106.45v1.6h2.256v2.256h1.6V13.131h2.256Z" transform="translate(-54.887 9.418)" fill="#e2e6ff"/>
        <path id="패스_9025" data-name="패스 9025" d="M391.93,94.781h-2.256V92.525h-1.6v2.256h-2.256v1.6h2.256v2.256h1.6V96.382h2.256Z" transform="translate(-193.831 -46.484)" fill="#e2e6ff"/>
        <path id="패스_9026" data-name="패스 9026" d="M405.493,63.041h-3.111V59.93h-2.208v3.111h-3.11v2.207h3.11v3.111h2.208V65.248h3.111Z" transform="translate(-193.851 -32.211)" fill="#e2e6ff"/>
        <path id="패스_9027" data-name="패스 9027" d="M10.493,105.136H7.382v-3.111H5.174v3.111H2.064v2.207h3.11v3.111H7.382v-3.111h3.111Z" transform="translate(15.327 -55.984)" fill="#e2e6ff"/>
        <path id="패스_9028" data-name="패스 9028" d="M417.52,229.991v2.256h-2.256v1.6h2.256V236.1h1.6v-2.256h2.256v-1.6h-2.256v-2.256Z" transform="translate(-226.335 -138.772)" fill="#e2e6ff"/>
        <g id="그룹_7399" data-name="그룹 7399">
          <g id="그룹_7398" data-name="그룹 7398" clip-path="url(#clip-path-9)">
            <path id="패스_9029" data-name="패스 9029" d="M144.74,1.946A1.945,1.945,0,1,1,142.794,0a1.946,1.946,0,0,1,1.946,1.946" transform="translate(-70.761)" fill="#d0dbf7"/>
            <path id="패스_9030" data-name="패스 9030" d="M304.581,17.206a1.027,1.027,0,1,1-1.028-1.028,1.027,1.027,0,0,1,1.028,1.028" transform="translate(-151.986 -8.128)" fill="#d0dbf7"/>
            <path id="패스_9031" data-name="패스 9031" d="M391.941,27.473A1.945,1.945,0,1,1,390,25.527a1.946,1.946,0,0,1,1.946,1.946" transform="translate(-194.953 -12.825)" fill="#d0dbf7"/>
            <path id="패스_9032" data-name="패스 9032" d="M2.055,146.156a1.027,1.027,0,1,1-1.028-1.027,1.028,1.028,0,0,1,1.028,1.027" transform="translate(0 -72.912)" fill="#d0dbf7"/>
            <path id="패스_9033" data-name="패스 9033" d="M438.1,216.409a1.946,1.946,0,1,1-1.946-1.946,1.946,1.946,0,0,1,1.946,1.946" transform="translate(-318.089 -171.09)" fill="#d0dbf7"/>
            <path id="패스_9034" data-name="패스 9034" d="M5.947,69.871A1.945,1.945,0,1,1,4,67.926a1.945,1.945,0,0,1,1.946,1.945" transform="translate(-1.033 -34.125)" fill="#d0dbf7"/>
          </g>
        </g>
      </g>
    </g>
  </g>
</svg>
