<svg xmlns="http://www.w3.org/2000/svg" width="16.088" height="16.088" viewBox="0 0 16.088 16.088">
  <g id="settings-line" transform="translate(-10.873 -10.66)">
    <path id="패스_8969" data-name="패스 8969" d="M62.682,58.63A3.519,3.519,0,1,0,66.2,62.149,3.5,3.5,0,0,0,62.682,58.63Zm0,6.033A2.514,2.514,0,1,1,65.2,62.149,2.489,2.489,0,0,1,62.682,64.663Z" transform="translate(-43.928 -43.445)" fill="#8f8e93"/>
    <path id="패스_8970" data-name="패스 8970" d="M26.145,17.045l-1.408-.452-.3-.754.7-1.307a.845.845,0,0,0-.151-.955l-1.207-1.207a.845.845,0,0,0-.955-.151l-1.307.7-.754-.3-.452-1.408a.817.817,0,0,0-.754-.553H17.849a.7.7,0,0,0-.7.6l-.452,1.408a2.221,2.221,0,0,0-.8.3l-1.307-.7a.845.845,0,0,0-.955.151L12.42,13.626a.845.845,0,0,0-.151.955l.654,1.257c-.1.251-.2.553-.3.8l-1.408.452a.817.817,0,0,0-.553.754v1.709a.8.8,0,0,0,.6.754l1.408.452.3.754-.7,1.307a.845.845,0,0,0,.151.955l1.207,1.207a.845.845,0,0,0,.955.151l1.307-.7.754.3L17.1,26.2a.817.817,0,0,0,.754.553h1.709a.817.817,0,0,0,.754-.553l.452-1.458.754-.3,1.307.7a.845.845,0,0,0,.955-.151l1.207-1.207a.845.845,0,0,0,.151-.955l-.7-1.307.3-.754,1.458-.452a.817.817,0,0,0,.553-.754V17.849a.86.86,0,0,0-.6-.8Zm-.4,2.363-1.81.553-.05.251-.452,1.056-.151.251.9,1.659-1.006,1.006-1.659-.9-.251.151a4.773,4.773,0,0,1-1.056.452l-.251.05-.553,1.81H18l-.553-1.81-.251-.05L16.14,23.43l-.251-.151-1.659.9-1.006-1.006.9-1.659-.151-.251a4.773,4.773,0,0,1-.452-1.056l-.05-.251-1.81-.553V18l1.709-.5.1-.251a4.267,4.267,0,0,1,.452-1.106l.151-.251-.855-1.659,1.006-1.006,1.609.9.251-.151a4.267,4.267,0,0,1,1.106-.452l.251-.1L18,11.666h1.408l.553,1.76.251.1a4.773,4.773,0,0,1,1.056.452l.251.151,1.659-.9,1.006,1.006-.9,1.659.151.251a4.773,4.773,0,0,1,.452,1.056l.05.251,1.81.553Z" transform="translate(0.213 0)" fill="#8f8e93"/>
  </g>
</svg>
