<svg xmlns="http://www.w3.org/2000/svg" width="18" height="18.6" viewBox="0 0 18 18.6">
  <path id="합치기_5" data-name="합치기 5" d="M15.25,19.115H2.75A.75.75,0,0,1,2,18.365V4.615H.75a.75.75,0,0,1,0-1.5h16.5a.75.75,0,0,1,0,1.5H16v13.75a.75.75,0,0,1-.751.75Zm-.75-1.5v-13H3.5v13Zm-4.369-3.25v-6.5a.75.75,0,0,1,1.5,0v6.5a.75.75,0,1,1-1.5,0Zm-3.763,0v-6.5a.75.75,0,0,1,1.5,0v6.5a.75.75,0,1,1-1.5,0Zm.119-12.35a.75.75,0,0,1,0-1.5h4.5a.75.75,0,1,1,0,1.5Z" transform="translate(0 -0.515)" fill="#2b2b2b"/>
</svg>
