<svg xmlns="http://www.w3.org/2000/svg" width="18.673" height="18.637" viewBox="0 0 18.673 18.637">
  <g id="pencil-line" transform="translate(-12.125 -9.353)">
    <path id="패스_9113" data-name="패스 9113" d="M30.124,13.345l-3.3-3.319a1.164,1.164,0,0,0-1.643,0L13.474,21.715l-1.069,4.613a1.159,1.159,0,0,0,1.125,1.406,1.2,1.2,0,0,0,.242,0l4.663-1.069L30.124,14.987A1.164,1.164,0,0,0,30.124,13.345ZM17.873,25.652l-4.371.917,1-4.286,8.758-8.724,3.375,3.375Zm9.512-9.534L24.01,12.743,25.967,10.8l3.319,3.375Z" transform="translate(0 0)" fill="#2b2b2b" stroke="#2b2b2b" stroke-width="0.5"/>
  </g>
</svg>
