<svg xmlns="http://www.w3.org/2000/svg" xmlns:xlink="http://www.w3.org/1999/xlink" width="260" height="260" viewBox="0 0 260 260">
  <defs>
    <clipPath id="clip-path">
      <rect id="사각형_1007" data-name="사각형 1007" width="12" height="12" transform="translate(0)" fill="none"/>
    </clipPath>
    <clipPath id="clip-subicon_001">
      <rect width="260" height="260"/>
    </clipPath>
  </defs>
  <g id="subicon_001" clip-path="url(#clip-subicon_001)">
    <g id="icon" transform="translate(-160 -140)">
      <rect id="사각형_1051" data-name="사각형 1051" width="16" height="16" transform="translate(160 160)" fill="none"/>
      <path id="icon_seach" d="M332,528.85,330.848,530l-4.5-4.494a6.423,6.423,0,1,1,1.157-1.145ZM322.433,515.6a4.814,4.814,0,1,0,4.825,4.814A4.82,4.82,0,0,0,322.433,515.6Z" transform="translate(-156 -354)" fill="#4c4d4f"/>
    </g>
    <g id="그룹_2378" data-name="그룹 2378" transform="translate(-1756 -2)">
      <rect id="사각형_17555" data-name="사각형 17555" width="16" height="16" transform="translate(1796 122)" fill="none"/>
      <g id="btn" transform="translate(1796 124)" fill="#fff" stroke="#d6dbe4" stroke-width="2">
        <rect width="16" height="12" rx="3" stroke="none"/>
        <rect x="1" y="1" width="14" height="10" rx="2" fill="none"/>
      </g>
    </g>
    <g id="그룹_2382" data-name="그룹 2382" transform="translate(-1756 18)">
      <rect id="사각형_17555-2" data-name="사각형 17555" width="16" height="16" transform="translate(1796 122)" fill="none"/>
      <g id="btn-2" data-name="btn" transform="translate(1796 124)" fill="#fff" stroke="#4c4d4f" stroke-width="2">
        <rect width="16" height="12" rx="3" stroke="none"/>
        <rect x="1" y="1" width="14" height="10" rx="2" fill="none"/>
      </g>
    </g>
    <g id="그룹_2374" data-name="그룹 2374" transform="translate(-1790 59)">
      <rect id="사각형_17556" data-name="사각형 17556" width="16" height="16" transform="translate(1830 121)" fill="none"/>
      <g id="btn-3" data-name="btn" transform="translate(1830 123)" fill="#fff">
        <path d="M 13.60000038146973 11 L 2.400000095367432 11 C 1.628039956092834 11 1 10.43924999237061 1 9.75 L 1 2.25 C 1 1.560750007629395 1.628039956092834 1 2.400000095367432 1 L 13.60000038146973 1 C 14.3719596862793 1 15 1.560750007629395 15 2.25 L 15 9.75 C 15 10.43924999237061 14.3719596862793 11 13.60000038146973 11 Z" stroke="none"/>
        <path d="M 2.399999618530273 2 C 2.155819892883301 2 2 2.148070335388184 2 2.25 L 2 9.75 C 2 9.851929664611816 2.155819892883301 10 2.399999618530273 10 L 13.60000038146973 10 C 13.8441801071167 10 14 9.851929664611816 14 9.75 L 14 2.25 C 14 2.148070335388184 13.8441801071167 2 13.60000038146973 2 L 2.399999618530273 2 M 2.399999618530273 0 L 13.60000038146973 0 C 14.92547988891602 0 16 1.007360458374023 16 2.25 L 16 9.75 C 16 10.99263954162598 14.92547988891602 12 13.60000038146973 12 L 2.399999618530273 12 C 1.074520111083984 12 0 10.99263954162598 0 9.75 L 0 2.25 C 0 1.007360458374023 1.074520111083984 0 2.399999618530273 0 Z" stroke="none" fill="#4c4d4f"/>
      </g>
      <line id="선_364" data-name="선 364" y2="11" transform="translate(1836.222 123)" fill="none" stroke="#4c4d4f" stroke-width="2"/>
    </g>
    <g id="그룹_2381" data-name="그룹 2381" transform="translate(-1790 39)">
      <rect id="사각형_17556-2" data-name="사각형 17556" width="16" height="16" transform="translate(1830 121)" fill="none"/>
      <g id="btn-4" data-name="btn" transform="translate(1830 123)" fill="#fff">
        <path d="M 13.60000038146973 11 L 2.400000095367432 11 C 1.628039956092834 11 1 10.43924999237061 1 9.75 L 1 2.25 C 1 1.560750007629395 1.628039956092834 1 2.400000095367432 1 L 13.60000038146973 1 C 14.3719596862793 1 15 1.560750007629395 15 2.25 L 15 9.75 C 15 10.43924999237061 14.3719596862793 11 13.60000038146973 11 Z" stroke="none"/>
        <path d="M 2.399999618530273 2 C 2.155819892883301 2 2 2.148070335388184 2 2.25 L 2 9.75 C 2 9.851929664611816 2.155819892883301 10 2.399999618530273 10 L 13.60000038146973 10 C 13.8441801071167 10 14 9.851929664611816 14 9.75 L 14 2.25 C 14 2.148070335388184 13.8441801071167 2 13.60000038146973 2 L 2.399999618530273 2 M 2.399999618530273 0 L 13.60000038146973 0 C 14.92547988891602 0 16 1.007360458374023 16 2.25 L 16 9.75 C 16 10.99263954162598 14.92547988891602 12 13.60000038146973 12 L 2.399999618530273 12 C 1.074520111083984 12 0 10.99263954162598 0 9.75 L 0 2.25 C 0 1.007360458374023 1.074520111083984 0 2.399999618530273 0 Z" stroke="none" fill="#d6dbe4"/>
      </g>
      <line id="선_364-2" data-name="선 364" y2="11" transform="translate(1836.222 123)" fill="none" stroke="#d6dbe4" stroke-width="2"/>
    </g>
    <g id="icon-2" data-name="icon" transform="translate(143 40) rotate(90)">
      <circle id="타원_41" data-name="타원 41" cx="1.5" cy="1.5" r="1.5" transform="translate(0 -1)"/>
      <circle id="타원_42" data-name="타원 42" cx="1.5" cy="1.5" r="1.5" transform="translate(0 6)"/>
      <circle id="타원_43" data-name="타원 43" cx="1.5" cy="1.5" r="1.5" transform="translate(0 13)"/>
    </g>
    <g id="icon-3" data-name="icon" transform="translate(-40 -160)">
      <rect id="사각형_1051-2" data-name="사각형 1051" width="20" height="20" transform="translate(160 160)" fill="none"/>
      <path id="icon_seach-2" data-name="icon_seach" d="M336,532.563,334.56,534l-5.628-5.617a8.029,8.029,0,1,1,1.447-1.431Zm-11.959-16.557a6.018,6.018,0,1,0,6.031,6.018A6.024,6.024,0,0,0,324.041,516.006Z" transform="translate(-156 -354)" fill="#4c4d4f"/>
    </g>
    <g id="btn_searchClose">
      <rect id="사각형_1015" data-name="사각형 1015" width="16" height="16" transform="translate(0 40)" fill="none"/>
      <line id="선_52" data-name="선 52" x2="14" y2="14" transform="translate(1 41)" fill="none" stroke="#4c4d4f" stroke-width="2"/>
      <line id="선_53" data-name="선 53" x1="14" y2="14" transform="translate(1 41)" fill="none" stroke="#4c4d4f" stroke-width="2"/>
    </g>
    <g id="btn_searchClose-2" data-name="btn_searchClose" transform="translate(20 -20)">
      <rect id="사각형_1015-2" data-name="사각형 1015" width="9" height="9" transform="translate(0 40)" fill="none"/>
      <line id="선_52-2" data-name="선 52" x2="7" y2="7" transform="translate(1 41)" fill="none" stroke="#4c4d4f" stroke-width="1"/>
      <line id="선_53-2" data-name="선 53" x1="7" y2="7" transform="translate(1 41)" fill="none" stroke="#4c4d4f" stroke-width="1"/>
    </g>
    <g id="icon_새창" transform="translate(-1347 -76)">
      <path id="Shape_3" data-name="Shape 3" d="M1043,1178a2,2,0,0,1-2-2v-8a2,2,0,0,1,2-2h1v2h-1v8h8v-1h2v1a2,2,0,0,1-2,2Zm4-4a2,2,0,0,1-2-2v-8a2,2,0,0,1,2-2h8a2,2,0,0,1,2,2v8a2,2,0,0,1-2,2Zm0-2h8v-8h-8Z" transform="translate(306 -1026)" fill="#4c4d4f"/>
    </g>
    <g id="그룹_2387" data-name="그룹 2387">
      <g id="사각형_17565" data-name="사각형 17565" transform="translate(1 81)" fill="none" stroke="#4c4d4f" stroke-width="2">
        <rect width="14" height="14" rx="2" stroke="none"/>
        <rect x="1" y="1" width="12" height="12" rx="1" fill="none"/>
      </g>
    </g>
    <g id="icon_refresh" transform="translate(-320 -40)">
      <g id="icon_refresh-2" data-name="icon_refresh" transform="translate(320 140)">
        <path id="arrow-flip-1" d="M630.4,515.6v1.6A7.177,7.177,0,0,0,624,514a8,8,0,0,0,0,16,7.914,7.914,0,0,0,8-7.2h-1.6a6.038,6.038,0,0,1-6.4,5.6,6.4,6.4,0,1,1,5.6-9.6h-2.4a.8.8,0,1,0,0,1.6h4a.917.917,0,0,0,.8-.8v-4a.8.8,0,0,0-1.6,0Z" transform="translate(-616 -514)" fill="#4c4d4f"/>
      </g>
    </g>
    <g id="icon_print" transform="translate(-1196 -17)">
      <path id="Rectangle_1" data-name="Rectangle 1" d="M1030,1173h0v5h-12v-5h0a2,2,0,0,1-2-2v-4a2,2,0,0,1,2-2h1v-3h10v3h1a2,2,0,0,1,2,2v4A2,2,0,0,1,1030,1173Zm-10,3h8v-3h-8Zm7-12h-6v1h6Zm3,3h-12v4h12Zm-2,3h-2v-2h2Z" transform="translate(180 -1025)" fill="#4c4d4f"/>
    </g>
    <g id="icon_fillter" transform="translate(-340)">
      <path id="필터_1" d="M372.667,198l-5.333-2.742v-6.272l-4.921-3.2a.915.915,0,0,1-.412-.767v-.955A2.142,2.142,0,0,1,364.207,182h11.585A2.142,2.142,0,0,1,378,184.063v.955a.915.915,0,0,1-.412.767l-4.921,3.2Zm-3.556-3.556,1.778.889v-6.846a.915.915,0,0,1,.412-.768l4.921-3.2v-.456c0-.087-.163-.246-.43-.246H364.207c-.258,0-.43.148-.43.246v.456l4.922,3.2a.915.915,0,0,1,.412.768Zm8-9.426h0Z" transform="translate(-22 -41.998)" fill="#4c4d4f"/>
    </g>
    <g id="calender_next" transform="translate(-1 160)">
      <rect id="사각형_1049" data-name="사각형 1049" width="9" height="14" transform="translate(1)" fill="none"/>
      <path id="합치기_12" data-name="합치기 12" d="M5.5,5.5,0,11,5.5,5.5,6,6l-.5-.5L6,5l-.5.5L0,0Z" transform="translate(8 12) rotate(180)" fill="none" stroke="#4c4d4f" stroke-width="1.5"/>
    </g>
    <g id="calender_next-2" data-name="calender_next" transform="translate(0 180)">
      <rect id="사각형_1049-2" data-name="사각형 1049" width="9" height="14" fill="none"/>
      <path id="합치기_12-2" data-name="합치기 12" d="M5.5,5.5,0,0,5.5,5.5,6,5l-.5.5L6,6l-.5-.5L0,11Z" transform="translate(1 1)" fill="none" stroke="#4c4d4f" stroke-width="1.5"/>
    </g>
    <g id="그룹_2383" data-name="그룹 2383">
      <g id="사각형_17566" data-name="사각형 17566" transform="translate(7 202)" fill="none" stroke="#4c4d4f" stroke-width="1">
        <rect width="2" height="12" stroke="none"/>
        <rect x="0.5" y="0.5" width="1" height="11" fill="none"/>
      </g>
      <g id="사각형_17567" data-name="사각형 17567" transform="translate(2 209) rotate(-90)" fill="none" stroke="#4c4d4f" stroke-width="1">
        <rect width="2" height="12" stroke="none"/>
        <rect x="0.5" y="0.5" width="1" height="11" fill="none"/>
      </g>
    </g>
    <g id="그룹_2384" data-name="그룹 2384" transform="translate(-2 18)">
      <g id="사각형_17566-2" data-name="사각형 17566" transform="translate(9 202)" fill="none" stroke="#4c4d4f" stroke-width="1">
        <rect width="2" height="16" stroke="none"/>
        <rect x="0.5" y="0.5" width="1" height="15" fill="none"/>
      </g>
      <g id="사각형_17567-2" data-name="사각형 17567" transform="translate(2 211) rotate(-90)" fill="none" stroke="#4c4d4f" stroke-width="1">
        <rect width="2" height="16" stroke="none"/>
        <rect x="0.5" y="0.5" width="1" height="15" fill="none"/>
      </g>
    </g>
    <g id="icon-1" transform="translate(-24.455 -50.018)">
      <rect id="사각형_37" data-name="사각형 37" width="14" height="14" transform="translate(44.455 50.018)" fill="none"/>
      <path id="box" d="M52.654,62.093l4.911-4.97a3.079,3.079,0,0,0,.014-4.3,2.962,2.962,0,0,0-4.221,0l-6.338,6.413a2.033,2.033,0,0,0,0,2.851,1.975,1.975,0,0,0,2.817,0l6.338-6.415a1.016,1.016,0,0,0,0-1.425.987.987,0,0,0-1.408,0l-4.93,4.989a.493.493,0,0,1-.7,0h0a.508.508,0,0,1,0-.713l4.914-4.973a1.989,1.989,0,0,1,2.827-.021,2.034,2.034,0,0,1,.005,2.856l-6.337,6.413a2.962,2.962,0,0,1-4.221,0,3.079,3.079,0,0,1,.014-4.3l6.3-6.373a3.984,3.984,0,0,1,5.666-.012,4.066,4.066,0,0,1-.01,5.691l-4.929,4.989a.5.5,0,0,1-.7,0h0A.508.508,0,0,1,52.654,62.093Z" transform="translate(-1 -0.931)" fill="#a8abb2"/>
    </g>
    <g id="그룹_2385" data-name="그룹 2385">
      <g id="사각형_17568" data-name="사각형 17568" transform="translate(20 43)" fill="#fff" stroke="#4c4d4f" stroke-width="1">
        <rect width="8" height="2" stroke="none"/>
        <rect x="0.5" y="0.5" width="7" height="1" fill="none"/>
      </g>
    </g>
    <g id="그룹_2386" data-name="그룹 2386" transform="translate(0 20)">
      <g id="사각형_17568-2" data-name="사각형 17568" transform="translate(20 43)" fill="#fff" stroke="#4c4d4f" stroke-width="1">
        <rect width="8" height="2" stroke="none"/>
        <rect x="0.5" y="0.5" width="7" height="1" fill="none"/>
      </g>
      <g id="사각형_17569" data-name="사각형 17569" transform="translate(25 40) rotate(90)" fill="#fff" stroke="#4c4d4f" stroke-width="1">
        <rect width="8" height="2" stroke="none"/>
        <rect x="0.5" y="0.5" width="7" height="1" fill="none"/>
      </g>
    </g>
    <g id="그룹_2390" data-name="그룹 2390">
      <g id="사각형_17573" data-name="사각형 17573" transform="translate(20 122)" fill="#fff" stroke="#4c4d4f" stroke-width="1">
        <rect width="16" height="2" stroke="none"/>
        <rect x="0.5" y="0.5" width="15" height="1" fill="none"/>
      </g>
      <g id="사각형_17574" data-name="사각형 17574" transform="translate(20 127)" fill="#fff" stroke="#4c4d4f" stroke-width="1">
        <rect width="16" height="2" stroke="none"/>
        <rect x="0.5" y="0.5" width="15" height="1" fill="none"/>
      </g>
      <g id="사각형_17575" data-name="사각형 17575" transform="translate(20 132)" fill="#fff" stroke="#4c4d4f" stroke-width="1">
        <rect width="11" height="2" stroke="none"/>
        <rect x="0.5" y="0.5" width="10" height="1" fill="none"/>
      </g>
    </g>
    <g id="그룹_2391" data-name="그룹 2391" transform="translate(0 20)">
      <g id="사각형_17573-2" data-name="사각형 17573" transform="translate(20 122)" fill="#fff" stroke="#d6dbe4" stroke-width="1">
        <rect width="16" height="2" stroke="none"/>
        <rect x="0.5" y="0.5" width="15" height="1" fill="none"/>
      </g>
      <g id="사각형_17574-2" data-name="사각형 17574" transform="translate(20 127)" fill="#fff" stroke="#d6dbe4" stroke-width="1">
        <rect width="16" height="2" stroke="none"/>
        <rect x="0.5" y="0.5" width="15" height="1" fill="none"/>
      </g>
      <g id="사각형_17575-2" data-name="사각형 17575" transform="translate(20 132)" fill="#fff" stroke="#d6dbe4" stroke-width="1">
        <rect width="11" height="2" stroke="none"/>
        <rect x="0.5" y="0.5" width="10" height="1" fill="none"/>
      </g>
    </g>
    <g id="list_arrow_active" transform="translate(20 160)">
      <rect id="사각형_1033" data-name="사각형 1033" width="6" height="9" transform="translate(0 6) rotate(-90)" fill="none"/>
      <path id="합치기_9" data-name="합치기 9" d="M2.75,3.5,0,7,2.75,3.5,3,3.818,2.75,3.5,3,3.182,2.75,3.5,0,0Z" transform="translate(1 4.5) rotate(-90)" fill="none" stroke="#4c4d4f" stroke-width="1.5"/>
    </g>
    <g id="list_arrow_active-2" data-name="list_arrow_active" transform="translate(20 180)">
      <rect id="사각형_1033-2" data-name="사각형 1033" width="6" height="9" transform="translate(9) rotate(90)" fill="none"/>
      <path id="합치기_9-2" data-name="합치기 9" d="M2.75,3.5,0,0,2.75,3.5,3,3.182,2.75,3.5,3,3.818,2.75,3.5,0,7Z" transform="translate(8 1.5) rotate(90)" fill="none" stroke="#4c4d4f" stroke-width="1.5"/>
    </g>
    <g id="그룹_2392" data-name="그룹 2392" transform="translate(20 120)">
      <g id="사각형_17565-2" data-name="사각형 17565" transform="translate(1 81)" fill="none" stroke="#4c4d4f" stroke-width="2">
        <rect width="14" height="14" rx="2" stroke="none"/>
        <rect x="1" y="1" width="12" height="12" rx="1" fill="none"/>
      </g>
      <rect id="사각형_17576" data-name="사각형 17576" width="6" height="2" transform="translate(5 85)" fill="#4c4d4f"/>
      <rect id="사각형_17577" data-name="사각형 17577" width="2" height="3" transform="translate(5 88)" fill="#4c4d4f"/>
      <rect id="사각형_17578" data-name="사각형 17578" width="3" height="3" transform="translate(8 88)" fill="#4c4d4f"/>
    </g>
    <g id="그룹_2393" data-name="그룹 2393">
      <g id="타원_64" data-name="타원 64" transform="translate(20 220)" fill="#e5c6c7" stroke="#e6989b" stroke-width="1">
        <circle cx="8" cy="8" r="8" stroke="none"/>
        <circle cx="8" cy="8" r="7.5" fill="none"/>
      </g>
      <rect id="사각형_17579" data-name="사각형 17579" width="2" height="2" transform="translate(27 224)" fill="#eb1c24"/>
      <rect id="사각형_17580" data-name="사각형 17580" width="2" height="5" transform="translate(27 227)" fill="#eb1c24"/>
    </g>
    <g id="그룹_667" data-name="그룹 667" transform="translate(2 242)" clip-path="url(#clip-path)">
      <path id="패스_562" data-name="패스 562" d="M9.065,12a1.142,1.142,0,0,1-.477-.113L6,10.74,3.394,11.894a1.579,1.579,0,0,1-.489.1,1.175,1.175,0,0,1-1.144-1.469L2.3,7.767.35,5.817a1.222,1.222,0,0,1-.323-.6,1.187,1.187,0,0,1,.169-.9A1.2,1.2,0,0,1,.95,3.8l2.836-.566L4.906.712A1.2,1.2,0,0,1,6,0H6A1.2,1.2,0,0,1,7.1.72L8.214,3.237l2.828.567a1.194,1.194,0,0,1,.613,2.011L9.7,7.768l.55,2.8a1.171,1.171,0,0,1-.4,1.156A1.234,1.234,0,0,1,9.081,12Zm-.352-1.125a.148.148,0,0,0,.006.032Zm-5.42-.029-.005.025a.1.1,0,0,0,.005-.025M9.23,10.46l.014.007L9.23,10.46m-6.469,0-.005,0ZM6,9.029l2.574,1.142L8,7.249,10.055,5.2l-2.941-.59L6,2.107,4.888,4.61,1.945,5.2,4,7.247l-.571,2.922Zm-.337-7.68,0,.005Z" transform="translate(0 0)" fill="#4c4d4f"/>
    </g>
    <g id="menu-grid-r" transform="translate(14 74)">
      <rect id="사각형_17558" data-name="사각형 17558" width="16" height="16" transform="translate(6 6)" fill="none"/>
      <path id="패스_8830" data-name="패스 8830" d="M6,6h6v6H6Z" fill="#4c4d4f"/>
      <path id="패스_8831" data-name="패스 8831" d="M6,15h6v6H6Z" transform="translate(0 1)" fill="#4c4d4f"/>
      <path id="패스_8833" data-name="패스 8833" d="M15,6h6v6H15Z" transform="translate(1)" fill="#4c4d4f"/>
      <path id="패스_8834" data-name="패스 8834" d="M21,15H15v6h6Z" transform="translate(1 1)" fill="#4c4d4f"/>
    </g>
    <g id="menu-grid-r-2" data-name="menu-grid-r" transform="translate(14 94)">
      <rect id="사각형_17558-2" data-name="사각형 17558" width="16" height="16" transform="translate(6 6)" fill="none"/>
      <path id="패스_8830-2" data-name="패스 8830" d="M6,6h6v6H6Z" fill="#d8dce4"/>
      <path id="패스_8831-2" data-name="패스 8831" d="M6,15h6v6H6Z" transform="translate(0 1)" fill="#d8dce4"/>
      <path id="패스_8833-2" data-name="패스 8833" d="M15,6h6v6H15Z" transform="translate(1)" fill="#d8dce4"/>
      <path id="패스_8834-2" data-name="패스 8834" d="M21,15H15v6h6Z" transform="translate(1 1)" fill="#d8dce4"/>
    </g>
    <g id="그룹_672" data-name="그룹 672" transform="translate(-350 -1219.003)">
      <path id="Shape_1" data-name="Shape 1" d="M71.23,105H66.457A2.5,2.5,0,0,1,64,102.469v-6a2.546,2.546,0,0,1,.716-1.786L69.371,89l1.515,1.468a2.088,2.088,0,0,1,.632,1.484l-.044.438L71.022,95h2.445a2.492,2.492,0,0,1,2.518,2.46v.451a2.414,2.414,0,0,1-.175.9l-2.265,4.7A2.5,2.5,0,0,1,71.23,105ZM69.408,91.8l-3.276,4.335a.467.467,0,0,0-.129.328v6.074a.468.468,0,0,0,.455.468l4.773-.013a.459.459,0,0,0,.426-.271l2.327-4.676A.434.434,0,0,0,74,97.908v-.451A.467.467,0,0,0,73.538,97H68.5l.971-5.143Z" transform="translate(330 1150)" fill="#004b8e"/>
      <path id="Shape_2" data-name="Shape 2" d="M66,104.995H60V95h6ZM62,103l1.97-.013V97.01L62,97Z" transform="translate(330 1150)" fill="#004b8e"/>
    </g>
    <g id="그룹_2394" data-name="그룹 2394" transform="translate(-350 -1239.003)">
      <path id="Shape_1-2" data-name="Shape 1" d="M71.23,105H66.457A2.5,2.5,0,0,1,64,102.469v-6a2.546,2.546,0,0,1,.716-1.786L69.371,89l1.515,1.468a2.088,2.088,0,0,1,.632,1.484l-.044.438L71.022,95h2.445a2.492,2.492,0,0,1,2.518,2.46v.451a2.414,2.414,0,0,1-.175.9l-2.265,4.7A2.5,2.5,0,0,1,71.23,105ZM69.408,91.8l-3.276,4.335a.467.467,0,0,0-.129.328v6.074a.468.468,0,0,0,.455.468l4.773-.013a.459.459,0,0,0,.426-.271l2.327-4.676A.434.434,0,0,0,74,97.908v-.451A.467.467,0,0,0,73.538,97H68.5l.971-5.143Z" transform="translate(330 1150)" fill="#4c4d4f"/>
      <path id="Shape_2-2" data-name="Shape 2" d="M66,104.995H60V95h6ZM62,103l1.97-.013V97.01L62,97Z" transform="translate(330 1150)" fill="#4c4d4f"/>
    </g>
    <g id="calender_next-3" data-name="calender_next" transform="translate(53.5 82.5) rotate(90)">
      <rect id="사각형_1049-3" data-name="사각형 1049" width="9" height="14" transform="translate(1 -1)" fill="none"/>
      <path id="합치기_12-3" data-name="합치기 12" d="M5.5,6,0,12,5.5,6l.5.545L5.5,6,6,5.455,5.5,6,0,0Z" transform="translate(8 12) rotate(180)" fill="none" stroke="#4c4d4f" stroke-width="1.5"/>
    </g>
    <g id="calender_next-4" data-name="calender_next" transform="translate(40.5 112.5) rotate(-90)">
      <rect id="사각형_1049-4" data-name="사각형 1049" width="9" height="14" fill="none"/>
      <path id="합치기_12-4" data-name="합치기 12" d="M5.5,6,0,0,5.5,6,6,5.454,5.5,6l.5.545L5.5,6,0,12Z" transform="translate(7 13) rotate(180)" fill="none" stroke="#4c4d4f" stroke-width="1.5"/>
    </g>
    <g id="calender_next-5" data-name="calender_next" transform="translate(55 74.5) rotate(180)">
      <rect id="사각형_1049-5" data-name="사각형 1049" width="9" height="14" transform="translate(1 -1)" fill="none"/>
      <path id="합치기_12-5" data-name="합치기 12" d="M5.5,6,0,12,5.5,6l.5.545L5.5,6,6,5.455,5.5,6,0,0Z" transform="translate(8 12) rotate(180)" fill="none" stroke="#4c4d4f" stroke-width="1.5"/>
      <path id="합치기_51" data-name="합치기 51" d="M5.5,6,0,12,5.5,6l.5.545L5.5,6,6,5.455,5.5,6,0,0Z" transform="translate(13 12) rotate(180)" fill="none" stroke="#4c4d4f" stroke-width="1.5"/>
    </g>
    <g id="calender_next-6" data-name="calender_next" transform="translate(42 41.5)">
      <rect id="사각형_1049-6" data-name="사각형 1049" width="9" height="14" transform="translate(0)" fill="none"/>
      <path id="합치기_12-6" data-name="합치기 12" d="M5.5,6,0,0,5.5,6,6,5.454,5.5,6l.5.545L5.5,6,0,12Z" transform="translate(7 13) rotate(180)" fill="none" stroke="#4c4d4f" stroke-width="1.5"/>
      <path id="합치기_51-2" data-name="합치기 51" d="M5.5,6,0,0,5.5,6,6,5.454,5.5,6l.5.545L5.5,6,0,12Z" transform="translate(12 13) rotate(180)" fill="none" stroke="#4c4d4f" stroke-width="1.5"/>
    </g>
    <g id="icon-4" data-name="icon" transform="translate(-120 40)">
      <rect id="사각형_1051-3" data-name="사각형 1051" width="16" height="16" transform="translate(160 160)" fill="none"/>
      <path id="icon_seach-3" data-name="icon_seach" d="M332,528.85,330.848,530l-4.5-4.494a6.423,6.423,0,1,1,1.157-1.145ZM322.433,515.6a4.814,4.814,0,1,0,4.825,4.814A4.82,4.82,0,0,0,322.433,515.6Z" transform="translate(-156 -354)" fill="#4c4d4f"/>
      <g id="사각형_17581" data-name="사각형 17581" transform="translate(166 164)" fill="#fff" stroke="#4c4d4f" stroke-width="1">
        <rect width="1" height="5" stroke="none"/>
        <rect x="0.5" y="0.5" height="4" fill="none"/>
      </g>
      <g id="사각형_17582" data-name="사각형 17582" transform="translate(164 166)" fill="#fff" stroke="#4c4d4f" stroke-width="1">
        <rect width="5" height="1" stroke="none"/>
        <rect x="0.5" y="0.5" width="4" fill="none"/>
      </g>
    </g>
    <g id="그룹_2396" data-name="그룹 2396" transform="translate(42 221)">
      <rect id="사각형_17584" data-name="사각형 17584" width="16" height="16" transform="translate(-2 -1)" fill="none"/>
      <g id="그룹_2397" data-name="그룹 2397" transform="translate(-2 1)">
        <rect id="사각형_17583" data-name="사각형 17583" width="14.51" height="11.19" transform="translate(0.733 1.775)" fill="none" stroke="#4c4d4f" stroke-linejoin="round" stroke-width="1.5"/>
        <path id="패스_8835" data-name="패스 8835" d="M7.246,1H1.754L1,4H8Z" transform="translate(-0.267 -2.224)" fill="none" stroke="#4c4d4f" stroke-linejoin="round" stroke-width="1.5"/>
      </g>
    </g>
  </g>
</svg>
