<svg width="20" height="20" viewBox="0 0 20 20" fill="none" xmlns="http://www.w3.org/2000/svg">
<path d="M9.72561 4.31099C9.75619 4.26658 9.79711 4.23027 9.84485 4.20518C9.89258 4.1801 9.9457 4.16699 9.99963 4.16699C10.0536 4.16699 10.1067 4.1801 10.1544 4.20518C10.2021 4.23027 10.2431 4.26658 10.2737 4.31099L13.2739 8.64403C13.3086 8.69401 13.329 8.75254 13.3328 8.81328C13.3366 8.87402 13.3236 8.93463 13.2954 8.98854C13.2671 9.04245 13.2247 9.08758 13.1726 9.11904C13.1205 9.1505 13.0607 9.16709 12.9999 9.16699H6.99939C6.93867 9.16674 6.87916 9.14994 6.82727 9.11841C6.77538 9.08687 6.73307 9.04179 6.70489 8.98801C6.67671 8.93423 6.66373 8.87378 6.66734 8.81317C6.67095 8.75256 6.69101 8.69409 6.72537 8.64403L9.72561 4.31099Z" fill="#CDD1D5"/>
<path d="M10.2745 15.6895C10.2439 15.7339 10.203 15.7702 10.1553 15.7953C10.1075 15.8204 10.0544 15.8335 10.0005 15.8335C9.94657 15.8335 9.89345 15.8204 9.84571 15.7953C9.79798 15.7702 9.75705 15.7339 9.72647 15.6895L6.72624 11.3565C6.69151 11.3065 6.67114 11.2479 6.66735 11.1872C6.66356 11.1265 6.67649 11.0659 6.70474 11.0119C6.73299 10.958 6.77547 10.9129 6.82757 10.8814C6.87967 10.85 6.93939 10.8334 7.00026 10.8335L13.0007 10.8335C13.0615 10.8337 13.121 10.8505 13.1728 10.8821C13.2247 10.9136 13.267 10.9587 13.2952 11.0125C13.3234 11.0663 13.3364 11.1267 13.3328 11.1873C13.3292 11.2479 13.3091 11.3064 13.2747 11.3565L10.2745 15.6895Z" fill="#052B57"/>
</svg>
