<svg width="20" height="20" viewBox="0 0 20 20" fill="none" xmlns="http://www.w3.org/2000/svg">
<path d="M9.72561 15.689C9.75619 15.7334 9.79711 15.7697 9.84485 15.7948C9.89258 15.8199 9.9457 15.833 9.99963 15.833C10.0536 15.833 10.1067 15.8199 10.1544 15.7948C10.2021 15.7697 10.2431 15.7334 10.2737 15.689L13.2739 11.356C13.3086 11.306 13.329 11.2475 13.3328 11.1867C13.3366 11.126 13.3236 11.0654 13.2954 11.0115C13.2671 10.9576 13.2247 10.9124 13.1726 10.881C13.1205 10.8495 13.0607 10.8329 12.9999 10.833H6.99939C6.93867 10.8333 6.87916 10.8501 6.82727 10.8816C6.77538 10.9131 6.73307 10.9582 6.70489 11.012C6.67671 11.0658 6.66373 11.1262 6.66734 11.1868C6.67095 11.2474 6.69101 11.3059 6.72537 11.356L9.72561 15.689Z" fill="#CDD1D5"/>
<path d="M10.2745 4.3105C10.2439 4.26609 10.203 4.22978 10.1553 4.2047C10.1075 4.17961 10.0544 4.1665 10.0005 4.1665C9.94657 4.1665 9.89345 4.17961 9.84571 4.2047C9.79798 4.22978 9.75705 4.26609 9.72647 4.3105L6.72624 8.64354C6.69151 8.69352 6.67114 8.75205 6.66735 8.81279C6.66356 8.87353 6.67649 8.93414 6.70474 8.98805C6.73299 9.04196 6.77547 9.08709 6.82757 9.11855C6.87967 9.15002 6.93939 9.1666 7.00026 9.1665L13.0007 9.1665C13.0615 9.16625 13.121 9.14946 13.1728 9.11792C13.2247 9.08638 13.267 9.0413 13.2952 8.98752C13.3234 8.93374 13.3364 8.87329 13.3328 8.81268C13.3292 8.75208 13.3091 8.6936 13.2747 8.64354L10.2745 4.3105Z" fill="#052B57"/>
</svg>
