<svg width="16" height="16" viewBox="0 0 16 16" fill="none" xmlns="http://www.w3.org/2000/svg">
<path d="M14.6663 7.99963C14.6663 11.6814 11.6821 14.6665 8.00032 14.6666C4.31842 14.6666 1.33333 11.6815 1.33333 7.99963C1.33347 4.31785 4.31851 1.33362 8.00032 1.33362C11.682 1.33376 14.6662 4.31794 14.6663 7.99963ZM13.5999 7.99963C13.5998 4.90705 11.0929 2.40016 8.00032 2.40002C4.90761 2.40002 2.39988 4.90696 2.39974 7.99963C2.39974 11.0924 4.90753 13.6002 8.00032 13.6002C11.093 13.6001 13.5999 11.0923 13.5999 7.99963ZM10.64 6.82288C10.8483 7.03116 10.8483 7.36948 10.64 7.57776L8.37728 9.84045C8.16908 10.0486 7.83165 10.0484 7.62337 9.84045L5.36068 7.57776C5.1524 7.36948 5.1524 7.03116 5.36068 6.82288C5.56893 6.61507 5.90643 6.6149 6.11458 6.82288L8.00032 8.70862L9.88607 6.82288C10.0943 6.61504 10.4318 6.61493 10.64 6.82288Z" fill="#33363D"/>
</svg>
