<svg width="16" height="16" viewBox="0 0 16 16" fill="none" xmlns="http://www.w3.org/2000/svg">
<path d="M1.33374 8.00037C1.33374 4.31858 4.31801 1.33351 7.99976 1.33337C11.6817 1.33337 14.6667 4.3185 14.6667 8.00037C14.6666 11.6821 11.6816 14.6664 7.99976 14.6664C4.31809 14.6662 1.33388 11.6821 1.33374 8.00037ZM2.40015 8.00037C2.40029 11.093 4.90719 13.5998 7.99976 13.6C11.0925 13.6 13.6002 11.093 13.6003 8.00037C13.6003 4.9076 11.0925 2.39978 7.99976 2.39978C4.90711 2.39992 2.40015 4.90769 2.40015 8.00037ZM5.36011 9.17712C5.15183 8.96884 5.15183 8.63052 5.36011 8.42224L7.6228 6.15955C7.831 5.95143 8.16843 5.95156 8.37671 6.15955L10.6394 8.42224C10.8477 8.63052 10.8477 8.96884 10.6394 9.17712C10.4311 9.38493 10.0937 9.3851 9.8855 9.17712L7.99976 7.29138L6.11401 9.17712C5.90578 9.38496 5.56828 9.38506 5.36011 9.17712Z" fill="#33363D"/>
</svg>
