<svg id="info" xmlns="http://www.w3.org/2000/svg" width="14" height="14" viewBox="0 0 14 14">
  <path id="패스_8914" data-name="패스 8914" d="M7,0a7,7,0,1,0,7,7A7,7,0,0,0,7,0ZM7,12.833A5.833,5.833,0,1,1,12.833,7,5.833,5.833,0,0,1,7,12.833Z" fill="#fff"/>
  <path id="패스_8915" data-name="패스 8915" d="M11.177,10h-.589a.589.589,0,1,0,0,1.177h.589v3.531a.589.589,0,0,0,1.177,0V11.177A1.177,1.177,0,0,0,11.177,10Z" transform="translate(-4.177 -4.198)" fill="#fff"/>
  <circle id="타원_11" data-name="타원 11" cx="0.883" cy="0.883" r="0.883" transform="translate(6.117 2.913)" fill="#fff"/>
</svg>
