<svg xmlns="http://www.w3.org/2000/svg" width="20" height="20" viewBox="0 0 20 20">
  <g id="그룹_54450" data-name="그룹 54450" transform="translate(86 2042)">
    <rect id="사각형_33192" data-name="사각형 33192" width="20" height="20" transform="translate(-86 -2042)" fill="none"/>
    <g id="pen" transform="translate(-85 -2040.948)">
      <path id="패스_55239" data-name="패스 55239" d="M17.439,3.231,14.718.51a1.739,1.739,0,0,0-2.46,0L.864,11.9a.7.7,0,0,0-.2.4L.007,17.155a.7.7,0,0,0,.787.787l4.852-.659a.7.7,0,0,0,.4-.2L17.439,5.691a1.74,1.74,0,0,0,0-2.46ZM5.224,15.929l-3.708.5.5-3.708,8.074-8.074,3.2,3.2ZM16.451,4.7,14.286,6.867l-3.2-3.2L13.246,1.5a.341.341,0,0,1,.483,0L16.451,4.22a.341.341,0,0,1,0,.483Z" transform="translate(0 0)" fill="#fff" stroke="#fff" stroke-width="0.1"/>
    </g>
  </g>
</svg>
