<svg xmlns="http://www.w3.org/2000/svg" width="20" height="20" viewBox="0 0 20 20">
  <g id="그룹_54449" data-name="그룹 54449" transform="translate(127 2038.997)">
    <rect id="사각형_33191" data-name="사각형 33191" width="20" height="20" transform="translate(-127 -2038.997)" fill="none"/>
    <g id="Reload" transform="translate(-125.162 -2038.048)">
      <path id="패스_55242" data-name="패스 55242" d="M19.939,20.988a8.165,8.165,0,0,1-13.888-6.68.816.816,0,0,1,1.623.181,6.536,6.536,0,1,0,3.1-4.848l1.853.463a.816.816,0,0,1-.2,1.607.789.789,0,0,1-.2-.026l-4.422-1.12L8.985,5.893a.816.816,0,1,1,1.582.4L10.1,8.132a8.165,8.165,0,0,1,9.837,12.856Z" transform="translate(-5.999 -5.277)" fill="#fff"/>
    </g>
  </g>
</svg>
