<svg xmlns="http://www.w3.org/2000/svg" width="20" height="20" viewBox="0 0 20 20">
  <g id="그룹_54451" data-name="그룹 54451" transform="translate(54 2046)">
    <rect id="사각형_33193" data-name="사각형 33193" width="20" height="20" transform="translate(-54 -2046)" fill="none"/>
    <path id="_4177559_ecommerce_filter_shop_icon" data-name="4177559_ecommerce_filter_shop_icon" d="M12.433,25.224a.655.655,0,0,1-.294-.068.675.675,0,0,1-.382-.608v-7.73L5.5,11.168A1.895,1.895,0,0,1,6.9,8H21.345a1.895,1.895,0,0,1,1.4,3.168l-6.261,5.65v5.028a.675.675,0,0,1-.253.527l-3.377,2.7A.675.675,0,0,1,12.433,25.224ZM6.9,9.351a.544.544,0,0,0-.4.908l6.437,5.856a.675.675,0,0,1,.176.442v6.585l2.026-1.635V16.558a.675.675,0,0,1,.176-.456l6.437-5.856a.544.544,0,0,0-.4-.895Zm8.913,12.5Z" transform="translate(-58.121 -2052.612)" fill="#fff" stroke="#fff" stroke-width="0.2"/>
  </g>
</svg>
