<svg xmlns="http://www.w3.org/2000/svg" xmlns:xlink="http://www.w3.org/1999/xlink" width="12" height="12" viewBox="0 0 12 12">
  <defs>
    <clipPath id="clip-path">
      <rect id="사각형_823" data-name="사각형 823" width="12" height="12" transform="translate(-0.074 0.222)" fill="#fff"/>
    </clipPath>
  </defs>
  <g id="그룹_284" data-name="그룹 284" transform="translate(0.074 -0.222)" clip-path="url(#clip-path)">
    <path id="패스_790" data-name="패스 790" d="M10.814,9.621,9.607,10.827,8.063,10.4l-.442.182-.792,1.392H5.121l-.786-1.4-.441-.184-1.544.424L1.144,9.608l.43-1.544-.182-.442L0,6.829V5.121l1.4-.786.184-.441L1.157,2.35,2.363,1.145l1.544.43.442-.182L5.14,0H6.846l.789,1.4.441.184,1.544-.424,1.208,1.205L10.4,3.907l.182.442,1.392.792V6.847l-1.4.788-.186.442ZM9.24,8l.474-1.131,1.168-.66v-.44L9.714,5.108,9.249,3.974l.36-1.292L9.3,2.373,8,2.729,6.872,2.255,6.21,1.088H5.773L5.108,2.257l-1.134.466L2.683,2.364l-.308.308.356,1.3L2.257,5.1l-1.168.659V6.2l1.167.665.466,1.131-.36,1.293.309.309,1.3-.356L5.1,9.711l.66,1.168h.438l.665-1.167L7.99,9.246l1.293.36L9.592,9.3Zm-3.255.159A2.177,2.177,0,1,1,8.162,5.985,2.177,2.177,0,0,1,5.985,8.162m0-1.088A1.088,1.088,0,1,0,4.9,5.985,1.088,1.088,0,0,0,5.985,7.074" transform="translate(-0.225 0.312)" fill="#fff" fill-rule="evenodd"/>
  </g>
</svg>
