<svg xmlns="http://www.w3.org/2000/svg" width="17.72" height="20.941" viewBox="0 0 17.72 20.941">
  <path id="빼기_68" data-name="빼기 68" d="M-1751.074,4733.942h-3.643v-1.821h3.643v1.82Zm6.795-3.222H-1762v-2.014h1.611v-6.444a7.225,7.225,0,0,1,1.8-4.773,7.251,7.251,0,0,1,4.443-2.4V4713h2.014v2.091a7.253,7.253,0,0,1,4.443,2.4,7.225,7.225,0,0,1,1.8,4.773v6.444h1.611v2.013Zm-8.861-13.692a5.241,5.241,0,0,0-5.236,5.234v6.444h10.47v-6.444A5.24,5.24,0,0,0-1753.14,4717.027Z" transform="translate(1762 -4713.001)" fill="gray"/>
</svg>
