<svg id="그룹_410" data-name="그룹 410" xmlns="http://www.w3.org/2000/svg" xmlns:xlink="http://www.w3.org/1999/xlink" width="19.477" height="24.568" viewBox="0 0 19.477 24.568">
  <defs>
    <clipPath id="clip-path">
      <rect id="사각형_908" data-name="사각형 908" width="19.477" height="24.567" fill="none" stroke="#707070" stroke-width="1.5"/>
    </clipPath>
  </defs>
  <g id="그룹_409" data-name="그룹 409" clip-path="url(#clip-path)">
    <path id="패스_947" data-name="패스 947" d="M14.989,18.327h0a3.847,3.847,0,0,1-1.693-.449l-3.024-1.467c-1.15.557-2.91,1.411-3.025,1.468a3.849,3.849,0,0,1-1.693.449,2.059,2.059,0,0,1-1.611-.692,2.691,2.691,0,0,1-.508-2.246q0-.014,0-.028l.588-3.241L1.612,9.863A2.6,2.6,0,0,1,.552,7.32a2.333,2.333,0,0,1,1.87-1.632.749.749,0,0,1,.1-.019l3.912-.536L8.116,1.9q.016-.031.035-.06A2.583,2.583,0,0,1,10.271.5a2.585,2.585,0,0,1,2.12,1.343q.019.03.035.061l1.688,3.228,3.911.536a.748.748,0,0,1,.1.019A2.333,2.333,0,0,1,19.99,7.319a2.6,2.6,0,0,1-1.06,2.544L16.516,12.12l.588,3.241q0,.014,0,.028a2.691,2.691,0,0,1-.508,2.246A2.059,2.059,0,0,1,14.989,18.327Zm-4.717-3.5a.75.75,0,0,1,.327.075c.131.063,3.2,1.551,3.361,1.631a2.364,2.364,0,0,0,1.029.294h0a.563.563,0,0,0,.478-.174,1.374,1.374,0,0,0,.159-1.038l-.659-3.629a.75.75,0,0,1,.226-.682l2.714-2.537.006-.005c.533-.491.67-.883.621-1.087s-.334-.4-.762-.527l-4.244-.582a.75.75,0,0,1-.563-.4l-1.85-3.538A1.177,1.177,0,0,0,10.271,2a1.175,1.175,0,0,0-.842.631L7.579,6.17a.75.75,0,0,1-.563.4l-4.244.582c-.428.124-.712.32-.762.527s.087.6.621,1.087L5.351,11.3a.75.75,0,0,1,.226.682l-.659,3.629a1.374,1.374,0,0,0,.158,1.038.563.563,0,0,0,.478.174,2.428,2.428,0,0,0,1.027-.293c.163-.081,3.233-1.569,3.364-1.632A.75.75,0,0,1,10.272,14.827Z" transform="translate(-0.533 -0.573)" fill="#bf7070"/>
    <path id="패스_948" data-name="패스 948" d="M18.444,39.279a1.854,1.854,0,0,1-1.905,1.8H8.919a1.8,1.8,0,1,1,0-3.6h7.62a1.854,1.854,0,0,1,1.905,1.8" transform="translate(-2.991 -17.186)" fill="#fff"/>
    <path id="패스_948_-_윤곽선" data-name="패스 948 - 윤곽선" d="M16.539,41.827H8.919a2.551,2.551,0,1,1,0-5.1h7.62a2.551,2.551,0,1,1,0,5.1Zm-7.62-3.6a1.053,1.053,0,1,0,0,2.1h7.62a1.053,1.053,0,1,0,0-2.1Z" transform="translate(-2.991 -17.186)" fill="#003497"/>
    <path id="패스_949" data-name="패스 949" d="M16.539,41.827H8.919a2.551,2.551,0,1,1,0-5.1h7.62a2.551,2.551,0,1,1,0,5.1Zm-7.62-3.6a1.053,1.053,0,1,0,0,2.1h7.62a1.053,1.053,0,1,0,0-2.1Z" transform="translate(-2.991 -17.186)" fill="#bf7070"/>
  </g>
</svg>
