<svg id="그룹_412" data-name="그룹 412" xmlns="http://www.w3.org/2000/svg" xmlns:xlink="http://www.w3.org/1999/xlink" width="26.001" height="25.367" viewBox="0 0 26.001 25.367">
  <defs>
    <clipPath id="clip-path">
      <path id="패스_55291" data-name="패스 55291" d="M0,0H26V25.367H0Z" fill="none" stroke="#bf7070" stroke-width="1.5"/>
    </clipPath>
  </defs>
  <g id="마스크_그룹_46549" data-name="마스크 그룹 46549" clip-path="url(#clip-path)">
    <path id="패스_951" data-name="패스 951" d="M13.465.5a13.255,13.255,0,0,1,9.151,3.582,11.831,11.831,0,0,1,0,17.4,13.254,13.254,0,0,1-9.151,3.582,13.521,13.521,0,0,1-4.812-.874L2.039,25.86a.75.75,0,0,1-.905-.932l1.524-5.368A11.74,11.74,0,0,1,.5,12.781a11.883,11.883,0,0,1,3.813-8.7A13.257,13.257,0,0,1,13.465.5Zm0,23.062c6.321,0,11.464-4.837,11.464-10.782S19.786,2,13.465,2,2,6.836,2,12.781a10.274,10.274,0,0,0,2.079,6.186.75.75,0,0,1,.121.654L2.931,24.088l5.586-1.412a.75.75,0,0,1,.462.031A12.018,12.018,0,0,0,13.465,23.562Z" transform="translate(-0.464 -0.508)" fill="#bf7070"/>
    <path id="선_69" data-name="선 69" d="M0,1.868a.75.75,0,0,1-.75-.75V0A.75.75,0,0,1,0-.75.75.75,0,0,1,.75,0V1.118A.75.75,0,0,1,0,1.868Z" transform="translate(12.889 6.064)" fill="#bf7070"/>
    <path id="패스_952" data-name="패스 952" d="M19.411,23.63a.75.75,0,0,1-.75-.75V17.717H17.567a.75.75,0,0,1,0-1.5h1.844a.75.75,0,0,1,.75.75V22.88A.75.75,0,0,1,19.411,23.63Z" transform="translate(-6.521 -6.896)" fill="#bf7070"/>
    <path id="선_70" data-name="선 70" d="M3.687.75H0A.75.75,0,0,1-.75,0,.75.75,0,0,1,0-.75H3.687a.75.75,0,0,1,.75.75A.75.75,0,0,1,3.687.75Z" transform="translate(11.046 16.1)" fill="#bf7070"/>
  </g>
</svg>
