<svg xmlns="http://www.w3.org/2000/svg" width="43.837" height="36.492" viewBox="0 0 43.837 36.492">
  <g id="그룹_54989" data-name="그룹 54989" transform="translate(-1136.109 949.993)">
    <g id="그룹_54988" data-name="그룹 54988">
      <g id="그룹_54987" data-name="그룹 54987" transform="translate(129 1.522)">
        <g id="그룹_54983" data-name="그룹 54983" transform="translate(21.012 15)">
          <path id="빼기_6" data-name="빼기 6" d="M2.956,36.492c-1.306,0-2.939-.015-2.956-.015.016-.014,2.457-2.042,3.009-2.6L6.881,30.7A19.639,19.639,0,0,1,2.015,18.4a18.14,18.14,0,0,1,5.561-13.2A18.689,18.689,0,0,1,20.523,0h.063a17.915,17.915,0,0,1,5.958,1.045,18.719,18.719,0,0,1,11.71,12.515H34.2A12.134,12.134,0,0,0,26.67,4.91,16.371,16.371,0,0,0,20.394,3.63,14.3,14.3,0,0,0,8.337,10.116a15.094,15.094,0,0,0,2,19.235c.371.363.745.936.58,1.354a25.941,25.941,0,0,1-2.579,2.749h12.25a13.378,13.378,0,0,0,7.353-2.035l2.354,2.611a17.684,17.684,0,0,1-9.205,2.448H4.46C4.229,36.487,3.723,36.492,2.956,36.492Z" transform="translate(986.097 -966.516)" fill="#a20000"/>
        </g>
        <circle id="타원_241" data-name="타원 241" cx="2.15" cy="2.15" r="2.15" transform="translate(1018 -935)" fill="#a20000"/>
        <circle id="타원_242" data-name="타원 242" cx="2.15" cy="2.15" r="2.15" transform="translate(1025 -935)" fill="#a20000"/>
        <circle id="타원_243" data-name="타원 243" cx="2.15" cy="2.15" r="2.15" transform="translate(1032 -935)" fill="#a20000"/>
      </g>
      <g id="_8666778_download_down_save_icon" data-name="8666778_download_down_save_icon" transform="translate(1159 -935)">
        <path id="패스_55304" data-name="패스 55304" d="M7,10l5.912,5.912L18.825,10" transform="translate(0 1.277)" fill="none" stroke="#a20000" stroke-linejoin="round" stroke-width="3"/>
        <line id="선_509" data-name="선 509" y1="14" transform="translate(13 3)" fill="none" stroke="#a20000" stroke-linejoin="round" stroke-width="3"/>
      </g>
    </g>
  </g>
</svg>
