<svg xmlns="http://www.w3.org/2000/svg" width="17.721" height="20.942" viewBox="0 0 17.721 20.942">
  <path id="빼기_68" data-name="빼기 68" d="M-1768.074,4744.942h-3.642v-1.821h3.642v1.82Zm6.795-3.223H-1779v-2.014h1.611v-6.443a7.223,7.223,0,0,1,1.8-4.773,7.251,7.251,0,0,1,4.443-2.4V4724h2.014v2.092a7.252,7.252,0,0,1,4.443,2.4,7.223,7.223,0,0,1,1.8,4.773v6.443h1.611v2.013Zm-8.861-13.692a5.241,5.241,0,0,0-5.235,5.235v6.443h10.47v-6.443A5.241,5.241,0,0,0-1770.14,4728.027Z" transform="translate(1779 -4724)" fill="#a20000"/>
</svg>
