<svg xmlns="http://www.w3.org/2000/svg" width="16" height="16" viewBox="0 0 16 16">
  <g id="security_icon" transform="translate(-1080 -1423)">
    <rect id="사각형_8" data-name="사각형 8" width="16" height="16" transform="translate(1080 1423)" fill="none"/>
    <g id="Locked" transform="translate(1075 1419)">
      <path id="패스_3" data-name="패스 3" d="M17,10.665H11.667A.667.667,0,0,1,11,10V7.333a3.333,3.333,0,0,1,6.665,0V10A.667.667,0,0,1,17,10.665ZM12.333,9.332h4v-2a2,2,0,1,0-4,0Z" transform="translate(-1.334 0)" fill="#989595"/>
      <path id="패스_4" data-name="패스 4" d="M16,4V5.333a2,2,0,0,1,2,2v2H16v1.333h2.666A.667.667,0,0,0,19.333,10V7.333A3.333,3.333,0,0,0,16,4Z" transform="translate(-3.001)" fill="#6e6e6e" opacity="0.55"/>
      <rect id="사각형_7" data-name="사각형 7" width="12" height="11" rx="1" transform="translate(7 9)" fill="#fbd855"/>
      <path id="패스_5" data-name="패스 5" d="M21.332,12H16V22.665h5.332A.667.667,0,0,0,22,22V12.667A.667.667,0,0,0,21.332,12Z" transform="translate(-3.001 -2.668)" fill="#dfaf00" opacity="0.67"/>
      <path id="패스_6" data-name="패스 6" d="M16.333,20.333H13.667a.667.667,0,0,1,0-1.333h2.666a.667.667,0,0,1,0,1.333Z" transform="translate(-2.001 -5.002)" fill="#d59a31"/>
      <path id="패스_7" data-name="패스 7" d="M17.333,19H16v1.333h1.333a.667.667,0,0,0,0-1.333Z" transform="translate(-3.001 -5.002)" fill="#a86b00"/>
    </g>
  </g>
</svg>
