<svg xmlns="http://www.w3.org/2000/svg" width="22" height="21" viewBox="0 0 22 21">
  <path id="제외_4" data-name="제외 4" d="M3130.738,3409.5a.963.963,0,0,1-.573-.188l-4.592-3.555h-13.016a2.883,2.883,0,0,1-2.884-2.876v-11.5a2.883,2.883,0,0,1,2.884-2.875h16.331a2.865,2.865,0,0,1,2.786,2.875v17.179a.93.93,0,0,1-.936.945Zm-6.1-13.488a1.188,1.188,0,1,0,1.189,1.188A1.189,1.189,0,0,0,3124.633,3396.012Zm-3.959,0a1.188,1.188,0,1,0,1.188,1.188A1.189,1.189,0,0,0,3120.674,3396.012Zm-3.961,0a1.188,1.188,0,1,0,1.188,1.188A1.189,1.189,0,0,0,3116.713,3396.012Z" transform="translate(-3109.673 -3388.5)" fill="#fff"/>
</svg>
