<svg xmlns="http://www.w3.org/2000/svg" width="22" height="19.8" viewBox="0 0 22 19.8">
  <path id="desktop-sharp" d="M22.392,3.375H1.858a.748.748,0,0,0-.733.762V19.367a.748.748,0,0,0,.733.762h7.7v1.523h-3.3v1.523H17.992V21.652h-3.3V20.129h7.7a.748.748,0,0,0,.733-.762V4.137A.748.748,0,0,0,22.392,3.375Zm-.917,1.713V15.369H2.775V5.088ZM11.4,17.943a.769.769,0,0,1,.4-.782.713.713,0,0,1,.843.145.783.783,0,0,1,.139.875.728.728,0,0,1-.753.419A.748.748,0,0,1,11.4,17.943Z" transform="translate(-1.125 -3.375)" fill="#fff"/>
</svg>
