<svg xmlns="http://www.w3.org/2000/svg" width="22" height="13.619" viewBox="0 0 22 13.619">
  <path id="users" d="M10.914,17.31a3.405,3.405,0,1,1,3.457-3.4A3.431,3.431,0,0,1,10.914,17.31Zm8.171,0a3.405,3.405,0,1,1,3.457-3.4A3.431,3.431,0,0,1,19.086,17.31Zm-8.171,2.27a9.258,9.258,0,0,1,6.914,3.073v1.466H4V22.653a9.258,9.258,0,0,1,6.914-3.073Zm8.171,4.54V21.795l-.576-.643a11.515,11.515,0,0,0-1.44-1.354,9.388,9.388,0,0,1,2.017-.218A9.258,9.258,0,0,1,26,22.653v1.466Z" transform="translate(-4 -10.5)" fill="#fff" fill-rule="evenodd"/>
</svg>
