<svg xmlns="http://www.w3.org/2000/svg" width="18" height="18" viewBox="0 0 18 18">
  <g id="_7548984_user_interface_app_add_menu_icon" data-name="7548984_user_interface_app_add_menu_icon" transform="translate(-0.5 -0.5)">
    <path id="패스_55421" data-name="패스 55421" d="M1.38,8.627H7.747a.879.879,0,0,0,.88-.88V1.38A.879.879,0,0,0,7.747.5H1.38a.879.879,0,0,0-.88.88V7.747A.879.879,0,0,0,1.38,8.627Z" fill="#9fa4ae"/>
    <path id="패스_55422" data-name="패스 55422" d="M25.777,1.38A.879.879,0,0,0,24.9.5H18.53a.879.879,0,0,0-.88.88V7.747a.879.879,0,0,0,.88.88H24.9a.879.879,0,0,0,.88-.88Z" transform="translate(-7.277)" fill="#9fa4ae"/>
    <path id="패스_55423" data-name="패스 55423" d="M1.38,25.777H7.747a.879.879,0,0,0,.88-.88V18.53a.879.879,0,0,0-.88-.88H1.38a.879.879,0,0,0-.88.88V24.9A.879.879,0,0,0,1.38,25.777Z" transform="translate(0 -7.277)" fill="#9fa4ae"/>
    <path id="패스_55424" data-name="패스 55424" d="M21.711,17.65a4.064,4.064,0,1,0,4.066,4.061A4.062,4.062,0,0,0,21.711,17.65Z" transform="translate(-7.277 -7.277)" fill="#9fa4ae"/>
  </g>
</svg>
