<svg xmlns="http://www.w3.org/2000/svg" width="22" height="16.728" viewBox="0 0 22 16.728">
  <path id="_8542605_vote_yea_icon" data-name="8542605_vote_yea_icon" d="M21.792,42.754H20.271v2.39h.141c.2,0,.19.134.19.3v.6c0,.164.007.3-.19.3H3.717a.332.332,0,0,1-.357-.3v-.6a.332.332,0,0,1,.357-.3h-.1v-2.39H2.171A1.191,1.191,0,0,0,.981,43.949v3.585a1.191,1.191,0,0,0,1.189,1.195H21.792a1.191,1.191,0,0,0,1.189-1.195V43.949A1.191,1.191,0,0,0,21.792,42.754Zm-2.71,2.39V33.206A1.2,1.2,0,0,0,17.881,32H6.014a1.206,1.206,0,0,0-1.2,1.206V45.144ZM7.9,38.348,8.85,37.4a.4.4,0,0,1,.565,0L10.95,38.96l3.538-3.525a.4.4,0,0,1,.565,0l.94.952a.4.4,0,0,1,0,.568l-4.769,4.75a.4.4,0,0,1-.565,0L7.9,38.915A.4.4,0,0,1,7.9,38.348Z" transform="translate(-0.981 -32)" fill="#fff"/>
</svg>
