<svg xmlns="http://www.w3.org/2000/svg" width="21.154" height="22" viewBox="0 0 21.154 22">
  <path id="패스_55355" data-name="패스 55355" d="M38.385,33.308a2.538,2.538,0,1,1-2.538-2.538,2.538,2.538,0,0,1,2.538,2.538Zm6.769-7.615V44.308A1.692,1.692,0,0,1,43.462,46H28.231a1.692,1.692,0,0,1-1.692-1.692V42.192H24.846a.846.846,0,0,1,0-1.692h1.692V37.962H24.846a.846.846,0,1,1,0-1.692h1.692V33.731H24.846a.846.846,0,1,1,0-1.692h1.692V29.5H24.846a.846.846,0,1,1,0-1.692h1.692V25.692A1.692,1.692,0,0,1,28.231,24H43.462A1.692,1.692,0,0,1,45.154,25.692ZM41.6,38.723a7.171,7.171,0,0,0-2.9-2.3,4.231,4.231,0,1,0-5.712,0,7.171,7.171,0,0,0-2.9,2.3l-.471.561.64.624.622.592.562-.762a5.5,5.5,0,0,1,8.8,0l.461.575,1.341-.872-.448-.719Z" transform="translate(-24 -24)" fill="#388ce5"/>
</svg>
