<svg xmlns="http://www.w3.org/2000/svg" width="16" height="18" viewBox="0 0 16 18">
  <path id="패스_53125" data-name="패스 53125" d="M4.5,4.821A2.62,2.62,0,0,1,7.167,2.25h7.057a1.359,1.359,0,0,1,.943.377l4.943,4.766A1.263,1.263,0,0,1,20.5,8.3v9.377a2.62,2.62,0,0,1-2.667,2.571H7.167A2.62,2.62,0,0,1,4.5,17.679Zm9.333,2.571V3.536l5.333,5.143h-4A1.31,1.31,0,0,1,13.833,7.393Zm2.472,3.669a.628.628,0,0,0,0-.91.685.685,0,0,0-.944,0l-3.528,3.4-1.528-1.474a.685.685,0,0,0-.944,0,.628.628,0,0,0,0,.91l2,1.929a.684.684,0,0,0,.944,0l4-3.857Z" transform="translate(-4.5 -2.25)" fill="#388ce5" fill-rule="evenodd"/>
</svg>
