<svg xmlns="http://www.w3.org/2000/svg" width="19.556" height="22" viewBox="0 0 19.556 22">
  <path id="패스_55351" data-name="패스 55351" d="M4.5,5.393A3.2,3.2,0,0,1,7.759,2.25h8.625a1.661,1.661,0,0,1,1.152.46l6.041,5.825a1.543,1.543,0,0,1,.477,1.111v11.46A3.2,3.2,0,0,1,20.8,24.25H7.759A3.2,3.2,0,0,1,4.5,21.107ZM15.907,8.536V3.821l6.519,6.286H17.537A1.6,1.6,0,0,1,15.907,8.536Zm3.021,4.485a.767.767,0,0,0,0-1.113.837.837,0,0,0-1.154,0l-4.312,4.16-1.868-1.8a.837.837,0,0,0-1.154,0,.767.767,0,0,0,0,1.113l2.444,2.357a.836.836,0,0,0,1.154,0l4.889-4.714Z" transform="translate(-4.5 -2.25)" fill="#388ce5" fill-rule="evenodd"/>
</svg>
