<svg xmlns="http://www.w3.org/2000/svg" width="21.148" height="18.505" viewBox="0 0 21.148 18.505">
  <path id="_8665128_car_vehicle_icon" data-name="8665128_car_vehicle_icon" d="M1.636,38.807,3.09,34.655A3.964,3.964,0,0,1,6.832,32h7.484a3.965,3.965,0,0,1,3.742,2.655l1.454,4.152a2.648,2.648,0,0,1,1.636,2.445v7.931A1.32,1.32,0,0,1,19.826,50.5H18.5a1.32,1.32,0,0,1-1.322-1.322V47.2H3.965v1.983A1.321,1.321,0,0,1,2.644,50.5H1.322A1.321,1.321,0,0,1,0,49.183V41.252a2.646,2.646,0,0,1,1.636-2.445Zm2.87-.2H16.642l-1.078-3.081a1.323,1.323,0,0,0-1.247-.884H6.832a1.323,1.323,0,0,0-1.247.884Zm-.541,2.644a1.322,1.322,0,1,0,1.322,1.322A1.321,1.321,0,0,0,3.965,41.252ZM17.183,43.9a1.322,1.322,0,1,0-1.322-1.322A1.32,1.32,0,0,0,17.183,43.9Z" transform="translate(0 -32)" fill="#fff"/>
</svg>
