<svg xmlns="http://www.w3.org/2000/svg" width="18" height="22" viewBox="0 0 18 22">
  <g id="그룹_54642" data-name="그룹 54642" transform="translate(1.25 1.25)">
    <path id="선_399" data-name="선 399" d="M15.386,1.443H.114A1.355,1.355,0,0,1-1.25.1,1.355,1.355,0,0,1,.114-1.25H15.386A1.355,1.355,0,0,1,16.75.1,1.355,1.355,0,0,1,15.386,1.443Z" transform="translate(0 3.232)" fill="#388ce5"/>
    <path id="선_400" data-name="선 400" d="M15.386,1.443H.114A1.355,1.355,0,0,1-1.25.1,1.355,1.355,0,0,1,.114-1.25H15.386A1.355,1.355,0,0,1,16.75.1,1.355,1.355,0,0,1,15.386,1.443Z" transform="translate(0 9.654)" fill="#388ce5"/>
    <path id="선_401" data-name="선 401" d="M15.386,1.443H.114A1.355,1.355,0,0,1-1.25.1,1.355,1.355,0,0,1,.114-1.25H15.386A1.355,1.355,0,0,1,16.75.1,1.355,1.355,0,0,1,15.386,1.443Z" transform="translate(0 16.076)" fill="#388ce5"/>
    <path id="선_397" data-name="선 397" d="M.1,20.75A1.344,1.344,0,0,1-1.25,19.409V.091A1.344,1.344,0,0,1,.1-1.25,1.344,1.344,0,0,1,1.443.091V19.409A1.344,1.344,0,0,1,.1,20.75Z" transform="translate(0 0)" fill="#388ce5"/>
    <path id="선_398" data-name="선 398" d="M.1,20.75A1.344,1.344,0,0,1-1.25,19.409V.091A1.344,1.344,0,0,1,.1-1.25,1.344,1.344,0,0,1,1.443.091V19.409A1.344,1.344,0,0,1,.1,20.75Z" transform="translate(15.307 0)" fill="#388ce5"/>
  </g>
</svg>
