<svg xmlns="http://www.w3.org/2000/svg" width="28.355" height="18.442" viewBox="0 0 28.355 18.442">
  <g id="_icons" transform="translate(14.178 -9.482) rotate(45)">
    <path id="패스_55275" data-name="패스 55275" d="M16.459,3.3a5.6,5.6,0,0,0-4.107,1.711l-2.51,2.51a1.129,1.129,0,1,0,1.6,1.6l2.51-2.51a3.581,3.581,0,0,1,5.02,0,3.581,3.581,0,0,1,0,5.02l-2.51,2.51a1.1,1.1,0,0,0,0,1.6,1.1,1.1,0,0,0,1.6,0l2.51-2.51a5.6,5.6,0,0,0,1.711-4.107,5.6,5.6,0,0,0-1.711-4.107A5.6,5.6,0,0,0,16.459,3.3Z" transform="translate(0.873 0)" fill="#388ce5" stroke="#388ce5" stroke-width="0.2"/>
    <path id="패스_55276" data-name="패스 55276" d="M9.118,11.539a1.129,1.129,0,1,0-1.6-1.6l-2.51,2.4a5.784,5.784,0,0,0,0,8.214,5.6,5.6,0,0,0,4.107,1.711,5.6,5.6,0,0,0,4.107-1.711l2.51-2.51a1.129,1.129,0,0,0-1.6-1.6l-2.51,2.51a3.581,3.581,0,0,1-5.02,0,3.581,3.581,0,0,1,0-5.02Z" transform="translate(0 0.887)" fill="#388ce5" stroke="#388ce5" stroke-width="0.2"/>
    <path id="패스_55277" data-name="패스 55277" d="M9.142,15.745a1.232,1.232,0,0,0,.8.342,1.232,1.232,0,0,0,.8-.342l4.905-4.905a1.129,1.129,0,0,0-1.6-1.6L9.142,14.148A1.1,1.1,0,0,0,9.142,15.745Z" transform="translate(0.774 0.789)" fill="#388ce5" stroke="#388ce5" stroke-width="0.2"/>
  </g>
</svg>
