<svg xmlns="http://www.w3.org/2000/svg" width="22" height="20" viewBox="0 0 22 20">
  <path id="_10219188_business_briefcase_job_work_suitcase_icon" data-name="10219188_business_briefcase_job_work_suitcase_icon" d="M23,9.117l-8.5,3.95a.707.707,0,0,1-.3.066v.953a.752.752,0,0,1-.733.769H10.533a.752.752,0,0,1-.733-.769V13.13a.71.71,0,0,1-.3-.066L1,9.117v9.575a2.363,2.363,0,0,0,.645,1.632A2.147,2.147,0,0,0,3.2,21H20.8a2.147,2.147,0,0,0,1.555-.676A2.363,2.363,0,0,0,23,18.692V9.117ZM12.733,11v2.317H11.267V11h1.467ZM5.4,4.077H3.2a2.147,2.147,0,0,0-1.555.676A2.363,2.363,0,0,0,1,6.385v1.05L9.8,11.52V10.231a.752.752,0,0,1,.733-.769h2.933a.752.752,0,0,1,.733.769v1.292L23,7.434V6.385a2.363,2.363,0,0,0-.645-1.632A2.147,2.147,0,0,0,20.8,4.077H18.6V3.308A2.256,2.256,0,0,0,16.4,1H7.6A2.256,2.256,0,0,0,5.4,3.308v.769Zm11.733,0H6.867V3.308A.752.752,0,0,1,7.6,2.538h8.8a.752.752,0,0,1,.733.769Z" transform="translate(-1 -1)" fill="#fff" fill-rule="evenodd"/>
</svg>
