<svg xmlns="http://www.w3.org/2000/svg" width="21" height="18.258" viewBox="0 0 21 18.258">
  <path id="_10219188_business_briefcase_job_work_suitcase_icon" data-name="10219188_business_briefcase_job_work_suitcase_icon" d="M22,8.41l-8.116,3.606a.7.7,0,0,1-.283.06v.87a.7.7,0,0,1-.7.7H10.1a.7.7,0,0,1-.7-.7v-.873a.7.7,0,0,1-.284-.06L1,8.41v8.741a2.1,2.1,0,0,0,2.1,2.107H19.9A2.1,2.1,0,0,0,22,17.151V8.41Zm-9.8,1.719v2.115H10.8V10.129h1.4Zm-7-6.32H3.1A2.1,2.1,0,0,0,1,5.916v.959L9.4,10.6V9.427a.7.7,0,0,1,.7-.7h2.8a.7.7,0,0,1,.7.7v1.179L22,6.874V5.916a2.1,2.1,0,0,0-2.1-2.107H17.8v-.7A2.1,2.1,0,0,0,15.7,1H7.3A2.1,2.1,0,0,0,5.2,3.107v.7Zm11.2,0H6.6v-.7a.7.7,0,0,1,.7-.7h8.4a.7.7,0,0,1,.7.7Z" transform="translate(-1 -1)" fill="#fff" fill-rule="evenodd"/>
</svg>
