<svg width="24" height="24" viewBox="0 0 24 24" fill="none" xmlns="http://www.w3.org/2000/svg">
<rect x="0.5" y="0.5" width="23" height="23" rx="3.5" fill="white"/>
<rect x="0.5" y="0.5" width="23" height="23" rx="3.5" stroke="#58616A"/>
<path d="M18 12.6667V16.6667C18 17.0203 17.8595 17.3594 17.6095 17.6095C17.3594 17.8595 17.0203 18 16.6667 18H7.33333C6.97971 18 6.64057 17.8595 6.39052 17.6095C6.14048 17.3594 6 17.0203 6 16.6667V7.33333C6 6.97971 6.14048 6.64057 6.39052 6.39052C6.64057 6.14048 6.97971 6 7.33333 6H11.3333M18 6L12 12M18 6H14M18 6V10" stroke="#33363D" stroke-width="1.2" stroke-linecap="round" stroke-linejoin="round"/>
</svg>
