<svg xmlns="http://www.w3.org/2000/svg" width="25.7" height="26.8" viewBox="0 0 25.7 26.8">
  <g id="그룹_54453" data-name="그룹 54453" transform="translate(-5.628 -5.972)">
    <path id="패스_55225" data-name="패스 55225" d="M3,0H22a3,3,0,0,1,3,3V18a3,3,0,0,1-3,3H3a3,3,0,0,1-3-3V3A3,3,0,0,1,3,0Z" transform="translate(30.427 6.872) rotate(90)" fill="#eef5fc"/>
    <ellipse id="타원_222" data-name="타원 222" cx="3.691" cy="3.691" rx="3.691" ry="3.691" transform="translate(16.281 14.238)" fill="none" stroke="#388ce5" stroke-linecap="round" stroke-linejoin="round" stroke-width="1.6"/>
    <line id="선_493" data-name="선 493" x2="3" transform="translate(6.427 16.872)" fill="none" stroke="#388ce5" stroke-linecap="round" stroke-linejoin="round" stroke-width="1.6"/>
    <line id="선_494" data-name="선 494" x2="3" transform="translate(6.427 10.872)" fill="none" stroke="#388ce5" stroke-linecap="round" stroke-linejoin="round" stroke-width="1.6"/>
    <line id="선_495" data-name="선 495" x2="3" transform="translate(6.427 22.872)" fill="none" stroke="#388ce5" stroke-linecap="round" stroke-linejoin="round" stroke-width="1.6"/>
    <line id="선_496" data-name="선 496" x2="3" transform="translate(6.427 28.872)" fill="none" stroke="#388ce5" stroke-linecap="round" stroke-linejoin="round" stroke-width="1.6"/>
    <path id="패스_53707" data-name="패스 53707" d="M88,146.651a6.628,6.628,0,0,1,10.6,0" transform="translate(-73.375 -122.146)" fill="none" stroke="#388ce5" stroke-linecap="round" stroke-linejoin="round" stroke-width="1.6"/>
    <path id="패스_55219" data-name="패스 55219" d="M3,0H22a3,3,0,0,1,3,3V18a3,3,0,0,1-3,3H3a3,3,0,0,1-3-3V3A3,3,0,0,1,3,0Z" transform="translate(30.427 6.872) rotate(90)" fill="none" stroke="#388ce5" stroke-linecap="round" stroke-width="1.8"/>
  </g>
</svg>
