<svg xmlns="http://www.w3.org/2000/svg" width="22.633" height="26.352" viewBox="0 0 22.633 26.352">
  <g id="그룹_54388" data-name="그룹 54388" transform="translate(-277.507 -227.285)">
    <path id="Shape_21" data-name="Shape 21" d="M1.866,24.164,0,5.084A3.64,3.64,0,0,1,3.538,1.278h.956A2.3,2.3,0,0,1,6.7,0h9.276a2.511,2.511,0,0,1,2.185,1.277H19.1a3.637,3.637,0,0,1,3.531,3.806L21.292,24.456C21.292,26.529,1.866,26.236,1.866,24.164Z" transform="translate(277.507 227.525)" fill="#eef5fc"/>
    <g id="그룹_54387" data-name="그룹 54387" transform="translate(277.507 227.285)">
      <path id="Shape_21-2" data-name="Shape 21" d="M18.938,26.352H3.7A3.732,3.732,0,0,1,0,22.594V5.084A3.641,3.641,0,0,1,3.539,1.277h.956A2.3,2.3,0,0,1,6.7,0h9.276a2.506,2.506,0,0,1,2.185,1.277H19.1a3.637,3.637,0,0,1,3.53,3.806v17.51A3.731,3.731,0,0,1,18.938,26.352ZM3.74,3.393c-.6,0-1.62.748-1.62,1.316V22.971c0,.614.648,1.554,1.208,1.554H19.3c.577,0,1.337-.978,1.337-1.554V4.71A1.578,1.578,0,0,0,19.3,3.393H18.4a2.47,2.47,0,0,1-2.233,1.549H6.847A2.6,2.6,0,0,1,4.665,3.871a3.415,3.415,0,0,0-.171-.478ZM7.323,2a.677.677,0,0,0,0,1.353H15.31A.677.677,0,0,0,15.31,2ZM10.7,16.894h0L6.656,12.931l1.6-1.3L10.7,14.162l3.807-3.8,1.463,1.609L10.7,16.894Z" transform="translate(0)" fill="#388ce5"/>
    </g>
  </g>
</svg>
