<svg xmlns="http://www.w3.org/2000/svg" width="24.313" height="27.545" viewBox="0 0 24.313 27.545">
  <g id="그룹_54381" data-name="그룹 54381" transform="translate(-169.408 -211.022)">
    <path id="패스_55223" data-name="패스 55223" d="M22.773,30.536H8.94A4.883,4.883,0,0,1,4,25.712v-3.86a.961.961,0,0,1,.484-.83l4.94-2.895c.462-.2,11.8-.073,11.8-.073a.865.865,0,0,1,1.043.073l4.94,2.895a.962.962,0,0,1,.5.83v3.86a4.883,4.883,0,0,1-4.94,4.825Z" transform="translate(165.708 207.73)" fill="#eef5fc" stroke="#eef5fc" stroke-width="0.6"/>
    <path id="패스_53710" data-name="패스 53710" d="M15.119,14.885A6.559,6.559,0,0,1,8.3,8.171a6.663,6.663,0,0,1,6.819-6.84A6.633,6.633,0,0,1,21.9,8.171,6.529,6.529,0,0,1,15.119,14.885Z" transform="translate(166.464 209.991)" fill="#eef5fc" stroke="#388ce5" stroke-width="0.6"/>
    <path id="패스_55221" data-name="패스 55221" d="M22.773,30.839H8.94A4.94,4.94,0,0,1,4,25.9V21.947a.988.988,0,0,1,.484-.85l4.94-2.964a.988.988,0,0,1,1.261.4c.255.438-.111.739-.521,1.037L5.728,22.251,5.661,25.9c0,1.637,1.327,3.575,2.964,3.575H22.773a3.909,3.909,0,0,0,3.483-3.465V22.251l-4.717-2.678a1.106,1.106,0,0,1-.629-.83.661.661,0,0,1,.317-.685.85.85,0,0,1,1.043.074l4.94,2.964a.988.988,0,0,1,.5.85V25.9a4.94,4.94,0,0,1-4.94,4.94Z" transform="translate(165.708 207.427)" fill="#388ce5" stroke="#388ce5" stroke-width="0.4"/>
    <path id="패스_55222" data-name="패스 55222" d="M15.119,14.885A6.559,6.559,0,0,1,8.3,8.171a6.663,6.663,0,0,1,6.819-6.84A6.633,6.633,0,0,1,21.9,8.171,6.529,6.529,0,0,1,15.119,14.885Zm0-11.842A5.18,5.18,0,0,0,9.787,8.171a5.25,5.25,0,0,0,5.332,5.214,5.156,5.156,0,0,0,5.235-5.214A5.036,5.036,0,0,0,15.119,3.042Z" transform="translate(166.464 209.991)" fill="#388ce5" stroke="#388ce5" stroke-width="0.2"/>
  </g>
</svg>
