<svg xmlns="http://www.w3.org/2000/svg" width="23.048" height="25.898" viewBox="0 0 23.048 25.898">
  <g id="그룹_54386" data-name="그룹 54386" transform="translate(-170.476 -344.895)">
    <path id="Op_component_1" data-name="Op component 1" d="M189.626,492.351A3.762,3.762,0,0,1,186,488.475V470.416a4.489,4.489,0,0,1,.851-2.6,3.167,3.167,0,0,1,2.621-1.324h.938c-.005.029,13.473-.1,13.409,0h.925a3.677,3.677,0,0,1,3.465,3.925v18.059a3.762,3.762,0,0,1-3.626,3.876Zm-1.617-22.321v0Z" transform="translate(-15.185 -121.558)" fill="#eef5fc"/>
    <g id="그룹_54378" data-name="그룹 54378" transform="translate(170.476 344.895)">
      <path id="Op_component_1-2" data-name="Op component 1" d="M189.763,492.351A3.825,3.825,0,0,1,186,488.475V470.416a3.734,3.734,0,0,1,3.6-3.925h.974c-.005.029,13.981-.1,13.916,0h.96a3.731,3.731,0,0,1,3.6,3.925v18.059a3.825,3.825,0,0,1-3.762,3.876Zm0-23.865c-.587,0-1.678.939-1.678,1.544v18.833c0,.6.717,1.638,1.3,1.638h16.268a2.164,2.164,0,0,0,1.546-1.638V470.031a2.1,2.1,0,0,0-1.591-1.544Z" transform="translate(-186 -466.453)" fill="#388ce5"/>
      <path id="패스_53101" data-name="패스 53101" d="M2837.668,3685.348h5.644" transform="translate(-2831.43 -3676.847)" fill="none" stroke="#388ce5" stroke-width="1.7"/>
      <path id="패스_53102" data-name="패스 53102" d="M2837.668,3685.348h10.573" transform="translate(-2831.43 -3672.368)" fill="none" stroke="#388ce5" stroke-width="1.7"/>
      <path id="패스_53103" data-name="패스 53103" d="M2837.668,3685.348h10.573" transform="translate(-2831.43 -3667.888)" fill="none" stroke="#388ce5" stroke-width="1.7"/>
    </g>
  </g>
</svg>
