<svg xmlns="http://www.w3.org/2000/svg" width="25.825" height="21.898" viewBox="0 0 25.825 21.898">
  <g id="그룹_55195" data-name="그룹 55195" transform="translate(-4268.15 -817.15)">
    <path id="사각형_33173" data-name="사각형 33173" d="M2,0H20.023a2,2,0,0,1,2,2v8.168l1.806.589.323,5.589c0,1.1.782,3.5-.323,3.5l-9.243-.379v-1.64H2a2,2,0,0,1-2-2V2A2,2,0,0,1,2,0Z" transform="translate(4268.532 818)" fill="#eef5fc"/>
    <g id="그룹_55174" data-name="그룹 55174" transform="translate(-6339.454 -1790.943)">
      <g id="그룹_55173" data-name="그룹 55173">
        <g id="그룹_55172" data-name="그룹 55172" transform="translate(-5 -1.88)">
          <g id="_9056819_arrow_top_left_r_icon" data-name="9056819_arrow_top_left_r_icon" transform="translate(10639.43 2618.385) rotate(90)">
            <path id="패스_55767" data-name="패스 55767" d="M1,11.217a2.27,2.27,0,0,0,2.27,2.27h7.946a2.27,2.27,0,0,0,2.27-2.27V3.27A2.27,2.27,0,0,0,11.217,1H3.27A2.27,2.27,0,0,0,1,3.27Zm2.637.477h7.151c.627,0,.894-.37.894-1v-7c0-.627-.391-.9-1.018-.9H3.637c-.627,0-.8.273-.8.9v7.133C2.839,11.461,3.01,11.694,3.637,11.694Z" fill="#388ce5" fill-rule="evenodd"/>
            <path id="_216092_thick_right_arrow_icon" data-name="216092_thick_right_arrow_icon" d="M3.564.273C3.2.635,3.536,1.434,3.9,1.8l.738.738L.93,2.327A.959.959,0,0,0,0,3.29c0,.514.615.866,1.129.866l3.531.066-.738.738c-.364.363-.722.918-.358,1.282a.93.93,0,0,0,1.316,0L7.865,3.258,4.88.273a.931.931,0,0,0-1.316,0Z" transform="matrix(-0.695, -0.719, 0.719, -0.695, 7.632, 12.335)" fill="#388ce5"/>
          </g>
          <g id="그룹_55171" data-name="그룹 55171" transform="translate(197 17)">
            <path id="패스_55772" data-name="패스 55772" d="M10481.854,2598.85v-4.75a2.688,2.688,0,0,0-.335-1.478,2.9,2.9,0,0,0-1.437-.985h-17.376a2.185,2.185,0,0,0-1.74,1.479v14.067a1.723,1.723,0,0,0,.555,1.219,3.089,3.089,0,0,0,1.358.773h8.811" transform="translate(-44.512 2.186)" fill="none" stroke="#388ce5" stroke-linejoin="round" stroke-width="1.7"/>
            <path id="패스_55773" data-name="패스 55773" d="M10461.6,2594.62c.258.186,9.969,6.983,9.969,6.983l10.533-6.983" transform="translate(-45.001 1.55)" fill="none" stroke="#388ce5" stroke-linejoin="round" stroke-width="1.7"/>
          </g>
        </g>
      </g>
    </g>
  </g>
</svg>
