<svg xmlns="http://www.w3.org/2000/svg" width="24.477" height="26.19" viewBox="0 0 24.477 26.19">
  <g id="_9054395_bx_calendar_check_icon" data-name="9054395_bx_calendar_check_icon" transform="translate(0 -0.317)">
    <path id="패스_55224" data-name="패스 55224" d="M24.762,4.856h-2.72V2.818h-2.72V4.856H11.164V2.818H8.444V4.856H5.725A2.468,2.468,0,0,0,3,7.251V26.289a2.722,2.722,0,0,0,2.72,2.72H25.34c1.5,0,2.137-1.22,2.137-2.72V7.251A2.46,2.46,0,0,0,24.762,4.856Zm.58,21.881.011-19.718Z" transform="translate(-3 -2.501)" fill="#eef5fc"/>
    <path id="패스_53708" data-name="패스 53708" d="M24.762,4.856h-2.72V2.818h-2.72V4.856H11.164V2.818H8.444V4.856H5.725A2.468,2.468,0,0,0,3,7.251V26.289a2.722,2.722,0,0,0,2.72,2.72H25.34c1.5,0,2.137-1.22,2.137-2.72V7.251A2.46,2.46,0,0,0,24.762,4.856Zm.872,22.208H4.927l0-20.171h20.7Z" transform="translate(-3 -2.501)" fill="#388ce5"/>
    <path id="패스_53709" data-name="패스 53709" d="M10.747,16.929l5.318-5.318-1.318-1.318-4,4L8.611,12.157,7.293,13.474Z" transform="translate(0.559 2.957)" fill="#388ce5"/>
    <path id="패스_55220" data-name="패스 55220" d="M0,0H22.1" transform="translate(0.65 9.092)" fill="none" stroke="#388ce5" stroke-width="1.7"/>
  </g>
</svg>
