<svg id="그룹_54379" data-name="그룹 54379" xmlns="http://www.w3.org/2000/svg" width="25.9" height="25.9" viewBox="0 0 25.9 25.9">
  <g id="그룹_54382" data-name="그룹 54382" transform="translate(0 0)">
    <path id="예약" d="M2.59,25.9A2.554,2.554,0,0,1,0,23.384V3.985C0,2.6.512,1.943,1.943,1.943H6.475V.971a.971.971,0,0,1,1.943,0v.972h9.065V.971a.971.971,0,0,1,1.943,0v.972h4.533c1.43,0,1.942.652,1.942,2.042v19.4A2.554,2.554,0,0,1,23.31,25.9Z" fill="#eef5fc"/>
  </g>
  <g id="그룹_50199" data-name="그룹 50199" transform="translate(0 0)">
    <rect id="사각형_29975" data-name="사각형 29975" width="2.779" height="2.779" transform="translate(6.292 13.301)" fill="#388ce5"/>
    <rect id="사각형_29977" data-name="사각형 29977" width="2.779" height="2.779" transform="translate(11.851 18.86)" fill="#388ce5"/>
    <rect id="사각형_29976" data-name="사각형 29976" width="2.779" height="2.779" transform="translate(6.292 18.86)" fill="#388ce5"/>
    <path id="예약-2" data-name="예약" d="M2.59,25.9A2.554,2.554,0,0,1,0,23.384V3.985C0,2.6.512,1.943,1.943,1.943H6.475V.971a.971.971,0,0,1,1.943,0v.972h9.065V.971a.971.971,0,0,1,1.943,0v.972h4.533c1.43,0,1.942.652,1.942,2.042v19.4A2.554,2.554,0,0,1,23.31,25.9Zm-.51-2.05H23.958V9.549H2.081ZM23.958,7.678V3.985H19.425V5.5a.971.971,0,0,1-1.943,0V3.985H8.418V5.5a.971.971,0,0,1-1.943,0V3.985H2.081V7.678Z" transform="translate(0 0)" fill="#388ce5"/>
  </g>
</svg>
