<svg xmlns="http://www.w3.org/2000/svg" width="28" height="28" viewBox="0 0 28 28">
  <g id="그룹_54946" data-name="그룹 54946" transform="translate(-631 -434)">
    <path id="패스_55270" data-name="패스 55270" d="M0,0H17.719l2.517-2.6L23.648.821,21,3.762V21H0Z" transform="translate(634 438)" fill="#eef5fc"/>
    <g id="그룹_54945" data-name="그룹 54945" transform="translate(248 216.309)">
      <rect id="사각형_33424" data-name="사각형 33424" width="28" height="28" transform="translate(383 217.691)" fill="none"/>
      <path id="note-edit-solid" d="M29.715,6.32,26.358,3a1.561,1.561,0,0,0-2.14,0l-2.4,2.42h-16A1.805,1.805,0,0,0,4,7.214v19.75a1.805,1.805,0,0,0,1.814,1.795H25.762a1.805,1.805,0,0,0,1.814-1.795V10.59l-2.143,1.359V26.6H6.184V7.448H19.871L13.4,13.931l-1.044,6.875L18.789,19.4l8.787-8.812,2.138-2.146a1.489,1.489,0,0,0,0-2.124ZM17.525,17.888l-3.153.713.6-3.464,7.58-7.759,3.04,2.741ZM26.541,9.04l-2.929-2.9L25.29,4.48l2.929,2.9Z" transform="translate(380.84 215.117)" fill="#388ce5"/>
    </g>
  </g>
</svg>
