<svg xmlns="http://www.w3.org/2000/svg" width="28" height="28" viewBox="0 0 28 28">
  <g id="그룹_54950" data-name="그룹 54950" transform="translate(-78 -515)">
    <path id="패스_55273" data-name="패스 55273" d="M0-1.883H6.882l.9,2.8L22,.356V18H0Z" transform="translate(81 521)" fill="#eef5fc"/>
    <g id="그룹_54949" data-name="그룹 54949" transform="translate(1991 -838)">
      <g id="그룹_54914" data-name="그룹 54914" transform="translate(28 2)">
        <g id="그룹_54912" data-name="그룹 54912" transform="translate(-2037 633)">
          <rect id="사각형_33194" data-name="사각형 33194" width="28" height="28" transform="translate(96 718)" fill="none"/>
        </g>
      </g>
      <g id="_370080_folder_archive_data_document_documents_icon" data-name="370080_folder_archive_data_document_documents_icon" transform="translate(-1918.4 1312.653)" fill="#388ce5">
        <path d="M 29.55255508422852 65.84237670898438 L 9.247525215148926 65.84237670898438 C 8.014864921569824 65.84237670898438 7.012014865875244 64.76216125488281 7.012014865875244 63.43441390991211 L 7.011964797973633 54.46000289916992 L 7.012014865875244 48.01365280151367 L 7.012014865875244 45.25996398925781 C 7.012014865875244 43.93220138549805 8.014864921569824 42.85199356079102 9.247525215148926 42.85199356079102 L 14.32374477386475 42.85199356079102 C 15.55640506744385 42.85199356079102 16.55925559997559 43.93220138549805 16.55925559997559 45.25996398925781 L 16.55925559997559 45.60567474365234 L 29.55255508422852 45.60567474365234 C 30.78521537780762 45.60567474365234 31.78806495666504 46.68589401245117 31.78806495666504 48.01365280151367 L 31.78806495666504 63.43441390991211 C 31.78806495666504 64.76216125488281 30.78521537780762 65.84237670898438 29.55255508422852 65.84237670898438 Z M 8.437225341796875 53.01286315917969 L 8.437225341796875 54.46006393432617 L 8.437225341796875 54.69183349609375 L 8.437264442443848 63.43446350097656 C 8.437264442443848 63.92879486083984 8.800745010375977 64.33095550537109 9.247525215148926 64.33095550537109 L 29.55255508422852 64.33095550537109 C 29.99932479858398 64.33095550537109 30.3628044128418 63.92881393432617 30.3628044128418 63.43451309204102 L 30.36276626586914 53.01286315917969 L 8.437225341796875 53.01286315917969 Z M 8.437227249145508 51.63608169555664 L 30.36280822753906 51.63608169555664 L 30.36285400390625 48.01365280151367 C 30.36285400390625 47.51932144165039 29.99937438964844 47.11716461181641 29.55260467529297 47.11716461181641 L 16.35430526733398 47.11716461181641 L 15.33904457092285 47.11716461181641 L 15.1340446472168 47.11716461181641 L 15.1340446472168 46.91216278076172 L 15.1340446472168 45.81067276000977 L 15.1340446472168 45.25996398925781 C 15.1340446472168 44.76563262939453 14.77056503295898 44.36347198486328 14.32379531860352 44.36347198486328 L 9.247525215148926 44.36347198486328 C 8.800745010375977 44.36347198486328 8.437264442443848 44.76563262939453 8.437264442443848 45.25996398925781 L 8.437264442443848 48.01365280151367 L 8.437227249145508 51.63608169555664 Z" stroke="none"/>
        <path d="M 9.247524261474609 43.05699157714844 C 8.126194000244141 43.05699157714844 7.217004776000977 44.04340362548828 7.217004776000977 45.25996398925781 L 7.217004776000977 63.43441390991211 C 7.217004776000977 64.65093231201172 8.126194000244141 65.63737487792969 9.247524261474609 65.63737487792969 L 29.55255508422852 65.63737487792969 C 30.67388534545898 65.63737487792969 31.58306503295898 64.65092468261719 31.58306503295898 63.43441390991211 L 31.58306503295898 48.01365280151367 C 31.58306503295898 46.79707336425781 30.67388534545898 45.81067276000977 29.55255508422852 45.81067276000977 L 16.35425567626953 45.81067276000977 L 16.35425567626953 45.25996398925781 C 16.35425567626953 44.04340362548828 15.44506454467773 43.05699157714844 14.32374572753906 43.05699157714844 L 9.247524261474609 43.05699157714844 M 30.56780624389648 51.84108352661133 L 8.23222541809082 51.84108352661133 L 8.232265472412109 45.25996398925781 C 8.232265472412109 44.65267944335938 8.687885284423828 44.15847015380859 9.247524261474609 44.15847015380859 L 14.32379531860352 44.15847015380859 C 14.8834342956543 44.15847015380859 15.33904457092285 44.65267944335938 15.33904457092285 45.25996398925781 L 15.33904457092285 46.91216278076172 L 29.55260467529297 46.91216278076172 C 30.11223602294922 46.91216278076172 30.56785583496094 47.4063835144043 30.56785583496094 48.01365280151367 L 30.56780624389648 51.84108352661133 M 29.55255508422852 64.53594970703125 L 9.247524261474609 64.53594970703125 C 8.687885284423828 64.53594970703125 8.232265472412109 64.04168701171875 8.232265472412109 63.43446350097656 L 8.23222541809082 52.807861328125 L 30.56776428222656 52.807861328125 L 30.56780624389648 63.43451309204102 C 30.56780624389648 64.04163360595703 30.11223602294922 64.53594970703125 29.55255508422852 64.53594970703125 M 9.247524261474609 42.64699554443359 L 14.32374572753906 42.64699554443359 C 15.6694450378418 42.64699554443359 16.76425552368164 43.81916046142578 16.76425552368164 45.25996398925781 L 16.76425552368164 45.40067291259766 L 29.55255508422852 45.40067291259766 C 30.89825439453125 45.40067291259766 31.99306488037109 46.57285308837891 31.99306488037109 48.01365280151367 L 31.99306488037109 63.43441390991211 C 31.99306488037109 64.87519836425781 30.89825439453125 66.04737854003906 29.55255508422852 66.04737854003906 L 9.247524261474609 66.04737854003906 C 7.901815414428711 66.04737854003906 6.807004928588867 64.87519836425781 6.807004928588867 63.43441390991211 L 6.806964874267578 54.46000289916992 L 6.807004928588867 45.25996398925781 C 6.807004928588867 43.81916046142578 7.901815414428711 42.64699554443359 9.247524261474609 42.64699554443359 Z M 30.15781021118164 51.43108367919922 L 30.15785598754883 48.01364135742188 C 30.15785598754883 47.63236236572266 29.88634490966797 47.32216262817383 29.55260467529297 47.32216262817383 L 14.92904472351074 47.32216262817383 L 14.92904472351074 45.25996398925781 C 14.92904472351074 44.8786735534668 14.65753555297852 44.56847381591797 14.32379531860352 44.56847381591797 L 9.247524261474609 44.56847381591797 C 8.913784027099609 44.56847381591797 8.642265319824219 44.8786735534668 8.642265319824219 45.25996398925781 L 8.642229080200195 51.43108367919922 L 30.15781021118164 51.43108367919922 Z M 30.15776634216309 53.21786499023438 L 8.64222526550293 53.21786499023438 L 8.642265319824219 63.43446350097656 C 8.642265319824219 63.81575393676758 8.913784027099609 64.12595367431641 9.247524261474609 64.12595367431641 L 29.55255508422852 64.12595367431641 C 29.88629531860352 64.12595367431641 30.15780448913574 63.81577301025391 30.15780448913574 63.43451309204102 L 30.15776634216309 53.21786499023438 Z" stroke="none" fill="#388ce5"/>
      </g>
    </g>
  </g>
</svg>
