<svg width="15" height="16" viewBox="0 0 15 16" fill="none" xmlns="http://www.w3.org/2000/svg">
<g clip-path="url(#clip0_22_31)">
<path d="M14.372 13.753L10.5 9.88303C11.4594 8.76408 11.948 7.31699 11.8634 5.84549C11.7787 4.37398 11.1274 2.99248 10.046 1.99093C8.96459 0.989375 7.53727 0.445656 6.06361 0.473886C4.58994 0.502116 3.1845 1.1001 2.14227 2.14233C1.10004 3.18456 0.502055 4.59 0.473825 6.06367C0.445595 7.53734 0.989314 8.96465 1.99086 10.046C2.99241 11.1274 4.37392 11.7788 5.84543 11.8634C7.31693 11.9481 8.76402 11.4594 9.88297 10.5L13.753 14.37C13.835 14.4521 13.9464 14.4982 14.0625 14.4982C14.1785 14.4982 14.2899 14.4521 14.372 14.37C14.454 14.2879 14.5002 14.1766 14.5002 14.0605C14.5002 13.9444 14.454 13.8331 14.372 13.751V13.753ZM1.37196 6.18703C1.37196 5.23523 1.65417 4.30481 2.18289 3.51338C2.71162 2.72195 3.46313 2.10505 4.34242 1.74068C5.2217 1.37631 6.18928 1.28082 7.12283 1.46629C8.05638 1.65176 8.91398 2.10985 9.58721 2.78266C10.2604 3.45547 10.7191 4.31278 10.9051 5.24622C11.0912 6.17965 10.9963 7.14729 10.6325 8.0268C10.2686 8.90632 9.6522 9.65821 8.86111 10.1874C8.07001 10.7167 7.13976 10.9994 6.18796 11C4.91206 10.9987 3.68877 10.4913 2.78647 9.58922C1.88418 8.68711 1.37655 7.46393 1.37496 6.18803L1.37196 6.18703Z" fill="#989898" stroke="#989898"/>
</g>
<defs>
<clipPath id="clip0_22_31">
<rect width="15" height="15.057" fill="white"/>
</clipPath>
</defs>
</svg>
