<svg width="41" height="41" viewBox="0 0 41 41" fill="none" xmlns="http://www.w3.org/2000/svg">
<path d="M0.75 10.502C0.75 4.97911 5.22715 0.501953 10.75 0.501953H30.75C36.2728 0.501953 40.75 4.97911 40.75 10.502V30.502C40.75 36.0248 36.2728 40.502 30.75 40.502H10.75C5.22715 40.502 0.75 36.0248 0.75 30.502V10.502Z" fill="#8ACD1E"/>
<path d="M21.1124 25.3345C21.1124 25.6275 21.3506 25.8657 21.6437 25.8657C21.9368 25.8657 22.175 25.6275 22.175 25.3345C22.175 25.0413 21.9368 24.8032 21.6437 24.8031L21.1124 25.3345ZM21.1124 25.3345C21.1124 25.0413 21.3506 24.8032 21.6437 24.8031L21.1124 25.3345ZM28.7295 12.4733L28.7295 12.4734L28.7323 12.4761L30.8254 14.5611C30.8258 14.5615 30.8262 14.5619 30.8266 14.5623C31.0866 14.8258 31.25 15.1908 31.25 15.6076V29.6657C31.25 30.3011 30.7355 30.8156 30.1 30.8156H13.5999C12.9645 30.8156 12.45 30.3011 12.45 29.6657V13.1655C12.45 12.5302 12.9645 12.0156 13.5999 12.0156L27.6251 12.0157C28.0574 12.0157 28.4504 12.1909 28.7295 12.4733ZM16.5749 13.5781V13.0781H16.0749H14.92C14.1405 13.0781 13.5124 13.7062 13.5124 14.4858C13.5124 14.4858 13.5124 14.4858 13.5124 14.4858V18.4455C13.5124 19.225 14.1406 19.8532 14.92 19.8532H26.7174C27.4965 19.8532 28.1251 19.2251 28.1251 18.4455V14.4857C28.1251 13.7061 27.4965 13.0781 26.7174 13.0781H18.9624H18.4624V13.5781V16.7956C18.4624 17.0227 18.282 17.2031 18.0549 17.2031H16.9825C16.7553 17.2031 16.5749 17.0226 16.5749 16.7956V13.5781ZM21.6437 22.1532C19.8867 22.1532 18.4624 23.5774 18.4624 25.3345C18.4624 27.0915 19.8868 28.5156 21.6437 28.5156C23.4006 28.5156 24.8249 27.0915 24.8249 25.3345C24.8249 23.5774 23.4005 22.1532 21.6437 22.1532Z" stroke="white"/>
<rect x="11.2056" y="11.0938" width="17.1716" height="16.0801" rx="2" fill="#8ACD1E"/>
<path fill-rule="evenodd" clip-rule="evenodd" d="M18.4127 23.5083C18.4127 24.0775 18.8748 24.5395 19.444 24.5395C20.0132 24.5395 20.4753 24.0775 20.4753 23.5083C20.4753 22.939 20.0132 22.477 19.444 22.477C18.8748 22.477 18.4127 22.939 18.4127 23.5083ZM11.4002 9.68945C10.4886 9.68945 9.75024 10.4279 9.75024 11.3394V27.8395C9.75024 28.7511 10.4887 29.4895 11.4002 29.4895H27.9003C28.8119 29.4895 29.5502 28.7511 29.5502 27.8395V13.7815C29.5502 13.2288 29.332 12.7379 28.9811 12.3833L26.8854 10.2957C26.5146 9.92046 25.9945 9.6895 25.4254 9.6895H11.4002V9.68945ZM12.7203 11.7519H13.8752V14.9694C13.8752 15.4726 14.2795 15.8769 14.7828 15.8769H15.8552C16.3585 15.8769 16.7627 15.4726 16.7627 14.9694V11.7519H24.5177C25.0208 11.7519 25.4254 12.1562 25.4254 12.6595V16.6193C25.4254 17.1227 25.0208 17.527 24.5177 17.527H12.7203C12.217 17.527 11.8127 17.1227 11.8127 16.6193V12.6596C11.8126 12.1562 12.217 11.7519 12.7203 11.7519ZM16.7627 23.5083C16.7627 22.0274 17.9632 20.827 19.444 20.827C20.9247 20.827 22.1252 22.0274 22.1252 23.5083C22.1252 24.9891 20.9248 26.1894 19.444 26.1894C17.9632 26.1894 16.7627 24.9892 16.7627 23.5083Z" fill="white"/>
</svg>
