<svg width="41" height="41" viewBox="0 0 41 41" fill="none" xmlns="http://www.w3.org/2000/svg">
<g clip-path="url(#clip0_160_2333)">
<path d="M0.75 10.502C0.75 4.97911 5.22715 0.501953 10.75 0.501953H30.75C36.2728 0.501953 40.75 4.97911 40.75 10.502V30.502C40.75 36.0248 36.2728 40.502 30.75 40.502H10.75C5.22715 40.502 0.75 36.0248 0.75 30.502V10.502Z" fill="#8ACD1E"/>
<path d="M13.6003 12.0156H27.6248C28.0571 12.0156 28.4501 12.1912 28.7292 12.4736L28.7322 12.4766L30.825 14.5605C31.0857 14.824 31.2497 15.19 31.2498 15.6074V29.666C31.2496 30.3012 30.7355 30.8153 30.1003 30.8154H13.6003C12.9651 30.8154 12.4501 30.3013 12.45 29.666V13.166C12.45 12.5704 12.9021 12.0804 13.4822 12.0215L13.6003 12.0156ZM21.6433 22.1533C19.8865 22.1535 18.4626 23.5779 18.4626 25.335C18.4629 27.0917 19.8867 28.5154 21.6433 28.5156C23.4001 28.5156 24.8247 27.0917 24.825 25.335C24.825 23.5778 23.4002 22.1533 21.6433 22.1533ZM21.6433 24.8027C21.9364 24.8027 22.1746 25.0418 22.1746 25.335C22.1743 25.6277 21.9363 25.8652 21.6433 25.8652C21.3506 25.865 21.1123 25.6276 21.1121 25.335C21.1121 25.0419 21.3504 24.803 21.6433 24.8027ZM14.9197 13.0781C14.1405 13.0783 13.5126 13.7061 13.5125 14.4854V18.4453C13.5125 19.2247 14.1404 19.8533 14.9197 19.8535H26.7175C27.4966 19.8534 28.1248 19.2248 28.1248 18.4453V14.4854C28.1246 13.706 27.4965 13.0782 26.7175 13.0781H18.4626V16.7959C18.4625 17.0229 18.2815 17.2031 18.0544 17.2031H16.9822C16.7552 17.2029 16.5751 17.0227 16.575 16.7959V13.0781H14.9197Z" stroke="white"/>
<path d="M26.3772 11.0938H13.2056C12.1011 11.0938 11.2056 11.9892 11.2056 13.0938V25.1739C11.2056 26.2784 12.1011 27.1739 13.2056 27.1739H26.3772C27.4818 27.1739 28.3772 26.2784 28.3772 25.1739V13.0938C28.3772 11.9892 27.4818 11.0938 26.3772 11.0938Z" fill="#8ACD1E"/>
<path fill-rule="evenodd" clip-rule="evenodd" d="M18.4127 23.5083C18.4127 24.0775 18.8748 24.5395 19.444 24.5395C20.0132 24.5395 20.4753 24.0775 20.4753 23.5083C20.4753 22.939 20.0132 22.477 19.444 22.477C18.8748 22.477 18.4127 22.939 18.4127 23.5083ZM11.4002 9.68945C10.4886 9.68945 9.75024 10.4279 9.75024 11.3394V27.8395C9.75024 28.7511 10.4887 29.4895 11.4002 29.4895H27.9003C28.8119 29.4895 29.5502 28.7511 29.5502 27.8395V13.7815C29.5502 13.2288 29.332 12.7379 28.9811 12.3833L26.8854 10.2957C26.5146 9.92046 25.9945 9.6895 25.4254 9.6895L11.4002 9.68945ZM12.7203 11.7519H13.8752V14.9694C13.8752 15.4726 14.2795 15.8769 14.7828 15.8769H15.8552C16.3585 15.8769 16.7627 15.4726 16.7627 14.9694V11.7519H24.5177C25.0208 11.7519 25.4254 12.1562 25.4254 12.6595V16.6193C25.4254 17.1227 25.0208 17.527 24.5177 17.527H12.7203C12.217 17.527 11.8127 17.1227 11.8127 16.6193V12.6596C11.8126 12.1562 12.217 11.7519 12.7203 11.7519ZM16.7627 23.5083C16.7627 22.0274 17.9632 20.827 19.444 20.827C20.9247 20.827 22.1252 22.0274 22.1252 23.5083C22.1252 24.9891 20.9248 26.1894 19.444 26.1894C17.9632 26.1894 16.7627 24.9892 16.7627 23.5083Z" fill="white"/>
</g>
<defs>
<clipPath id="clip0_160_2333">
<rect width="41" height="41" fill="white"/>
</clipPath>
</defs>
</svg>
