<svg width="40" height="40" viewBox="0 0 40 40" fill="none" xmlns="http://www.w3.org/2000/svg">
<path d="M0 10.002C0 4.47911 4.47715 0.00195312 10 0.00195312H30C35.5228 0.00195312 40 4.47911 40 10.002V30.002C40 35.5248 35.5228 40.002 30 40.002H10C4.47715 40.002 0 35.5248 0 30.002V10.002Z" fill="#2B5797"/>
<path d="M30.119 27.9797H22.4994C22.0177 27.9797 21.6235 27.5856 21.6235 27.1039V13.9403C21.6235 13.4586 22.0177 13.0645 22.4994 13.0645H30.1146C30.5963 13.0645 30.9904 13.4586 30.9904 13.9403V27.1082C30.9948 27.5899 30.6007 27.9797 30.119 27.9797Z" fill="white"/>
<path d="M31.006 11.8658H22.294C22.251 11.8658 22.2079 11.8705 22.1697 11.8801V11.8658C22.1697 11.3783 22.1697 10.8908 22.1697 10.4034C22.1697 10.2696 22.1697 10.1358 22.1697 10.002H20.5449C16.3824 10.6423 12.2151 11.2493 8.04785 11.8705C8.04785 17.2947 8.04785 22.7188 8.04785 28.1429C12.1912 28.7642 16.3346 29.3568 20.4684 30.002H22.1649V28.1286C22.2079 28.1334 22.2462 28.1429 22.2892 28.1429H30.9965C31.5222 28.1429 31.9523 27.7128 31.9523 27.1871V12.8215C31.9618 12.2911 31.5317 11.8658 31.006 11.8658Z" fill="white"/>
<path d="M22.1694 12.5625C25.1563 12.5625 28.1479 12.5625 31.1348 12.5625C31.1348 17.5231 31.1348 22.4836 31.1348 27.4442C28.1479 27.4442 25.1563 27.4442 22.1694 27.4442C22.1694 26.823 22.1694 26.2065 22.1694 25.5852C24.5255 25.5852 26.8767 25.5852 29.2328 25.5852C29.2328 25.2746 29.2328 24.9639 29.2328 24.6533C26.8767 24.6533 24.5255 24.6533 22.1694 24.6533C22.1694 24.2662 22.1694 23.8791 22.1694 23.492C24.5255 23.492 26.8767 23.492 29.2328 23.492C29.2328 23.1814 29.2328 22.8707 29.2328 22.5601C26.8767 22.5601 24.5255 22.5601 22.1694 22.5601C22.1694 22.173 22.1694 21.7859 22.1694 21.3988C24.5255 21.3988 26.8767 21.3988 29.2328 21.3988C29.2328 21.0882 29.2328 20.7776 29.2328 20.4669C26.8767 20.4669 24.5255 20.4669 22.1694 20.4669C22.1694 20.0798 22.1694 19.6927 22.1694 19.3056C24.5255 19.3056 26.8767 19.3056 29.2328 19.3056C29.2328 18.995 29.2328 18.6844 29.2328 18.3737C26.8767 18.3737 24.5255 18.3737 22.1694 18.3737C22.1694 17.9866 22.1694 17.5995 22.1694 17.2124C24.5255 17.2124 26.8767 17.2124 29.2328 17.2124C29.2328 16.9018 29.2328 16.5912 29.2328 16.2805C26.8767 16.2805 24.5255 16.2805 22.1694 16.2805C22.1694 15.8934 22.1694 15.5063 22.1694 15.1193C24.5255 15.1193 26.8767 15.1193 29.2328 15.1193C29.2328 14.8086 29.2328 14.498 29.2328 14.1874C26.8767 14.1874 24.5255 14.1874 22.1694 14.1874C22.1694 13.6521 22.1694 13.1073 22.1694 12.5625Z" fill="#2B5797"/>
<path d="M13.6633 16.6737C14.1795 16.6498 14.6956 16.6307 15.2117 16.6068C15.5749 18.1743 15.9429 19.7418 16.3348 21.3045C16.6406 19.6892 16.9799 18.0835 17.3097 16.4682C17.8545 16.4538 18.3945 16.4252 18.9345 16.3965C18.3228 18.6474 17.7828 20.9222 17.1138 23.1587C16.6598 23.3594 15.9811 23.1492 15.4411 23.1826C15.0779 21.6438 14.6574 20.1145 14.3372 18.5661C14.0218 20.0667 13.606 21.5578 13.2428 23.0488C12.7219 23.0249 12.1962 22.9962 11.6705 22.9676C11.2213 20.9222 10.6908 18.8911 10.2703 16.8361C10.7338 16.817 11.2022 16.8027 11.6657 16.7884C11.9477 18.2698 12.2631 19.7418 12.5068 21.228C12.8891 19.7179 13.281 18.1934 13.6633 16.6737Z" fill="#2B5797"/>
</svg>
