<svg width="41" height="41" viewBox="0 0 41 41" fill="none" xmlns="http://www.w3.org/2000/svg">
<g clip-path="url(#clip0_160_2254)">
<path d="M0.75 10.502C0.75 4.97911 5.22715 0.501953 10.75 0.501953H30.75C36.2728 0.501953 40.75 4.97911 40.75 10.502V30.502C40.75 36.0248 36.2728 40.502 30.75 40.502H10.75C5.22715 40.502 0.75 36.0248 0.75 30.502V10.502Z" fill="#2B5797"/>
<path d="M30.869 28.4797H23.2494C22.7677 28.4797 22.3735 28.0856 22.3735 27.6039V14.4403C22.3735 13.9586 22.7677 13.5645 23.2494 13.5645H30.8646C31.3463 13.5645 31.7404 13.9586 31.7404 14.4403V27.6082C31.7448 28.0899 31.3507 28.4797 30.869 28.4797Z" fill="white"/>
<path d="M31.756 12.3658H23.044C23.001 12.3658 22.9579 12.3705 22.9197 12.3801V12.3658C22.9197 11.8783 22.9197 11.3908 22.9197 10.9034C22.9197 10.7696 22.9197 10.6358 22.9197 10.502H21.2949C17.1324 11.1423 12.9651 11.7493 8.79785 12.3705C8.79785 17.7947 8.79785 23.2188 8.79785 28.6429C12.9412 29.2642 17.0846 29.8568 21.2184 30.502H22.9149V28.6286C22.9579 28.6334 22.9962 28.6429 23.0392 28.6429H31.7465C32.2722 28.6429 32.7023 28.2128 32.7023 27.6871V13.3215C32.7118 12.7911 32.2817 12.3658 31.756 12.3658Z" fill="white"/>
<path d="M22.9194 13.0625C25.9063 13.0625 28.8979 13.0625 31.8848 13.0625C31.8848 18.0231 31.8848 22.9836 31.8848 27.9442C28.8979 27.9442 25.9063 27.9442 22.9194 27.9442C22.9194 27.323 22.9194 26.7065 22.9194 26.0852C25.2755 26.0852 27.6267 26.0852 29.9828 26.0852C29.9828 25.7746 29.9828 25.4639 29.9828 25.1533C27.6267 25.1533 25.2755 25.1533 22.9194 25.1533C22.9194 24.7662 22.9194 24.3791 22.9194 23.992C25.2755 23.992 27.6267 23.992 29.9828 23.992C29.9828 23.6814 29.9828 23.3707 29.9828 23.0601C27.6267 23.0601 25.2755 23.0601 22.9194 23.0601C22.9194 22.673 22.9194 22.2859 22.9194 21.8988C25.2755 21.8988 27.6267 21.8988 29.9828 21.8988C29.9828 21.5882 29.9828 21.2776 29.9828 20.9669C27.6267 20.9669 25.2755 20.9669 22.9194 20.9669C22.9194 20.5798 22.9194 20.1927 22.9194 19.8056C25.2755 19.8056 27.6267 19.8056 29.9828 19.8056C29.9828 19.495 29.9828 19.1844 29.9828 18.8737C27.6267 18.8737 25.2755 18.8737 22.9194 18.8737C22.9194 18.4866 22.9194 18.0995 22.9194 17.7124C25.2755 17.7124 27.6267 17.7124 29.9828 17.7124C29.9828 17.4018 29.9828 17.0912 29.9828 16.7805C27.6267 16.7805 25.2755 16.7805 22.9194 16.7805C22.9194 16.3934 22.9194 16.0063 22.9194 15.6193C25.2755 15.6193 27.6267 15.6193 29.9828 15.6193C29.9828 15.3086 29.9828 14.998 29.9828 14.6874C27.6267 14.6874 25.2755 14.6874 22.9194 14.6874C22.9194 14.1521 22.9194 13.6073 22.9194 13.0625Z" fill="#2B5797"/>
<path d="M14.4133 17.1737C14.9295 17.1498 15.4456 17.1307 15.9617 17.1068C16.3249 18.6743 16.6929 20.2418 17.0848 21.8045C17.3906 20.1892 17.7299 18.5835 18.0597 16.9682C18.6045 16.9538 19.1445 16.9252 19.6845 16.8965C19.0728 19.1474 18.5328 21.4222 17.8638 23.6587C17.4098 23.8594 16.7311 23.6492 16.1911 23.6826C15.8279 22.1438 15.4074 20.6145 15.0872 19.0661C14.7718 20.5667 14.356 22.0578 13.9928 23.5488C13.4719 23.5249 12.9462 23.4962 12.4205 23.4676C11.9713 21.4222 11.4408 19.3911 11.0203 17.3361C11.4838 17.317 11.9522 17.3027 12.4157 17.2884C12.6977 18.7698 13.0131 20.2418 13.2568 21.728C13.6391 20.2179 14.031 18.6934 14.4133 17.1737Z" fill="#2B5797"/>
</g>
<defs>
<clipPath id="clip0_160_2254">
<rect width="41" height="41" fill="white"/>
</clipPath>
</defs>
</svg>
