<?xml version="1.0" encoding="UTF-8"?><svg id="_레이어_2" xmlns="http://www.w3.org/2000/svg" viewBox="0 0 15.95 16.99"><defs><style>.cls-1{fill:none;stroke:#1d1d1b;stroke-linecap:round;stroke-linejoin:round;}</style></defs><g id="icon__"><path class="cls-1" d="M4.79,13.83H1.57c-.59,0-1.07-.48-1.07-1.07V1.57C.5.98.98.5,1.57.5h8.53c.59,0,1.07.48,1.07,1.07v1.6"/><path class="cls-1" d="M8.52,3.16h5.86c.59,0,1.07.48,1.07,1.07v11.2c0,.59-.48,1.07-1.07,1.07H5.86c-.59,0-1.07-.48-1.07-1.07V6.89l3.73-3.73Z"/><path class="cls-1" d="M8.52,3.16v2.67c0,.59-.48,1.07-1.07,1.07h-2.67l3.73-3.73Z"/></g></svg>