<svg width="41" height="41" viewBox="0 0 41 41" fill="none" xmlns="http://www.w3.org/2000/svg">
<path d="M0.75 10.502C0.75 4.97911 5.22715 0.501953 10.75 0.501953H30.75C36.2728 0.501953 40.75 4.97911 40.75 10.502V30.502C40.75 36.0248 36.2728 40.502 30.75 40.502H10.75C5.22715 40.502 0.75 36.0248 0.75 30.502V10.502Z" fill="#3FBABC"/>
<rect x="13.8982" y="14.6953" width="11.5034" height="1.3" rx="0.65" fill="#5B90F3"/>
<rect x="13.8982" y="17.623" width="11.5034" height="1.3" rx="0.65" fill="#5B90F3"/>
<rect x="13.8982" y="20.502" width="8.4458" height="1.3" rx="0.65" fill="#5B90F3"/>
<rect x="13.8982" y="23.3809" width="5.51758" height="1.3" rx="0.65" fill="#5B90F3"/>
<circle cx="21.65" cy="21.775" r="9.4" fill="#3FBABC" stroke="white"/>
<path fill-rule="evenodd" clip-rule="evenodd" d="M18.5968 19.775C18.5968 19.1938 19.0687 18.7219 19.65 18.7219C20.2313 18.7219 20.7032 19.1938 20.7032 19.775C20.7032 20.3564 20.2313 20.8283 19.65 20.8283C19.0687 20.8283 18.5968 20.3564 18.5968 19.775ZM19.65 17.0368C18.1377 17.0368 16.9116 18.2628 16.9116 19.775C16.9116 21.2873 18.1377 22.5134 19.65 22.5134C21.1622 22.5134 22.3883 21.2873 22.3883 19.775C22.3883 18.2628 21.1622 17.0368 19.65 17.0368ZM9.75 19.775C9.75 25.2433 14.1818 29.675 19.65 29.675C25.1182 29.675 29.5499 25.2433 29.5499 19.775C29.5499 14.3069 25.1182 9.875 19.65 9.875C14.1818 9.87505 9.75 14.3069 9.75 19.775ZM19.65 15.3517C22.0932 15.3517 24.0733 17.3318 24.0733 19.7751C24.0733 22.2184 22.0933 24.1984 19.65 24.1984C17.2066 24.1984 15.2265 22.2184 15.2265 19.7751C15.2265 17.3318 17.2066 15.3517 19.65 15.3517Z" fill="white"/>
</svg>
