<svg xmlns="http://www.w3.org/2000/svg" width="68.121" height="74.941" viewBox="0 0 68.121 74.941">
  <g id="그룹_50488" data-name="그룹 50488" transform="translate(-1617.905 -2581)">
    <g id="그룹_50446" data-name="그룹 50446">
      <path id="패스_53197" data-name="패스 53197" d="M1550.612,2616.3l-5.957,7.766,26.217,8.631,6.634-10.806-24.911-7.567-7.94-8.893,24.71-8.962,8.141,8.521,8.017-8.521,25.206,8.521-8.272,8.809,8.818,9.656-26.2,9.241-6.962-10.806,24.344-8.091-24.344-8.369-.608-.25-.615.25L1556,2612.774" transform="translate(74 8)" fill="none" stroke="#889db7" stroke-linecap="round" stroke-linejoin="round" stroke-width="1.5"/>
      <path id="패스_53198" data-name="패스 53198" d="M1552.65,2629.509v9.9l25.09,7.781,26.2-7.781V2626.1" transform="translate(74 8)" fill="none" stroke="#889db7" stroke-linecap="round" stroke-linejoin="round" stroke-width="1.5"/>
    </g>
    <path id="패스_53200" data-name="패스 53200" d="M1559.72,2613.716l18.286,5.477,17.919-5.477-18.307-6.058Z" transform="translate(74 8)" fill="#377bff"/>
    <g id="_icons" transform="translate(1643 2578)">
      <g id="그룹_50501" data-name="그룹 50501">
        <path id="패스_53251" data-name="패스 53251" d="M12,3a8.963,8.963,0,0,0-9,9,9.318,9.318,0,0,0,1.6,5.1L3.2,19.5a.908.908,0,0,0,0,1A.891.891,0,0,0,4,21h8A9,9,0,0,0,12,3Zm-.689,16.5h-6.2l1-1.946a1.07,1.07,0,0,0-.23-1.2,7.185,7.185,0,0,1-1.495-4.5C4.39,7.951,8.1,4.57,12,4.57a7.309,7.309,0,0,1,4.425,1.435,7.751,7.751,0,0,1,2.882,6.057,7.662,7.662,0,0,1-2.578,5.492A8.229,8.229,0,0,1,11.311,19.5Z" fill="#889db7"/>
        <path id="패스_53254" data-name="패스 53254" d="M10,8.176A1.965,1.965,0,0,1,11.88,7a1.715,1.715,0,0,1,1.88,1.568c0,.784-.47,1.176-1.88,1.96v1.228m0,2.383h0" transform="translate(0 2)" fill="none" stroke="#889db7" stroke-linecap="round" stroke-width="1.5"/>
      </g>
    </g>
  </g>
</svg>
