<svg width="41" height="41" viewBox="0 0 41 41" fill="none" xmlns="http://www.w3.org/2000/svg">
<path d="M0.75 10.502C0.75 4.97911 5.22715 0.501953 10.75 0.501953H30.75C36.2728 0.501953 40.75 4.97911 40.75 10.502V30.502C40.75 36.0248 36.2728 40.502 30.75 40.502H10.75C5.22715 40.502 0.75 36.0248 0.75 30.502V10.502Z" fill="#1A98E6"/>
<path fill-rule="evenodd" clip-rule="evenodd" d="M21.9617 8.50195V11.0645H27.77V13.4539H13.73V11.0645H19.5383V8.50195H21.9617ZM15.647 24.881V28.1126H28.2763V30.502H15.647H13.6702H13.2236V24.881H15.647ZM20.7497 13.8781C18.1126 13.8781 15.9757 15.9858 15.9757 18.586C15.9757 21.1861 18.1134 23.2938 20.7506 23.2938C23.3877 23.2938 25.5255 21.1861 25.5255 18.586C25.5246 15.9858 23.3869 13.8781 20.7497 13.8781ZM23.1489 18.586C23.1489 19.8924 22.0748 20.9514 20.7497 20.9514C19.4247 20.9514 18.3506 19.8924 18.3506 18.586C18.3506 17.2795 19.4247 16.2205 20.7497 16.2205C22.0748 16.2196 23.1489 17.2795 23.1489 18.586ZM19.0375 25.5202C19.0375 24.5875 19.8044 23.8314 20.7503 23.8314C21.6963 23.8314 22.4631 24.5875 22.4631 25.5202C22.4631 26.4529 21.6963 27.209 20.7503 27.209C19.8044 27.209 19.0375 26.4529 19.0375 25.5202Z" fill="white"/>
</svg>
