<svg xmlns="http://www.w3.org/2000/svg" width="20" height="20" viewBox="0 0 20 20">
  <g id="icon_refresh" transform="translate(-320 -140)">
    <g id="icon_refresh-2" data-name="icon_refresh" transform="translate(320 140)">
      <path id="arrow-flip-1" d="M634,516v2a8.972,8.972,0,0,0-8-4,10,10,0,0,0,0,20,9.893,9.893,0,0,0,10-9h-2c-.367,4.263-3.642,7-8,7a8,8,0,1,1,7-12h-3a1,1,0,0,0,0,2h5a1.146,1.146,0,0,0,1-1v-5a1,1,0,0,0-2,0Z" transform="translate(-616 -514)" fill="#101010"/>
    </g>
  </g>
</svg>
