<svg width="40" height="40" viewBox="0 0 40 40" fill="none" xmlns="http://www.w3.org/2000/svg">
<path d="M0 10.002C0 4.47911 4.47715 0.00195312 10 0.00195312H30C35.5228 0.00195312 40 4.47911 40 10.002V30.002C40 35.5248 35.5228 40.002 30 40.002H10C4.47715 40.002 0 35.5248 0 30.002V10.002Z" fill="#5847F9"/>
<path fill-rule="evenodd" clip-rule="evenodd" d="M29.9997 12.2012H12.1997V30.0012L29.9997 30.0012L29.9997 12.2012ZM12.1997 11.2012C11.6474 11.2012 11.1997 11.6489 11.1997 12.2012V30.0012C11.1997 30.5535 11.6474 31.0012 12.1997 31.0012H29.9997C30.552 31.0012 30.9997 30.5535 30.9997 30.0012V12.2012C30.9997 11.6489 30.552 11.2012 29.9997 11.2012H12.1997Z" fill="white"/>
<path d="M9 10.002C9 9.44967 9.44772 9.00195 10 9.00195H27.8C28.3523 9.00195 28.8 9.44967 28.8 10.002V27.802C28.8 28.3542 28.3523 28.802 27.8 28.802H10C9.44772 28.802 9 28.3542 9 27.802V10.002Z" fill="white"/>
<path fill-rule="evenodd" clip-rule="evenodd" d="M27.8 10.002H10V27.802L27.8 27.802L27.8 10.002ZM10 9.00195C9.44772 9.00195 9 9.44967 9 10.002V27.802C9 28.3542 9.44772 28.802 10 28.802H27.8C28.3523 28.802 28.8 28.3542 28.8 27.802V10.002C28.8 9.44967 28.3523 9.00195 27.8 9.00195H10Z" fill="white"/>
<path fill-rule="evenodd" clip-rule="evenodd" d="M22.4025 18.9687C22.1989 18.749 21.8492 18.7565 21.6551 18.9845L20.8525 19.9274C20.6735 20.1377 20.3579 20.163 20.1477 19.984C19.9374 19.8051 19.912 19.4895 20.091 19.2792L20.8936 18.3363C21.4759 17.6522 22.525 17.6299 23.1358 18.2888L25.867 21.2348C26.0547 21.4373 26.0428 21.7537 25.8403 21.9414C25.6377 22.1291 25.3214 22.1172 25.1337 21.9147L22.4025 18.9687ZM16.8355 19.0003C16.6229 18.777 16.2608 18.7975 16.0747 19.0434L12.6991 23.505C12.5324 23.7252 12.2188 23.7686 11.9986 23.602C11.7784 23.4354 11.735 23.1218 11.9016 22.9016L15.2773 18.44C15.8354 17.7024 16.9217 17.6408 17.5597 18.3106L23.0338 24.0585C23.2243 24.2584 23.2165 24.5749 23.0166 24.7654C22.8166 24.9558 22.5001 24.9481 22.3097 24.7481L16.8355 19.0003Z" fill="#5847F9"/>
<path fill-rule="evenodd" clip-rule="evenodd" d="M24.3997 15.7027C25.0624 15.7027 25.5997 15.1655 25.5997 14.5027C25.5997 13.84 25.0624 13.3027 24.3997 13.3027C23.737 13.3027 23.1997 13.84 23.1997 14.5027C23.1997 15.1655 23.737 15.7027 24.3997 15.7027ZM24.3997 16.7027C25.6147 16.7027 26.5997 15.7178 26.5997 14.5027C26.5997 13.2877 25.6147 12.3027 24.3997 12.3027C23.1847 12.3027 22.1997 13.2877 22.1997 14.5027C22.1997 15.7178 23.1847 16.7027 24.3997 16.7027Z" fill="#5847F9"/>
</svg>
