<svg width="41" height="41" viewBox="0 0 41 41" fill="none" xmlns="http://www.w3.org/2000/svg">
<g clip-path="url(#clip0_160_2270)">
<path d="M0.75 10.502C0.75 4.97911 5.22715 0.501953 10.75 0.501953H30.75C36.2728 0.501953 40.75 4.97911 40.75 10.502V30.502C40.75 36.0248 36.2728 40.502 30.75 40.502H10.75C5.22715 40.502 0.75 36.0248 0.75 30.502V10.502Z" fill="#EA4C3A"/>
<path d="M31.3591 23.5248C30.7501 22.8673 29.3968 22.5385 27.5699 22.5385C26.4873 22.5385 25.337 22.67 23.9838 22.8673C22.5507 21.5634 21.3605 20.0281 20.4653 18.3304C21.1419 16.3578 21.6156 14.451 21.6156 13.0044C21.6156 11.8866 21.2096 10.1113 19.5857 10.1113C19.112 10.1113 18.7061 10.3743 18.4354 10.7689C17.7588 11.9524 18.0294 14.5825 19.315 17.3441C18.3759 19.9827 17.2452 22.5537 15.9319 25.0371C12.3457 26.4837 9.97751 28.0618 9.77452 29.311C9.63919 29.9028 10.0452 30.8891 11.4661 30.8891C13.5637 30.8891 15.8642 27.9302 17.6234 24.9056C19.654 24.2271 21.7353 23.6997 23.8485 23.3276C26.4197 25.4974 28.6525 25.8262 29.7351 25.8262C31.9004 25.8262 32.1034 24.3139 31.3591 23.5248ZM18.7737 10.9661C19.315 10.1771 20.533 10.4401 20.533 12.0181C20.533 13.0702 20.1946 14.7798 19.518 16.7523C18.3001 13.9907 18.3001 11.8209 18.7737 10.9661ZM10.1805 29.3768C10.3835 28.3248 12.4134 26.8782 15.5935 25.6289C13.8343 28.522 12.0751 30.3631 10.9925 30.3631C10.3158 30.3631 10.1128 29.7713 10.1805 29.3768ZM23.5101 22.9331C21.6034 23.2783 19.7264 23.7615 17.8941 24.3796C18.8955 22.6234 19.7115 20.7724 20.33 18.8564C21.2197 20.3332 22.2868 21.7022 23.5101 22.9331ZM24.3898 23.1961C26.555 22.8673 28.3819 22.9331 29.1938 23.0646C31.1561 23.4591 30.4794 25.7604 28.3142 25.2344C26.758 24.9056 25.4724 24.0509 24.3898 23.1961Z" fill="white"/>
<path d="M31.3591 23.5248C30.7501 22.8673 29.3968 22.5385 27.5699 22.5385C26.4873 22.5385 25.337 22.6701 23.9838 22.8673C22.5507 21.5634 21.3605 20.0281 20.4653 18.3304C21.1419 16.3578 21.6156 14.451 21.6156 13.0044C21.6156 11.8866 21.2096 10.1113 19.5857 10.1113C19.112 10.1113 18.7061 10.3743 18.4354 10.7689C17.7588 11.9524 18.0294 14.5825 19.315 17.3441C18.3759 19.9827 17.2452 22.5537 15.9319 25.0371C12.3457 26.4837 9.97751 28.0618 9.77452 29.311C9.63919 29.9028 10.0452 30.8891 11.4661 30.8891C13.5637 30.8891 15.8642 27.9302 17.6234 24.9056C19.654 24.2271 21.7353 23.6997 23.8484 23.3276C26.4196 25.4974 28.6525 25.8262 29.7351 25.8262C31.9004 25.8262 32.1034 24.3139 31.3591 23.5248ZM18.7737 10.9661C19.315 10.1771 20.533 10.4401 20.533 12.0181C20.533 13.0702 20.1946 14.7798 19.518 16.7523C18.3001 13.9907 18.3001 11.8209 18.7737 10.9661ZM10.1805 29.3768C10.3835 28.3248 12.4134 26.8782 15.5935 25.6289C13.8343 28.522 12.0751 30.3631 10.9925 30.3631C10.3158 30.3631 10.1128 29.7713 10.1805 29.3768ZM23.5101 22.9331C21.6034 23.2783 19.7264 23.7615 17.8941 24.3796C18.8955 22.6234 19.7115 20.7724 20.33 18.8564C21.2197 20.3332 22.2868 21.7022 23.5101 22.9331ZM24.3898 23.1961C26.555 22.8673 28.3819 22.9331 29.1938 23.0646C31.1561 23.4591 30.4794 25.7604 28.3142 25.2344C26.758 24.9056 25.4724 24.0509 24.3898 23.1961Z" fill="white"/>
<path fill-rule="evenodd" clip-rule="evenodd" d="M18.2705 10.6565C18.5697 10.2205 19.032 9.91211 19.5857 9.91211C20.4897 9.91211 21.0569 10.4145 21.3869 11.047C21.7117 11.6694 21.8156 12.4282 21.8156 13.0052C21.8156 14.4659 21.3459 16.3657 20.6826 18.3139C21.5475 19.9333 22.6851 21.4016 24.0489 22.6565C25.364 22.4665 26.4977 22.3393 27.57 22.3393C28.494 22.3393 29.3068 22.4223 29.9708 22.5921C30.6313 22.761 31.1637 23.0207 31.5052 23.389C31.9228 23.8322 32.0889 24.4942 31.8186 25.0586C31.5441 25.6316 30.8597 26.027 29.7352 26.027C28.6202 26.027 26.3719 25.6905 23.7915 23.5416C21.7443 23.9066 19.7274 24.4181 17.7583 25.0723C16.8838 26.5687 15.8739 28.0523 14.817 29.1698C13.7534 30.2944 12.6031 31.0899 11.4661 31.0899C10.7065 31.0899 10.1885 30.8241 9.88195 30.4494C9.58245 30.0832 9.49913 29.6288 9.57818 29.2735C9.6388 28.9111 9.8507 28.5464 10.1683 28.1878C10.4893 27.8253 10.9304 27.4553 11.4714 27.084C12.5398 26.3506 14.0188 25.5979 15.7892 24.8799C17.0708 22.4491 18.1769 19.9344 19.0992 17.3547C18.4694 15.9837 18.0851 14.6435 17.941 13.4903C17.7953 12.3248 17.8913 11.3185 18.2618 10.6704L18.2659 10.6633L18.2705 10.6565ZM18.3543 11.6032C18.2579 12.1001 18.2483 12.7235 18.3379 13.4407C18.4787 14.5679 18.8611 15.8958 19.4964 17.2605L19.531 17.3348L19.5035 17.4119C18.5611 20.0597 17.4265 22.6395 16.1087 25.1314L16.0745 25.196L16.0067 25.2234C15.547 25.4089 15.1078 25.5963 14.6913 25.7846C14.9584 25.6695 15.2349 25.5557 15.5205 25.4435L16.0728 25.2266L15.7645 25.7336C14.8802 27.1879 13.9918 28.3847 13.1831 29.2208C12.7788 29.6386 12.3901 29.971 12.0276 30.2001C11.6678 30.4274 11.3169 30.5639 10.9925 30.5639C10.7668 30.5639 10.579 30.5075 10.4286 30.4138C10.6616 30.5754 10.997 30.6899 11.4661 30.6899C12.4268 30.6899 13.4755 30.006 14.5264 28.895C15.5685 27.7931 16.5745 26.3121 17.4506 24.8059L17.4885 24.7406L17.5601 24.7167C19.6001 24.035 21.691 23.5053 23.8138 23.1314L23.906 23.1152L23.9775 23.1755C26.5093 25.3121 28.6953 25.6269 29.7352 25.6269C30.7759 25.6269 31.2756 25.2662 31.4578 24.8858C31.6441 24.497 31.5399 24.0087 31.2136 23.6629L31.2124 23.6615C30.9448 23.3727 30.4964 23.1394 29.8717 22.9797C29.2501 22.8207 28.4728 22.7393 27.57 22.7393C27.1502 22.7393 26.7194 22.7594 26.269 22.7957C27.5883 22.7146 28.6484 22.7744 29.2259 22.8679L29.2333 22.8691C29.7624 22.9754 30.1395 23.2164 30.3542 23.5324C30.5695 23.8493 30.6082 24.2239 30.4908 24.5612C30.253 25.2444 29.4199 25.7085 28.27 25.4302C26.6692 25.0913 25.3551 24.2138 24.2659 23.3538L23.9042 23.0683L23.9063 23.068L23.9039 23.0658L23.5458 23.1306C21.6486 23.4741 19.7811 23.955 17.9581 24.5699L17.4601 24.7379L17.7204 24.2813C18.715 22.537 19.5255 20.6987 20.1397 18.7958L20.2705 18.3905L20.2481 18.348L20.2762 18.2663C20.9513 16.298 21.4156 14.4172 21.4156 13.0052C21.4156 12.4644 21.3165 11.7767 21.0323 11.232C20.7533 10.6974 20.3056 10.3121 19.5857 10.3121C19.4038 10.3121 19.2313 10.3586 19.0745 10.4435C19.3445 10.311 19.6531 10.2968 19.9372 10.4223C20.4074 10.63 20.733 11.1831 20.733 12.0189C20.733 13.1029 20.3869 14.8366 19.7072 16.818L19.5414 17.3016L19.3351 16.8338C18.7185 15.4359 18.4077 14.1821 18.3124 13.1636C18.2562 12.5619 18.2743 12.0334 18.3543 11.6032ZM10.1376 30.1244C9.98175 29.8805 9.94236 29.5832 9.98342 29.3438L9.98412 29.3397C10.03 29.1024 10.1507 28.861 10.3289 28.6201C10.1228 28.8858 10.007 29.1282 9.97198 29.3439L9.96993 29.3565C9.92069 29.5718 9.96014 29.867 10.1376 30.1244ZM18.9441 11.0722C18.7387 11.45 18.6198 12.155 18.7107 13.1263C18.7905 13.9795 19.0306 15.0193 19.4961 16.1848C20.0572 14.4377 20.333 12.9507 20.333 12.0189C20.333 11.2767 20.0496 10.9093 19.7756 10.7882C19.5049 10.6687 19.1677 10.7529 18.9441 11.0722ZM20.385 19.3277C19.8353 20.9492 19.1443 22.5224 18.3193 24.0294C19.8865 23.5233 21.4848 23.1148 23.1054 22.8057C22.0804 21.7383 21.1694 20.5729 20.385 19.3277ZM24.8886 23.3288C25.8787 24.0718 27.0173 24.7568 28.3556 25.0395L28.3615 25.0407C29.3753 25.287 29.9619 24.8637 30.113 24.4297C30.1901 24.2082 30.1653 23.9663 30.0233 23.7572C29.8811 23.5478 29.608 23.3534 29.1581 23.2622C28.4267 23.1444 26.8256 23.0789 24.8886 23.3288ZM10.3773 29.4134C10.3514 29.5674 10.3795 29.761 10.4756 29.9105C10.5656 30.0503 10.722 30.1639 10.9925 30.1639C11.2094 30.1639 11.4844 30.0702 11.8139 29.8619C12.1407 29.6554 12.5048 29.3467 12.8956 28.9426C13.5805 28.2346 14.3342 27.2479 15.0991 26.046C13.7763 26.5998 12.6868 27.1821 11.8851 27.7416C11.4281 28.0605 11.0693 28.3688 10.8145 28.6565C10.5585 28.9454 10.419 29.2003 10.3773 29.4134Z" fill="white"/>
<path d="M31.3591 23.5248C30.7501 22.8673 29.3968 22.5385 27.5699 22.5385C26.4873 22.5385 25.337 22.6701 23.9838 22.8673C22.5507 21.5634 21.3605 20.0281 20.4653 18.3304C21.1419 16.3578 21.6156 14.451 21.6156 13.0044C21.6156 11.8866 21.2096 10.1113 19.5857 10.1113C19.112 10.1113 18.7061 10.3743 18.4354 10.7689C17.7588 11.9524 18.0294 14.5825 19.315 17.3441C18.3759 19.9827 17.2452 22.5537 15.9319 25.0371C12.3457 26.4837 9.97751 28.0618 9.77452 29.311C9.63919 29.9028 10.0452 30.8891 11.4661 30.8891C13.5637 30.8891 15.8642 27.9302 17.6234 24.9056C19.654 24.2271 21.7353 23.6997 23.8484 23.3276C26.4196 25.4974 28.6525 25.8262 29.7351 25.8262C31.9004 25.8262 32.1034 24.3139 31.3591 23.5248ZM18.7737 10.9661C19.315 10.1771 20.533 10.4401 20.533 12.0181C20.533 13.0702 20.1946 14.7798 19.518 16.7523C18.3001 13.9907 18.3001 11.8209 18.7737 10.9661ZM10.1805 29.3768C10.3835 28.3248 12.4134 26.8782 15.5935 25.6289C13.8343 28.522 12.0751 30.3631 10.9925 30.3631C10.3158 30.3631 10.1128 29.7713 10.1805 29.3768ZM23.5101 22.9331C21.6034 23.2783 19.7264 23.7615 17.8941 24.3796C18.8955 22.6234 19.7115 20.7724 20.33 18.8564C21.2197 20.3332 22.2868 21.7022 23.5101 22.9331ZM24.3898 23.1961C26.555 22.8673 28.3819 22.9331 29.1938 23.0646C31.1561 23.4591 30.4794 25.7604 28.3142 25.2344C26.758 24.9056 25.4724 24.0509 24.3898 23.1961Z" fill="white"/>
<path fill-rule="evenodd" clip-rule="evenodd" d="M18.2705 10.6565C18.5697 10.2205 19.032 9.91211 19.5857 9.91211C20.4897 9.91211 21.0569 10.4145 21.3869 11.047C21.7117 11.6694 21.8156 12.4282 21.8156 13.0052C21.8156 14.4659 21.3459 16.3657 20.6826 18.3139C21.5475 19.9333 22.6851 21.4016 24.0489 22.6565C25.364 22.4665 26.4977 22.3393 27.57 22.3393C28.494 22.3393 29.3068 22.4223 29.9708 22.5921C30.6313 22.761 31.1637 23.0207 31.5052 23.389C31.9228 23.8322 32.0889 24.4942 31.8186 25.0586C31.5441 25.6316 30.8597 26.027 29.7352 26.027C28.6202 26.027 26.3719 25.6905 23.7915 23.5416C21.7443 23.9066 19.7274 24.4181 17.7583 25.0723C16.8838 26.5687 15.8739 28.0523 14.817 29.1698C13.7534 30.2944 12.6031 31.0899 11.4661 31.0899C10.7065 31.0899 10.1885 30.8241 9.88195 30.4494C9.58245 30.0832 9.49913 29.6288 9.57818 29.2735C9.6388 28.9111 9.8507 28.5464 10.1683 28.1878C10.4893 27.8253 10.9304 27.4553 11.4714 27.084C12.5398 26.3506 14.0188 25.5979 15.7892 24.8799C17.0708 22.4491 18.1769 19.9344 19.0992 17.3547C18.4694 15.9837 18.0851 14.6435 17.941 13.4903C17.7953 12.3248 17.8913 11.3185 18.2618 10.6704L18.2659 10.6633L18.2705 10.6565ZM18.3543 11.6032C18.2579 12.1001 18.2483 12.7235 18.3379 13.4407C18.4787 14.5679 18.8611 15.8958 19.4964 17.2605L19.531 17.3348L19.5035 17.4119C18.5611 20.0597 17.4265 22.6395 16.1087 25.1314L16.0745 25.196L16.0067 25.2234C15.547 25.4089 15.1078 25.5963 14.6913 25.7846C14.9584 25.6695 15.2349 25.5557 15.5205 25.4435L16.0728 25.2266L15.7645 25.7336C14.8802 27.1879 13.9918 28.3847 13.1831 29.2208C12.7788 29.6386 12.3901 29.971 12.0276 30.2001C11.6678 30.4274 11.3169 30.5639 10.9925 30.5639C10.7668 30.5639 10.579 30.5075 10.4286 30.4138C10.6616 30.5754 10.997 30.6899 11.4661 30.6899C12.4268 30.6899 13.4755 30.006 14.5264 28.895C15.5685 27.7931 16.5745 26.3121 17.4506 24.8059L17.4885 24.7406L17.5601 24.7167C19.6001 24.035 21.691 23.5053 23.8138 23.1314L23.906 23.1152L23.9775 23.1755C26.5093 25.3121 28.6953 25.6269 29.7352 25.6269C30.7759 25.6269 31.2756 25.2662 31.4578 24.8858C31.6441 24.497 31.5399 24.0087 31.2136 23.6629L31.2124 23.6615C30.9448 23.3727 30.4964 23.1394 29.8717 22.9797C29.2501 22.8207 28.4728 22.7393 27.57 22.7393C27.1502 22.7393 26.7194 22.7594 26.269 22.7957C27.5883 22.7146 28.6484 22.7744 29.2259 22.8679L29.2333 22.8691C29.7624 22.9754 30.1395 23.2164 30.3542 23.5324C30.5695 23.8493 30.6082 24.2239 30.4908 24.5612C30.253 25.2444 29.4199 25.7085 28.27 25.4302C26.6692 25.0913 25.3551 24.2138 24.2659 23.3538L23.9042 23.0683L23.9063 23.068L23.9039 23.0658L23.5458 23.1306C21.6486 23.4741 19.7811 23.955 17.9581 24.5699L17.4601 24.7379L17.7204 24.2813C18.715 22.537 19.5255 20.6987 20.1397 18.7958L20.2705 18.3905L20.2481 18.348L20.2762 18.2663C20.9513 16.298 21.4156 14.4172 21.4156 13.0052C21.4156 12.4644 21.3165 11.7767 21.0323 11.232C20.7533 10.6974 20.3056 10.3121 19.5857 10.3121C19.4038 10.3121 19.2313 10.3586 19.0745 10.4435C19.3445 10.311 19.6531 10.2968 19.9372 10.4223C20.4074 10.63 20.733 11.1831 20.733 12.0189C20.733 13.1029 20.3869 14.8366 19.7072 16.818L19.5414 17.3016L19.3351 16.8338C18.7185 15.4359 18.4077 14.1821 18.3124 13.1636C18.2562 12.5619 18.2743 12.0334 18.3543 11.6032ZM10.1376 30.1244C9.98175 29.8805 9.94236 29.5832 9.98342 29.3438L9.98412 29.3397C10.03 29.1024 10.1507 28.861 10.3289 28.6201C10.1228 28.8858 10.007 29.1282 9.97198 29.3439L9.96993 29.3565C9.92069 29.5718 9.96014 29.867 10.1376 30.1244ZM18.9441 11.0722C18.7387 11.45 18.6198 12.155 18.7107 13.1263C18.7905 13.9795 19.0306 15.0193 19.4961 16.1848C20.0572 14.4377 20.333 12.9507 20.333 12.0189C20.333 11.2767 20.0496 10.9093 19.7756 10.7882C19.5049 10.6687 19.1677 10.7529 18.9441 11.0722ZM20.385 19.3277C19.8353 20.9492 19.1443 22.5224 18.3193 24.0294C19.8865 23.5233 21.4848 23.1148 23.1054 22.8057C22.0804 21.7383 21.1694 20.5729 20.385 19.3277ZM24.8886 23.3288C25.8787 24.0718 27.0173 24.7568 28.3556 25.0395L28.3615 25.0407C29.3753 25.287 29.9619 24.8637 30.113 24.4297C30.1901 24.2082 30.1653 23.9663 30.0233 23.7572C29.8811 23.5478 29.608 23.3534 29.1581 23.2622C28.4267 23.1444 26.8256 23.0789 24.8886 23.3288ZM10.3773 29.4134C10.3514 29.5674 10.3795 29.761 10.4756 29.9105C10.5656 30.0503 10.722 30.1639 10.9925 30.1639C11.2094 30.1639 11.4844 30.0702 11.8139 29.8619C12.1407 29.6554 12.5048 29.3467 12.8956 28.9426C13.5805 28.2346 14.3342 27.2479 15.0991 26.046C13.7763 26.5998 12.6868 27.1821 11.8851 27.7416C11.4281 28.0605 11.0693 28.3688 10.8145 28.6565C10.5585 28.9454 10.419 29.2003 10.3773 29.4134Z" fill="white"/>
</g>
<defs>
<clipPath id="clip0_160_2270">
<rect width="41" height="41" fill="white"/>
</clipPath>
</defs>
</svg>
