<svg width="41" height="41" viewBox="0 0 41 41" fill="none" xmlns="http://www.w3.org/2000/svg">
<g clip-path="url(#clip0_160_2243)">
<path d="M0.75 10.502C0.75 4.97911 5.22715 0.501953 10.75 0.501953H30.75C36.2728 0.501953 40.75 4.97911 40.75 10.502V30.502C40.75 36.0248 36.2728 40.502 30.75 40.502H10.75C5.22715 40.502 0.75 36.0248 0.75 30.502V10.502Z" fill="#D24625"/>
<path d="M21.376 10.502H22.9148C22.9148 11.1997 22.9148 11.8974 22.9148 12.5951C25.8204 12.6095 28.7261 12.5712 31.6269 12.6047C32.2529 12.5521 32.7404 12.9679 32.6783 13.5031C32.7261 17.8472 32.6687 22.1913 32.7069 26.5402C32.6783 27.0085 32.7595 27.5294 32.4441 27.9452C32.0475 28.1937 31.5313 28.1603 31.0678 28.1794C28.3533 28.1698 25.6341 28.1746 22.9148 28.1746C22.9148 28.9488 22.9148 29.7278 22.9148 30.502H21.2231C17.0845 29.852 12.9363 29.2642 8.79297 28.6382C8.79297 23.214 8.79297 17.7899 8.79297 12.3658C12.9841 11.7445 17.1753 11.1137 21.376 10.502Z" fill="white"/>
<path d="M22.9152 13.293C25.902 13.293 28.8937 13.293 31.8805 13.293C31.8805 18.0194 31.8805 22.7506 31.8805 27.477C28.8937 27.477 25.902 27.477 22.9152 27.477C22.9152 26.8557 22.9152 26.2392 22.9152 25.6179C25.0896 25.6179 27.2593 25.6179 29.4337 25.6179C29.4337 25.3073 29.4337 24.9967 29.4337 24.686C27.2593 24.686 25.0896 24.686 22.9152 24.686C22.9152 24.2989 22.9152 23.9118 22.9152 23.5248C25.0896 23.5248 27.2593 23.5248 29.4337 23.5248C29.4337 23.2141 29.4337 22.9035 29.4337 22.5929C27.2593 22.5929 25.0896 22.5929 22.9152 22.5929C22.9104 22.1388 22.9104 21.6801 22.9104 21.2261C23.9857 21.5128 25.2091 21.5032 26.1744 20.9537C27.2163 20.428 27.7563 19.4196 27.8471 18.416C26.6523 18.4112 25.4624 18.4112 24.2724 18.4112C24.2676 17.3981 24.2867 16.3897 24.2485 15.3766C23.8041 15.4531 23.3596 15.5295 22.9152 15.6108C22.9152 14.8366 22.9152 14.0624 22.9152 13.293Z" fill="#D24625"/>
<path d="M24.817 14.8887C26.7047 14.9651 28.2913 16.3224 28.3917 17.9329C27.197 17.9424 26.007 17.9377 24.8123 17.9377C24.817 16.9245 24.8123 15.9066 24.817 14.8887Z" fill="white"/>
<path d="M13.1513 16.6479C14.628 16.71 16.4154 16.1461 17.634 17.0923C18.8049 18.3062 18.4942 20.5475 16.7595 21.2739C16.143 21.5415 15.4357 21.5081 14.7666 21.489C14.7619 22.397 14.7619 23.305 14.7619 24.2178C14.2218 24.1795 13.6818 24.1365 13.1466 24.1031C13.1227 21.6132 13.1179 19.1282 13.1513 16.6479Z" fill="#D24625"/>
<path d="M14.7673 17.9046C15.3025 17.8855 15.9668 17.7995 16.3252 18.2296C16.6358 18.6836 16.6167 19.2857 16.3587 19.7541C16.048 20.232 15.3503 20.1842 14.8055 20.2415C14.7529 19.4625 14.7577 18.6836 14.7673 17.9046Z" fill="white"/>
</g>
<defs>
<clipPath id="clip0_160_2243">
<rect width="41" height="41" fill="white"/>
</clipPath>
</defs>
</svg>
