<svg width="17" height="17" viewBox="0 0 17 17" fill="none" xmlns="http://www.w3.org/2000/svg">
<path fill-rule="evenodd" clip-rule="evenodd" d="M3.2716 3.02145C3.46686 2.82618 3.78344 2.82618 3.9787 3.02145L14.2278 13.2706C14.4231 13.4658 14.4231 13.7824 14.2278 13.9777C14.0326 14.173 13.716 14.173 13.5207 13.9777L3.2716 3.72855C3.07634 3.53329 3.07634 3.21671 3.2716 3.02145Z" fill="#555555"/>
<path fill-rule="evenodd" clip-rule="evenodd" d="M14.2277 3.02151C14.423 3.21677 14.423 3.53335 14.2277 3.72862L3.97855 13.9778C3.78329 14.173 3.46671 14.173 3.27145 13.9778C3.07618 13.7825 3.07618 13.4659 3.27145 13.2706L13.5206 3.02151C13.7158 2.82625 14.0324 2.82625 14.2277 3.02151Z" fill="#555555"/>
</svg>
