<svg width="41" height="41" viewBox="0 0 41 41" fill="none" xmlns="http://www.w3.org/2000/svg">
<path d="M0.75 10.502C0.75 4.97911 5.22715 0.501953 10.75 0.501953H30.75C36.2728 0.501953 40.75 4.97911 40.75 10.502V30.502C40.75 36.0248 36.2728 40.502 30.75 40.502H10.75C5.22715 40.502 0.75 36.0248 0.75 30.502V10.502Z" fill="#5B90F3"/>
<path fill-rule="evenodd" clip-rule="evenodd" d="M30.7497 12.7012H12.9497V30.5012L30.7497 30.5012L30.7497 12.7012ZM12.9497 11.7012C12.3974 11.7012 11.9497 12.1489 11.9497 12.7012V30.5012C11.9497 31.0535 12.3974 31.5012 12.9497 31.5012H30.7497C31.302 31.5012 31.7497 31.0535 31.7497 30.5012V12.7012C31.7497 12.1489 31.302 11.7012 30.7497 11.7012H12.9497Z" fill="white"/>
<path d="M9.75 10.875C9.75 10.3227 10.1977 9.875 10.75 9.875H28.55C29.1023 9.875 29.55 10.3227 29.55 10.875V28.675C29.55 29.2273 29.1023 29.675 28.55 29.675H10.75C10.1977 29.675 9.75 29.2273 9.75 28.675V10.875Z" fill="white"/>
<rect x="13.8982" y="14.6953" width="11.5034" height="1.3" rx="0.65" fill="#5B90F3"/>
<rect x="13.8982" y="17.623" width="11.5034" height="1.3" rx="0.65" fill="#5B90F3"/>
<rect x="13.8982" y="20.502" width="8.4458" height="1.3" rx="0.65" fill="#5B90F3"/>
<rect x="13.8982" y="23.3809" width="5.51758" height="1.3" rx="0.65" fill="#5B90F3"/>
</svg>
