<svg width="41" height="41" viewBox="0 0 41 41" fill="none" xmlns="http://www.w3.org/2000/svg">
<g clip-path="url(#clip0_160_2317)">
<path d="M0.75 10.502C0.75 4.97911 5.22715 0.501953 10.75 0.501953H30.75C36.2728 0.501953 40.75 4.97911 40.75 10.502V30.502C40.75 36.0248 36.2728 40.502 30.75 40.502H10.75C5.22715 40.502 0.75 36.0248 0.75 30.502V10.502Z" fill="#5B90F3"/>
<path fill-rule="evenodd" clip-rule="evenodd" d="M30.7497 12.7012H12.9497V30.5012H30.7497V12.7012ZM12.9497 11.7012C12.3974 11.7012 11.9497 12.1489 11.9497 12.7012V30.5012C11.9497 31.0535 12.3974 31.5012 12.9497 31.5012H30.7497C31.302 31.5012 31.7497 31.0535 31.7497 30.5012V12.7012C31.7497 12.1489 31.302 11.7012 30.7497 11.7012H12.9497Z" fill="white"/>
<path d="M9.75 10.875C9.75 10.3227 10.1977 9.875 10.75 9.875H28.55C29.1023 9.875 29.55 10.3227 29.55 10.875V28.675C29.55 29.2273 29.1023 29.675 28.55 29.675H10.75C10.1977 29.675 9.75 29.2273 9.75 28.675V10.875Z" fill="white"/>
<path d="M24.7516 14.6953H14.5482C14.1892 14.6953 13.8982 14.9863 13.8982 15.3453C13.8982 15.7043 14.1892 15.9953 14.5482 15.9953H24.7516C25.1106 15.9953 25.4016 15.7043 25.4016 15.3453C25.4016 14.9863 25.1106 14.6953 24.7516 14.6953Z" fill="#5B90F3"/>
<path d="M24.7516 17.623H14.5482C14.1892 17.623 13.8982 17.9141 13.8982 18.273C13.8982 18.632 14.1892 18.923 14.5482 18.923H24.7516C25.1106 18.923 25.4016 18.632 25.4016 18.273C25.4016 17.9141 25.1106 17.623 24.7516 17.623Z" fill="#5B90F3"/>
<path d="M21.694 20.502H14.5482C14.1892 20.502 13.8982 20.793 13.8982 21.152C13.8982 21.5109 14.1892 21.802 14.5482 21.802H21.694C22.053 21.802 22.344 21.5109 22.344 21.152C22.344 20.793 22.053 20.502 21.694 20.502Z" fill="#5B90F3"/>
<path d="M18.7658 23.3809H14.5482C14.1892 23.3809 13.8982 23.6719 13.8982 24.0309C13.8982 24.3898 14.1892 24.6809 14.5482 24.6809H18.7658C19.1248 24.6809 19.4158 24.3898 19.4158 24.0309C19.4158 23.6719 19.1248 23.3809 18.7658 23.3809Z" fill="#5B90F3"/>
</g>
<defs>
<clipPath id="clip0_160_2317">
<rect width="41" height="41" fill="white"/>
</clipPath>
</defs>
</svg>
