<svg width="40" height="40" viewBox="0 0 40 40" fill="none" xmlns="http://www.w3.org/2000/svg">
<path d="M0 10.002C0 4.47911 4.47715 0.00195312 10 0.00195312H30C35.5228 0.00195312 40 4.47911 40 10.002V30.002C40 35.5248 35.5228 40.002 30 40.002H10C4.47715 40.002 0 35.5248 0 30.002V10.002Z" fill="#1E7145"/>
<path d="M30.9079 11.861H30.4587C30.4109 11.861 30.3631 11.861 30.3201 11.8562C28.9868 11.861 27.6582 11.861 26.3249 11.861H22.1624C22.1624 11.2397 22.1624 10.6232 22.1624 10.002H20.5471C16.3798 10.6328 12.2126 11.2445 8.04053 11.8658C8.04053 17.2899 8.04053 22.714 8.04053 28.1429C12.1839 28.7642 16.332 29.3568 20.4754 30.002H22.1624C22.1624 29.3042 22.1624 28.6065 22.1624 27.9088C24.9772 27.904 27.7968 27.9183 30.6116 27.9088C30.6307 27.9088 30.6498 27.9088 30.669 27.9088H30.9127C31.4909 27.9088 31.9593 27.4404 31.9593 26.8622V12.9028C31.9545 12.3293 31.4862 11.861 30.9079 11.861Z" fill="white"/>
<path d="M22.1626 12.5586C25.1495 12.5586 28.1411 12.5586 31.128 12.5586C31.128 17.4427 31.128 22.3268 31.128 27.2061C28.1411 27.2061 25.1495 27.2061 22.1626 27.2061C22.1626 26.7426 22.1626 26.2742 22.1626 25.8107C22.889 25.8107 23.6106 25.8107 24.337 25.8107C24.337 25.2707 24.337 24.7259 24.337 24.1811C23.6106 24.1811 22.889 24.1811 22.1626 24.1811C22.1626 23.8704 22.1626 23.5598 22.1626 23.2492C22.889 23.2492 23.6106 23.2492 24.337 23.2492C24.337 22.7091 24.337 22.1643 24.337 21.6195C23.6106 21.6195 22.889 21.6195 22.1626 21.6195C22.1626 21.3089 22.1626 20.9983 22.1626 20.6876C22.889 20.6876 23.6106 20.6876 24.337 20.6876C24.337 20.1476 24.337 19.6028 24.337 19.058C23.6106 19.058 22.889 19.058 22.1626 19.058C22.1626 18.7474 22.1626 18.4367 22.1626 18.1261C22.889 18.1261 23.6106 18.1261 24.337 18.1261C24.337 17.5861 24.337 17.0413 24.337 16.4965C23.6106 16.4965 22.889 16.4965 22.1626 16.4965C22.1626 16.1858 22.1626 15.8752 22.1626 15.5646C22.889 15.5646 23.6106 15.5646 24.337 15.5646C24.337 15.0245 24.337 14.4797 24.337 13.9349C23.6106 13.9349 22.889 13.9349 22.1626 13.9349C22.1626 13.4905 22.1626 13.0269 22.1626 12.5586Z" fill="#1E7145"/>
<path d="M25.4214 13.9551C26.6878 13.9551 27.9542 13.9551 29.2255 13.9551C29.2255 14.4951 29.2255 15.0399 29.2255 15.5847C27.959 15.5847 26.6926 15.5847 25.4214 15.5847C25.4214 15.0399 25.4214 14.4999 25.4214 13.9551Z" fill="white"/>
<path d="M16.0887 16.1327C16.7004 16.0945 17.3169 16.061 17.9382 16.0371C17.2118 17.3083 16.4854 18.5795 15.7446 19.8507C16.4901 21.1506 17.2548 22.4457 18.0051 23.7456C17.3504 23.7121 16.7004 23.6787 16.0457 23.6405C15.5821 22.6703 15.023 21.7336 14.6885 20.7205C14.3205 21.6667 13.79 22.5556 13.3695 23.4827C12.7769 23.478 12.1795 23.4541 11.5869 23.435C12.2846 22.2641 12.9585 21.0885 13.6801 19.9224C13.0684 18.7229 12.3993 17.552 11.7685 16.3621C12.3659 16.3334 12.9633 16.3 13.5606 16.2761C13.9668 17.1841 14.4065 18.0825 14.741 19.0144C15.0947 18.0204 15.6299 17.0885 16.0887 16.1327Z" fill="#1E7145"/>
<path d="M25.4214 16.5117C26.6878 16.5117 27.9542 16.5117 29.2255 16.5117C29.2255 17.0517 29.2255 17.5965 29.2255 18.1413C27.959 18.1413 26.6926 18.1413 25.4214 18.1413C25.4214 17.6013 25.4214 17.0565 25.4214 16.5117Z" fill="white"/>
<path d="M25.4214 19.0723C26.6878 19.0723 27.9542 19.0723 29.2255 19.0723C29.2255 19.6123 29.2255 20.1571 29.2255 20.7019C27.959 20.7019 26.6926 20.7019 25.4214 20.7019C25.4214 20.1571 25.4214 19.6123 25.4214 19.0723Z" fill="white"/>
<path d="M25.4214 21.6289C26.6878 21.6289 27.9542 21.6289 29.2255 21.6289C29.2255 22.1689 29.2255 22.7137 29.2255 23.2585C27.959 23.2585 26.6926 23.2585 25.4214 23.2585C25.4214 22.7137 25.4214 22.1689 25.4214 21.6289Z" fill="white"/>
<path d="M25.4214 24.1855C26.6878 24.1855 27.9542 24.1855 29.2255 24.1855C29.2255 24.7256 29.2255 25.2704 29.2255 25.8152C27.959 25.8152 26.6926 25.8152 25.4214 25.8152C25.4214 25.2704 25.4214 24.7303 25.4214 24.1855Z" fill="white"/>
</svg>
