<svg width="41" height="41" viewBox="0 0 41 41" fill="none" xmlns="http://www.w3.org/2000/svg">
<g clip-path="url(#clip0_160_2260)">
<path d="M0.75 10.502C0.75 4.97911 5.22715 0.501953 10.75 0.501953H30.75C36.2728 0.501953 40.75 4.97911 40.75 10.502V30.502C40.75 36.0248 36.2728 40.502 30.75 40.502H10.75C5.22715 40.502 0.75 36.0248 0.75 30.502V10.502Z" fill="#1E7145"/>
<path d="M31.6579 12.361H31.2087C31.1609 12.361 31.1131 12.361 31.0701 12.3562C29.7368 12.361 28.4082 12.361 27.0749 12.361H22.9124C22.9124 11.7397 22.9124 11.1232 22.9124 10.502H21.2971C17.1298 11.1328 12.9626 11.7445 8.79053 12.3658C8.79053 17.7899 8.79053 23.214 8.79053 28.6429C12.9339 29.2642 17.082 29.8568 21.2254 30.502H22.9124C22.9124 29.8042 22.9124 29.1065 22.9124 28.4088C25.7272 28.404 28.5468 28.4183 31.3616 28.4088C31.3807 28.4088 31.3998 28.4088 31.419 28.4088H31.6627C32.2409 28.4088 32.7093 27.9404 32.7093 27.3622V13.4028C32.7045 12.8293 32.2362 12.361 31.6579 12.361Z" fill="white"/>
<path d="M22.9126 13.0586C25.8995 13.0586 28.8911 13.0586 31.878 13.0586C31.878 17.9427 31.878 22.8268 31.878 27.7061C28.8911 27.7061 25.8995 27.7061 22.9126 27.7061C22.9126 27.2426 22.9126 26.7742 22.9126 26.3107C23.639 26.3107 24.3606 26.3107 25.087 26.3107C25.087 25.7707 25.087 25.2259 25.087 24.6811C24.3606 24.6811 23.639 24.6811 22.9126 24.6811C22.9126 24.3704 22.9126 24.0598 22.9126 23.7492C23.639 23.7492 24.3606 23.7492 25.087 23.7492C25.087 23.2091 25.087 22.6643 25.087 22.1195C24.3606 22.1195 23.639 22.1195 22.9126 22.1195C22.9126 21.8089 22.9126 21.4983 22.9126 21.1876C23.639 21.1876 24.3606 21.1876 25.087 21.1876C25.087 20.6476 25.087 20.1028 25.087 19.558C24.3606 19.558 23.639 19.558 22.9126 19.558C22.9126 19.2474 22.9126 18.9367 22.9126 18.6261C23.639 18.6261 24.3606 18.6261 25.087 18.6261C25.087 18.0861 25.087 17.5413 25.087 16.9965C24.3606 16.9965 23.639 16.9965 22.9126 16.9965C22.9126 16.6858 22.9126 16.3752 22.9126 16.0646C23.639 16.0646 24.3606 16.0646 25.087 16.0646C25.087 15.5245 25.087 14.9797 25.087 14.4349C24.3606 14.4349 23.639 14.4349 22.9126 14.4349C22.9126 13.9905 22.9126 13.5269 22.9126 13.0586Z" fill="#1E7145"/>
<path d="M26.1714 14.4551C27.4378 14.4551 28.7042 14.4551 29.9755 14.4551C29.9755 14.9951 29.9755 15.5399 29.9755 16.0847C28.709 16.0847 27.4426 16.0847 26.1714 16.0847C26.1714 15.5399 26.1714 14.9999 26.1714 14.4551Z" fill="white"/>
<path d="M16.8387 16.6327C17.4504 16.5945 18.0669 16.561 18.6882 16.5371C17.9618 17.8083 17.2354 19.0795 16.4946 20.3507C17.2401 21.6506 18.0048 22.9457 18.7551 24.2456C18.1004 24.2121 17.4504 24.1787 16.7957 24.1405C16.3321 23.1703 15.773 22.2336 15.4385 21.2205C15.0705 22.1667 14.54 23.0556 14.1195 23.9827C13.5269 23.978 12.9295 23.9541 12.3369 23.935C13.0346 22.7641 13.7085 21.5885 14.4301 20.4224C13.8184 19.2229 13.1493 18.052 12.5185 16.8621C13.1159 16.8334 13.7133 16.8 14.3106 16.7761C14.7168 17.6841 15.1565 18.5825 15.491 19.5144C15.8447 18.5204 16.3799 17.5885 16.8387 16.6327Z" fill="#1E7145"/>
<path d="M26.1714 17.0117C27.4378 17.0117 28.7042 17.0117 29.9755 17.0117C29.9755 17.5517 29.9755 18.0965 29.9755 18.6413C28.709 18.6413 27.4426 18.6413 26.1714 18.6413C26.1714 18.1013 26.1714 17.5565 26.1714 17.0117Z" fill="white"/>
<path d="M26.1714 19.5723C27.4378 19.5723 28.7042 19.5723 29.9755 19.5723C29.9755 20.1123 29.9755 20.6571 29.9755 21.2019C28.709 21.2019 27.4426 21.2019 26.1714 21.2019C26.1714 20.6571 26.1714 20.1123 26.1714 19.5723Z" fill="white"/>
<path d="M26.1714 22.1289C27.4378 22.1289 28.7042 22.1289 29.9755 22.1289C29.9755 22.6689 29.9755 23.2137 29.9755 23.7585C28.709 23.7585 27.4426 23.7585 26.1714 23.7585C26.1714 23.2137 26.1714 22.6689 26.1714 22.1289Z" fill="white"/>
<path d="M26.1714 24.6855C27.4378 24.6855 28.7042 24.6855 29.9755 24.6855C29.9755 25.2256 29.9755 25.7704 29.9755 26.3152C28.709 26.3152 27.4426 26.3152 26.1714 26.3152C26.1714 25.7704 26.1714 25.2303 26.1714 24.6855Z" fill="white"/>
</g>
<defs>
<clipPath id="clip0_160_2260">
<rect width="41" height="41" fill="white"/>
</clipPath>
</defs>
</svg>
