<svg width="41" height="41" viewBox="0 0 41 41" fill="none" xmlns="http://www.w3.org/2000/svg">
<g clip-path="url(#clip0_160_2344)">
<path d="M0.75 10.502C0.75 4.97911 5.22715 0.501953 10.75 0.501953H30.75C36.2728 0.501953 40.75 4.97911 40.75 10.502V30.502C40.75 36.0248 36.2728 40.502 30.75 40.502H10.75C5.22715 40.502 0.75 36.0248 0.75 30.502V10.502Z" fill="#FFC700"/>
<path fill-rule="evenodd" clip-rule="evenodd" d="M29.0996 12.7012H14.5996V30.5012H29.0996V12.7012ZM14.5996 11.7012C14.0473 11.7012 13.5996 12.1489 13.5996 12.7012V30.5012C13.5996 31.0535 14.0473 31.5012 14.5996 31.5012H29.0996C29.6519 31.5012 30.0996 31.0535 30.0996 30.5012V12.7012C30.0996 12.1489 29.6519 11.7012 29.0996 11.7012H14.5996Z" fill="white"/>
<path d="M11.3999 10.502C11.3999 9.94967 11.8476 9.50195 12.3999 9.50195H26.8999C27.4522 9.50195 27.8999 9.94967 27.8999 10.502V28.302C27.8999 28.8542 27.4522 29.302 26.8999 29.302H12.3999C11.8476 29.302 11.3999 28.8542 11.3999 28.302V10.502Z" fill="white"/>
<path fill-rule="evenodd" clip-rule="evenodd" d="M18.1007 9.50195C18.0455 9.50195 18.0007 9.54672 18.0007 9.60195V10.502C18.0007 10.5572 18.0455 10.602 18.1007 10.602H19.0999V10.702V11.602V11.702H18.1005C18.0453 11.702 18.0005 11.7468 18.0005 11.802V12.702C18.0005 12.7572 18.0453 12.802 18.1005 12.802H19.0999V12.902V13.802V13.9019H18.1005C18.0453 13.9019 18.0005 13.9467 18.0005 14.0019V14.9019C18.0005 14.9572 18.0453 15.0019 18.1005 15.0019H19.0999V15.102V16.002V16.102H18.1005C18.0453 16.102 18.0005 16.1467 18.0005 16.202V17.102C18.0005 17.1572 18.0453 17.202 18.1005 17.202H19.0999V17.302V18.202V18.3019H18.1005C18.0453 18.3019 18.0005 18.3467 18.0005 18.4019V19.3019C18.0005 19.3571 18.0453 19.4019 18.1005 19.4019H19.0999V21.502C19.0999 21.5572 19.1447 21.602 19.1999 21.602H20.0999C20.1552 21.602 20.1999 21.5572 20.1999 21.502V19.3126C20.2003 19.3091 20.2005 19.3055 20.2005 19.3019V18.4019C20.2005 18.3983 20.2003 18.3948 20.1999 18.3913V18.302H21.1999C21.2552 18.302 21.2999 18.2572 21.2999 18.202V17.302C21.2999 17.2468 21.2552 17.202 21.1999 17.202H20.1999V17.1126C20.2003 17.1091 20.2005 17.1056 20.2005 17.102V16.202C20.2005 16.1984 20.2003 16.1948 20.1999 16.1913V16.102H21.1999C21.2552 16.102 21.2999 16.0572 21.2999 16.002V15.102C21.2999 15.0467 21.2552 15.002 21.1999 15.002H20.1999V14.9126C20.2003 14.9091 20.2005 14.9055 20.2005 14.9019V14.0019C20.2005 13.9983 20.2003 13.9948 20.1999 13.9913V13.902H21.1999C21.2552 13.902 21.2999 13.8572 21.2999 13.802V12.902C21.2999 12.8467 21.2552 12.802 21.1999 12.802H20.1999V12.7127C20.2003 12.7092 20.2005 12.7056 20.2005 12.702V11.802C20.2005 11.7984 20.2003 11.7948 20.1999 11.7913V11.702H21.1999C21.2552 11.702 21.2999 11.6572 21.2999 11.602V10.702C21.2999 10.6467 21.2552 10.602 21.1999 10.602H20.1999V10.5144C20.2004 10.5104 20.2007 10.5062 20.2007 10.502V9.60195C20.2007 9.54672 20.1559 9.50195 20.1007 9.50195H19.1999H18.1007Z" fill="#FFC700"/>
<path fill-rule="evenodd" clip-rule="evenodd" d="M19.6499 25.002C20.6164 25.002 21.3999 24.2185 21.3999 23.252C21.3999 22.2855 20.6164 21.502 19.6499 21.502C18.6834 21.502 17.8999 22.2855 17.8999 23.252C17.8999 24.2185 18.6834 25.002 19.6499 25.002ZM19.6499 26.002C21.1687 26.002 22.3999 24.7707 22.3999 23.252C22.3999 21.7332 21.1687 20.502 19.6499 20.502C18.1311 20.502 16.8999 21.7332 16.8999 23.252C16.8999 24.7707 18.1311 26.002 19.6499 26.002Z" fill="#FFC700"/>
</g>
<defs>
<clipPath id="clip0_160_2344">
<rect width="41" height="41" fill="white"/>
</clipPath>
</defs>
</svg>
