<svg width="40" height="40" viewBox="0 0 40 40" fill="none" xmlns="http://www.w3.org/2000/svg">
<path d="M0 10.002C0 4.47911 4.47715 0.00195312 10 0.00195312H30C35.5228 0.00195312 40 4.47911 40 10.002V30.002C40 35.5248 35.5228 40.002 30 40.002H10C4.47715 40.002 0 35.5248 0 30.002V10.002Z" fill="#FFC700"/>
<path fill-rule="evenodd" clip-rule="evenodd" d="M28.3496 12.2012H13.8496L13.8496 30.0012L28.3496 30.0012L28.3496 12.2012ZM13.8496 11.2012C13.2973 11.2012 12.8496 11.6489 12.8496 12.2012V30.0012C12.8496 30.5535 13.2973 31.0012 13.8496 31.0012H28.3496C28.9019 31.0012 29.3496 30.5535 29.3496 30.0012V12.2012C29.3496 11.6489 28.9019 11.2012 28.3496 11.2012H13.8496Z" fill="white"/>
<path d="M10.6499 10.002C10.6499 9.44967 11.0976 9.00195 11.6499 9.00195H26.1499C26.7022 9.00195 27.1499 9.44967 27.1499 10.002V27.802C27.1499 28.3542 26.7022 28.802 26.1499 28.802H11.6499C11.0976 28.802 10.6499 28.3542 10.6499 27.802V10.002Z" fill="white"/>
<path fill-rule="evenodd" clip-rule="evenodd" d="M17.3507 9.00195C17.2955 9.00195 17.2507 9.04672 17.2507 9.10195V10.002C17.2507 10.0572 17.2955 10.102 17.3507 10.102H18.3499V10.202V11.102V11.202H17.3505C17.2953 11.202 17.2505 11.2468 17.2505 11.302V12.202C17.2505 12.2572 17.2953 12.302 17.3505 12.302H18.3499V12.402V13.302V13.4019H17.3505C17.2953 13.4019 17.2505 13.4467 17.2505 13.5019V14.4019C17.2505 14.4572 17.2953 14.5019 17.3505 14.5019H18.3499V14.602V15.502V15.602H17.3505C17.2953 15.602 17.2505 15.6467 17.2505 15.702V16.602C17.2505 16.6572 17.2953 16.702 17.3505 16.702H18.3499V16.802V17.702V17.8019H17.3505C17.2953 17.8019 17.2505 17.8467 17.2505 17.9019V18.8019C17.2505 18.8571 17.2953 18.9019 17.3505 18.9019H18.3499V21.002C18.3499 21.0572 18.3947 21.102 18.4499 21.102H19.3499C19.4052 21.102 19.4499 21.0572 19.4499 21.002V18.8126C19.4503 18.8091 19.4505 18.8055 19.4505 18.8019V17.9019C19.4505 17.8983 19.4503 17.8948 19.4499 17.8913V17.802H20.4499C20.5052 17.802 20.5499 17.7572 20.5499 17.702V16.802C20.5499 16.7468 20.5052 16.702 20.4499 16.702H19.4499V16.6126C19.4503 16.6091 19.4505 16.6056 19.4505 16.602V15.702C19.4505 15.6984 19.4503 15.6948 19.4499 15.6913V15.602H20.4499C20.5052 15.602 20.5499 15.5572 20.5499 15.502V14.602C20.5499 14.5467 20.5052 14.502 20.4499 14.502H19.4499V14.4126C19.4503 14.4091 19.4505 14.4055 19.4505 14.4019V13.5019C19.4505 13.4983 19.4503 13.4948 19.4499 13.4913V13.402H20.4499C20.5052 13.402 20.5499 13.3572 20.5499 13.302V12.402C20.5499 12.3467 20.5052 12.302 20.4499 12.302H19.4499V12.2127C19.4503 12.2092 19.4505 12.2056 19.4505 12.202V11.302C19.4505 11.2984 19.4503 11.2948 19.4499 11.2913V11.202H20.4499C20.5052 11.202 20.5499 11.1572 20.5499 11.102V10.202C20.5499 10.1467 20.5052 10.102 20.4499 10.102H19.4499V10.0144C19.4504 10.0104 19.4507 10.0062 19.4507 10.002V9.10195C19.4507 9.04672 19.4059 9.00195 19.3507 9.00195H19.3499H18.4499H17.3507Z" fill="#FFC700"/>
<path fill-rule="evenodd" clip-rule="evenodd" d="M18.8999 24.502C19.8664 24.502 20.6499 23.7185 20.6499 22.752C20.6499 21.7855 19.8664 21.002 18.8999 21.002C17.9334 21.002 17.1499 21.7855 17.1499 22.752C17.1499 23.7185 17.9334 24.502 18.8999 24.502ZM18.8999 25.502C20.4187 25.502 21.6499 24.2707 21.6499 22.752C21.6499 21.2332 20.4187 20.002 18.8999 20.002C17.3811 20.002 16.1499 21.2332 16.1499 22.752C16.1499 24.2707 17.3811 25.502 18.8999 25.502Z" fill="#FFC700"/>
</svg>
