<svg width="16" height="14" viewBox="0 0 16 14" fill="none" xmlns="http://www.w3.org/2000/svg">
<path d="M6.39999 12.9199C5.1326 12.9195 3.89427 12.5402 2.84399 11.8309C1.78928 11.1181 0.969168 10.109 0.486991 8.93089C0.0026387 7.75036 -0.123927 6.45348 0.123039 5.20158C0.370004 3.94969 0.979601 2.79803 1.87599 1.88989C2.54288 1.21556 3.35199 0.698735 4.2442 0.377166C5.13642 0.0555969 6.0892 -0.062591 7.03295 0.031237C7.97669 0.125065 8.88755 0.428539 9.69899 0.919487C10.5104 1.41043 11.2019 2.07646 11.723 2.86889C12.5453 4.11445 12.9145 5.60477 12.7689 7.09016C12.6233 8.57555 11.9716 9.96577 10.923 11.0279C10.3315 11.6264 9.62717 12.1018 8.85084 12.4265C8.0745 12.7513 7.24151 12.919 6.39999 12.9199ZM6.39999 1.07389C5.34402 1.0743 4.31225 1.39013 3.43699 1.98089C2.55863 2.57492 1.87564 3.41553 1.47399 4.39689C1.06979 5.3807 0.963868 6.46167 1.16942 7.50523C1.37496 8.54879 1.8829 9.50884 2.62999 10.2659C3.18567 10.828 3.85993 11.2588 4.60349 11.5269C5.34704 11.795 6.14111 11.8935 6.92763 11.8153C7.71416 11.7371 8.47327 11.4841 9.14947 11.0748C9.82568 10.6656 10.4019 10.1104 10.836 9.44989C11.5229 8.41256 11.8319 7.17049 11.7111 5.93224C11.5904 4.69399 11.0473 3.535 10.173 2.64989C9.67955 2.15075 9.09201 1.75445 8.44437 1.48393C7.79673 1.2134 7.10186 1.07404 6.39999 1.07389Z" fill="#40648F"/>
<path d="M15.468 13.9969C15.3524 13.9967 15.24 13.9588 15.148 13.8889L10.881 10.6579C10.8249 10.6155 10.7777 10.5625 10.742 10.5019C10.6877 10.4098 10.6618 10.3038 10.6675 10.197C10.6732 10.0903 10.7102 9.98762 10.774 9.90186C10.8158 9.84543 10.8683 9.79782 10.9285 9.76178C10.9888 9.72574 11.0555 9.70198 11.125 9.69186C11.195 9.68096 11.2664 9.6842 11.3351 9.70137C11.4038 9.71855 11.4684 9.74932 11.525 9.79186L15.792 13.0229C15.865 13.0782 15.9227 13.1511 15.9597 13.2349C15.9967 13.3186 16.0119 13.4104 16.0037 13.5016C15.9955 13.5928 15.9642 13.6804 15.9128 13.7562C15.8615 13.832 15.7917 13.8935 15.71 13.9349C15.6355 13.9746 15.5525 13.9958 15.468 13.9969Z" fill="#40648F"/>
<path d="M8.53501 5.91986H4.26801V6.99686H8.53501V5.91986Z" fill="#40648F"/>
</svg>
