<svg width="16" height="14" viewBox="0 0 16 14" fill="none" xmlns="http://www.w3.org/2000/svg">
<path d="M6.39999 12.9209C5.1326 12.9205 3.89427 12.5412 2.84399 11.8319C1.78928 11.1191 0.969168 10.11 0.486991 8.93186C0.0026387 7.75134 -0.123927 6.45446 0.123039 5.20256C0.370004 3.95066 0.979601 2.79901 1.87599 1.89087C2.54288 1.21654 3.35199 0.699712 4.2442 0.378143C5.13642 0.0565735 6.0892 -0.0616145 7.03295 0.0322136C7.97669 0.126042 8.88755 0.429516 9.69899 0.920464C10.5104 1.41141 11.2019 2.07743 11.723 2.86987C12.5453 4.11543 12.9145 5.60575 12.7689 7.09114C12.6233 8.57653 11.9716 9.96674 10.923 11.0289C10.3315 11.6274 9.62717 12.1028 8.85084 12.4275C8.0745 12.7523 7.24151 12.9199 6.39999 12.9209ZM6.39999 1.07487C5.34402 1.07527 4.31225 1.39111 3.43699 1.98187C2.55863 2.5759 1.87564 3.4165 1.47399 4.39787C1.06979 5.38168 0.963868 6.46264 1.16942 7.5062C1.37496 8.54976 1.8829 9.50982 2.62999 10.2669C3.18567 10.829 3.85993 11.2598 4.60349 11.5279C5.34704 11.7959 6.14111 11.8945 6.92763 11.8163C7.71416 11.738 8.47327 11.4851 9.14947 11.0758C9.82568 10.6666 10.4019 10.1114 10.836 9.45086C11.5229 8.41354 11.8319 7.17146 11.7111 5.93322C11.5904 4.69497 11.0473 3.53597 10.173 2.65087C9.67955 2.15173 9.09201 1.75542 8.44437 1.4849C7.79673 1.21438 7.10186 1.07501 6.39999 1.07487Z" fill="#0184BF"/>
<path d="M15.468 13.9978C15.3524 13.9977 15.24 13.9598 15.148 13.8898L10.881 10.6588C10.8249 10.6165 10.7777 10.5635 10.742 10.5028C10.6877 10.4108 10.6618 10.3047 10.6675 10.198C10.6732 10.0913 10.7102 9.9886 10.774 9.90284C10.8158 9.84641 10.8683 9.7988 10.9285 9.76276C10.9888 9.72672 11.0555 9.70295 11.125 9.69284C11.195 9.68194 11.2664 9.68517 11.3351 9.70235C11.4038 9.71952 11.4684 9.75029 11.525 9.79284L15.792 13.0238C15.865 13.0791 15.9227 13.1521 15.9597 13.2358C15.9967 13.3196 16.0119 13.4114 16.0037 13.5026C15.9955 13.5938 15.9642 13.6814 15.9128 13.7572C15.8615 13.8329 15.7917 13.8944 15.71 13.9358C15.6355 13.9755 15.5525 13.9968 15.468 13.9978Z" fill="#0184BF"/>
<path d="M8.53501 5.92084H4.26801V6.99784H8.53501V5.92084Z" fill="#0184BF"/>
</svg>
