<svg width="16" height="14" viewBox="0 0 16 14" fill="none" xmlns="http://www.w3.org/2000/svg">
<path d="M6.39969 12.9208C5.13263 12.9204 3.89463 12.5411 2.84469 11.8318C1.78998 11.119 0.969869 10.11 0.487692 8.93184C0.0030061 7.75135 -0.123928 6.45441 0.122679 5.20235C0.369287 3.95029 0.978552 2.79836 1.87469 1.88984C2.54139 1.21554 3.35034 0.698718 4.2424 0.377155C5.13446 0.0555916 6.0871 -0.0625925 7.03069 0.0312398C7.97428 0.125072 8.88499 0.42855 9.69626 0.919494C10.5075 1.41044 11.1988 2.07644 11.7197 2.86884C12.5418 4.11446 12.911 5.60474 12.7653 7.09008C12.6197 8.57542 11.9681 9.96562 10.9197 11.0278C10.3286 11.6262 9.62488 12.1016 8.84907 12.4265C8.07327 12.7514 7.24078 12.9194 6.39969 12.9208ZM6.39969 1.07484C5.34406 1.07544 4.31267 1.39127 3.43769 1.98184C2.55896 2.57572 1.87561 3.41634 1.47369 4.39784C1.06984 5.38154 0.964098 6.46227 1.16963 7.5056C1.37517 8.54893 1.88291 9.50881 2.62969 10.2658C3.1849 10.8277 3.85868 11.2583 4.60175 11.5263C5.34482 11.7942 6.13838 11.8927 6.9244 11.8145C7.71042 11.7363 8.46902 11.4833 9.14471 11.0742C9.8204 10.6651 10.3961 10.1101 10.8297 9.44984C11.5164 8.41245 11.8253 7.17041 11.7046 5.93222C11.5838 4.69402 11.0408 3.53504 10.1667 2.64984C9.67392 2.15155 9.08731 1.75582 8.44075 1.48549C7.79419 1.21516 7.10049 1.07559 6.39969 1.07484Z" fill="#40648F"/>
<path d="M15.4647 13.9979C15.3491 13.9977 15.2367 13.9598 15.1447 13.8899L10.8787 10.6589C10.7652 10.5726 10.6905 10.445 10.6707 10.3039C10.6501 10.1626 10.6861 10.0189 10.7707 9.90387C10.8125 9.84744 10.865 9.79983 10.9252 9.76379C10.9855 9.72775 11.0522 9.70398 11.1217 9.69387C11.1917 9.68291 11.2631 9.68612 11.3318 9.70329C11.4006 9.72047 11.4651 9.75127 11.5217 9.79387L15.7877 13.0249C15.8607 13.0802 15.9184 13.1531 15.9554 13.2369C15.9924 13.3206 16.0076 13.4124 15.9994 13.5036C15.9912 13.5948 15.9599 13.6824 15.9085 13.7582C15.8572 13.834 15.7874 13.8955 15.7057 13.9369C15.6313 13.9761 15.5487 13.997 15.4647 13.9979Z" fill="#40648F"/>
<path d="M8.5326 5.92084H4.2666V6.99784H8.5326V5.92084Z" fill="#40648F"/>
<path d="M6.9327 4.30585H5.8667V8.61285H6.9327V4.30585Z" fill="#40648F"/>
</svg>
