<svg xmlns="http://www.w3.org/2000/svg" width="21" height="21" viewBox="0 0 21 21">
  <g id="그룹_50096" data-name="그룹 50096" transform="translate(-117 -312)">
    <g id="패스_53064" data-name="패스 53064" transform="translate(118 314)" fill="none">
      <path d="M9.5,0A9.5,9.5,0,1,1,0,9.5,9.5,9.5,0,0,1,9.5,0Z" stroke="none"/>
      <path d="M 9.5 2 C 5.364489555358887 2 2 5.364489555358887 2 9.5 C 2 13.6355094909668 5.364489555358887 17 9.5 17 C 13.6355094909668 17 17 13.6355094909668 17 9.5 C 17 5.364489555358887 13.6355094909668 2 9.5 2 M 9.5 0 C 14.74670028686523 0 19 4.253299713134766 19 9.5 C 19 14.74670028686523 14.74670028686523 19 9.5 19 C 4.253299713134766 19 0 14.74670028686523 0 9.5 C 0 4.253299713134766 4.253299713134766 0 9.5 0 Z" stroke="none" fill="#fff"/>
    </g>
    <circle id="타원_193" data-name="타원 193" cx="3" cy="3" r="3" transform="translate(125 312)" fill="#fff"/>
    <circle id="타원_194" data-name="타원 194" cx="3" cy="3" r="3" transform="translate(132 324)" fill="#fff"/>
    <circle id="타원_195" data-name="타원 195" cx="3" cy="3" r="3" transform="translate(117 324)" fill="#fff"/>
  </g>
</svg>
