<svg xmlns="http://www.w3.org/2000/svg" width="18.653" height="17.987" viewBox="0 0 18.653 17.987">
  <g id="그룹_50156" data-name="그룹 50156" transform="translate(-118.673 -411)">
    <path id="패스_814" data-name="패스 814" d="M27.291,4H13.444A2.454,2.454,0,0,0,11,6.463v9.853a2.454,2.454,0,0,0,2.444,2.463H24.481l3.894,3.046a.809.809,0,0,0,.815.09.822.822,0,0,0,.464-.739V6.463A2.454,2.454,0,0,0,27.291,4Z" transform="translate(107.673 407)" fill="#388ce5"/>
    <g id="그룹_885" data-name="그룹 885" transform="translate(123.67 417.45)">
      <circle id="타원_58" data-name="타원 58" cx="0.999" cy="0.999" r="0.999" fill="#fff"/>
      <circle id="타원_59" data-name="타원 59" cx="0.999" cy="0.999" r="0.999" transform="translate(3.331)" fill="#fff"/>
      <circle id="타원_60" data-name="타원 60" cx="0.999" cy="0.999" r="0.999" transform="translate(6.662)" fill="#fff"/>
    </g>
  </g>
</svg>
