<svg xmlns="http://www.w3.org/2000/svg" width="19.719" height="20.507" viewBox="0 0 19.719 20.507">
  <path id="패스_53063" data-name="패스 53063" d="M37.409,32.676a2.366,2.366,0,1,1-2.366-2.366,2.366,2.366,0,0,1,2.366,2.366Zm6.31-7.1V42.93a1.578,1.578,0,0,1-1.577,1.577h-14.2a1.577,1.577,0,0,1-1.577-1.577V40.958H24.789a.789.789,0,0,1,0-1.577h1.577V37.014H24.789a.789.789,0,1,1,0-1.577h1.577V33.071H24.789a.789.789,0,1,1,0-1.577h1.577V29.127H24.789a.789.789,0,1,1,0-1.577h1.577V25.577A1.577,1.577,0,0,1,27.944,24h14.2A1.577,1.577,0,0,1,43.719,25.577ZM40.406,37.724a6.685,6.685,0,0,0-2.7-2.139,3.944,3.944,0,1,0-5.324,0,6.685,6.685,0,0,0-2.7,2.139l-.439.523.6.581.58.552.524-.71a5.127,5.127,0,0,1,8.2,0l.429.536,1.25-.812-.417-.67Z" transform="translate(-24 -24)" fill="#388ce5"/>
</svg>
