<svg xmlns="http://www.w3.org/2000/svg" width="20" height="18" viewBox="0 0 20 18">
  <path id="desktop-sharp" d="M20.458,3.375H1.792a.68.68,0,0,0-.667.692V17.913a.68.68,0,0,0,.667.692h7V19.99h-3v1.385H16.458V19.99h-3V18.606h7a.68.68,0,0,0,.667-.692V4.067A.68.68,0,0,0,20.458,3.375Zm-.833,1.558v9.346h-17V4.933ZM10.464,16.619a.7.7,0,0,1,.367-.711.648.648,0,0,1,.766.132.712.712,0,0,1,.127.8.661.661,0,0,1-.684.381A.68.68,0,0,1,10.464,16.619Z" transform="translate(-1.125 -3.375)" fill="#fff"/>
</svg>
