<svg xmlns="http://www.w3.org/2000/svg" width="17.297" height="20.671" viewBox="0 0 17.297 20.671">
  <g id="file-group-solid" transform="translate(-6.619 -4.619)">
    <path id="패스_8813" data-name="패스 8813" d="M25.99,10H12.736a.736.736,0,0,0-.736.736v16.2a.736.736,0,0,0,.736.736H25.99a.736.736,0,0,0,.736-.736v-16.2A.736.736,0,0,0,25.99,10ZM23.781,21.781H14.945V20.309h8.836Zm0-2.945H14.945V17.363h8.836Zm0-2.945H14.945V14.418h8.836Z" transform="translate(-2.81 -2.382)" fill="#388ce5"/>
    <path id="패스_8815" data-name="패스 8815" d="M9.435,22.249V7.477H22.352V6.739A.728.728,0,0,0,21.634,6H8.718A.728.728,0,0,0,8,6.739V22.987a.728.728,0,0,0,.718.739h.718Z" transform="translate(-1.381 -1.381)" fill="#388ce5"/>
  </g>
</svg>
