<svg xmlns="http://www.w3.org/2000/svg" width="23" height="21" viewBox="0 0 23 21">
  <g id="그룹_50155" data-name="그룹 50155" transform="translate(-5888 -587)">
    <rect id="사각형_29903" data-name="사각형 29903" width="23" height="21" transform="translate(5888 587)" fill="none"/>
    <path id="note-edit-solid" d="M22.685,4.89,20.3,2.529a1.109,1.109,0,0,0-1.521,0l-2.12,2.106H5.289A1.283,1.283,0,0,0,4,5.911v14.04a1.283,1.283,0,0,0,1.289,1.276H19.464a1.283,1.283,0,0,0,1.289-1.276V8.311L22.685,6.4A1.059,1.059,0,0,0,22.685,4.89Zm-9.13,8.762-2.7.594L11.5,11.6,17.653,5.49l2.081,2.061ZM20.43,6.824,18.349,4.763l1.192-1.181,2.081,2.061Z" transform="translate(5888 584.772)" fill="#fff"/>
  </g>
</svg>
