<svg xmlns="http://www.w3.org/2000/svg" width="22.223" height="16.82" viewBox="0 0 22.223 16.82">
  <path id="_8542605_vote_yea_icon" data-name="8542605_vote_yea_icon" d="M22,42.813H20.466v2.4h.143c.2,0,.192.135.192.3v.6c0,.165.007.3-.192.3H3.745a.335.335,0,0,1-.36-.3v-.6a.335.335,0,0,1,.36-.3h-.1v-2.4H2.183a1.2,1.2,0,0,0-1.2,1.2v3.6a1.2,1.2,0,0,0,1.2,1.2H22a1.2,1.2,0,0,0,1.2-1.2v-3.6A1.2,1.2,0,0,0,22,42.813Zm-2.738,2.4v-12A1.212,1.212,0,0,0,18.052,32H6.065a1.215,1.215,0,0,0-1.216,1.213v12ZM7.972,38.382l.957-.95a.4.4,0,0,1,.571,0L11.051,39l3.574-3.544a.4.4,0,0,1,.571,0l.95.957a.4.4,0,0,1,0,.571l-4.817,4.776a.4.4,0,0,1-.571,0l-2.782-2.8A.4.4,0,0,1,7.972,38.382Z" transform="translate(-0.981 -32)" fill="#388ce5"/>
</svg>
