<svg xmlns="http://www.w3.org/2000/svg" width="58" height="24" viewBox="0 0 58 24">
  <g id="그룹_2640" data-name="그룹 2640" transform="translate(-5707 -1482)">
    <g id="그룹_2639" data-name="그룹 2639" transform="translate(4686 804.702)">
      <g id="타원_1" data-name="타원 1" transform="translate(1055 677.298)" fill="#fff" stroke="rgba(0,142,223,0.97)" stroke-width="1.5">
        <circle cx="12" cy="12" r="12" stroke="none"/>
        <circle cx="12" cy="12" r="11.25" fill="none"/>
      </g>
      <path id="Icon_feather-check" data-name="Icon feather-check" d="M17.954,9,9.736,17.218,6,13.483" transform="translate(1055.172 676.04)" fill="none" stroke="#0891e0" stroke-linecap="round" stroke-linejoin="round" stroke-width="2"/>
    </g>
    <g id="패스_4892" data-name="패스 4892" transform="translate(5707 1482)" fill="#fff">
      <path d="M 12 23.25 C 8.995010375976562 23.25 6.1698899269104 22.07979965209961 4.045050144195557 19.9549503326416 C 1.920199990272522 17.83011054992676 0.75 15.00498962402344 0.75 12 C 0.75 8.995010375976562 1.920199990272522 6.1698899269104 4.045050144195557 4.045050144195557 C 6.1698899269104 1.920199990272522 8.995010375976562 0.75 12 0.75 C 15.00498962402344 0.75 17.83011054992676 1.920199990272522 19.9549503326416 4.045050144195557 C 22.07979965209961 6.1698899269104 23.25 8.995010375976562 23.25 12 C 23.25 15.00498962402344 22.07979965209961 17.83011054992676 19.9549503326416 19.9549503326416 C 17.83011054992676 22.07979965209961 15.00498962402344 23.25 12 23.25 Z" stroke="none"/>
      <path d="M 12 1.5 C 6.21027946472168 1.5 1.5 6.21027946472168 1.5 12 C 1.5 17.78972053527832 6.21027946472168 22.5 12 22.5 C 17.78972053527832 22.5 22.5 17.78972053527832 22.5 12 C 22.5 6.21027946472168 17.78972053527832 1.5 12 1.5 M 12 0 C 18.62742042541504 0 24 5.372579574584961 24 12 C 24 18.62742042541504 18.62742042541504 24 12 24 C 5.372579574584961 24 0 18.62742042541504 0 12 C 0 5.372579574584961 5.372579574584961 0 12 0 Z" stroke="none" fill="#b7b7b8"/>
    </g>
  </g>
</svg>
