<svg xmlns="http://www.w3.org/2000/svg" width="277.315" height="50" viewBox="0 0 277.315 50">
  <g id="그룹_1" data-name="그룹 1" transform="translate(-994 184)">
    <g id="그룹_6" data-name="그룹 6" transform="translate(937.5 -360)">
      <path id="비밀번호를_변경해_주세요" data-name="비밀번호를 변경해 주세요" d="M91.581-13.986h-11v4.032H93.618v-1.239H82.278V-12.81h11v-3.927H80.535v1.218H91.581ZM82.173-1.68H93.345V-5.691H80.43v1.239H91.644v1.575H80.472V1.3H93.933V.063H82.173Zm-3.78-6.846v1.3H95.466v-1.3Zm37.8-3.906v2.667h-4.347v-2.667Zm-6.048,4.494h-5.082v-3.4h5.082Zm1.7-.42h4.347v5.019h1.743V-17.262h-1.743v3.444h-4.347v-2.2h-1.7V-12.7h-5.082v-3.318h-1.7v9.471h8.484ZM107.541-.273V-4.7h-1.722V1.134h12.558V-.273Zm27.972-12.138v2.52h-4.935v1.407h4.935v2.478h1.743V-17.262h-1.743v3.444H131.25a10.8,10.8,0,0,0,.21-2.037h-8.505v1.386h6.636c-.315,3.255-3.108,5.754-7.6,7.1l.693,1.365c4.053-1.176,6.909-3.381,8.127-6.4ZM131.1.126c-2.772,0-4.536-.861-4.536-2.289,0-1.407,1.764-2.268,4.536-2.268s4.536.861,4.536,2.268C135.639-.735,133.875.126,131.1.126Zm0-5.922c-3.8,0-6.237,1.365-6.237,3.633S127.3,1.47,131.1,1.47,137.34.105,137.34-2.163,134.9-5.8,131.1-5.8Zm14.616,1.554a2.6,2.6,0,0,1-2.5-2.877,2.584,2.584,0,0,1,2.5-2.835,2.6,2.6,0,0,1,2.5,2.835A2.61,2.61,0,0,1,145.719-4.242Zm0-7.161a4.009,4.009,0,0,0-4.032,4.284,4,4,0,0,0,4.032,4.305,4,4,0,0,0,4.032-4.305A4.009,4.009,0,0,0,145.719-11.4Zm.84-5.334h-1.7v2.667h-3.822v1.407h9.345V-14.07h-3.822Zm8.8-.567v7.959h-2.415v-7.518h-1.617V.63h1.617V-7.938h2.415V1.533h1.659V-17.3Zm11.4,9.177c2.919-.5,5.691-2.079,6.846-4.3,1.134,2.226,3.927,3.8,6.846,4.3l.672-1.365c-3.318-.483-6.573-2.646-6.573-5.124v-.1h5.9v-1.386H166.7v1.386h5.943v.1c0,2.478-3.255,4.641-6.531,5.124Zm15.351,1.575H165.1v1.407h7.6v6.7h1.722v-6.7h7.707Zm7.875-8.946h-1.659v3.591c0,3.234-1.554,6.615-4.137,8.127L185.262-2.5a9.6,9.6,0,0,0,3.906-5.775A9.206,9.206,0,0,0,192.885-2.9l.987-1.344c-2.478-1.512-3.885-4.7-3.885-7.728Zm4.956,4.977h-3.108v1.428h3.108V.63h1.617V-16.863h-1.617Zm3.822-6.762V1.554H200.4V-17.283ZM209.622-6.72a11.229,11.229,0,0,0,2.6.294,11.6,11.6,0,0,0,2.646-.294v4.431h-5.25Zm2.6-8.022c3.024,0,5.208,1.386,5.208,3.486S215.25-7.77,212.226-7.77s-5.187-1.386-5.187-3.486S209.2-14.742,212.226-14.742Zm4.368,12.453v-5.1a4.27,4.27,0,0,0,2.478-3.864c0-2.94-2.835-4.83-6.846-4.83-3.99,0-6.846,1.89-6.846,4.83a4.3,4.3,0,0,0,2.52,3.885v5.082h-4.2V-.861h17.115V-2.289Z" transform="translate(113 221)" fill="#333"/>
      <path id="비밀번호_기한이_만료되었습니다." data-name="비밀번호 기한이 만료되었습니다." d="M10.575-12.345V1.125h1.23v-13.47ZM1.56-11.205V-2.13H7.89v-9.075H6.675V-7.65h-3.9v-3.555Zm1.215,4.53h3.9v3.54h-3.9ZM25.62-12.33H24.39v6.915h1.23ZM20.385-7.08H16.5v-3.54h3.885Zm1.2-4.515H15.3v5.49h6.285ZM18.15-.015V-1.5h7.47V-4.74H16.9v.96h7.5v1.365H16.95V.96h9.135V-.015ZM33.915-5.67h-3.63V-8.1h3.63ZM35.13-7.545h3.105v5.16H39.48v-9.96H38.235V-8.55H35.13v-2.895H33.915v2.37h-3.63v-2.37H29.07V-4.68h6.06ZM32.055-.2V-3.36h-1.23V.81h8.97V-.2ZM53.715-10.38H48.9v-1.755H47.67v1.755H42.795v1.005h10.92ZM45.1-5.91c0-.99,1.215-1.59,3.18-1.59,1.935,0,3.135.6,3.135,1.59,0,1.005-1.2,1.605-3.135,1.605C46.32-4.3,45.1-4.905,45.1-5.91ZM48.9-1.47V-3.36c2.34-.15,3.765-1.05,3.765-2.55,0-1.62-1.695-2.55-4.38-2.55-2.73,0-4.425.93-4.425,2.55,0,1.5,1.44,2.415,3.81,2.55v1.89H42.195v1H54.39v-1Zm11.25-9.42v.99h5.055c-.255,3.2-2.055,5.775-5.67,7.5l.66,1.005c4.47-2.19,6.255-5.61,6.255-9.5Zm9.015-1.455V1.11h1.23V-12.345Zm11.97,1.65h-3.36v-1.65h-1.23v1.65H73.2v.99h7.935ZM75.12-6.465c0-.93.825-1.53,2.04-1.53s2.055.6,2.055,1.53S78.375-4.92,77.16-4.92,75.12-5.52,75.12-6.465Zm5.265,0c0-1.5-1.32-2.49-3.225-2.49s-3.21.99-3.21,2.49S75.255-3.96,77.16-3.96,80.385-4.95,80.385-6.465Zm-3.93,3.42h-1.23V.81h8.97V-.2h-7.74Zm7.14-4.86v-4.44h-1.23v10.1H83.6V-6.87h1.98V-7.905Zm13.14-4.44V1.14h1.23V-12.345ZM90.87-11.31c-2,0-3.42,1.83-3.42,4.7s1.425,4.7,3.42,4.7,3.42-1.83,3.42-4.7S92.865-11.31,90.87-11.31Zm0,1.11c1.305,0,2.235,1.41,2.235,3.585,0,2.19-.93,3.6-2.235,3.6s-2.25-1.41-2.25-3.6C88.62-8.79,89.55-10.2,90.87-10.2Zm18.78,4.3h-3.78v-4.26h3.78Zm1.2-5.25h-6.18V-4.92h6.18ZM107.415-3.42h-1.23V.81h8.97V-.2h-7.74Zm7.14-4.83v-4.11h-1.23v9.855h1.23v-4.71h1.98V-8.25Zm7.98,4.14h3.075v2.55h-3.075Zm4.29,2.55V-4.11h2.1V-5.115h-8.28v-2.16h7.965v-4.08H119.4v1.005h8.01v2.085h-7.98V-4.11h1.89v2.55H117.9V-.555h12.225V-1.56Zm9.945-3.975h2.895V-6.54H134.01v-3.525h5.6v-1.02H132.8v5.55h2.745v2.67c-1.3.045-2.58.045-3.735.045l.15,1.035a59.575,59.575,0,0,0,8.715-.51l-.1-.9c-1.2.15-2.505.225-3.795.285Zm4.68-6.825V1.14h1.23v-13.5Zm7.725,1.8a2.128,2.128,0,0,1,2.28,2.115,2.142,2.142,0,0,1-2.28,2.145,2.134,2.134,0,0,1-2.25-2.145A2.119,2.119,0,0,1,149.175-10.56Zm6.18,2.6V-4.68H156.6v-7.65h-1.245v3.36H152.58a3.21,3.21,0,0,0-3.4-2.61,3.176,3.176,0,0,0-3.435,3.135,3.182,3.182,0,0,0,3.435,3.165,3.214,3.214,0,0,0,3.42-2.685Zm-.225,3.81h-1.2v.8a4.036,4.036,0,0,1-1.9,3.225A3.748,3.748,0,0,1,150.15-3.36v-.8h-1.185v.8a3.887,3.887,0,0,1-2.7,3.39l.615.915a4.8,4.8,0,0,0,2.655-2.505,4.317,4.317,0,0,0,2.505,2.625,4.678,4.678,0,0,0,2.475-2.67A4.574,4.574,0,0,0,157.23.945l.615-.915a3.725,3.725,0,0,1-2.715-3.39Zm15.66-3.99c-2.385-.3-4.755-1.785-4.755-3.45v-.6h-1.26v.6c0,1.71-2.355,3.15-4.77,3.45l.45.99c2.1-.33,4.11-1.38,4.95-2.88a6.957,6.957,0,0,0,4.935,2.88ZM168.675-.06H162.06V-1.77h6.615Zm0-2.655H162.06V-4.29h-1.215V.93h9.045V-4.29h-1.215ZM159.3-6.21v.99h12.18v-.99Zm15.885-4.83h-1.23v8.67h1.11a31.964,31.964,0,0,0,6.6-.63l-.135-1.05a31.786,31.786,0,0,1-6.345.63Zm7.725-1.3V1.1h1.23v-13.44Zm5.805,2.31h5.025v-1.02h-6.255V-2.22h1.065a31.9,31.9,0,0,0,6.36-.48l-.135-1.02a32.7,32.7,0,0,1-6.06.45Zm10.77,3h-2.22v-5.31h-1.23V1.14h1.23V-6.015h2.22ZM202.005.2A.991.991,0,0,0,203-.84a1.008,1.008,0,0,0-.99-1.065,1.008,1.008,0,0,0-.99,1.065A.991.991,0,0,0,202.005.2Z" transform="translate(113 193)" fill="#333"/>
      <g id="Expanded" transform="translate(50.5 176)">
        <g id="그룹_5" data-name="그룹 5" transform="translate(6)">
          <g id="그룹_1-2" data-name="그룹 1" transform="translate(16.265 28.916)">
            <ellipse id="타원_1" data-name="타원 1" cx="2.5" cy="2" rx="2.5" ry="2" transform="translate(-0.265 0.084)" fill="none" stroke="#3a8de9" stroke-width="2"/>
          </g>
          <g id="그룹_2" data-name="그룹 2" transform="translate(17.482 33.057)">
            <path id="패스_1" data-name="패스 1" d="M24.042,38.333A1.041,1.041,0,0,1,23,37.292v-6.25a1.042,1.042,0,1,1,2.083,0v6.25A1.041,1.041,0,0,1,24.042,38.333Z" transform="translate(-23 -30)" fill="#3a8de9"/>
          </g>
          <g id="그룹_3" data-name="그룹 3" transform="translate(0 18.75)">
            <path id="패스_2" data-name="패스 2" d="M43.5,49.25H6V18H43.5ZM8.083,47.167H41.417V20.083H8.083Z" transform="translate(-6 -18)"/>
          </g>
          <g id="그룹_4" data-name="그룹 4" transform="translate(6.25)">
            <path id="패스_3" data-name="패스 3" d="M37,19.792H34.917V12.5a10.417,10.417,0,1,0-20.833,0v7.292H12V12.5a12.5,12.5,0,1,1,25,0Z" transform="translate(-12)"/>
          </g>
        </g>
      </g>
    </g>
    <path id="비밀번호를_변경해_주세요-2" data-name="비밀번호를 변경해 주세요" d="M14.154-17.556v19.4h2.772v-19.4ZM1.848-16V-2.667h9.534V-16H8.631v4.683H4.6V-16ZM4.6-9.156H8.631v4.284H4.6Zm31.668-8.379H33.495v9.744h2.772Zm-8.4,6.972H23.919v-3.843h3.948Zm2.709-6.006H21.189v8.19h9.387ZM26.145-.483V-1.7H36.267V-6.93H23.394v2.121H33.537v1.134H23.415V1.659H36.771V-.483Zm20.643-7.98H43.113v-2.73h3.675Zm2.709-1.7h3.444v6.909h2.772V-17.514H52.941v5.124H49.5v-3.843H46.788v2.919H43.113v-2.94H40.362v10H49.5ZM45.717-.735V-4.641H42.945V1.47H56.133V-.735ZM75.579-15.12H68.964v-2.226H66.192v2.226H59.619v2.205h15.96Zm-11.718,6.8c0-1.092,1.3-1.638,3.7-1.638,2.436,0,3.738.546,3.738,1.638,0,1.113-1.3,1.617-3.738,1.617C65.163-6.7,63.861-7.2,63.861-8.316Zm5.1,5.943V-4.6c3.213-.315,5.166-1.638,5.166-3.717,0-2.373-2.52-3.78-6.573-3.78-4.011,0-6.552,1.407-6.552,3.78,0,2.079,1.974,3.423,5.187,3.717v2.226H58.863V-.126H76.4V-2.373Z" transform="translate(1050.5 -139)" fill="#3a8de9"/>
  </g>
</svg>
