<svg xmlns="http://www.w3.org/2000/svg" width="289.532" height="45.093" viewBox="0 0 289.532 45.093">
  <g id="그룹_2" data-name="그룹 2" transform="translate(-1023 -32)">
    <g id="그룹_13" data-name="그룹 13" transform="translate(292.5 197.093)">
      <g id="그룹_11" data-name="그룹 11" transform="translate(674 -341)">
        <path id="패스_10" data-name="패스 10" d="M9.45-8.932a28.442,28.442,0,0,1-.5,5.992l1.148.126a30.919,30.919,0,0,0,.49-6.118v-1.26H1.974v.938H9.45ZM.756-1.75V-.8H12.11v-.95ZM22.414-9.226H15.078v2.912h8.736V-7.2h-7.6V-8.372H23.55v-2.884h-8.5v.882h7.364Zm0,9.2H16.268v-1.3h6.146Zm0-2.17H16.268V-3.584H15.12V.868h8.428V-3.584H22.414Zm-8.806-3.11v.924h5.124v1.568H19.88V-4.382H25v-.924ZM29.666-9.842a1.513,1.513,0,0,1,1.163.35A1.513,1.513,0,0,1,31.36-8.4a1.521,1.521,0,0,1-.534,1.089,1.521,1.521,0,0,1-1.16.353A1.534,1.534,0,0,1,28.5-7.31a1.534,1.534,0,0,1-.542-1.09,1.526,1.526,0,0,1,.54-1.093A1.526,1.526,0,0,1,29.666-9.842Zm0,3.752a2.458,2.458,0,0,0,1.866-.565A2.458,2.458,0,0,0,32.4-8.4a2.449,2.449,0,0,0-.864-1.747,2.449,2.449,0,0,0-1.866-.563,2.442,2.442,0,0,0-1.868.56A2.442,2.442,0,0,0,26.94-8.4,2.45,2.45,0,0,0,27.8-6.655,2.45,2.45,0,0,0,29.666-6.09Zm3.206.644a48.823,48.823,0,0,1-6.538.322l.14.966c.728,0,1.638,0,2.59-.042V.028h1.092v-4.3a19.887,19.887,0,0,0,2.8-.336Zm.8,2.17H31.318v.9H33.67V.392h1.078V-11.214H33.67Zm2.366-8.232V1.036h1.106V-11.508Zm6.706,8.694c-1.2,0-2.044-1.316-2.044-3.36s.84-3.346,2.044-3.346,2.03,1.316,2.03,3.346-.842,3.36-2.032,3.36Zm5.838-8.708v4.788H45.85c-.182-2.352-1.414-3.822-3.108-3.822-1.834,0-3.136,1.708-3.136,4.382s1.3,4.382,3.136,4.382c1.75,0,3-1.54,3.108-4h2.73v6.86h1.148v-12.59ZM55.1-2.786c-1.008,0-1.638-1.274-1.638-3.332,0-2.016.63-3.29,1.638-3.29.98,0,1.624,1.274,1.624,3.29C56.728-4.06,56.084-2.786,55.1-2.786Zm4.242-3.85H57.764c-.14-2.366-1.148-3.836-2.66-3.836-1.638,0-2.688,1.68-2.688,4.354,0,2.716,1.05,4.4,2.688,4.4,1.54,0,2.562-1.512,2.66-3.976h1.582V.42h1.092V-11.242H59.346Zm2.492-4.886V1.036h1.1V-11.522Zm10.78,3.094H75.4v-.924H72.618V-11.3H71.47v1.946H68.642v.924h2.842v.966A5.929,5.929,0,0,1,68.292-2.27l.644.882a6.394,6.394,0,0,0,3.122-3.906,6.206,6.206,0,0,0,3.15,3.668l.63-.882a5.626,5.626,0,0,1-3.22-4.956Zm4.858-3.108v5.054H74.76v.938h2.716V1.064h1.148v-12.6Zm9.352.294c-2.716,0-4.41.882-4.41,2.38S84.112-6.5,86.828-6.5s4.41-.882,4.41-2.366-1.694-2.376-4.41-2.376Zm0,.91c1.988,0,3.234.546,3.234,1.47s-1.246,1.47-3.234,1.47-3.234-.546-3.234-1.47,1.25-1.47,3.238-1.47Zm-4.27,7.07V.868h8.568v-4.13ZM90-2.352v2.3H83.678v-2.3ZM81.158-5.418v.924H92.512v-.924Zm18.55-5.32c-2.6,0-4.564,1.386-4.564,3.472s1.96,3.472,4.564,3.472,4.564-1.372,4.564-3.472-1.96-3.472-4.564-3.472Zm0,.938c1.988,0,3.472,1.022,3.472,2.534s-1.48,2.534-3.472,2.534S96.236-5.74,96.236-7.266,97.734-9.8,99.708-9.8ZM94.024-1.582V-.63h11.41v-.952Zm19.152.126V-3.822h4.018v-.924h-7.728v-2.03H116.9V-10.6h-8.6v.938h7.476V-7.7h-7.448v3.878h3.682v2.366H106.9v.938h11.41v-.938Zm16.016,0V-3.822h4.018v-.924h-7.728v-2.03h7.434V-10.6h-8.6v.938H131.8V-7.7h-7.448v3.878h3.682v2.366h-5.11v.938h11.41v-.938Zm15.33-7.476a28.442,28.442,0,0,1-.5,5.992l1.148.126a30.92,30.92,0,0,0,.49-6.118v-1.26h-8.61v.938h7.476ZM135.828-1.75V-.8h11.354v-.95ZM159-11.508h-1.15v9.17H159ZM150.11-7.56a2.053,2.053,0,0,1,.62-1.506,2.053,2.053,0,0,1,1.522-.58,2.06,2.06,0,0,1,1.538.572,2.06,2.06,0,0,1,.632,1.514,2.067,2.067,0,0,1-.624,1.53,2.067,2.067,0,0,1-1.546.584,2.059,2.059,0,0,1-1.531-.591,2.059,2.059,0,0,1-.613-1.523Zm5.432,0a3.09,3.09,0,0,0-.978-2.252,3.09,3.09,0,0,0-2.312-.828,3.074,3.074,0,0,0-2.3.833,3.074,3.074,0,0,0-.964,2.247,3.088,3.088,0,0,0,.958,2.261,3.088,3.088,0,0,0,2.3.847,3.1,3.1,0,0,0,2.318-.841,3.1,3.1,0,0,0,.97-2.267ZM152.068-.182V-3.276H150.92V.756h8.456V-.182Zm16.324-2.534a1.883,1.883,0,0,1-1.4-.54,1.883,1.883,0,0,1-.56-1.392,1.886,1.886,0,0,1,.556-1.4,1.886,1.886,0,0,1,1.4-.546,1.89,1.89,0,0,1,1.412.542,1.89,1.89,0,0,1,.562,1.4,1.887,1.887,0,0,1-.567,1.4,1.887,1.887,0,0,1-1.407.536Zm0-4.83a2.862,2.862,0,0,0-2.153.786,2.862,2.862,0,0,0-.885,2.114,2.844,2.844,0,0,0,.886,2.109,2.844,2.844,0,0,0,2.152.775,2.852,2.852,0,0,0,2.168-.767,2.852,2.852,0,0,0,.9-2.117,2.87,2.87,0,0,0-.9-2.122,2.87,2.87,0,0,0-2.168-.778Zm.56-3.822H167.8v1.862h-3.16v.924h7.406v-.924h-3.094Zm7.49,5.012h-2.058v-5.152h-1.148V1.036h1.148V-5.39h2.058Zm10.332,2.2h1.162V-11.52h-1.162v1.5H184.3v.938h2.478v1.54H184.3V-6.6h2.478Zm-1.89-1.372a4.676,4.676,0,0,1-3.038-4.242v-1.3h-1.134v1.3A4.715,4.715,0,0,1,177.6-5.334l.63.924a5.461,5.461,0,0,0,3.07-3.234,5.355,5.355,0,0,0,2.94,3.01Zm1.68,1.82h-1.12v.574a3.767,3.767,0,0,1-1.778,3.01,3.5,3.5,0,0,1-1.75-3.01V-3.71H180.81v.574A3.624,3.624,0,0,1,178.276.028l.574.854a4.506,4.506,0,0,0,2.492-2.338A4.029,4.029,0,0,0,183.68.994,4.366,4.366,0,0,0,185.99-1.5,4.269,4.269,0,0,0,188.524.88L189.1.028a3.476,3.476,0,0,1-2.534-3.164ZM201.18-7.6c-2.226-.28-4.438-1.666-4.438-3.22v-.56h-1.176v.56c0,1.6-2.2,2.94-4.452,3.22l.42.924a6.467,6.467,0,0,0,4.62-2.688,6.493,6.493,0,0,0,4.606,2.688ZM199.206-.056h-6.174v-1.6h6.174Zm0-2.478h-6.174V-4H191.9V.868h8.442V-4h-1.134ZM190.456-5.8v.924h11.368V-5.8Zm14.826-4.5h-1.148v8.092h1.036a29.833,29.833,0,0,0,6.16-.588l-.126-.98a29.667,29.667,0,0,1-5.922.588Zm7.21-1.218V1.022h1.148V-11.522Zm5.418,2.156h4.69v-.952h-5.838v8.246h.994a29.769,29.769,0,0,0,5.936-.448l-.126-.952a30.521,30.521,0,0,1-5.656.42Zm10.052,2.8H225.89v-4.956h-1.148V1.064h1.148V-5.614h2.072ZM230.314.182a.925.925,0,0,0,.668-.286.925.925,0,0,0,.256-.68.941.941,0,0,0-.25-.694.941.941,0,0,0-.674-.3.941.941,0,0,0-.674.3.941.941,0,0,0-.25.694.925.925,0,0,0,.256.68.925.925,0,0,0,.668.286Z" transform="translate(102 191)" fill="#333"/>
        <g id="Expanded" transform="translate(50.5 175.907)">
          <g id="그룹_5" data-name="그룹 5" transform="translate(6)">
            <g id="그룹_12" data-name="그룹 12">
              <g id="그룹_1" data-name="그룹 1" transform="translate(14.43 25.368)">
                <ellipse id="타원_1" data-name="타원 1" cx="2.255" cy="2.197" rx="2.255" ry="2.197" transform="translate(0 0)" fill="none" stroke="#3a8de9" stroke-width="2"/>
              </g>
              <g id="그룹_2-2" data-name="그룹 2" transform="translate(15.767 29.813)">
                <path id="패스_1" data-name="패스 1" d="M23.939,37.515A.939.939,0,0,1,23,36.576V30.939a.939.939,0,1,1,1.879,0v5.637a.939.939,0,0,1-.94.939Z" transform="translate(-23 -30)" fill="#3a8de9"/>
              </g>
              <g id="그룹_3" data-name="그룹 3" transform="translate(0 16.91)">
                <path id="패스_2" data-name="패스 2" d="M39.819,46.183H6V18H39.819ZM7.879,44.3H37.941V19.879H7.879Z" transform="translate(-6 -18)"/>
              </g>
              <g id="그룹_4" data-name="그룹 4" transform="translate(5.637)">
                <path id="패스_3" data-name="패스 3" d="M34.546,17.849H32.667V11.273a9.395,9.395,0,1,0-18.789,0v6.576H12V11.273a11.273,11.273,0,1,1,22.546,0Z" transform="translate(-12)"/>
              </g>
            </g>
          </g>
        </g>
      </g>
      <path id="패스_12" data-name="패스 12" d="M129.006-1.872V-4.914h5.166V-6.1h-9.936V-8.71h9.558v-4.914H122.742v1.206h9.612V-9.9h-9.576v4.986h4.734v3.042h-6.57V-.666h14.67V-1.872Zm24.354-8.784V-8.37h-3.726v-2.286ZM148.176-6.8H143.82V-9.72h4.356Zm1.458-.36h3.726v4.3h1.494V-14.8H153.36v2.952h-3.726v-1.89h-1.458v2.844H143.82v-2.844h-1.458V-5.62h7.272Zm-3.69,6.93v-3.8h-1.476v5h10.764v-1.2Zm23.976-10.4v2.16h-4.23v1.206h4.23V-5.14h1.494V-14.8H169.92v2.952h-3.654a9.26,9.26,0,0,0,.18-1.746h-7.29V-12.4h5.688c-.27,2.79-2.664,4.932-6.516,6.084l.594,1.17c3.474-1.008,5.922-2.9,6.966-5.49ZM166.14.108c-2.376,0-3.888-.738-3.888-1.962,0-1.206,1.512-1.944,3.888-1.944s3.888.738,3.888,1.944C170.028-.63,168.516.108,166.14.108Zm0-5.076c-3.258,0-5.346,1.17-5.346,3.114s2.088,3.114,5.346,3.114,5.346-1.17,5.346-3.114S169.4-4.968,166.14-4.968Zm12.528,1.332A2.227,2.227,0,0,1,177.06-4.4a2.227,2.227,0,0,1-.534-1.7,2.215,2.215,0,0,1,.543-1.681,2.215,2.215,0,0,1,1.6-.749,2.225,2.225,0,0,1,1.6.752A2.225,2.225,0,0,1,180.81-6.1a2.238,2.238,0,0,1-.537,1.7,2.238,2.238,0,0,1-1.6.768Zm0-6.138a3.436,3.436,0,0,0-2.531,1.082,3.436,3.436,0,0,0-.925,2.592,3.431,3.431,0,0,0,.917,2.6,3.431,3.431,0,0,0,2.539,1.085A3.431,3.431,0,0,0,181.207-3.5a3.431,3.431,0,0,0,.917-2.6,3.436,3.436,0,0,0-.925-2.592A3.436,3.436,0,0,0,178.668-9.774Zm.72-4.572H177.93v2.286h-3.276v1.206h8.01V-12.06h-3.276Zm7.542-.486V-8.01h-2.07v-6.444h-1.386V.54h1.386V-6.8h2.07V1.314h1.422V-14.832Zm9.77,7.866c2.5-.432,4.878-1.782,5.868-3.69.972,1.908,3.366,3.258,5.868,3.69l.576-1.17c-2.844-.414-5.634-2.268-5.634-4.392v-.09h5.058v-1.188H196.65v1.188h5.094v.09c0,2.124-2.79,3.978-5.6,4.392Zm13.158,1.35h-14.58V-4.41H201.8V1.332h1.476V-4.41h6.606Zm6.75-7.668H215.19v3.078a8.2,8.2,0,0,1-3.546,6.966l.918,1.1a8.224,8.224,0,0,0,3.348-4.95,7.891,7.891,0,0,0,3.19,4.606l.846-1.152a7.851,7.851,0,0,1-3.33-6.624Zm4.248,4.266H218.2v1.224h2.664V.54h1.386V-14.454h-1.39Zm3.276-5.8V1.332h1.4V-14.814Zm9.306,9.054a9.625,9.625,0,0,0,2.232.252,9.944,9.944,0,0,0,2.268-.252v3.8h-4.5Zm2.232-6.876c2.592,0,4.464,1.188,4.464,2.988s-1.872,2.988-4.464,2.988-4.446-1.188-4.446-2.988,1.858-2.984,4.45-2.984Zm3.744,10.674v-4.37a3.66,3.66,0,0,0,2.124-3.312c0-2.52-2.43-4.14-5.868-4.14-3.42,0-5.868,1.62-5.868,4.14a3.69,3.69,0,0,0,2.16,3.33v4.356h-3.6V-.738h14.67V-1.962Z" transform="translate(777 -124.748)" fill="#333"/>
    </g>
    <path id="패스_11" data-name="패스 11" d="M12.744-15.048v6.462H11.412V-14.76H9.2V-4.14C6.914-5.418,6.14-8.118,6.14-10.98v-2.61H3.84v2.79c0,2.808-.882,5.8-3.366,7.272l1.47,1.746a7.349,7.349,0,0,0,3.024-4.23A6.445,6.445,0,0,0,7.83-2.268L9.2-4.1V.8h2.214V-6.67h1.332v8.2H15V-15.048ZM26.01-2.214V-4.68h5.022V-6.588H21.42V-8.442h9.234v-5.526H19.044v1.89h9.27V-10.3H19.062v5.62h4.572v2.466h-6.3V-.27H32.346V-2.214Zm15.372-10.62c2.106,0,3.4.522,3.4,1.548s-1.3,1.548-3.4,1.548c-2.07,0-3.384-.522-3.384-1.548S39.312-12.834,41.382-12.834Zm0,4.986c3.582,0,5.958-1.332,5.958-3.438,0-2.088-2.376-3.438-5.958-3.438-3.564,0-5.958,1.35-5.958,3.438,0,2.106,2.394,3.438,5.958,3.438Zm-3.33,4.14H35.64V1.26H47.268V-.63H38.052ZM33.894-6.984v1.89H40.32V-2.25h2.43V-5.094h6.156v-1.89Zm32-8.064V1.584H68.27V-15.048ZM55.35-13.716v11.43h8.172v-11.43H61.164V-9.7H57.708v-4.014Zm2.358,5.868h3.456v3.672H57.708ZM84.852-15.03H82.476v8.352h2.376Zm-7.2,5.976H74.268v-3.294h3.384ZM79.974-14.2H71.928v7.02h8.046ZM76.176-.414V-1.458h8.676V-5.94H73.818v1.818h8.694v.972H73.836V1.422H85.284V-.414ZM93.87-7.254H90.72v-2.34h3.15Zm2.322-1.458h2.952V-2.79h2.376V-15.012H99.144v4.392H96.192v-3.294H93.87v2.5H90.72v-2.52H88.362v8.568h7.83ZM92.952-.63V-3.978H90.576V1.26h11.3V-.63Zm25.6-12.33h-5.67v-1.908H110.5v1.908h-5.634v1.89h13.68ZM108.5-7.128c0-.936,1.116-1.4,3.168-1.4,2.088,0,3.2.468,3.2,1.4,0,.954-1.116,1.386-3.2,1.386C109.62-5.742,108.5-6.174,108.5-7.128Zm4.374,5.094V-3.942c2.754-.27,4.428-1.4,4.428-3.186,0-2.034-2.16-3.24-5.634-3.24-3.438,0-5.616,1.206-5.616,3.24,0,1.782,1.692,2.934,4.446,3.186v1.908H104.22V-.108h15.03V-2.034Z" transform="translate(1068.5 72.093)" fill="#3a8de9"/>
  </g>
</svg>
