<svg xmlns="http://www.w3.org/2000/svg" width="52.454" height="61.196" viewBox="0 0 52.454 61.196">
  <path id="_8673484_ic_fluent_phone_lock_filled_icon" data-name="8673484_ic_fluent_phone_lock_filled_icon" d="M32.413,2a6.557,6.557,0,0,1,6.557,6.557V27.751a10.2,10.2,0,0,0-5.828,9.218v.146a7.288,7.288,0,0,0-5.828,7.14v6.557a2.186,2.186,0,0,0-2.186-2.186H17.842a2.186,2.186,0,0,0,0,4.371h7.285a2.186,2.186,0,0,0,2.186-2.186v8.014a7.319,7.319,0,0,0,.146,1.457h-16.9A6.557,6.557,0,0,1,4,53.725V8.557A6.557,6.557,0,0,1,10.557,2Zm3.643,34.969v2.914H34.6a4.371,4.371,0,0,0-4.371,4.371V58.825A4.367,4.367,0,0,0,34.6,63.2H52.083a4.371,4.371,0,0,0,4.371-4.371V44.255a4.371,4.371,0,0,0-4.371-4.371H50.626V36.969a7.285,7.285,0,1,0-14.571,0Zm4.371,0a2.914,2.914,0,1,1,5.828,0v2.914H40.426ZM46.255,51.54a2.914,2.914,0,1,1-2.914-2.914A2.914,2.914,0,0,1,46.255,51.54Z" transform="translate(-4 -2)" fill="#d2d5d7"/>
</svg>
