<svg xmlns="http://www.w3.org/2000/svg" xmlns:xlink="http://www.w3.org/1999/xlink" width="112" height="25" viewBox="0 0 112 25">
  <defs>
    <clipPath id="clip-path">
      <rect id="사각형_12552" data-name="사각형 12552" width="112" height="25" transform="translate(220.854 56.264)" fill="#fff" stroke="#707070" stroke-width="1"/>
    </clipPath>
    <clipPath id="clip-path-2">
      <rect id="사각형_12531" data-name="사각형 12531" width="109.474" height="14.305" fill="none"/>
    </clipPath>
  </defs>
  <g id="마스크_그룹_8" data-name="마스크 그룹 8" transform="translate(-220.854 -56.264)" clip-path="url(#clip-path)">
    <g id="그룹_14" data-name="그룹 14" transform="translate(222.228 62.154)">
      <path id="패스_19" data-name="패스 19" d="M96.184,1.552,80.549,11.659V1.552H78.435V15.295l9.626-6.407,8.8,5.81h3.664L89.8,7.844,99.815,1.552Z" transform="translate(-50.016 -0.99)" fill="#434139"/>
      <path id="패스_20" data-name="패스 20" d="M13.014,0,0,13.708H2.811L13,2.841l10.19,10.867H26Z" transform="translate(0 0)" fill="#434139"/>
      <g id="그룹_13" data-name="그룹 13" transform="translate(0 0)">
        <g id="그룹_12" data-name="그룹 12" clip-path="url(#clip-path-2)">
          <path id="패스_21" data-name="패스 21" d="M274.708,6.776a11.108,11.108,0,0,0,4.762,3.566l1.1-1.279c-4.037-1.561-4.875-4.432-4.93-4.884h-1.861c-.051.452-.88,3.318-4.917,4.881l1.1,1.278a11.037,11.037,0,0,0,4.751-3.562" transform="translate(-171.446 -2.665)" fill="#434139"/>
          <path id="패스_22" data-name="패스 22" d="M281.414,27.682H269.636v1.657h11.779Z" transform="translate(-171.941 -17.652)" fill="#434139"/>
          <path id="패스_23" data-name="패스 23" d="M157.48,2.6a4.241,4.241,0,0,0-4.089,4.374,4.1,4.1,0,1,0,8.179,0A4.242,4.242,0,0,0,157.48,2.6m0,7.069a2.509,2.509,0,0,1-2.266-2.695,2.3,2.3,0,1,1,4.531,0,2.507,2.507,0,0,1-2.265,2.695" transform="translate(-97.814 -1.659)" fill="#434139"/>
          <path id="패스_24" data-name="패스 24" d="M181.14,4.54V2.049h-1.7V14.88h1.7V6.2h1.7V4.54Z" transform="translate(-114.426 -1.307)" fill="#434139"/>
          <path id="패스_25" data-name="패스 25" d="M234.044,10.917c1.845,0,3.362-1.741,3.522-3.955h.765v8.013h1.625V2.139H238.33V5.42h-.882a3.736,3.736,0,0,0-3.405-3.181c-1.954,0-3.539,1.94-3.539,4.34s1.584,4.338,3.539,4.338m0-7.011c1.025,0,1.857,1.2,1.857,2.67s-.832,2.677-1.857,2.677-1.861-1.2-1.861-2.677.83-2.67,1.861-2.67" transform="translate(-146.988 -1.364)" fill="#434139"/>
          <path id="패스_26" data-name="패스 26" d="M261.214,2.139H259.6V14.974h1.619Z" transform="translate(-165.538 -1.364)" fill="#434139"/>
          <path id="패스_27" data-name="패스 27" d="M197.743,2.47a4.237,4.237,0,0,0-4.088,4.374,4.1,4.1,0,1,0,8.178,0,4.238,4.238,0,0,0-4.09-4.374m0,7.066a2.508,2.508,0,0,1-2.266-2.692,2.3,2.3,0,1,1,4.533,0,2.507,2.507,0,0,1-2.267,2.692" transform="translate(-123.489 -1.575)" fill="#434139"/>
          <rect id="사각형_12530" data-name="사각형 12530" width="1.763" height="12.828" transform="translate(79.823 0.731)" fill="#434139"/>
        </g>
      </g>
    </g>
  </g>
</svg>
