<svg xmlns="http://www.w3.org/2000/svg" xmlns:xlink="http://www.w3.org/1999/xlink" width="235" height="80.904" viewBox="0 0 235 80.904">
  <defs>
    <clipPath id="clip-path">
      <rect id="사각형_33442" data-name="사각형 33442" width="110" height="30.187" fill="none"/>
    </clipPath>
  </defs>
  <g id="그룹_54476" data-name="그룹 54476" transform="translate(-1157 -307)">
    <g id="그룹_54461" data-name="그룹 54461" transform="translate(-121 3)">
      <rect id="사각형_33443" data-name="사각형 33443" width="112" height="34" transform="translate(1340 304)" fill="none"/>
      <g id="그룹_54460" data-name="그룹 54460" transform="translate(1341 305.906)">
        <path id="패스_55254" data-name="패스 55254" d="M70.221.105,66,30.228h7.416l1.627-11.373h5.073l.969-7.121H76.055l.6-4.3H82.5L83.54.105Z" transform="translate(-25.847 -0.041)" fill="#122e74"/>
        <path id="패스_55255" data-name="패스 55255" d="M95.272,0,91.02,30.187h6.817L102.094,0Z" transform="translate(-35.654 0)" fill="#122e74"/>
        <g id="그룹_54459" data-name="그룹 54459" transform="translate(0 0)">
          <g id="그룹_54458" data-name="그룹 54458" clip-path="url(#clip-path)">
            <path id="패스_55256" data-name="패스 55256" d="M123.436,15.249a7.567,7.567,0,0,0-6-2.339,7.731,7.731,0,0,0-6.674,3.575q-2.48,3.576-2.48,9.55,0,4.513,2.076,6.862a8.376,8.376,0,0,0,12.678-1.216q2.458-3.563,2.459-9.56,0-4.533-2.056-6.872M117.951,26.7q-.728,2.147-1.711,2.146a.922.922,0,0,1-.85-.575,3.865,3.865,0,0,1-.3-1.725,15.912,15.912,0,0,1,.728-5.062q.727-2.165,1.669-2.167a.949.949,0,0,1,.9.566,3.994,3.994,0,0,1,.287,1.734,15.878,15.878,0,0,1-.727,5.082" transform="translate(-42.428 -5.058)" fill="#122e74"/>
            <path id="패스_55257" data-name="패스 55257" d="M124.91,27.221l-.727,5.082a15.873,15.873,0,0,0,.727-5.082" transform="translate(-48.659 -10.666)" fill="#122e74"/>
            <path id="패스_55258" data-name="패스 55258" d="M154.689,27.925l.165-13.078h-5.566L145.8,27.925V14.848h-6.288L141.165,36h6.06l3.609-12.4.122,12.4h6.062l7.648-21.157h-6.288Z" transform="translate(-54.667 -5.818)" fill="#122e74"/>
            <path id="패스_55259" data-name="패스 55259" d="M34.969,15.016V20.5h6.843L34.047,36.071H50.44V30.589H43.423l7.888-15.573Z" transform="translate(-13.341 -5.883)" fill="#5db131"/>
            <path id="패스_55260" data-name="패스 55260" d="M14.223,27.858l.228.1-.328-.074a3.7,3.7,0,0,1-1.441,1.676,4.163,4.163,0,0,1-2.222.578,3.76,3.76,0,0,1-2.833-1.113A4.776,4.776,0,0,1,6.4,25.954l14.095-.02v-.519q0-5.694-2.719-8.888a9.424,9.424,0,0,0-7.584-3.194,9.506,9.506,0,0,0-7.383,3.083A11.545,11.545,0,0,0,0,24.5a11.017,11.017,0,0,0,2.852,7.909,9.9,9.9,0,0,0,7.526,3.006,10.744,10.744,0,0,0,5.958-1.631,9.236,9.236,0,0,0,3.273-3.663l.041.018a6.856,6.856,0,0,0,.859-2.277ZM7.512,19.572a3.487,3.487,0,0,1,2.7-1.169A3.66,3.66,0,0,1,13,19.533a5.349,5.349,0,0,1,1.3,3.173H6.3a5.1,5.1,0,0,1,1.211-3.134" transform="translate(0 -5.224)" fill="#5db131"/>
          </g>
        </g>
      </g>
    </g>
    <path id="패스_55272" data-name="패스 55272" d="M23.088-23.132A76.034,76.034,0,0,1,21.9-7.7l4.711.429a79.29,79.29,0,0,0,1.223-15.857v-3.893H4.641v3.75H23.088ZM1.548-5.31v3.857H31.5V-5.31ZM56.279-24.382H38.371v8.607H61.6v-3.5H43.046V-21.1H60.954V-29.56H38.3v3.5h17.98ZM56.351-1.06H43.046V-3.025H56.351Zm0-5.357H43.046V-9.025H38.371V2.44H61.062V-9.025H56.351Zm-21.72-7.714v3.679h12.55v2.786h4.747v-2.786H64.622v-3.679ZM75.95-24.7c1.8,0,3.093.964,3.093,2.75,0,1.714-1.295,2.714-3.093,2.714-1.834,0-3.164-1-3.164-2.714C72.785-23.739,74.116-24.7,75.95-24.7Zm0,8.964c4.207,0,7.3-2.607,7.3-6.214,0-3.679-3.093-6.25-7.3-6.25-4.243,0-7.372,2.571-7.372,6.25C68.578-18.346,71.706-15.739,75.95-15.739Zm7.983.929a138.043,138.043,0,0,1-16.722.786l.5,3.821c1.69,0,3.7,0,5.9-.107V.261h4.531V-10.56c2.086-.179,4.243-.464,6.149-.821Zm1.618,5.929H80.373v3.536h5.178V1.333h4.423V-29.489H85.551Zm6.617-21.143V2.833h4.5V-30.025ZM109.86-8.56c-2.409,0-4.028-2.607-4.028-7.5,0-4.857,1.618-7.464,4.028-7.464,2.445,0,4.064,2.607,4.064,7.464C113.924-11.167,112.305-8.56,109.86-8.56ZM123.849-30.1v11.857h-5.538c-.647-5.929-3.992-9.536-8.451-9.536-4.927,0-8.559,4.5-8.559,11.714,0,7.25,3.632,11.786,8.559,11.786,4.6,0,7.983-3.857,8.487-10.143h5.5V2.9H128.6v-33ZM159.377-4.632V-9.525H169.41V-13.31h-19.2v-3.679h18.448V-27.953H145.461v3.75h18.52v3.536H145.5V-9.525h9.134v4.893H142.045V-.775h29.991V-4.632Zm37.291-18.5A76.034,76.034,0,0,1,195.481-7.7l4.711.429a79.29,79.29,0,0,0,1.223-15.857v-3.893H178.221v3.75h18.448ZM175.128-5.31v3.857h29.955V-5.31Zm60.593-24.714h-4.783V-6.417h4.783ZM213.318-19.6a4.118,4.118,0,0,1,4.387-4.286,4.072,4.072,0,0,1,4.351,4.286,4.082,4.082,0,0,1-4.351,4.25A4.13,4.13,0,0,1,213.318-19.6Zm13.377,0c0-4.857-3.92-8.357-8.99-8.357s-9.026,3.5-9.026,8.357c0,4.786,3.956,8.321,9.026,8.321S226.695-14.81,226.695-19.6ZM218.424-1.489v-7.25h-4.747v11h22.871v-3.75Z" transform="translate(1155.452 385)"/>
  </g>
</svg>
