<svg xmlns="http://www.w3.org/2000/svg" xmlns:xlink="http://www.w3.org/1999/xlink" width="228.725" height="80.629" viewBox="0 0 228.725 80.629">
  <defs>
    <clipPath id="clip-path">
      <rect id="사각형_20603" data-name="사각형 20603" width="105.984" height="29.548" fill="none"/>
    </clipPath>
  </defs>
  <g id="그룹_2639" data-name="그룹 2639" transform="translate(-1164.505 -225.451)">
    <g id="그룹_2580" data-name="그룹 2580" transform="translate(1226.008 225.451)">
      <path id="패스_1" data-name="패스 1" d="M69.4,0,64.188,29.548H82.547l1.18-6.691H72.112l1.027-5.825H83.61l1.061-6.027H74.2l.827-4.7H86.317L87.429,0Z" transform="translate(-26.336 0)" fill="#002462"/>
      <path id="패스_2" data-name="패스 2" d="M119.212,0,110.2,11.167,112.165,0h-6.729l-5.209,29.548h6.729l1.271-7.21,4.347-4.941,2.449,12.151h8.286l-5.06-18.4L128.162,0Z" transform="translate(-41.123 0)" fill="#002462"/>
      <g id="그룹_2400" data-name="그룹 2400" transform="translate(0 0)">
        <g id="그룹_2399" data-name="그룹 2399" clip-path="url(#clip-path)">
          <path id="패스_3" data-name="패스 3" d="M147.016,0H158.2q3.654,0,5.058,2.358T163.9,9.07a13.093,13.093,0,0,1-3.216,6.994,8.6,8.6,0,0,1-6.5,2.519H150.5l-1.934,10.965h-6.758Zm4.538,12.6H153.2a4.023,4.023,0,0,0,2.894-.917,4.171,4.171,0,0,0,1.2-2.348,3.6,3.6,0,0,0-.267-2.358q-.513-.968-2.4-.968h-1.917Z" transform="translate(-58.183 0)" fill="#002462"/>
          <path id="패스_4" data-name="패스 4" d="M34.94,14.162v5.316h6.637l-7.531,15.1h15.9V29.263h-6.8l7.649-15.1Z" transform="translate(-13.969 -5.811)" fill="#5ea41f"/>
          <path id="패스_5" data-name="패스 5" d="M13.791,26.563l.222.093-.32-.071a3.568,3.568,0,0,1-1.4,1.625,4.03,4.03,0,0,1-2.154.561A3.65,3.65,0,0,1,7.4,27.692,4.642,4.642,0,0,1,6.2,24.717L19.871,24.7v-.5q0-5.522-2.638-8.619a9.135,9.135,0,0,0-7.354-3.1,9.216,9.216,0,0,0-7.158,2.99A11.188,11.188,0,0,0,0,23.3a10.68,10.68,0,0,0,2.767,7.668,9.6,9.6,0,0,0,7.3,2.915,10.419,10.419,0,0,0,5.776-1.582,8.97,8.97,0,0,0,3.174-3.552l.039.017a6.618,6.618,0,0,0,.833-2.208ZM7.285,18.528A3.378,3.378,0,0,1,9.9,17.395a3.551,3.551,0,0,1,2.7,1.1,5.186,5.186,0,0,1,1.257,3.077H6.111a4.945,4.945,0,0,1,1.175-3.039" transform="translate(0 -5.12)" fill="#5ea41f"/>
        </g>
      </g>
    </g>
    <path id="패스_4892" data-name="패스 4892" d="M22.47-22.435a75.015,75.015,0,0,1-1.155,15.12L25.9-6.9a78.228,78.228,0,0,0,1.19-15.54V-26.25H4.515v3.675H22.47ZM1.5-4.97v3.78H30.66V-4.97Zm53.27-18.69H37.345v8.435h22.61v-3.43H41.9V-20.44h17.43v-8.295H37.275v3.43h17.5Zm.07,22.855H41.9V-2.73h12.95Zm0-5.25H41.9V-8.61h-4.55V2.625H59.43V-8.61H54.845Zm-21.14-7.56v3.605H45.92v2.73h4.62v-2.73H62.9v-3.605ZM73.92-23.975c1.75,0,3.01.945,3.01,2.7,0,1.68-1.26,2.66-3.01,2.66-1.785,0-3.08-.98-3.08-2.66C70.84-23.03,72.135-23.975,73.92-23.975Zm0,8.785c4.1,0,7.105-2.555,7.105-6.09,0-3.6-3.01-6.125-7.105-6.125-4.13,0-7.175,2.52-7.175,6.125C66.745-17.745,69.79-15.19,73.92-15.19Zm7.77.91a133.445,133.445,0,0,1-16.275.77l.49,3.745c1.645,0,3.605,0,5.74-.1V.49h4.41v-10.6c2.03-.175,4.13-.455,5.985-.805Zm1.575,5.81h-5.04v3.465h5.04V1.54H87.57V-28.665H83.265Zm6.44-20.72V3.01H94.08v-32.2Zm17.22,21.035c-2.345,0-3.92-2.555-3.92-7.35,0-4.76,1.575-7.315,3.92-7.315,2.38,0,3.955,2.555,3.955,7.315C110.88-10.71,109.305-8.155,106.925-8.155Zm13.615-21.1v11.62h-5.39c-.63-5.81-3.885-9.345-8.225-9.345-4.795,0-8.33,4.41-8.33,11.48,0,7.105,3.535,11.55,8.33,11.55,4.48,0,7.77-3.78,8.26-9.94h5.355V3.08h4.62V-29.26ZM155.12-4.305V-9.1h9.765v-3.71H146.2v-3.6H164.15V-27.16H141.575v3.675H159.6v3.465H141.61V-9.1h8.89v4.8H138.25v3.78h29.19v-3.78Zm36.295-18.13a75.015,75.015,0,0,1-1.155,15.12l4.585.42a78.228,78.228,0,0,0,1.19-15.54V-26.25H173.46v3.675h17.955ZM170.45-4.97v3.78h29.155V-4.97Zm58.975-24.22H224.77V-6.055h4.655Zm-21.8,10.22a4.021,4.021,0,0,1,4.27-4.2,3.976,3.976,0,0,1,4.235,4.2,3.986,3.986,0,0,1-4.235,4.165A4.032,4.032,0,0,1,207.62-18.97Zm13.02,0c0-4.76-3.815-8.19-8.75-8.19s-8.785,3.43-8.785,8.19c0,4.69,3.85,8.155,8.785,8.155S220.64-14.28,220.64-18.97ZM212.59-1.225v-7.1h-4.62V2.45h22.26V-1.225Z" transform="translate(1163 303)"/>
  </g>
</svg>
