<svg xmlns="http://www.w3.org/2000/svg" width="33" height="33" viewBox="0 0 33 33">
  <g id="그룹_54491" data-name="그룹 54491" transform="translate(3261 -2239)">
    <circle id="타원_236" data-name="타원 236" cx="16.5" cy="16.5" r="16.5" transform="translate(-3261 2239)" fill="#e4f1dc"/>
    <path id="free-icon-font-document-3914166" d="M11.6,5.51V.362a5.6,5.6,0,0,1,1.973,1.252l2.788,2.744A5.465,5.465,0,0,1,17.638,6.3H12.4A.794.794,0,0,1,11.6,5.51Zm6.4,2.743v6.7a3.974,3.974,0,0,1-4,3.936H6a3.974,3.974,0,0,1-4-3.936V3.936A3.974,3.974,0,0,1,6,0H9.615c.13,0,.259.01.388.019V5.51a2.382,2.382,0,0,0,2.4,2.362h5.583C18,8,18.006,8.126,18.006,8.254Zm-6.4,6.7a.794.794,0,0,0-.8-.787h-4a.787.787,0,1,0,0,1.574h4A.794.794,0,0,0,11.6,14.957ZM14,11.808a.794.794,0,0,0-.8-.787H6.8a.787.787,0,1,0,0,1.574h6.4A.794.794,0,0,0,14,11.808Z" transform="translate(-3254.503 2246.053)" fill="#84dc87"/>
  </g>
</svg>
