<svg xmlns="http://www.w3.org/2000/svg" width="12" height="12" viewBox="0 0 12 12">
  <g id="_9042647_ip_address_icon" data-name="9042647_ip_address_icon" transform="translate(-2.387 -3)">
    <path id="패스_19" data-name="패스 19" d="M2,11V7A3.816,3.816,0,0,1,5.6,3h4.8A3.816,3.816,0,0,1,14,7v4a3.816,3.816,0,0,1-3.6,4H5.6A3.816,3.816,0,0,1,2,11Z" transform="translate(0.387)" fill="#45a8fb"/>
    <path id="패스_20" data-name="패스 20" d="M12,9v5.04" transform="translate(-3.613 -2.502)" fill="none" stroke="#fff" stroke-linecap="round" stroke-linejoin="round" stroke-width="1.2"/>
    <path id="패스_21" data-name="패스 21" d="M9,9v5.04" transform="translate(-3.096 -2.502)" fill="none" stroke="#fff" stroke-linecap="round" stroke-linejoin="round" stroke-width="1.2"/>
    <path id="패스_22" data-name="패스 22" d="M12,11.52h1.764a1.173,1.173,0,0,0,1.058-1.26h0A1.173,1.173,0,0,0,13.764,9H12" transform="translate(-3.109 -2.519)" fill="none" stroke="#fff" stroke-linecap="square" stroke-linejoin="round" stroke-width="1.2"/>
  </g>
</svg>
