<svg xmlns="http://www.w3.org/2000/svg" width="33" height="33" viewBox="0 0 33 33">
  <g id="그룹_54489" data-name="그룹 54489" transform="translate(3448 -2269)">
    <circle id="타원_235" data-name="타원 235" cx="16.5" cy="16.5" r="16.5" transform="translate(-3448 2269)" fill="#dae7f5"/>
    <path id="_9004761_envelope_mail_email_message_icon" data-name="9004761_envelope_mail_email_message_icon" d="M14.9,3H3.195A2.195,2.195,0,0,0,1,5.195v8.779a2.195,2.195,0,0,0,2.195,2.195H14.9a2.195,2.195,0,0,0,2.195-2.195V5.195A2.195,2.195,0,0,0,14.9,3Zm-.24,9.232a.732.732,0,1,1-.983,1.083l-3.031-2.751a2.88,2.88,0,0,1-3.2,0L4.418,13.315a.732.732,0,0,1-.983-1.083L6.329,9.605,3.434,6.972A.732.732,0,0,1,4.419,5.89L8.061,9.2a1.467,1.467,0,0,0,1.975,0l3.64-3.313a.732.732,0,1,1,.985,1.083L11.766,9.606Z" transform="translate(-3440.547 2275.916)" fill="#86afe8"/>
  </g>
</svg>
