<svg xmlns="http://www.w3.org/2000/svg" width="33" height="33" viewBox="0 0 33 33">
  <g id="그룹_54490" data-name="그룹 54490" transform="translate(3326 -2266)">
    <circle id="타원_237" data-name="타원 237" cx="16.5" cy="16.5" r="16.5" transform="translate(-3326 2266)" fill="#f1e3e0"/>
    <g id="clipboard-check" transform="translate(-3317.244 2273.845)">
      <path id="패스_35" data-name="패스 35" d="M7.858,5.4v-.96A1.268,1.268,0,0,1,8.22,3.359,1.283,1.283,0,0,1,9.305,3h4.824a1.283,1.283,0,0,1,1.085.36,1.268,1.268,0,0,1,.362,1.079V5.4a1.268,1.268,0,0,1-.362,1.079,1.283,1.283,0,0,1-1.085.36H9.305a1.284,1.284,0,0,1-1.085-.36A1.268,1.268,0,0,1,7.858,5.4ZM19.435,7.8v9.6a2.536,2.536,0,0,1-.724,2.159,2.567,2.567,0,0,1-2.17.72H6.893a2.567,2.567,0,0,1-2.17-.72A2.536,2.536,0,0,1,4,17.393V7.8c0-1.672.725-2.613,2.185-2.824a.2.2,0,0,1,.155.047.2.2,0,0,1,.071.145V5.4A2.692,2.692,0,0,0,7.2,7.492a2.723,2.723,0,0,0,2.105.785h4.824a2.723,2.723,0,0,0,2.105-.785A2.692,2.692,0,0,0,17.023,5.4V5.17a.2.2,0,0,1,.071-.145.2.2,0,0,1,.155-.047C18.709,5.184,19.435,6.126,19.435,7.8ZM14.64,10.806a.727.727,0,0,0-1.023,0l-2.7,2.687-1.1-1.09a.726.726,0,0,0-1.023,0,.717.717,0,0,0,0,1.018l1.608,1.6a.724.724,0,0,0,1.023,0l3.215-3.192a.717.717,0,0,0,0-1.021Z" transform="translate(-3.973 -2.987)" fill="#fa9b92"/>
    </g>
  </g>
</svg>
