<svg id="그룹_410" data-name="그룹 410" xmlns="http://www.w3.org/2000/svg" xmlns:xlink="http://www.w3.org/1999/xlink" width="19.477" height="24.568" viewBox="0 0 19.477 24.568">
  <defs>
    <clipPath id="clip-path">
      <rect id="사각형_908" data-name="사각형 908" width="19.477" height="24.567" fill="none" stroke="#707070" stroke-width="1.5"/>
    </clipPath>
  </defs>
  <g id="그룹_409" data-name="그룹 409" clip-path="url(#clip-path)">
    <path id="패스_946" data-name="패스 946" d="M16.366,15.5,15.7,11.852,18.42,9.313c1.351-1.243,1.094-2.47-.5-2.9l-4.295-.589L11.762,2.251C10.9.917,9.646.917,8.781,2.251L6.914,5.823l-4.3.589c-1.59.433-1.848,1.66-.5,2.9l2.716,2.538L4.177,15.5c-.262,1.83.94,2.6,2.737,1.711.162-.08,3.358-1.629,3.358-1.629s3.195,1.549,3.358,1.629c1.8.892,3,.119,2.737-1.711" transform="translate(-0.533 -0.573)" fill="#fff" stroke="#003497" stroke-width="1.5"/>
    <path id="패스_947" data-name="패스 947" d="M16.366,15.5,15.7,11.852,18.42,9.313c1.351-1.243,1.094-2.47-.5-2.9l-4.295-.589L11.762,2.251C10.9.917,9.646.917,8.781,2.251L6.914,5.823l-4.3.589c-1.59.433-1.848,1.66-.5,2.9l2.716,2.538L4.177,15.5c-.262,1.83.94,2.6,2.737,1.711.162-.08,3.358-1.629,3.358-1.629s3.195,1.549,3.358,1.629C15.425,18.1,16.628,17.325,16.366,15.5Z" transform="translate(-0.533 -0.573)" fill="none" stroke="#003497" stroke-linecap="round" stroke-linejoin="round" stroke-width="1.5"/>
    <path id="패스_948" data-name="패스 948" d="M18.444,39.279a1.854,1.854,0,0,1-1.905,1.8H8.919a1.8,1.8,0,1,1,0-3.6h7.62a1.854,1.854,0,0,1,1.905,1.8" transform="translate(-2.991 -17.186)" fill="#fff" stroke="#003497" stroke-width="1.5"/>
    <path id="패스_949" data-name="패스 949" d="M18.444,39.279a1.854,1.854,0,0,1-1.905,1.8H8.919a1.8,1.8,0,1,1,0-3.6h7.62A1.854,1.854,0,0,1,18.444,39.279Z" transform="translate(-2.991 -17.186)" fill="none" stroke="#003497" stroke-linecap="round" stroke-linejoin="round" stroke-width="1.5"/>
  </g>
</svg>
