<svg xmlns="http://www.w3.org/2000/svg" width="16.887" height="16.887" viewBox="0 0 16.887 16.887">
  <path id="_984751_cogwheel_options_properties_settings_configuration_icon" data-name="984751_cogwheel_options_properties_settings_configuration_icon" d="M19.19,12.824l-.632-.679a.1.1,0,0,0,0-.021c.014-.151.023-.3.029-.456,0-.044,0-.091,0-.135,0-.117,0-.23-.006-.343,0-.049,0-.1-.008-.145,0-.075-.007-.15-.012-.229l.634-.674c.3-.322.851-.749.683-1.156L19.184,7.3c-.168-.407-.858-.322-1.3-.337l-.925-.033c-.07-.084-.145-.163-.218-.244l-.01-.012c-.026-.027-.047-.056-.074-.083-.039-.043-.084-.083-.125-.125-.059-.059-.117-.119-.177-.176-.1-.095-.2-.184-.305-.273a.139.139,0,0,0-.014-.011l-.016-.017-.03-.927c-.014-.439.073-1.13-.332-1.3l-1.684-.7c-.405-.169-.836.38-1.157.68l-.678.633c-.152-.015-.3-.023-.454-.029-.042,0-.085,0-.13,0-.1,0-.2,0-.3,0-.126,0-.253.012-.379.023l-.045,0c-.009,0-.016,0-.025,0l-.675-.635c-.321-.3-.749-.851-1.156-.683L7.3,3.752c-.407.168-.321.859-.337,1.3l-.033.927a.322.322,0,0,0-.03.027q-.166.138-.325.287l-.115.115c-.075.073-.15.148-.222.226-.037.04-.071.081-.107.122s-.1.105-.143.161l-.927.028c-.439.014-1.13-.073-1.3.332l-.7,1.684c-.169.405.38.834.679,1.155l.633.678c-.01.1-.015.209-.021.316,0,.01,0,.02,0,.03-.009.18-.013.36-.007.539,0,.079.009.156.014.234,0,.063.006.128.012.191a.1.1,0,0,0,0,.018l-.634.676c-.3.321-.852.748-.684,1.154l.694,1.683c.168.408.86.323,1.3.339l.926.031c.006.009.014.015.02.024.094.113.192.223.3.334.036.039.074.072.111.111.075.077.151.152.23.226.039.034.079.069.119.1.055.048.108.1.163.142l.028.927c.014.439-.072,1.131.333,1.3l1.684.7c.405.169.834-.38,1.155-.679l.679-.632h.022c.087.01.174.013.261.017.026,0,.051,0,.076,0l.119.006c.047,0,.093,0,.139,0,.113,0,.226,0,.339,0,.049,0,.1-.005.147-.008l.225-.011.676.633c.322.3.748.852,1.154.684l1.684-.694c.408-.168.323-.858.339-1.3L16,16.965c.079-.066.156-.135.23-.2a.271.271,0,0,1,.034-.03c.026-.024.053-.045.075-.068.045-.04.083-.084.124-.123.058-.059.12-.118.18-.18.086-.093.173-.19.257-.291a.168.168,0,0,0,.025-.028l.015-.015.927-.03c.439-.014,1.131.072,1.3-.333l.7-1.684C20.038,13.576,19.489,13.145,19.19,12.824ZM15.17,11.47a3.7,3.7,0,1,1-3.7-3.7A3.7,3.7,0,0,1,15.17,11.47Z" transform="translate(-3.021 -3.027)" fill="#003497"/>
</svg>
