<svg xmlns="http://www.w3.org/2000/svg" xmlns:xlink="http://www.w3.org/1999/xlink" width="20" height="20" viewBox="0 0 20 20">
  <defs>
    <clipPath id="clip-path">
      <rect id="사각형_12998" data-name="사각형 12998" width="20" height="20" transform="translate(28 274.744)" fill="#388ce5"/>
    </clipPath>
  </defs>
  <g id="마스크_그룹_23" data-name="마스크 그룹 23" transform="translate(-28 -274.744)" clip-path="url(#clip-path)">
    <g id="clipboard-check" transform="translate(30.649 277.017)">
      <path id="패스_35" data-name="패스 35" d="M7.535,5.21V4.325A1.173,1.173,0,0,1,8.861,3h4.422A1.173,1.173,0,0,1,14.61,4.325V5.21a1.173,1.173,0,0,1-1.327,1.327H8.861A1.173,1.173,0,0,1,7.535,5.21ZM18.148,7.421v8.844a2.346,2.346,0,0,1-2.653,2.653H6.65A2.346,2.346,0,0,1,4,16.265V7.421c0-1.541.665-2.408,2-2.6a.187.187,0,0,1,.208.177V5.21A2.489,2.489,0,0,0,8.861,7.863h4.422A2.489,2.489,0,0,0,15.937,5.21V5a.187.187,0,0,1,.208-.177C17.483,5.012,18.148,5.88,18.148,7.421Zm-4.4,2.774a.664.664,0,0,0-.938,0l-2.476,2.476-1.008-1a.663.663,0,1,0-.938.938l1.474,1.473a.662.662,0,0,0,.938,0l2.948-2.942a.663.663,0,0,0,0-.941Z" transform="translate(-3.973 -2.987)" fill="#003497"/>
    </g>
  </g>
</svg>
