<svg xmlns="http://www.w3.org/2000/svg" width="17.557" height="14.365" viewBox="0 0 17.557 14.365">
  <path id="_9004761_envelope_mail_email_message_icon" data-name="9004761_envelope_mail_email_message_icon" d="M16.163,3H3.394A2.394,2.394,0,0,0,1,5.394v9.577a2.394,2.394,0,0,0,2.394,2.394H16.163a2.394,2.394,0,0,0,2.394-2.394V5.394A2.394,2.394,0,0,0,16.163,3ZM15.9,13.072a.8.8,0,1,1-1.073,1.181l-3.306-3a3.142,3.142,0,0,1-3.488,0l-3.306,3a.8.8,0,0,1-1.073-1.181l3.157-2.866L3.655,7.333A.8.8,0,0,1,4.729,6.152L8.7,9.767a1.6,1.6,0,0,0,2.155,0l3.97-3.614A.8.8,0,1,1,15.9,7.333l-3.157,2.873Z" transform="translate(-1 -3)" fill="#003497"/>
</svg>
