<svg xmlns="http://www.w3.org/2000/svg" xmlns:xlink="http://www.w3.org/1999/xlink" width="20" height="20" viewBox="0 0 20 20">
  <defs>
    <clipPath id="clip-path">
      <rect id="사각형_24013" data-name="사각형 24013" width="20" height="20" transform="translate(628.982 217.982)" fill="#003497"/>
    </clipPath>
  </defs>
  <g id="icon_news_20px" transform="translate(-628.982 -217.982)" clip-path="url(#clip-path)">
    <path id="free-icon-font-document-3914166" d="M10.588,5.009V.329a4.993,4.993,0,0,1,1.764,1.138l2.493,2.495a4.977,4.977,0,0,1,1.139,1.763H11.3a.716.716,0,0,1-.716-.716ZM16.313,7.5V13.6a3.583,3.583,0,0,1-3.578,3.578H5.578A3.583,3.583,0,0,1,2,13.6V3.578A3.583,3.583,0,0,1,5.578,0H8.809c.117,0,.232.009.347.017V5.009A2.147,2.147,0,0,0,11.3,7.156H16.3C16.3,7.272,16.313,7.387,16.313,7.5ZM10.588,13.6a.716.716,0,0,0-.716-.716H6.294a.716.716,0,1,0,0,1.431H9.872A.716.716,0,0,0,10.588,13.6Zm2.147-2.863a.716.716,0,0,0-.716-.716H6.294a.716.716,0,1,0,0,1.431h5.725A.716.716,0,0,0,12.735,10.735Z" transform="translate(629.826 219.395)" fill="#003497"/>
  </g>
</svg>
