<svg id="file-group-solid" xmlns="http://www.w3.org/2000/svg" width="18.409" height="22" viewBox="0 0 18.409 22">
  <path id="패스_8813" data-name="패스 8813" d="M26.9,10H12.784a.784.784,0,0,0-.784.784V28.031a.784.784,0,0,0,.784.784H26.9a.784.784,0,0,0,.784-.784V10.784A.784.784,0,0,0,26.9,10ZM24.544,22.544H15.136V20.976h9.408Zm0-3.136H15.136V17.84h9.408Zm0-3.136H15.136V14.7h9.408Z" transform="translate(-9.27 -6.815)" fill="#003497"/>
  <path id="패스_8815" data-name="패스 8815" d="M9.524,23.3V7.573H23.24V6.786A.774.774,0,0,0,22.478,6H8.762A.774.774,0,0,0,8,6.786v17.3a.774.774,0,0,0,.762.786h.762Z" transform="translate(-8 -6)" fill="#003497"/>
</svg>
