<svg id="그룹_54648" data-name="그룹 54648" xmlns="http://www.w3.org/2000/svg" width="22" height="22" viewBox="0 0 22 22">
  <g id="패스_53064" data-name="패스 53064" transform="translate(1 2)" fill="none">
    <path d="M10,0A10,10,0,1,1,0,10,10,10,0,0,1,10,0Z" stroke="none"/>
    <path d="M 10 2 C 5.588789939880371 2 2 5.588789939880371 2 10 C 2 14.41121006011963 5.588789939880371 18 10 18 C 14.41121006011963 18 18 14.41121006011963 18 10 C 18 5.588789939880371 14.41121006011963 2 10 2 M 10 0 C 15.52285003662109 0 20 4.477149963378906 20 10 C 20 15.52285003662109 15.52285003662109 20 10 20 C 4.477149963378906 20 0 15.52285003662109 0 10 C 0 4.477149963378906 4.477149963378906 0 10 0 Z" stroke="none" fill="#003497"/>
  </g>
  <circle id="타원_193" data-name="타원 193" cx="3" cy="3" r="3" transform="translate(8.533)" fill="#003497"/>
  <circle id="타원_194" data-name="타원 194" cx="3" cy="3" r="3" transform="translate(16 13)" fill="#003497"/>
  <circle id="타원_195" data-name="타원 195" cx="3" cy="3" r="3" transform="translate(0 13)" fill="#003497"/>
</svg>
