<svg xmlns="http://www.w3.org/2000/svg" width="3.398" height="17.639" viewBox="0 0 3.398 17.639">
  <g id="그룹_47696" data-name="그룹 47696" transform="translate(-1846.887 -24.769)">
    <path id="패스_50984" data-name="패스 50984" d="M0,1.349A1.349,1.349,0,1,0,1.349,0,1.349,1.349,0,0,0,0,1.349Z" transform="translate(1849.935 39.359) rotate(90)" fill="#003497"/>
    <path id="패스_50984_-_윤곽선" data-name="패스 50984 - 윤곽선" d="M1.349,3.048a1.7,1.7,0,1,1,1.7-1.7A1.7,1.7,0,0,1,1.349,3.048Zm0-2.7a1,1,0,1,0,1,1A1,1,0,0,0,1.349.35Z" transform="translate(1849.935 39.359) rotate(90)" fill="#003497"/>
    <path id="패스_50985" data-name="패스 50985" d="M0,1.349A1.349,1.349,0,1,0,1.349,0,1.349,1.349,0,0,0,0,1.349Z" transform="translate(1849.935 32.239) rotate(90)" fill="#003497"/>
    <path id="패스_50985_-_윤곽선" data-name="패스 50985 - 윤곽선" d="M1.349,3.048a1.7,1.7,0,1,1,1.7-1.7A1.7,1.7,0,0,1,1.349,3.048Zm0-2.7a1,1,0,1,0,1,1A1,1,0,0,0,1.349.35Z" transform="translate(1849.935 32.239) rotate(90)" fill="#003497"/>
    <path id="패스_50986" data-name="패스 50986" d="M0,1.349A1.349,1.349,0,1,0,1.349,0,1.349,1.349,0,0,0,0,1.349Z" transform="translate(1849.935 25.119) rotate(90)" fill="#003497"/>
    <path id="패스_50986_-_윤곽선" data-name="패스 50986 - 윤곽선" d="M1.349,3.048a1.7,1.7,0,1,1,1.7-1.7A1.7,1.7,0,0,1,1.349,3.048Zm0-2.7a1,1,0,1,0,1,1A1,1,0,0,0,1.349.35Z" transform="translate(1849.935 25.119) rotate(90)" fill="#003497"/>
  </g>
</svg>
