<svg xmlns="http://www.w3.org/2000/svg" width="17.719" height="20.94" viewBox="0 0 17.719 20.94">
  <path id="빼기_68" data-name="빼기 68" d="M-1770.073,4737.941h-3.643v-1.82h3.643v1.819Zm6.793-3.222H-1781v-2.013h1.611v-6.443a7.227,7.227,0,0,1,1.8-4.774,7.252,7.252,0,0,1,4.443-2.4V4717h2.014v2.09a7.256,7.256,0,0,1,4.443,2.4,7.227,7.227,0,0,1,1.8,4.774v6.443h1.61v2.012Zm-8.86-13.692a5.241,5.241,0,0,0-5.235,5.236v6.443h10.471v-6.443A5.241,5.241,0,0,0-1772.14,4721.027Z" transform="translate(1781 -4717.001)" fill="#003497"/>
</svg>
