<svg id="_416376_envelope_files_folder_interface_office_icon" data-name="416376_envelope_files_folder_interface_office_icon" xmlns="http://www.w3.org/2000/svg" width="25.5" height="23.907" viewBox="0 0 25.5 23.907">
  <g id="Folder">
    <g id="그룹_49910" data-name="그룹 49910">
      <path id="패스_52732" data-name="패스 52732" d="M23.906,1.594H9.563A1.594,1.594,0,0,0,7.969,0H1.594A1.594,1.594,0,0,0,0,1.594V6.375A1.594,1.594,0,0,0,1.594,7.969H23.906A1.594,1.594,0,0,0,25.5,6.375V3.188A1.593,1.593,0,0,0,23.906,1.594Z" fill="#fea613" fill-rule="evenodd"/>
    </g>
  </g>
  <g id="File_1_" transform="translate(1.594 3.188)">
    <g id="그룹_49911" data-name="그룹 49911">
      <path id="패스_52733" data-name="패스 52733" d="M24.719,8H5.594A1.594,1.594,0,0,0,4,9.594v1.594a1.594,1.594,0,0,0,1.594,1.594H24.719a1.594,1.594,0,0,0,1.594-1.594V9.594A1.594,1.594,0,0,0,24.719,8Z" transform="translate(-4 -8)" fill="#fff"/>
    </g>
  </g>
  <g id="Folder_1_" transform="translate(0 4.782)">
    <g id="그룹_49912" data-name="그룹 49912">
      <path id="패스_52734" data-name="패스 52734" d="M23.906,12H1.594A1.594,1.594,0,0,0,0,13.595V29.532a1.594,1.594,0,0,0,1.594,1.594H23.906A1.594,1.594,0,0,0,25.5,29.532V13.595A1.594,1.594,0,0,0,23.906,12Z" transform="translate(0 -12.001)" fill="#fec05d"/>
    </g>
  </g>
</svg>
