<svg xmlns="http://www.w3.org/2000/svg" width="52" height="50" viewBox="0 0 52 50">
  <g id="그룹_9049" data-name="그룹 9049" transform="translate(0.001 0)">
    <g id="그룹_7277" data-name="그룹 7277" transform="translate(0 0)">
      <path id="빼기_1" data-name="빼기 1" d="M26,50a23.737,23.737,0,0,1-11.917-3.209A32.682,32.682,0,0,1,6.089,49.6a.942.942,0,0,1-.2.021.9.9,0,0,1-.8-.5A.873.873,0,0,1,5.16,48.2a28.872,28.872,0,0,0,3.289-5.93,24.774,24.774,0,0,1-5.269-8.95,2.873,2.873,0,0,1-.292.014A2.918,2.918,0,0,1,0,30.393v-9.8a2.919,2.919,0,0,1,2.889-2.942c.093,0,.188,0,.292.014A24.7,24.7,0,0,1,9,8.133a24.123,24.123,0,0,1,9.378-5.9A2.893,2.893,0,0,1,21.184,0h9.631a2.893,2.893,0,0,1,2.8,2.235A24.132,24.132,0,0,1,43,8.134a24.7,24.7,0,0,1,5.822,9.528c.106-.01.2-.014.292-.014A2.919,2.919,0,0,1,52,20.589v9.8a2.918,2.918,0,0,1-2.888,2.94,2.836,2.836,0,0,1-.292-.014A24.54,24.54,0,0,1,40.184,45.3,23.607,23.607,0,0,1,26,50Zm-.8-34.279a8.5,8.5,0,0,0,0,17h13a8.5,8.5,0,1,0,0-17Z" transform="translate(0)" fill="#fff"/>
      <path id="패스_9191" data-name="패스 9191" d="M3,0A3,3,0,1,1,0,3,3,3,0,0,1,3,0Z" transform="translate(21.616 21.617)" fill="#fff"/>
      <path id="패스_9192" data-name="패스 9192" d="M3,0A3,3,0,1,1,0,3,3,3,0,0,1,3,0Z" transform="translate(37.337 21.617)" fill="#fff"/>
    </g>
  </g>
</svg>
