<svg xmlns="http://www.w3.org/2000/svg" width="17.345" height="17.345" viewBox="0 0 17.345 17.345">
  <g id="icon_profile_20px" transform="translate(-629.413 -219.413)">
    <path id="free-icon-profile-4519729" d="M19.345,10.673A8.673,8.673,0,1,1,10.673,2,8.673,8.673,0,0,1,19.345,10.673Zm-3.717,3.816a.74.74,0,0,1,0,1.04,6.938,6.938,0,0,1-9.91,0,.74.74,0,0,1,0-1.04,6.938,6.938,0,0,1,9.91,0Zm-4.955-3.816a2.6,2.6,0,1,0-2.6-2.6A2.6,2.6,0,0,0,10.673,10.673Z" transform="translate(627.413 217.413)" fill="#388ce5" fill-rule="evenodd"/>
  </g>
</svg>
