<svg xmlns="http://www.w3.org/2000/svg" width="20.118" height="20.138" viewBox="0 0 20.118 20.138">
  <path id="settings-solid" d="M22.84,11.538l-2.249-.671A7.82,7.82,0,0,0,19.953,9.3l1.1-2.061a.409.409,0,0,0-.074-.483l-1.6-1.611a.409.409,0,0,0-.483-.074L16.845,6.168A7.8,7.8,0,0,0,15.261,5.5L14.59,3.275a.409.409,0,0,0-.4-.275H11.925a.409.409,0,0,0-.389.289L10.864,5.5a7.807,7.807,0,0,0-1.6.671L7.253,5.088a.409.409,0,0,0-.483.074L5.138,6.752a.409.409,0,0,0-.074.483L6.152,9.249a7.807,7.807,0,0,0-.671,1.591l-2.222.671a.409.409,0,0,0-.289.389V14.17a.409.409,0,0,0,.289.389l2.235.671a7.8,7.8,0,0,0,.671,1.564L5.064,18.9a.409.409,0,0,0,.074.483l1.6,1.6a.409.409,0,0,0,.483.074L9.3,19.956a7.82,7.82,0,0,0,1.544.631l.671,2.262a.409.409,0,0,0,.389.289h2.269a.409.409,0,0,0,.389-.289l.671-2.269a7.807,7.807,0,0,0,1.53-.631l2.088,1.114a.409.409,0,0,0,.483-.074l1.6-1.6a.409.409,0,0,0,.074-.483L19.9,16.821a7.807,7.807,0,0,0,.638-1.537l2.262-.671a.409.409,0,0,0,.289-.389V11.935a.409.409,0,0,0-.248-.4Zm-9.78,5.222a3.692,3.692,0,1,1,3.692-3.692A3.692,3.692,0,0,1,13.059,16.761Z" transform="translate(-2.97 -3)" fill="#6d6d6d"/>
</svg>
