<svg xmlns="http://www.w3.org/2000/svg" xmlns:xlink="http://www.w3.org/1999/xlink" width="23" height="23" viewBox="0 0 23 23">
  <defs>
    <clipPath id="clip-path">
      <rect id="사각형_31874" data-name="사각형 31874" width="23" height="23" rx="11.5" transform="translate(3723 -212)" fill="#fff" stroke="#707070" stroke-width="1"/>
    </clipPath>
  </defs>
  <g id="마스크_그룹_46551" data-name="마스크 그룹 46551" transform="translate(-3723 212)" clip-path="url(#clip-path)">
    <g id="그룹_50800" data-name="그룹 50800" transform="translate(1886 -232.279)">
      <path id="패스_50984" data-name="패스 50984" d="M0,1.128A1.128,1.128,0,1,0,1.128,0,1.128,1.128,0,0,0,0,1.128Z" transform="translate(1849.494 35.356) rotate(90)" fill="#6d6d6d"/>
      <path id="패스_50985" data-name="패스 50985" d="M0,1.128A1.128,1.128,0,1,0,1.128,0,1.128,1.128,0,0,0,0,1.128Z" transform="translate(1849.494 30.237) rotate(90)" fill="#6d6d6d"/>
      <path id="패스_50986" data-name="패스 50986" d="M0,1.128A1.128,1.128,0,1,0,1.128,0,1.128,1.128,0,0,0,0,1.128Z" transform="translate(1849.494 25.119) rotate(90)" fill="#6d6d6d"/>
    </g>
  </g>
</svg>
