<svg xmlns="http://www.w3.org/2000/svg" width="18.8" height="20.505" viewBox="0 0 18.8 20.505">
  <g id="그룹_50159" data-name="그룹 50159" transform="translate(0 -2.489)">
    <path id="패스_936" data-name="패스 936" d="M17.011,33.438A1.684,1.684,0,0,0,18.638,32H15.32A1.684,1.684,0,0,0,17.011,33.438Z" transform="translate(-7.58 -10.444)" fill="#6d6d6d"/>
    <path id="패스_937" data-name="패스 937" d="M21.849,18.4l-.214-.189a9.065,9.065,0,0,1-1.583-1.848,7.968,7.968,0,0,1-.852-3.034V10.212c0-.379-.536-5.873-5.974-6.8V2.617a.842.842,0,0,0-1.684,0v.826a6.819,6.819,0,0,0-5.867,6.769v3.116a7.968,7.968,0,0,1-.852,3.034A9.084,9.084,0,0,1,3.265,18.21l-.215.19v1.78h18.8Z" transform="translate(-3.05 0.714)" fill="#6d6d6d"/>
  </g>
</svg>
