<svg xmlns="http://www.w3.org/2000/svg" width="22.568" height="22.568" viewBox="0 0 22.568 22.568">
  <g id="그룹_47696" data-name="그룹 47696" transform="translate(-1837 -20)">
    <path id="패스_50982" data-name="패스 50982" d="M22.568,11.284A11.284,11.284,0,1,0,11.284,22.568,11.284,11.284,0,0,0,22.568,11.284Z" transform="translate(1859.568 20) rotate(90)" fill="#6d6d6d"/>
    <path id="패스_50984" data-name="패스 50984" d="M0,1.128A1.128,1.128,0,1,0,1.128,0,1.128,1.128,0,0,0,0,1.128Z" transform="translate(1849.788 35.797) rotate(90)" fill="#fff"/>
    <path id="패스_50985" data-name="패스 50985" d="M0,1.128A1.128,1.128,0,1,0,1.128,0,1.128,1.128,0,0,0,0,1.128Z" transform="translate(1849.788 30.532) rotate(90)" fill="#fff"/>
    <path id="패스_50986" data-name="패스 50986" d="M0,1.128A1.128,1.128,0,1,0,1.128,0,1.128,1.128,0,0,0,0,1.128Z" transform="translate(1849.788 25.266) rotate(90)" fill="#fff"/>
  </g>
</svg>
