<svg xmlns="http://www.w3.org/2000/svg" width="20" height="20" viewBox="0 0 20 20">
  <g id="icon_employee_search" transform="translate(-40 -5.03)">
    <rect id="사각형_933" data-name="사각형 933" width="20" height="20" transform="translate(40 5.03)" fill="none"/>
    <path id="직원검색" d="M385.707,532.369l-1.457,1.457-2.335-2.335A3.956,3.956,0,0,1,380,532a4.036,4.036,0,1,1,3.407-1.93ZM380,526a2,2,0,1,0,2,2A2,2,0,0,0,380,526Zm-5-2a5,5,0,1,1,5-5A5,5,0,0,1,375,524Zm0-8a3,3,0,1,0,3,3A3,3,0,0,0,375,516Zm0,11a7,7,0,0,0-7,7h-2a9,9,0,0,1,9-9Z" transform="translate(-326 -508.97)" fill="#6d6d6d"/>
  </g>
</svg>
