<svg xmlns="http://www.w3.org/2000/svg" width="3.398" height="17.639" viewBox="0 0 3.398 17.639">
  <g id="그룹_54944" data-name="그룹 54944" transform="translate(-1846.887 -24.769)">
    <path id="패스_50984" data-name="패스 50984" d="M0,1.349A1.349,1.349,0,1,0,1.349,0,1.349,1.349,0,0,0,0,1.349Z" transform="translate(1849.935 39.359) rotate(90)" fill="#003497" stroke="#003497" stroke-width="0.7"/>
    <path id="패스_50985" data-name="패스 50985" d="M0,1.349A1.349,1.349,0,1,0,1.349,0,1.349,1.349,0,0,0,0,1.349Z" transform="translate(1849.935 32.239) rotate(90)" fill="#003497" stroke="#003497" stroke-width="0.7"/>
    <path id="패스_50986" data-name="패스 50986" d="M0,1.349A1.349,1.349,0,1,0,1.349,0,1.349,1.349,0,0,0,0,1.349Z" transform="translate(1849.935 25.119) rotate(90)" fill="#003497" stroke="#003497" stroke-width="0.7"/>
  </g>
</svg>
