<svg xmlns="http://www.w3.org/2000/svg" xmlns:xlink="http://www.w3.org/1999/xlink" width="16" height="16" viewBox="0 0 16 16">
  <defs>
    <clipPath id="clip-path">
      <rect id="사각형_823" data-name="사각형 823" width="16" height="16" transform="translate(-0.074 0.222)"/>
    </clipPath>
  </defs>
  <g id="그룹_284" data-name="그룹 284" transform="translate(0.074 -0.222)" clip-path="url(#clip-path)">
    <path id="패스_790" data-name="패스 790" d="M14.418,12.828,12.81,14.436l-2.059-.574-.589.243L9.106,15.961H6.828L5.78,14.1l-.588-.246-2.059.566L1.525,12.811,2.1,10.752l-.243-.589L0,9.106V6.828L1.862,5.78l.246-.588L1.543,3.133,3.151,1.526,5.21,2.1,5.8,1.858,6.853,0H9.128L10.18,1.862l.588.246,2.058-.566,1.61,1.607-.574,2.06.243.589,1.856,1.056V9.129L14.1,10.18l-.247.59Zm-2.1-2.157.632-1.507,1.558-.88V7.7l-1.558-.887L12.332,5.3l.481-1.723L12.4,3.164l-1.729.475L9.163,3.007,8.28,1.451H7.7L6.81,3.009,5.3,3.629,3.577,3.151l-.411.411.475,1.729L3.01,6.8l-1.558.879v.584l1.556.887.621,1.507L3.148,12.38l.411.411,1.729-.475,1.507.632.88,1.557h.583l.887-1.556,1.507-.621,1.724.481.412-.412Zm-4.34.212a2.9,2.9,0,1,1,2.9-2.9,2.9,2.9,0,0,1-2.9,2.9m0-1.451A1.451,1.451,0,1,0,6.53,7.981,1.451,1.451,0,0,0,7.981,9.432" transform="translate(-0.276 0.342)" fill-rule="evenodd"/>
  </g>
</svg>
