<svg xmlns="http://www.w3.org/2000/svg" width="24" height="30" viewBox="0 0 24 30">
  <g id="icon_appr_01" transform="translate(-40 -300)">
    <g id="icon" transform="translate(-1126 -13)">
      <path id="Shape_4" data-name="Shape 4" d="M375.337,415H359.366a3.378,3.378,0,0,1-3.367-3.37V390.371A3.379,3.379,0,0,1,359.366,387h1.677a2.334,2.334,0,0,1,2.313-2h9.292a2.333,2.333,0,0,1,2.314,2h1.67A3.379,3.379,0,0,1,380,390.371l0,12.657h-1.981V390.371a1.393,1.393,0,0,0-1.388-1.39h-1.668A2.357,2.357,0,0,1,372.645,391h-9.292a2.357,2.357,0,0,1-2.317-2.021h-1.674a1.391,1.391,0,0,0-1.388,1.39v21.258a1.391,1.391,0,0,0,1.388,1.39h15.67a3.544,3.544,0,0,0-.033.481,3.468,3.468,0,0,0,.336,1.5Zm-11.984-28a.354.354,0,0,0-.351.351v1.3a.352.352,0,0,0,.351.352h9.292a.352.352,0,0,0,.352-.352v-1.3a.353.353,0,0,0-.352-.351Zm4.224,17.634a.994.994,0,0,1-.683-.27l-4.3-4.1,1.366-1.462,3.615,3.454,4.472-4.253,1.366,1.461-5.155,4.9A1,1,0,0,1,367.577,404.636Z" transform="translate(810 -72)"/>
      <rect id="사각형_17599" data-name="사각형 17599" width="3" height="6" transform="translate(1187 333)" fill="#297cd3"/>
      <circle id="타원_76" data-name="타원 76" cx="1.5" cy="1.5" r="1.5" transform="translate(1187 340)" fill="#297cd3"/>
    </g>
  </g>
</svg>
