<svg xmlns="http://www.w3.org/2000/svg" width="16" height="16" viewBox="0 0 16 16">
  <g id="그룹_54998" data-name="그룹 54998" transform="translate(244 -1623)">
    <rect id="사각형_31894" data-name="사각형 31894" width="16" height="16" transform="translate(-244 1623)" fill="none"/>
    <g id="_5402361_bubble_chat_message_notification_comment_icon" data-name="5402361_bubble_chat_message_notification_comment_icon" transform="translate(-246.998 1620)" fill="none">
      <path d="M9.5,3A6.506,6.506,0,0,0,3,9.5a6.424,6.424,0,0,0,1.669,4.344L3.1,15.417a.322.322,0,0,0-.075.369A.342.342,0,0,0,3.341,16H9.5a6.5,6.5,0,1,0,0-13Z" stroke="none"/>
      <path d="M 9.499712944030762 4.200002670288086 C 6.580266952514648 4.203362464904785 4.202458381652832 6.581089973449707 4.199378967285156 9.503902435302734 C 4.194409370422363 10.81308174133301 4.676508903503418 12.06772232055664 5.556868553161621 13.03670215606689 L 6.324398994445801 13.88149261474609 L 5.411179542541504 14.79868125915527 L 9.49872875213623 14.79868125915527 C 12.42079925537109 14.79868125915527 14.7980785369873 12.42141151428223 14.7980785369873 9.49934196472168 C 14.7980785369873 6.577629089355469 12.42129325866699 4.200582504272461 9.499712944030762 4.200002670288086 M 9.49872875213623 3.000001907348633 C 13.08821868896484 3.000001907348633 15.99807929992676 5.909852027893066 15.99807929992676 9.49934196472168 C 15.99807929992676 13.08883190155029 13.08821868896484 15.99868202209473 9.49872875213623 15.99868202209473 L 3.341459274291992 15.99868202209473 C 3.203369140625 15.99799156188965 3.079229354858398 15.91434192657471 3.026759147644043 15.78660202026367 C 2.969438552856445 15.66012191772461 2.999789237976074 15.51114177703857 3.102008819580078 15.41716194152832 L 4.668699264526367 13.84364128112793 C 3.588838577270508 12.6550817489624 2.993288993835449 11.10518264770508 2.999388694763184 9.49934196472168 C 3.003158569335938 5.911412239074707 5.910808563232422 3.003771781921387 9.49872875213623 3.000001907348633 Z" stroke="none" fill="#8f8e93"/>
    </g>
    <path id="빼기_7" data-name="빼기 7" d="M14.657,14.5H8.5A6.464,6.464,0,0,1,3.376,12H6.5a6.5,6.5,0,0,0,5.923-9.178,6.49,6.49,0,0,1,.905,9.521L14.9,13.917a.32.32,0,0,1,.076.369A.343.343,0,0,1,14.657,14.5Z" transform="translate(-243 1624.501)" fill="#8f8e93"/>
  </g>
</svg>
