<svg xmlns="http://www.w3.org/2000/svg" width="16" height="16" viewBox="0 0 16 16">
  <g id="그룹_54997" data-name="그룹 54997" transform="translate(522 -1527)">
    <rect id="사각형_31893" data-name="사각형 31893" width="16" height="16" transform="translate(-522 1527)" fill="none"/>
    <g id="Layer_43" data-name="Layer 43" transform="translate(-526 1526)">
      <path id="패스_55341" data-name="패스 55341" d="M11.2,17A3.2,3.2,0,0,1,8,13.8V5.267a4.267,4.267,0,1,1,8.533,0V15.4a.533.533,0,1,1-1.067,0V5.267a3.2,3.2,0,0,0-6.4,0V13.8a2.133,2.133,0,1,0,4.267,0v-8a1.067,1.067,0,1,0-2.133,0v6.933a.533.533,0,1,1-1.067,0V5.8a2.133,2.133,0,1,1,4.267,0v8A3.2,3.2,0,0,1,11.2,17Z" fill="#8f8e93"/>
    </g>
  </g>
</svg>
