<svg xmlns="http://www.w3.org/2000/svg" width="20" height="20" viewBox="0 0 20 20">
  <g id="icon_setting_n" transform="translate(0 0)">
    <rect id="사각형_1017" data-name="사각형 1017" width="20" height="20" transform="translate(0 0)" fill="none"/>
    <g id="그룹_2358" data-name="그룹 2358" transform="translate(0 0)">
      <g id="그룹_2359" data-name="그룹 2359" transform="translate(0.365 0.365)">
        <path id="패스_8817" data-name="패스 8817" d="M19.143,11.469V8.423L16.876,8.01a7.127,7.127,0,0,0-.66-1.6l1.31-1.892L15.372,2.366,13.48,3.676a7.153,7.153,0,0,0-1.6-.659L11.469.75H8.423L8.011,3.017a7.158,7.158,0,0,0-1.6.659L4.521,2.366,2.367,4.521,3.676,6.413a7.127,7.127,0,0,0-.66,1.6L.75,8.423v3.046l2.267.412a7.143,7.143,0,0,0,.66,1.6L2.367,15.372l2.154,2.154,1.892-1.309a7.16,7.16,0,0,0,1.6.66l.412,2.267h3.046l.413-2.267a7.155,7.155,0,0,0,1.6-.66l1.892,1.309,2.154-2.154-1.31-1.892a7.143,7.143,0,0,0,.66-1.6Z" transform="translate(-0.279 -0.279)" fill="none" stroke="#000" stroke-linejoin="bevel" stroke-width="1.5"/>
        <circle id="타원_61" data-name="타원 61" cx="3.997" cy="3.997" r="3.997" transform="translate(5.671 5.671)" fill="none" stroke="#000" stroke-linejoin="bevel" stroke-width="1.5"/>
      </g>
    </g>
  </g>
</svg>
