<svg xmlns="http://www.w3.org/2000/svg" width="16" height="16.002" viewBox="0 0 16 16.002">
  <g id="icon_fillter" transform="translate(-340 -140)">
    <path id="필터_1" d="M372.667,198l-5.333-2.742v-6.272l-4.921-3.2a.915.915,0,0,1-.412-.767v-.955A2.142,2.142,0,0,1,364.207,182h11.585A2.142,2.142,0,0,1,378,184.063v.955a.915.915,0,0,1-.412.767l-4.921,3.2Zm-3.556-3.556,1.778.889v-6.846a.915.915,0,0,1,.412-.768l4.921-3.2v-.456c0-.087-.163-.246-.43-.246H364.207c-.258,0-.43.148-.43.246v.456l4.922,3.2a.915.915,0,0,1,.412.768Zm8-9.426h0Z" transform="translate(-22 -41.998)" fill="#4c4d4f"/>
  </g>
</svg>
