<svg xmlns="http://www.w3.org/2000/svg" width="19" height="21" viewBox="0 0 19 21">
  <g id="icon_header_notice" transform="translate(-40 -4.524)">
    <rect id="사각형_933" data-name="사각형 933" width="19" height="21" transform="translate(40 4.524)" fill="none"/>
    <path id="패스_936" data-name="패스 936" d="M17.011,33.438A1.684,1.684,0,0,0,18.638,32H15.32A1.684,1.684,0,0,0,17.011,33.438Z" transform="translate(32.421 -7.914)" fill="#3c4048"/>
    <path id="패스_937" data-name="패스 937" d="M21.849,18.4l-.214-.189a9.065,9.065,0,0,1-1.583-1.848,7.968,7.968,0,0,1-.852-3.034V10.212a6.888,6.888,0,0,0-.1-1.129A4.731,4.731,0,0,1,15.32,4.44v-.4a6.668,6.668,0,0,0-2.094-.631V2.617a.842.842,0,1,0-1.684,0v.826a6.819,6.819,0,0,0-5.867,6.769v3.116a7.968,7.968,0,0,1-.852,3.034,9.084,9.084,0,0,1-1.558,1.848L3.05,18.4V20.18h18.8Z" transform="translate(36.95 2.749)" fill="#3c4048"/>
    <path id="패스_8816" data-name="패스 8816" d="M3.05,18.4l.214-.189a9.065,9.065,0,0,0,1.583-1.848A7.968,7.968,0,0,0,5.7,13.329V10.212a6.888,6.888,0,0,1,.1-1.129A4.731,4.731,0,0,0,9.579,4.44v-.4a6.668,6.668,0,0,1,2.094-.631V2.617a.842.842,0,1,1,1.684,0v.826a6.819,6.819,0,0,1,5.867,6.769v3.116a7.968,7.968,0,0,0,.852,3.034,9.084,9.084,0,0,0,1.558,1.848l.214.189V20.18H3.05Z" transform="translate(36.95 2.749)" fill="#3c4048"/>
  </g>
</svg>
